<?xml version="1.0" encoding="UTF-8" standalone="no"?>
<!DOCTYPE svg PUBLIC "-//W3C//DTD SVG 1.1//EN"
 "http://www.w3.org/Graphics/SVG/1.1/DTD/svg11.dtd">
<!-- Generated by graphviz version 2.40.1 (20161225.0304)
 -->
<!-- Title: dependencies Pages: 1 -->
<svg width="1806pt" height="211pt"
 viewBox="0.00 0.00 1806.00 211.00" xmlns="http://www.w3.org/2000/svg" xmlns:xlink="http://www.w3.org/1999/xlink">
<g id="graph0" class="graph" transform="scale(1 1) rotate(0) translate(4 207)">
<title>dependencies</title>
<polygon fill="#ffffff" stroke="transparent" points="-4,4 -4,-207 1802,-207 1802,4 -4,4"/>
<text text-anchor="start" x="878.0091" y="-42.4" font-family="sans-serif" font-weight="bold" font-size="14.00" fill="#000000">Legend</text>
<polygon fill="#ffffb3" stroke="transparent" points="665,-10 665,-30 685,-30 685,-10 665,-10"/>
<text text-anchor="start" x="688.629" y="-15.4" font-family="sans-serif" font-size="14.00" fill="#000000"> &#160;Declarations</text>
<polygon fill="#8dd3c7" stroke="transparent" points="778,-10 778,-30 798,-30 798,-10 778,-10"/>
<text text-anchor="start" x="801.7251" y="-15.4" font-family="sans-serif" font-size="14.00" fill="#000000"> &#160;Module</text>
<polygon fill="#80b1d3" stroke="transparent" points="864,-10 864,-30 884,-30 884,-10 864,-10"/>
<text text-anchor="start" x="887.7812" y="-15.4" font-family="sans-serif" font-size="14.00" fill="#000000"> &#160;Bootstrap</text>
<polygon fill="#fdb462" stroke="transparent" points="961,-10 961,-30 981,-30 981,-10 961,-10"/>
<text text-anchor="start" x="984.6732" y="-15.4" font-family="sans-serif" font-size="14.00" fill="#000000"> &#160;Providers</text>
<polygon fill="#fb8072" stroke="transparent" points="1057,-10 1057,-30 1077,-30 1077,-10 1057,-10"/>
<text text-anchor="start" x="1080.7258" y="-15.4" font-family="sans-serif" font-size="14.00" fill="#000000"> &#160;Exports</text>
<g id="clust1" class="cluster">
<title>cluster_CoreModule</title>
<polygon fill="none" stroke="#000000" stroke-dasharray="1,5" points="8,-70 8,-195 1790,-195 1790,-70 8,-70"/>
</g>
<g id="clust6" class="cluster">
<title>cluster_CoreModule_providers</title>
<polygon fill="none" stroke="#000000" points="16,-78 16,-130 1782,-130 1782,-78 16,-78"/>
</g>
<!-- AuthInterceptor -->
<g id="node1" class="node">
<title>AuthInterceptor</title>
<ellipse fill="#fdb462" stroke="#000000" cx="1701" cy="-104" rx="72.9121" ry="18"/>
<text text-anchor="middle" x="1701" y="-99.8" font-family="Times,serif" font-size="14.00" fill="#000000">AuthInterceptor</text>
</g>
<!-- CoreModule -->
<g id="node11" class="node">
<title>CoreModule</title>
<polygon fill="#8dd3c7" stroke="#000000" points="1071.2619,-187 1068.2619,-191 1047.2619,-191 1044.2619,-187 984.7381,-187 984.7381,-151 1071.2619,-151 1071.2619,-187"/>
<text text-anchor="middle" x="1028" y="-164.8" font-family="Times,serif" font-size="14.00" fill="#000000">CoreModule</text>
</g>
<!-- AuthInterceptor&#45;&gt;CoreModule -->
<g id="edge1" class="edge">
<title>AuthInterceptor&#45;&gt;CoreModule</title>
<path fill="none" stroke="#000000" d="M1701,-122.0109C1701,-144.4852 1701,-180 1701,-180 1701,-180 1081.3806,-180 1081.3806,-180"/>
<polygon fill="#000000" stroke="#000000" points="1081.3806,-176.5001 1071.3806,-180 1081.3805,-183.5001 1081.3806,-176.5001"/>
</g>
<!-- CoreService -->
<g id="node2" class="node">
<title>CoreService</title>
<ellipse fill="#fdb462" stroke="#000000" cx="1552" cy="-104" rx="58.5251" ry="18"/>
<text text-anchor="middle" x="1552" y="-99.8" font-family="Times,serif" font-size="14.00" fill="#000000">CoreService</text>
</g>
<!-- CoreService&#45;&gt;CoreModule -->
<g id="edge2" class="edge">
<title>CoreService&#45;&gt;CoreModule</title>
<path fill="none" stroke="#000000" d="M1552,-122.1289C1552,-142.5724 1552,-173 1552,-173 1552,-173 1081.3269,-173 1081.3269,-173"/>
<polygon fill="#000000" stroke="#000000" points="1081.327,-169.5001 1071.3269,-173 1081.3269,-176.5001 1081.327,-169.5001"/>
</g>
<!-- EnteService -->
<g id="node3" class="node">
<title>EnteService</title>
<ellipse fill="#fdb462" stroke="#000000" cx="1418" cy="-104" rx="57.881" ry="18"/>
<text text-anchor="middle" x="1418" y="-99.8" font-family="Times,serif" font-size="14.00" fill="#000000">EnteService</text>
</g>
<!-- EnteService&#45;&gt;CoreModule -->
<g id="edge3" class="edge">
<title>EnteService&#45;&gt;CoreModule</title>
<path fill="none" stroke="#000000" d="M1418,-122.2667C1418,-140.5552 1418,-166 1418,-166 1418,-166 1081.6027,-166 1081.6027,-166"/>
<polygon fill="#000000" stroke="#000000" points="1081.6028,-162.5001 1071.6027,-166 1081.6027,-169.5001 1081.6028,-162.5001"/>
</g>
<!-- IdiomaService -->
<g id="node4" class="node">
<title>IdiomaService</title>
<ellipse fill="#fdb462" stroke="#000000" cx="1275" cy="-104" rx="67.1927" ry="18"/>
<text text-anchor="middle" x="1275" y="-99.8" font-family="Times,serif" font-size="14.00" fill="#000000">IdiomaService</text>
</g>
<!-- IdiomaService&#45;&gt;CoreModule -->
<g id="edge4" class="edge">
<title>IdiomaService&#45;&gt;CoreModule</title>
<path fill="none" stroke="#000000" d="M1275,-122.0091C1275,-138.0494 1275,-159 1275,-159 1275,-159 1081.3068,-159 1081.3068,-159"/>
<polygon fill="#000000" stroke="#000000" points="1081.3068,-155.5001 1071.3068,-159 1081.3067,-162.5001 1081.3068,-155.5001"/>
</g>
<!-- InscripcionService -->
<g id="node5" class="node">
<title>InscripcionService</title>
<ellipse fill="#fdb462" stroke="#000000" cx="1106" cy="-104" rx="83.3635" ry="18"/>
<text text-anchor="middle" x="1106" y="-99.8" font-family="Times,serif" font-size="14.00" fill="#000000">InscripcionService</text>
</g>
<!-- InscripcionService&#45;&gt;CoreModule -->
<g id="edge5" class="edge">
<title>InscripcionService&#45;&gt;CoreModule</title>
<path fill="none" stroke="#000000" d="M1046.9745,-116.8419C1046.9745,-116.8419 1046.9745,-140.5231 1046.9745,-140.5231"/>
<polygon fill="#000000" stroke="#000000" points="1043.4746,-140.523 1046.9745,-150.5231 1050.4746,-140.5231 1043.4746,-140.523"/>
</g>
<!-- ListService -->
<g id="node6" class="node">
<title>ListService</title>
<ellipse fill="#fdb462" stroke="#000000" cx="950" cy="-104" rx="55.0285" ry="18"/>
<text text-anchor="middle" x="950" y="-99.8" font-family="Times,serif" font-size="14.00" fill="#000000">ListService</text>
</g>
<!-- ListService&#45;&gt;CoreModule -->
<g id="edge6" class="edge">
<title>ListService&#45;&gt;CoreModule</title>
<path fill="none" stroke="#000000" d="M994.8167,-114.4434C994.8167,-114.4434 994.8167,-140.9681 994.8167,-140.9681"/>
<polygon fill="#000000" stroke="#000000" points="991.3168,-140.968 994.8167,-150.9681 998.3168,-140.9681 991.3168,-140.968"/>
</g>
<!-- PersonaService -->
<g id="node7" class="node">
<title>PersonaService</title>
<ellipse fill="#fdb462" stroke="#000000" cx="806" cy="-104" rx="70.622" ry="18"/>
<text text-anchor="middle" x="806" y="-99.8" font-family="Times,serif" font-size="14.00" fill="#000000">PersonaService</text>
</g>
<!-- PersonaService&#45;&gt;CoreModule -->
<g id="edge7" class="edge">
<title>PersonaService&#45;&gt;CoreModule</title>
<path fill="none" stroke="#000000" d="M806,-122.0091C806,-138.0494 806,-159 806,-159 806,-159 974.6692,-159 974.6692,-159"/>
<polygon fill="#000000" stroke="#000000" points="974.6692,-162.5001 984.6692,-159 974.6691,-155.5001 974.6692,-162.5001"/>
</g>
<!-- ProduccionAcademicaService -->
<g id="node8" class="node">
<title>ProduccionAcademicaService</title>
<ellipse fill="#fdb462" stroke="#000000" cx="590" cy="-104" rx="127.3074" ry="18"/>
<text text-anchor="middle" x="590" y="-99.8" font-family="Times,serif" font-size="14.00" fill="#000000">ProduccionAcademicaService</text>
</g>
<!-- ProduccionAcademicaService&#45;&gt;CoreModule -->
<g id="edge8" class="edge">
<title>ProduccionAcademicaService&#45;&gt;CoreModule</title>
<path fill="none" stroke="#000000" d="M590,-122.2667C590,-140.5552 590,-166 590,-166 590,-166 974.4016,-166 974.4016,-166"/>
<polygon fill="#000000" stroke="#000000" points="974.4016,-169.5001 984.4016,-166 974.4016,-162.5001 974.4016,-169.5001"/>
</g>
<!-- ProgramaAcademicoService -->
<g id="node9" class="node">
<title>ProgramaAcademicoService</title>
<ellipse fill="#fdb462" stroke="#000000" cx="323" cy="-104" rx="121.5065" ry="18"/>
<text text-anchor="middle" x="323" y="-99.8" font-family="Times,serif" font-size="14.00" fill="#000000">ProgramaAcademicoService</text>
</g>
<!-- ProgramaAcademicoService&#45;&gt;CoreModule -->
<g id="edge9" class="edge">
<title>ProgramaAcademicoService&#45;&gt;CoreModule</title>
<path fill="none" stroke="#000000" d="M323,-122.1289C323,-142.5724 323,-173 323,-173 323,-173 974.6961,-173 974.6961,-173"/>
<polygon fill="#000000" stroke="#000000" points="974.6961,-176.5001 984.6961,-173 974.6961,-169.5001 974.6961,-176.5001"/>
</g>
<!-- UbicacionService -->
<g id="node10" class="node">
<title>UbicacionService</title>
<ellipse fill="#fdb462" stroke="#000000" cx="104" cy="-104" rx="79.8527" ry="18"/>
<text text-anchor="middle" x="104" y="-99.8" font-family="Times,serif" font-size="14.00" fill="#000000">UbicacionService</text>
</g>
<!-- UbicacionService&#45;&gt;CoreModule -->
<g id="edge10" class="edge">
<title>UbicacionService&#45;&gt;CoreModule</title>
<path fill="none" stroke="#000000" d="M104,-122.0109C104,-144.4852 104,-180 104,-180 104,-180 974.6729,-180 974.6729,-180"/>
<polygon fill="#000000" stroke="#000000" points="974.6729,-183.5001 984.6729,-180 974.6729,-176.5001 974.6729,-183.5001"/>
</g>
</g>
</svg>
