<?xml version="1.0" encoding="UTF-8" standalone="no"?>
<!DOCTYPE svg PUBLIC "-//W3C//DTD SVG 1.1//EN"
 "http://www.w3.org/Graphics/SVG/1.1/DTD/svg11.dtd">
<!-- Generated by graphviz version 2.40.1 (20161225.0304)
 -->
<!-- Title: dependencies Pages: 1 -->
<svg width="2168pt" height="284pt"
 viewBox="0.00 0.00 2168.00 284.00" xmlns="http://www.w3.org/2000/svg" xmlns:xlink="http://www.w3.org/1999/xlink">
<g id="graph0" class="graph" transform="scale(1 1) rotate(0) translate(4 280)">
<title>dependencies</title>
<polygon fill="#ffffff" stroke="transparent" points="-4,4 -4,-280 2164,-280 2164,4 -4,4"/>
<text text-anchor="start" x="1059.0091" y="-42.4" font-family="sans-serif" font-weight="bold" font-size="14.00" fill="#000000">Legend</text>
<polygon fill="#ffffb3" stroke="transparent" points="846,-10 846,-30 866,-30 866,-10 846,-10"/>
<text text-anchor="start" x="869.629" y="-15.4" font-family="sans-serif" font-size="14.00" fill="#000000"> &#160;Declarations</text>
<polygon fill="#8dd3c7" stroke="transparent" points="959,-10 959,-30 979,-30 979,-10 959,-10"/>
<text text-anchor="start" x="982.7251" y="-15.4" font-family="sans-serif" font-size="14.00" fill="#000000"> &#160;Module</text>
<polygon fill="#80b1d3" stroke="transparent" points="1045,-10 1045,-30 1065,-30 1065,-10 1045,-10"/>
<text text-anchor="start" x="1068.7812" y="-15.4" font-family="sans-serif" font-size="14.00" fill="#000000"> &#160;Bootstrap</text>
<polygon fill="#fdb462" stroke="transparent" points="1142,-10 1142,-30 1162,-30 1162,-10 1142,-10"/>
<text text-anchor="start" x="1165.6732" y="-15.4" font-family="sans-serif" font-size="14.00" fill="#000000"> &#160;Providers</text>
<polygon fill="#fb8072" stroke="transparent" points="1238,-10 1238,-30 1258,-30 1258,-10 1238,-10"/>
<text text-anchor="start" x="1261.7258" y="-15.4" font-family="sans-serif" font-size="14.00" fill="#000000"> &#160;Exports</text>
<g id="clust1" class="cluster">
<title>cluster_ProduccionAcademicaModule</title>
<polygon fill="none" stroke="#000000" stroke-dasharray="1,5" points="8,-70 8,-268 2152,-268 2152,-70 8,-70"/>
</g>
<g id="clust2" class="cluster">
<title>cluster_ProduccionAcademicaModule_declarations</title>
<polygon fill="none" stroke="#000000" points="1226,-78 1226,-130 2144,-130 2144,-78 1226,-78"/>
</g>
<g id="clust7" class="cluster">
<title>cluster_ProduccionAcademicaModule_imports</title>
<polygon fill="none" stroke="#000000" points="738,-78 738,-130 1218,-130 1218,-78 738,-78"/>
</g>
<g id="clust8" class="cluster">
<title>cluster_ProduccionAcademicaModule_exports</title>
<polygon fill="none" stroke="#000000" points="659,-208 659,-260 1166,-260 1166,-208 659,-208"/>
</g>
<g id="clust10" class="cluster">
<title>cluster_ProduccionAcademicaModule_providers</title>
<polygon fill="none" stroke="#000000" points="16,-78 16,-130 730,-130 730,-78 16,-78"/>
</g>
<!-- CrudExperienciaLaboralComponent -->
<g id="node1" class="node">
<title>CrudExperienciaLaboralComponent</title>
<polygon fill="#ffffb3" stroke="#000000" points="2135.7156,-122 1916.2844,-122 1916.2844,-86 2135.7156,-86 2135.7156,-122"/>
<text text-anchor="middle" x="2026" y="-99.8" font-family="Times,serif" font-size="14.00" fill="#000000">CrudExperienciaLaboralComponent</text>
</g>
<!-- ProduccionAcademicaModule -->
<g id="node5" class="node">
<title>ProduccionAcademicaModule</title>
<polygon fill="#8dd3c7" stroke="#000000" points="1004.2738,-187 1001.2738,-191 980.2738,-191 977.2738,-187 817.7262,-187 817.7262,-151 1004.2738,-151 1004.2738,-187"/>
<text text-anchor="middle" x="911" y="-164.8" font-family="Times,serif" font-size="14.00" fill="#000000">ProduccionAcademicaModule</text>
</g>
<!-- CrudExperienciaLaboralComponent&#45;&gt;ProduccionAcademicaModule -->
<g id="edge1" class="edge">
<title>CrudExperienciaLaboralComponent&#45;&gt;ProduccionAcademicaModule</title>
<path fill="none" stroke="#000000" d="M2026,-122.0109C2026,-144.4852 2026,-180 2026,-180 2026,-180 1014.1465,-180 1014.1465,-180"/>
<polygon fill="#000000" stroke="#000000" points="1014.1465,-176.5001 1004.1465,-180 1014.1464,-183.5001 1014.1465,-176.5001"/>
</g>
<!-- ExperienciaLaboralComponent -->
<g id="node2" class="node">
<title>ExperienciaLaboralComponent</title>
<polygon fill="#ffffb3" stroke="#000000" points="1897.7184,-122 1706.2816,-122 1706.2816,-86 1897.7184,-86 1897.7184,-122"/>
<text text-anchor="middle" x="1802" y="-99.8" font-family="Times,serif" font-size="14.00" fill="#000000">ExperienciaLaboralComponent</text>
</g>
<!-- ExperienciaLaboralComponent&#45;&gt;ProduccionAcademicaModule -->
<g id="edge2" class="edge">
<title>ExperienciaLaboralComponent&#45;&gt;ProduccionAcademicaModule</title>
<path fill="none" stroke="#000000" d="M1802,-122.1289C1802,-142.5724 1802,-173 1802,-173 1802,-173 1014.2495,-173 1014.2495,-173"/>
<polygon fill="#000000" stroke="#000000" points="1014.2495,-169.5001 1004.2495,-173 1014.2494,-176.5001 1014.2495,-169.5001"/>
</g>
<!-- ListExperienciaLaboralComponent -->
<g id="node3" class="node">
<title>ListExperienciaLaboralComponent</title>
<polygon fill="#ffffb3" stroke="#000000" points="1687.9972,-122 1474.0028,-122 1474.0028,-86 1687.9972,-86 1687.9972,-122"/>
<text text-anchor="middle" x="1581" y="-99.8" font-family="Times,serif" font-size="14.00" fill="#000000">ListExperienciaLaboralComponent</text>
</g>
<!-- ListExperienciaLaboralComponent&#45;&gt;ProduccionAcademicaModule -->
<g id="edge3" class="edge">
<title>ListExperienciaLaboralComponent&#45;&gt;ProduccionAcademicaModule</title>
<path fill="none" stroke="#000000" d="M1581,-122.2667C1581,-140.5552 1581,-166 1581,-166 1581,-166 1014.1606,-166 1014.1606,-166"/>
<polygon fill="#000000" stroke="#000000" points="1014.1607,-162.5001 1004.1606,-166 1014.1606,-169.5001 1014.1607,-162.5001"/>
</g>
<!-- ViewExperienciaLaboralComponent -->
<g id="node4" class="node">
<title>ViewExperienciaLaboralComponent</title>
<polygon fill="#ffffb3" stroke="#000000" points="1456.0366,-122 1233.9634,-122 1233.9634,-86 1456.0366,-86 1456.0366,-122"/>
<text text-anchor="middle" x="1345" y="-99.8" font-family="Times,serif" font-size="14.00" fill="#000000">ViewExperienciaLaboralComponent</text>
</g>
<!-- ViewExperienciaLaboralComponent&#45;&gt;ProduccionAcademicaModule -->
<g id="edge4" class="edge">
<title>ViewExperienciaLaboralComponent&#45;&gt;ProduccionAcademicaModule</title>
<path fill="none" stroke="#000000" d="M1345,-122.0091C1345,-138.0494 1345,-159 1345,-159 1345,-159 1014.3704,-159 1014.3704,-159"/>
<polygon fill="#000000" stroke="#000000" points="1014.3705,-155.5001 1004.3704,-159 1014.3704,-162.5001 1014.3705,-155.5001"/>
</g>
<!-- CrudProduccionAcademicaComponent  -->
<g id="node9" class="node">
<title>CrudProduccionAcademicaComponent </title>
<polygon fill="#fb8072" stroke="#000000" points="1157.5538,-252 918.4462,-252 918.4462,-216 1157.5538,-216 1157.5538,-252"/>
<text text-anchor="middle" x="1038" y="-229.8" font-family="Times,serif" font-size="14.00" fill="#000000">CrudProduccionAcademicaComponent </text>
</g>
<!-- ProduccionAcademicaModule&#45;&gt;CrudProduccionAcademicaComponent  -->
<g id="edge8" class="edge">
<title>ProduccionAcademicaModule&#45;&gt;CrudProduccionAcademicaComponent </title>
<path fill="none" stroke="#000000" stroke-dasharray="5,2" d="M961.1801,-187.1061C961.1801,-187.1061 961.1801,-205.991 961.1801,-205.991"/>
<polygon fill="#000000" stroke="#000000" points="957.6801,-205.9909 961.1801,-215.991 964.6801,-205.991 957.6801,-205.9909"/>
</g>
<!-- ListProduccionAcademicaComponent  -->
<g id="node10" class="node">
<title>ListProduccionAcademicaComponent </title>
<polygon fill="#fb8072" stroke="#000000" points="900.8348,-252 667.1652,-252 667.1652,-216 900.8348,-216 900.8348,-252"/>
<text text-anchor="middle" x="784" y="-229.8" font-family="Times,serif" font-size="14.00" fill="#000000">ListProduccionAcademicaComponent </text>
</g>
<!-- ProduccionAcademicaModule&#45;&gt;ListProduccionAcademicaComponent  -->
<g id="edge9" class="edge">
<title>ProduccionAcademicaModule&#45;&gt;ListProduccionAcademicaComponent </title>
<path fill="none" stroke="#000000" stroke-dasharray="5,2" d="M859.2653,-187.1061C859.2653,-187.1061 859.2653,-205.991 859.2653,-205.991"/>
<polygon fill="#000000" stroke="#000000" points="855.7653,-205.9909 859.2653,-215.991 862.7653,-205.991 855.7653,-205.9909"/>
</g>
<!-- ProduccionAcademicaRoutingModule -->
<g id="node6" class="node">
<title>ProduccionAcademicaRoutingModule</title>
<polygon fill="#8dd3c7" stroke="#000000" points="1209.8917,-122 1206.8917,-126 1185.8917,-126 1182.8917,-122 978.1083,-122 978.1083,-86 1209.8917,-86 1209.8917,-122"/>
<text text-anchor="middle" x="1094" y="-99.8" font-family="Times,serif" font-size="14.00" fill="#000000">ProduccionAcademicaRoutingModule</text>
</g>
<!-- ProduccionAcademicaRoutingModule&#45;&gt;ProduccionAcademicaModule -->
<g id="edge5" class="edge">
<title>ProduccionAcademicaRoutingModule&#45;&gt;ProduccionAcademicaModule</title>
<path fill="none" stroke="#000000" d="M991.2206,-122.1061C991.2206,-122.1061 991.2206,-140.991 991.2206,-140.991"/>
<polygon fill="#000000" stroke="#000000" points="987.7206,-140.9909 991.2206,-150.991 994.7206,-140.991 987.7206,-140.9909"/>
</g>
<!-- SharedModule -->
<g id="node7" class="node">
<title>SharedModule</title>
<polygon fill="#8dd3c7" stroke="#000000" points="960.4231,-122 957.4231,-126 936.4231,-126 933.4231,-122 861.5769,-122 861.5769,-86 960.4231,-86 960.4231,-122"/>
<text text-anchor="middle" x="911" y="-99.8" font-family="Times,serif" font-size="14.00" fill="#000000">SharedModule</text>
</g>
<!-- SharedModule&#45;&gt;ProduccionAcademicaModule -->
<g id="edge6" class="edge">
<title>SharedModule&#45;&gt;ProduccionAcademicaModule</title>
<path fill="none" stroke="#000000" d="M911,-122.1061C911,-122.1061 911,-140.991 911,-140.991"/>
<polygon fill="#000000" stroke="#000000" points="907.5001,-140.9909 911,-150.991 914.5001,-140.991 907.5001,-140.9909"/>
</g>
<!-- ThemeModule -->
<g id="node8" class="node">
<title>ThemeModule</title>
<polygon fill="#8dd3c7" stroke="#000000" points="844.4231,-122 841.4231,-126 820.4231,-126 817.4231,-122 745.5769,-122 745.5769,-86 844.4231,-86 844.4231,-122"/>
<text text-anchor="middle" x="795" y="-99.8" font-family="Times,serif" font-size="14.00" fill="#000000">ThemeModule</text>
</g>
<!-- ThemeModule&#45;&gt;ProduccionAcademicaModule -->
<g id="edge7" class="edge">
<title>ThemeModule&#45;&gt;ProduccionAcademicaModule</title>
<path fill="none" stroke="#000000" d="M831.0372,-122.1061C831.0372,-122.1061 831.0372,-140.991 831.0372,-140.991"/>
<polygon fill="#000000" stroke="#000000" points="827.5372,-140.9909 831.0372,-150.991 834.5372,-140.991 827.5372,-140.9909"/>
</g>
<!-- NuxeoService -->
<g id="node11" class="node">
<title>NuxeoService</title>
<ellipse fill="#fdb462" stroke="#000000" cx="656" cy="-104" rx="65.9716" ry="18"/>
<text text-anchor="middle" x="656" y="-99.8" font-family="Times,serif" font-size="14.00" fill="#000000">NuxeoService</text>
</g>
<!-- NuxeoService&#45;&gt;ProduccionAcademicaModule -->
<g id="edge10" class="edge">
<title>NuxeoService&#45;&gt;ProduccionAcademicaModule</title>
<path fill="none" stroke="#000000" d="M694.534,-118.739C694.534,-135.0307 694.534,-159 694.534,-159 694.534,-159 807.6283,-159 807.6283,-159"/>
<polygon fill="#000000" stroke="#000000" points="807.6284,-162.5001 817.6283,-159 807.6283,-155.5001 807.6284,-162.5001"/>
</g>
<!-- PersonaService -->
<g id="node12" class="node">
<title>PersonaService</title>
<ellipse fill="#fdb462" stroke="#000000" cx="502" cy="-104" rx="70.622" ry="18"/>
<text text-anchor="middle" x="502" y="-99.8" font-family="Times,serif" font-size="14.00" fill="#000000">PersonaService</text>
</g>
<!-- PersonaService&#45;&gt;ProduccionAcademicaModule -->
<g id="edge11" class="edge">
<title>PersonaService&#45;&gt;ProduccionAcademicaModule</title>
<path fill="none" stroke="#000000" d="M502,-122.2667C502,-140.5552 502,-166 502,-166 502,-166 807.6798,-166 807.6798,-166"/>
<polygon fill="#000000" stroke="#000000" points="807.6798,-169.5001 817.6798,-166 807.6798,-162.5001 807.6798,-169.5001"/>
</g>
<!-- ProduccionAcademicaService -->
<g id="node13" class="node">
<title>ProduccionAcademicaService</title>
<ellipse fill="#fdb462" stroke="#000000" cx="286" cy="-104" rx="127.3074" ry="18"/>
<text text-anchor="middle" x="286" y="-99.8" font-family="Times,serif" font-size="14.00" fill="#000000">ProduccionAcademicaService</text>
</g>
<!-- ProduccionAcademicaService&#45;&gt;ProduccionAcademicaModule -->
<g id="edge12" class="edge">
<title>ProduccionAcademicaService&#45;&gt;ProduccionAcademicaModule</title>
<path fill="none" stroke="#000000" d="M286,-122.1289C286,-142.5724 286,-173 286,-173 286,-173 807.7689,-173 807.7689,-173"/>
<polygon fill="#000000" stroke="#000000" points="807.7689,-176.5001 817.7689,-173 807.7688,-169.5001 807.7689,-176.5001"/>
</g>
<!-- UserService -->
<g id="node14" class="node">
<title>UserService</title>
<ellipse fill="#fdb462" stroke="#000000" cx="82" cy="-104" rx="58.4415" ry="18"/>
<text text-anchor="middle" x="82" y="-99.8" font-family="Times,serif" font-size="14.00" fill="#000000">UserService</text>
</g>
<!-- UserService&#45;&gt;ProduccionAcademicaModule -->
<g id="edge13" class="edge">
<title>UserService&#45;&gt;ProduccionAcademicaModule</title>
<path fill="none" stroke="#000000" d="M82,-122.0109C82,-144.4852 82,-180 82,-180 82,-180 807.5146,-180 807.5146,-180"/>
<polygon fill="#000000" stroke="#000000" points="807.5147,-183.5001 817.5146,-180 807.5146,-176.5001 807.5147,-183.5001"/>
</g>
</g>
</svg>
