<?xml version="1.0" encoding="UTF-8" standalone="no"?>
<!DOCTYPE svg PUBLIC "-//W3C//DTD SVG 1.1//EN"
 "http://www.w3.org/Graphics/SVG/1.1/DTD/svg11.dtd">
<!-- Generated by graphviz version 2.40.1 (20161225.0304)
 -->
<!-- Title: dependencies Pages: 1 -->
<svg width="718pt" height="211pt"
 viewBox="0.00 0.00 718.00 211.00" xmlns="http://www.w3.org/2000/svg" xmlns:xlink="http://www.w3.org/1999/xlink">
<g id="graph0" class="graph" transform="scale(1 1) rotate(0) translate(4 207)">
<title>dependencies</title>
<polygon fill="#ffffff" stroke="transparent" points="-4,4 -4,-207 714,-207 714,4 -4,4"/>
<text text-anchor="start" x="334.0091" y="-42.4" font-family="sans-serif" font-weight="bold" font-size="14.00" fill="#000000">Legend</text>
<polygon fill="#ffffb3" stroke="transparent" points="121,-10 121,-30 141,-30 141,-10 121,-10"/>
<text text-anchor="start" x="144.629" y="-15.4" font-family="sans-serif" font-size="14.00" fill="#000000"> &#160;Declarations</text>
<polygon fill="#8dd3c7" stroke="transparent" points="234,-10 234,-30 254,-30 254,-10 234,-10"/>
<text text-anchor="start" x="257.7251" y="-15.4" font-family="sans-serif" font-size="14.00" fill="#000000"> &#160;Module</text>
<polygon fill="#80b1d3" stroke="transparent" points="320,-10 320,-30 340,-30 340,-10 320,-10"/>
<text text-anchor="start" x="343.7812" y="-15.4" font-family="sans-serif" font-size="14.00" fill="#000000"> &#160;Bootstrap</text>
<polygon fill="#fdb462" stroke="transparent" points="417,-10 417,-30 437,-30 437,-10 417,-10"/>
<text text-anchor="start" x="440.6732" y="-15.4" font-family="sans-serif" font-size="14.00" fill="#000000"> &#160;Providers</text>
<polygon fill="#fb8072" stroke="transparent" points="513,-10 513,-30 533,-30 533,-10 513,-10"/>
<text text-anchor="start" x="536.7258" y="-15.4" font-family="sans-serif" font-size="14.00" fill="#000000"> &#160;Exports</text>
<g id="clust1" class="cluster">
<title>cluster_DashboardModule</title>
<polygon fill="none" stroke="#000000" stroke-dasharray="1,5" points="8,-70 8,-195 702,-195 702,-70 8,-70"/>
</g>
<g id="clust2" class="cluster">
<title>cluster_DashboardModule_declarations</title>
<polygon fill="none" stroke="#000000" points="254,-78 254,-130 694,-130 694,-78 254,-78"/>
</g>
<g id="clust6" class="cluster">
<title>cluster_DashboardModule_imports</title>
<polygon fill="none" stroke="#000000" points="16,-78 16,-130 246,-130 246,-78 16,-78"/>
</g>
<!-- CarouselComponent -->
<g id="node1" class="node">
<title>CarouselComponent</title>
<polygon fill="#ffffb3" stroke="#000000" points="685.594,-122 554.406,-122 554.406,-86 685.594,-86 685.594,-122"/>
<text text-anchor="middle" x="620" y="-99.8" font-family="Times,serif" font-size="14.00" fill="#000000">CarouselComponent</text>
</g>
<!-- DashboardModule -->
<g id="node4" class="node">
<title>DashboardModule</title>
<polygon fill="#8dd3c7" stroke="#000000" points="379.191,-187 376.191,-191 355.191,-191 352.191,-187 258.809,-187 258.809,-151 379.191,-151 379.191,-187"/>
<text text-anchor="middle" x="319" y="-164.8" font-family="Times,serif" font-size="14.00" fill="#000000">DashboardModule</text>
</g>
<!-- CarouselComponent&#45;&gt;DashboardModule -->
<g id="edge1" class="edge">
<title>CarouselComponent&#45;&gt;DashboardModule</title>
<path fill="none" stroke="#000000" d="M620,-122.2843C620,-143.3211 620,-175 620,-175 620,-175 389.1884,-175 389.1884,-175"/>
<polygon fill="#000000" stroke="#000000" points="389.1884,-171.5001 379.1884,-175 389.1884,-178.5001 389.1884,-171.5001"/>
</g>
<!-- DashboardComponent -->
<g id="node2" class="node">
<title>DashboardComponent</title>
<polygon fill="#ffffb3" stroke="#000000" points="535.9734,-122 394.0266,-122 394.0266,-86 535.9734,-86 535.9734,-122"/>
<text text-anchor="middle" x="465" y="-99.8" font-family="Times,serif" font-size="14.00" fill="#000000">DashboardComponent</text>
</g>
<!-- DashboardComponent&#45;&gt;DashboardModule -->
<g id="edge2" class="edge">
<title>DashboardComponent&#45;&gt;DashboardModule</title>
<path fill="none" stroke="#000000" d="M465,-122.0225C465,-139.3734 465,-163 465,-163 465,-163 389.2267,-163 389.2267,-163"/>
<polygon fill="#000000" stroke="#000000" points="389.2267,-159.5001 379.2267,-163 389.2267,-166.5001 389.2267,-159.5001"/>
</g>
<!-- NewsComponent -->
<g id="node3" class="node">
<title>NewsComponent</title>
<polygon fill="#ffffb3" stroke="#000000" points="375.705,-122 262.295,-122 262.295,-86 375.705,-86 375.705,-122"/>
<text text-anchor="middle" x="319" y="-99.8" font-family="Times,serif" font-size="14.00" fill="#000000">NewsComponent</text>
</g>
<!-- NewsComponent&#45;&gt;DashboardModule -->
<g id="edge3" class="edge">
<title>NewsComponent&#45;&gt;DashboardModule</title>
<path fill="none" stroke="#000000" d="M319,-122.1061C319,-122.1061 319,-140.991 319,-140.991"/>
<polygon fill="#000000" stroke="#000000" points="315.5001,-140.9909 319,-150.991 322.5001,-140.991 315.5001,-140.9909"/>
</g>
<!-- SharedModule -->
<g id="node5" class="node">
<title>SharedModule</title>
<polygon fill="#8dd3c7" stroke="#000000" points="238.4231,-122 235.4231,-126 214.4231,-126 211.4231,-122 139.5769,-122 139.5769,-86 238.4231,-86 238.4231,-122"/>
<text text-anchor="middle" x="189" y="-99.8" font-family="Times,serif" font-size="14.00" fill="#000000">SharedModule</text>
</g>
<!-- SharedModule&#45;&gt;DashboardModule -->
<g id="edge4" class="edge">
<title>SharedModule&#45;&gt;DashboardModule</title>
<path fill="none" stroke="#000000" d="M189,-122.0225C189,-139.3734 189,-163 189,-163 189,-163 248.567,-163 248.567,-163"/>
<polygon fill="#000000" stroke="#000000" points="248.567,-166.5001 258.567,-163 248.5669,-159.5001 248.567,-166.5001"/>
</g>
<!-- ThemeModule -->
<g id="node6" class="node">
<title>ThemeModule</title>
<polygon fill="#8dd3c7" stroke="#000000" points="122.4231,-122 119.4231,-126 98.4231,-126 95.4231,-122 23.5769,-122 23.5769,-86 122.4231,-86 122.4231,-122"/>
<text text-anchor="middle" x="73" y="-99.8" font-family="Times,serif" font-size="14.00" fill="#000000">ThemeModule</text>
</g>
<!-- ThemeModule&#45;&gt;DashboardModule -->
<g id="edge5" class="edge">
<title>ThemeModule&#45;&gt;DashboardModule</title>
<path fill="none" stroke="#000000" d="M73,-122.2843C73,-143.3211 73,-175 73,-175 73,-175 248.8216,-175 248.8216,-175"/>
<polygon fill="#000000" stroke="#000000" points="248.8217,-178.5001 258.8216,-175 248.8216,-171.5001 248.8217,-178.5001"/>
</g>
</g>
</svg>
