<?xml version="1.0" encoding="UTF-8" standalone="no"?>
<!DOCTYPE svg PUBLIC "-//W3C//DTD SVG 1.1//EN"
 "http://www.w3.org/Graphics/SVG/1.1/DTD/svg11.dtd">
<!-- Generated by graphviz version 2.40.1 (20161225.0304)
 -->
<!-- Title: dependencies Pages: 1 -->
<svg width="2539pt" height="211pt"
 viewBox="0.00 0.00 2539.00 211.00" xmlns="http://www.w3.org/2000/svg" xmlns:xlink="http://www.w3.org/1999/xlink">
<g id="graph0" class="graph" transform="scale(1 1) rotate(0) translate(4 207)">
<title>dependencies</title>
<polygon fill="#ffffff" stroke="transparent" points="-4,4 -4,-207 2535,-207 2535,4 -4,4"/>
<text text-anchor="start" x="1244.5091" y="-42.4" font-family="sans-serif" font-weight="bold" font-size="14.00" fill="#000000">Legend</text>
<polygon fill="#ffffb3" stroke="transparent" points="1031.5,-10 1031.5,-30 1051.5,-30 1051.5,-10 1031.5,-10"/>
<text text-anchor="start" x="1055.129" y="-15.4" font-family="sans-serif" font-size="14.00" fill="#000000"> &#160;Declarations</text>
<polygon fill="#8dd3c7" stroke="transparent" points="1144.5,-10 1144.5,-30 1164.5,-30 1164.5,-10 1144.5,-10"/>
<text text-anchor="start" x="1168.2251" y="-15.4" font-family="sans-serif" font-size="14.00" fill="#000000"> &#160;Module</text>
<polygon fill="#80b1d3" stroke="transparent" points="1230.5,-10 1230.5,-30 1250.5,-30 1250.5,-10 1230.5,-10"/>
<text text-anchor="start" x="1254.2812" y="-15.4" font-family="sans-serif" font-size="14.00" fill="#000000"> &#160;Bootstrap</text>
<polygon fill="#fdb462" stroke="transparent" points="1327.5,-10 1327.5,-30 1347.5,-30 1347.5,-10 1327.5,-10"/>
<text text-anchor="start" x="1351.1732" y="-15.4" font-family="sans-serif" font-size="14.00" fill="#000000"> &#160;Providers</text>
<polygon fill="#fb8072" stroke="transparent" points="1423.5,-10 1423.5,-30 1443.5,-30 1443.5,-10 1423.5,-10"/>
<text text-anchor="start" x="1447.2258" y="-15.4" font-family="sans-serif" font-size="14.00" fill="#000000"> &#160;Exports</text>
<g id="clust1" class="cluster">
<title>cluster_DashboardModule</title>
<polygon fill="none" stroke="#000000" stroke-dasharray="1,5" points="8,-70 8,-195 2523,-195 2523,-70 8,-70"/>
</g>
<g id="clust2" class="cluster">
<title>cluster_DashboardModule_declarations</title>
<polygon fill="none" stroke="#000000" points="138,-78 138,-130 2515,-130 2515,-78 138,-78"/>
</g>
<g id="clust18" class="cluster">
<title>cluster_DashboardModule_imports</title>
<polygon fill="none" stroke="#000000" points="16,-78 16,-130 130,-130 130,-78 16,-78"/>
</g>
<!-- CarouselComponent -->
<g id="node1" class="node">
<title>CarouselComponent</title>
<polygon fill="#ffffb3" stroke="#000000" points="2506.594,-122 2375.406,-122 2375.406,-86 2506.594,-86 2506.594,-122"/>
<text text-anchor="middle" x="2441" y="-99.8" font-family="Times,serif" font-size="14.00" fill="#000000">CarouselComponent</text>
</g>
<!-- DashboardModule -->
<g id="node16" class="node">
<title>DashboardModule</title>
<polygon fill="#8dd3c7" stroke="#000000" points="1322.191,-187 1319.191,-191 1298.191,-191 1295.191,-187 1201.809,-187 1201.809,-151 1322.191,-151 1322.191,-187"/>
<text text-anchor="middle" x="1262" y="-164.8" font-family="Times,serif" font-size="14.00" fill="#000000">DashboardModule</text>
</g>
<!-- CarouselComponent&#45;&gt;DashboardModule -->
<g id="edge1" class="edge">
<title>CarouselComponent&#45;&gt;DashboardModule</title>
<path fill="none" stroke="#000000" d="M2441,-122.3228C2441,-145.6602 2441,-183 2441,-183 2441,-183 1332.496,-183 1332.496,-183"/>
<polygon fill="#000000" stroke="#000000" points="1332.496,-179.5001 1322.496,-183 1332.4959,-186.5001 1332.496,-179.5001"/>
</g>
<!-- DashboardComponent -->
<g id="node2" class="node">
<title>DashboardComponent</title>
<polygon fill="#ffffb3" stroke="#000000" points="2356.9734,-122 2215.0266,-122 2215.0266,-86 2356.9734,-86 2356.9734,-122"/>
<text text-anchor="middle" x="2286" y="-99.8" font-family="Times,serif" font-size="14.00" fill="#000000">DashboardComponent</text>
</g>
<!-- DashboardComponent&#45;&gt;DashboardModule -->
<g id="edge2" class="edge">
<title>DashboardComponent&#45;&gt;DashboardModule</title>
<path fill="none" stroke="#000000" d="M2286,-122.2921C2286,-144.2057 2286,-178 2286,-178 2286,-178 1332.2329,-178 1332.2329,-178"/>
<polygon fill="#000000" stroke="#000000" points="1332.2329,-174.5001 1322.2329,-178 1332.2329,-181.5001 1332.2329,-174.5001"/>
</g>
<!-- ElectricityChartComponent -->
<g id="node3" class="node">
<title>ElectricityChartComponent</title>
<polygon fill="#ffffb3" stroke="#000000" points="2197.245,-122 2026.755,-122 2026.755,-86 2197.245,-86 2197.245,-122"/>
<text text-anchor="middle" x="2112" y="-99.8" font-family="Times,serif" font-size="14.00" fill="#000000">ElectricityChartComponent</text>
</g>
<!-- ElectricityChartComponent&#45;&gt;DashboardModule -->
<g id="edge3" class="edge">
<title>ElectricityChartComponent&#45;&gt;DashboardModule</title>
<path fill="none" stroke="#000000" d="M2112,-122.0267C2112,-142.7672 2112,-174 2112,-174 2112,-174 1332.109,-174 1332.109,-174"/>
<polygon fill="#000000" stroke="#000000" points="1332.109,-170.5001 1322.109,-174 1332.109,-177.5001 1332.109,-170.5001"/>
</g>
<!-- ElectricityComponent -->
<g id="node4" class="node">
<title>ElectricityComponent</title>
<polygon fill="#ffffb3" stroke="#000000" points="2008.6429,-122 1869.3571,-122 1869.3571,-86 2008.6429,-86 2008.6429,-122"/>
<text text-anchor="middle" x="1939" y="-99.8" font-family="Times,serif" font-size="14.00" fill="#000000">ElectricityComponent</text>
</g>
<!-- ElectricityComponent&#45;&gt;DashboardModule -->
<g id="edge4" class="edge">
<title>ElectricityComponent&#45;&gt;DashboardModule</title>
<path fill="none" stroke="#000000" d="M1939,-122.1061C1939,-141.3391 1939,-169 1939,-169 1939,-169 1332.3768,-169 1332.3768,-169"/>
<polygon fill="#000000" stroke="#000000" points="1332.3769,-165.5001 1322.3768,-169 1332.3768,-172.5001 1332.3769,-165.5001"/>
</g>
<!-- KittenComponent -->
<g id="node5" class="node">
<title>KittenComponent</title>
<polygon fill="#ffffb3" stroke="#000000" points="1851.3259,-122 1734.6741,-122 1734.6741,-86 1851.3259,-86 1851.3259,-122"/>
<text text-anchor="middle" x="1793" y="-99.8" font-family="Times,serif" font-size="14.00" fill="#000000">KittenComponent</text>
</g>
<!-- KittenComponent&#45;&gt;DashboardModule -->
<g id="edge5" class="edge">
<title>KittenComponent&#45;&gt;DashboardModule</title>
<path fill="none" stroke="#000000" d="M1793,-122.302C1793,-140.2699 1793,-165 1793,-165 1793,-165 1332.1376,-165 1332.1376,-165"/>
<polygon fill="#000000" stroke="#000000" points="1332.1377,-161.5001 1322.1376,-165 1332.1376,-168.5001 1332.1377,-161.5001"/>
</g>
<!-- NewsComponent -->
<g id="node6" class="node">
<title>NewsComponent</title>
<polygon fill="#ffffb3" stroke="#000000" points="1716.705,-122 1603.295,-122 1603.295,-86 1716.705,-86 1716.705,-122"/>
<text text-anchor="middle" x="1660" y="-99.8" font-family="Times,serif" font-size="14.00" fill="#000000">NewsComponent</text>
</g>
<!-- NewsComponent&#45;&gt;DashboardModule -->
<g id="edge6" class="edge">
<title>NewsComponent&#45;&gt;DashboardModule</title>
<path fill="none" stroke="#000000" d="M1660,-122.027C1660,-138.3976 1660,-160 1660,-160 1660,-160 1332.4476,-160 1332.4476,-160"/>
<polygon fill="#000000" stroke="#000000" points="1332.4477,-156.5001 1322.4476,-160 1332.4476,-163.5001 1332.4477,-156.5001"/>
</g>
<!-- SecurityCamerasComponent -->
<g id="node7" class="node">
<title>SecurityCamerasComponent</title>
<polygon fill="#ffffb3" stroke="#000000" points="1585.4622,-122 1408.5378,-122 1408.5378,-86 1585.4622,-86 1585.4622,-122"/>
<text text-anchor="middle" x="1497" y="-99.8" font-family="Times,serif" font-size="14.00" fill="#000000">SecurityCamerasComponent</text>
</g>
<!-- SecurityCamerasComponent&#45;&gt;DashboardModule -->
<g id="edge7" class="edge">
<title>SecurityCamerasComponent&#45;&gt;DashboardModule</title>
<path fill="none" stroke="#000000" d="M1497,-122.1871C1497,-137.1824 1497,-156 1497,-156 1497,-156 1332.2132,-156 1332.2132,-156"/>
<polygon fill="#000000" stroke="#000000" points="1332.2132,-152.5001 1322.2132,-156 1332.2131,-159.5001 1332.2132,-152.5001"/>
</g>
<!-- SolarComponent -->
<g id="node8" class="node">
<title>SolarComponent</title>
<polygon fill="#ffffb3" stroke="#000000" points="1390.3809,-122 1279.6191,-122 1279.6191,-86 1390.3809,-86 1390.3809,-122"/>
<text text-anchor="middle" x="1335" y="-99.8" font-family="Times,serif" font-size="14.00" fill="#000000">SolarComponent</text>
</g>
<!-- SolarComponent&#45;&gt;DashboardModule -->
<g id="edge8" class="edge">
<title>SolarComponent&#45;&gt;DashboardModule</title>
<path fill="none" stroke="#000000" d="M1300.8275,-122.1061C1300.8275,-122.1061 1300.8275,-140.991 1300.8275,-140.991"/>
<polygon fill="#000000" stroke="#000000" points="1297.3276,-140.9909 1300.8275,-150.991 1304.3276,-140.991 1297.3276,-140.9909"/>
</g>
<!-- StatusCardComponent -->
<g id="node9" class="node">
<title>StatusCardComponent</title>
<polygon fill="#ffffb3" stroke="#000000" points="1261.2674,-122 1118.7326,-122 1118.7326,-86 1261.2674,-86 1261.2674,-122"/>
<text text-anchor="middle" x="1190" y="-99.8" font-family="Times,serif" font-size="14.00" fill="#000000">StatusCardComponent</text>
</g>
<!-- StatusCardComponent&#45;&gt;DashboardModule -->
<g id="edge9" class="edge">
<title>StatusCardComponent&#45;&gt;DashboardModule</title>
<path fill="none" stroke="#000000" d="M1231.6441,-122.1061C1231.6441,-122.1061 1231.6441,-140.991 1231.6441,-140.991"/>
<polygon fill="#000000" stroke="#000000" points="1228.1442,-140.9909 1231.6441,-150.991 1235.1442,-140.991 1228.1442,-140.9909"/>
</g>
<!-- TeamComponent -->
<g id="node10" class="node">
<title>TeamComponent</title>
<polygon fill="#ffffb3" stroke="#000000" points="1100.705,-122 987.295,-122 987.295,-86 1100.705,-86 1100.705,-122"/>
<text text-anchor="middle" x="1044" y="-99.8" font-family="Times,serif" font-size="14.00" fill="#000000">TeamComponent</text>
</g>
<!-- TeamComponent&#45;&gt;DashboardModule -->
<g id="edge10" class="edge">
<title>TeamComponent&#45;&gt;DashboardModule</title>
<path fill="none" stroke="#000000" d="M1044,-122.1871C1044,-137.1824 1044,-156 1044,-156 1044,-156 1191.8535,-156 1191.8535,-156"/>
<polygon fill="#000000" stroke="#000000" points="1191.8535,-159.5001 1201.8535,-156 1191.8534,-152.5001 1191.8535,-159.5001"/>
</g>
<!-- TemperatureComponent -->
<g id="node11" class="node">
<title>TemperatureComponent</title>
<polygon fill="#ffffb3" stroke="#000000" points="969.3459,-122 816.6541,-122 816.6541,-86 969.3459,-86 969.3459,-122"/>
<text text-anchor="middle" x="893" y="-99.8" font-family="Times,serif" font-size="14.00" fill="#000000">TemperatureComponent</text>
</g>
<!-- TemperatureComponent&#45;&gt;DashboardModule -->
<g id="edge11" class="edge">
<title>TemperatureComponent&#45;&gt;DashboardModule</title>
<path fill="none" stroke="#000000" d="M893,-122.027C893,-138.3976 893,-160 893,-160 893,-160 1191.8925,-160 1191.8925,-160"/>
<polygon fill="#000000" stroke="#000000" points="1191.8926,-163.5001 1201.8925,-160 1191.8925,-156.5001 1191.8926,-163.5001"/>
</g>
<!-- TemperatureDraggerComponent -->
<g id="node12" class="node">
<title>TemperatureDraggerComponent</title>
<polygon fill="#ffffb3" stroke="#000000" points="798.203,-122 599.797,-122 599.797,-86 798.203,-86 798.203,-122"/>
<text text-anchor="middle" x="699" y="-99.8" font-family="Times,serif" font-size="14.00" fill="#000000">TemperatureDraggerComponent</text>
</g>
<!-- TemperatureDraggerComponent&#45;&gt;DashboardModule -->
<g id="edge12" class="edge">
<title>TemperatureDraggerComponent&#45;&gt;DashboardModule</title>
<path fill="none" stroke="#000000" d="M699,-122.302C699,-140.2699 699,-165 699,-165 699,-165 1191.7491,-165 1191.7491,-165"/>
<polygon fill="#000000" stroke="#000000" points="1191.7492,-168.5001 1201.7491,-165 1191.7491,-161.5001 1191.7492,-168.5001"/>
</g>
<!-- TrafficChartComponent -->
<g id="node13" class="node">
<title>TrafficChartComponent</title>
<polygon fill="#ffffb3" stroke="#000000" points="581.7893,-122 430.2107,-122 430.2107,-86 581.7893,-86 581.7893,-122"/>
<text text-anchor="middle" x="506" y="-99.8" font-family="Times,serif" font-size="14.00" fill="#000000">TrafficChartComponent</text>
</g>
<!-- TrafficChartComponent&#45;&gt;DashboardModule -->
<g id="edge13" class="edge">
<title>TrafficChartComponent&#45;&gt;DashboardModule</title>
<path fill="none" stroke="#000000" d="M506,-122.1061C506,-141.3391 506,-169 506,-169 506,-169 1191.729,-169 1191.729,-169"/>
<polygon fill="#000000" stroke="#000000" points="1191.7291,-172.5001 1201.729,-169 1191.729,-165.5001 1191.7291,-172.5001"/>
</g>
<!-- TrafficComponent -->
<g id="node14" class="node">
<title>TrafficComponent</title>
<polygon fill="#ffffb3" stroke="#000000" points="412.1867,-122 291.8133,-122 291.8133,-86 412.1867,-86 412.1867,-122"/>
<text text-anchor="middle" x="352" y="-99.8" font-family="Times,serif" font-size="14.00" fill="#000000">TrafficComponent</text>
</g>
<!-- TrafficComponent&#45;&gt;DashboardModule -->
<g id="edge14" class="edge">
<title>TrafficComponent&#45;&gt;DashboardModule</title>
<path fill="none" stroke="#000000" d="M352,-122.0267C352,-142.7672 352,-174 352,-174 352,-174 1191.5876,-174 1191.5876,-174"/>
<polygon fill="#000000" stroke="#000000" points="1191.5877,-177.5001 1201.5876,-174 1191.5876,-170.5001 1191.5877,-177.5001"/>
</g>
<!-- WeatherComponent -->
<g id="node15" class="node">
<title>WeatherComponent</title>
<polygon fill="#ffffb3" stroke="#000000" points="274.2423,-122 145.7577,-122 145.7577,-86 274.2423,-86 274.2423,-122"/>
<text text-anchor="middle" x="210" y="-99.8" font-family="Times,serif" font-size="14.00" fill="#000000">WeatherComponent</text>
</g>
<!-- WeatherComponent&#45;&gt;DashboardModule -->
<g id="edge15" class="edge">
<title>WeatherComponent&#45;&gt;DashboardModule</title>
<path fill="none" stroke="#000000" d="M210,-122.2921C210,-144.2057 210,-178 210,-178 210,-178 1191.6615,-178 1191.6615,-178"/>
<polygon fill="#000000" stroke="#000000" points="1191.6615,-181.5001 1201.6615,-178 1191.6614,-174.5001 1191.6615,-181.5001"/>
</g>
<!-- ThemeModule -->
<g id="node17" class="node">
<title>ThemeModule</title>
<polygon fill="#8dd3c7" stroke="#000000" points="122.4231,-122 119.4231,-126 98.4231,-126 95.4231,-122 23.5769,-122 23.5769,-86 122.4231,-86 122.4231,-122"/>
<text text-anchor="middle" x="73" y="-99.8" font-family="Times,serif" font-size="14.00" fill="#000000">ThemeModule</text>
</g>
<!-- ThemeModule&#45;&gt;DashboardModule -->
<g id="edge16" class="edge">
<title>ThemeModule&#45;&gt;DashboardModule</title>
<path fill="none" stroke="#000000" d="M73,-122.3228C73,-145.6602 73,-183 73,-183 73,-183 1191.8132,-183 1191.8132,-183"/>
<polygon fill="#000000" stroke="#000000" points="1191.8132,-186.5001 1201.8132,-183 1191.8132,-179.5001 1191.8132,-186.5001"/>
</g>
</g>
</svg>
