<?xml version="1.0" encoding="UTF-8" standalone="no"?>
<!DOCTYPE svg PUBLIC "-//W3C//DTD SVG 1.1//EN"
 "http://www.w3.org/Graphics/SVG/1.1/DTD/svg11.dtd">
<!-- Generated by graphviz version 2.40.1 (20161225.0304)
 -->
<!-- Title: dependencies Pages: 1 -->
<svg width="2655pt" height="211pt"
 viewBox="0.00 0.00 2655.00 211.00" xmlns="http://www.w3.org/2000/svg" xmlns:xlink="http://www.w3.org/1999/xlink">
<g id="graph0" class="graph" transform="scale(1 1) rotate(0) translate(4 207)">
<title>dependencies</title>
<polygon fill="#ffffff" stroke="transparent" points="-4,4 -4,-207 2651,-207 2651,4 -4,4"/>
<text text-anchor="start" x="1302.5091" y="-42.4" font-family="sans-serif" font-weight="bold" font-size="14.00" fill="#000000">Legend</text>
<polygon fill="#ffffb3" stroke="transparent" points="1089.5,-10 1089.5,-30 1109.5,-30 1109.5,-10 1089.5,-10"/>
<text text-anchor="start" x="1113.129" y="-15.4" font-family="sans-serif" font-size="14.00" fill="#000000"> &#160;Declarations</text>
<polygon fill="#8dd3c7" stroke="transparent" points="1202.5,-10 1202.5,-30 1222.5,-30 1222.5,-10 1202.5,-10"/>
<text text-anchor="start" x="1226.2251" y="-15.4" font-family="sans-serif" font-size="14.00" fill="#000000"> &#160;Module</text>
<polygon fill="#80b1d3" stroke="transparent" points="1288.5,-10 1288.5,-30 1308.5,-30 1308.5,-10 1288.5,-10"/>
<text text-anchor="start" x="1312.2812" y="-15.4" font-family="sans-serif" font-size="14.00" fill="#000000"> &#160;Bootstrap</text>
<polygon fill="#fdb462" stroke="transparent" points="1385.5,-10 1385.5,-30 1405.5,-30 1405.5,-10 1385.5,-10"/>
<text text-anchor="start" x="1409.1732" y="-15.4" font-family="sans-serif" font-size="14.00" fill="#000000"> &#160;Providers</text>
<polygon fill="#fb8072" stroke="transparent" points="1481.5,-10 1481.5,-30 1501.5,-30 1501.5,-10 1481.5,-10"/>
<text text-anchor="start" x="1505.2258" y="-15.4" font-family="sans-serif" font-size="14.00" fill="#000000"> &#160;Exports</text>
<g id="clust1" class="cluster">
<title>cluster_DashboardModule</title>
<polygon fill="none" stroke="#000000" stroke-dasharray="1,5" points="8,-70 8,-195 2639,-195 2639,-70 8,-70"/>
</g>
<g id="clust2" class="cluster">
<title>cluster_DashboardModule_declarations</title>
<polygon fill="none" stroke="#000000" points="254,-78 254,-130 2631,-130 2631,-78 254,-78"/>
</g>
<g id="clust18" class="cluster">
<title>cluster_DashboardModule_imports</title>
<polygon fill="none" stroke="#000000" points="16,-78 16,-130 246,-130 246,-78 16,-78"/>
</g>
<!-- CarouselComponent -->
<g id="node1" class="node">
<title>CarouselComponent</title>
<polygon fill="#ffffb3" stroke="#000000" points="2622.594,-122 2491.406,-122 2491.406,-86 2622.594,-86 2622.594,-122"/>
<text text-anchor="middle" x="2557" y="-99.8" font-family="Times,serif" font-size="14.00" fill="#000000">CarouselComponent</text>
</g>
<!-- DashboardModule -->
<g id="node16" class="node">
<title>DashboardModule</title>
<polygon fill="#8dd3c7" stroke="#000000" points="1366.191,-187 1363.191,-191 1342.191,-191 1339.191,-187 1245.809,-187 1245.809,-151 1366.191,-151 1366.191,-187"/>
<text text-anchor="middle" x="1306" y="-164.8" font-family="Times,serif" font-size="14.00" fill="#000000">DashboardModule</text>
</g>
<!-- CarouselComponent&#45;&gt;DashboardModule -->
<g id="edge1" class="edge">
<title>CarouselComponent&#45;&gt;DashboardModule</title>
<path fill="none" stroke="#000000" d="M2557,-122.3228C2557,-145.6602 2557,-183 2557,-183 2557,-183 1376.3383,-183 1376.3383,-183"/>
<polygon fill="#000000" stroke="#000000" points="1376.3384,-179.5001 1366.3383,-183 1376.3383,-186.5001 1376.3384,-179.5001"/>
</g>
<!-- DashboardComponent -->
<g id="node2" class="node">
<title>DashboardComponent</title>
<polygon fill="#ffffb3" stroke="#000000" points="2472.9734,-122 2331.0266,-122 2331.0266,-86 2472.9734,-86 2472.9734,-122"/>
<text text-anchor="middle" x="2402" y="-99.8" font-family="Times,serif" font-size="14.00" fill="#000000">DashboardComponent</text>
</g>
<!-- DashboardComponent&#45;&gt;DashboardModule -->
<g id="edge2" class="edge">
<title>DashboardComponent&#45;&gt;DashboardModule</title>
<path fill="none" stroke="#000000" d="M2402,-122.1554C2402,-144.3519 2402,-179 2402,-179 2402,-179 1376.4869,-179 1376.4869,-179"/>
<polygon fill="#000000" stroke="#000000" points="1376.4869,-175.5001 1366.4869,-179 1376.4868,-182.5001 1376.4869,-175.5001"/>
</g>
<!-- ElectricityChartComponent -->
<g id="node3" class="node">
<title>ElectricityChartComponent</title>
<polygon fill="#ffffb3" stroke="#000000" points="2313.245,-122 2142.755,-122 2142.755,-86 2313.245,-86 2313.245,-122"/>
<text text-anchor="middle" x="2228" y="-99.8" font-family="Times,serif" font-size="14.00" fill="#000000">ElectricityChartComponent</text>
</g>
<!-- ElectricityChartComponent&#45;&gt;DashboardModule -->
<g id="edge3" class="edge">
<title>ElectricityChartComponent&#45;&gt;DashboardModule</title>
<path fill="none" stroke="#000000" d="M2228,-122.2843C2228,-143.3211 2228,-175 2228,-175 2228,-175 1376.1393,-175 1376.1393,-175"/>
<polygon fill="#000000" stroke="#000000" points="1376.1394,-171.5001 1366.1393,-175 1376.1393,-178.5001 1376.1394,-171.5001"/>
</g>
<!-- ElectricityComponent -->
<g id="node4" class="node">
<title>ElectricityComponent</title>
<polygon fill="#ffffb3" stroke="#000000" points="2124.6429,-122 1985.3571,-122 1985.3571,-86 2124.6429,-86 2124.6429,-122"/>
<text text-anchor="middle" x="2055" y="-99.8" font-family="Times,serif" font-size="14.00" fill="#000000">ElectricityComponent</text>
</g>
<!-- ElectricityComponent&#45;&gt;DashboardModule -->
<g id="edge4" class="edge">
<title>ElectricityComponent&#45;&gt;DashboardModule</title>
<path fill="none" stroke="#000000" d="M2055,-122.308C2055,-142.1455 2055,-171 2055,-171 2055,-171 1376.3432,-171 1376.3432,-171"/>
<polygon fill="#000000" stroke="#000000" points="1376.3432,-167.5001 1366.3432,-171 1376.3431,-174.5001 1376.3432,-167.5001"/>
</g>
<!-- KittenComponent -->
<g id="node5" class="node">
<title>KittenComponent</title>
<polygon fill="#ffffb3" stroke="#000000" points="1967.3259,-122 1850.6741,-122 1850.6741,-86 1967.3259,-86 1967.3259,-122"/>
<text text-anchor="middle" x="1909" y="-99.8" font-family="Times,serif" font-size="14.00" fill="#000000">KittenComponent</text>
</g>
<!-- KittenComponent&#45;&gt;DashboardModule -->
<g id="edge5" class="edge">
<title>KittenComponent&#45;&gt;DashboardModule</title>
<path fill="none" stroke="#000000" d="M1909,-122.2222C1909,-140.8285 1909,-167 1909,-167 1909,-167 1376.3004,-167 1376.3004,-167"/>
<polygon fill="#000000" stroke="#000000" points="1376.3004,-163.5001 1366.3004,-167 1376.3003,-170.5001 1376.3004,-163.5001"/>
</g>
<!-- NewsComponent -->
<g id="node6" class="node">
<title>NewsComponent</title>
<polygon fill="#ffffb3" stroke="#000000" points="1832.705,-122 1719.295,-122 1719.295,-86 1832.705,-86 1832.705,-122"/>
<text text-anchor="middle" x="1776" y="-99.8" font-family="Times,serif" font-size="14.00" fill="#000000">NewsComponent</text>
</g>
<!-- NewsComponent&#45;&gt;DashboardModule -->
<g id="edge6" class="edge">
<title>NewsComponent&#45;&gt;DashboardModule</title>
<path fill="none" stroke="#000000" d="M1776,-122.0225C1776,-139.3734 1776,-163 1776,-163 1776,-163 1376.4821,-163 1376.4821,-163"/>
<polygon fill="#000000" stroke="#000000" points="1376.4821,-159.5001 1366.4821,-163 1376.4821,-166.5001 1376.4821,-159.5001"/>
</g>
<!-- SecurityCamerasComponent -->
<g id="node7" class="node">
<title>SecurityCamerasComponent</title>
<polygon fill="#ffffb3" stroke="#000000" points="1701.4622,-122 1524.5378,-122 1524.5378,-86 1701.4622,-86 1701.4622,-122"/>
<text text-anchor="middle" x="1613" y="-99.8" font-family="Times,serif" font-size="14.00" fill="#000000">SecurityCamerasComponent</text>
</g>
<!-- SecurityCamerasComponent&#45;&gt;DashboardModule -->
<g id="edge7" class="edge">
<title>SecurityCamerasComponent&#45;&gt;DashboardModule</title>
<path fill="none" stroke="#000000" d="M1613,-122.0091C1613,-138.0494 1613,-159 1613,-159 1613,-159 1376.287,-159 1376.287,-159"/>
<polygon fill="#000000" stroke="#000000" points="1376.2871,-155.5001 1366.287,-159 1376.287,-162.5001 1376.2871,-155.5001"/>
</g>
<!-- SolarComponent -->
<g id="node8" class="node">
<title>SolarComponent</title>
<polygon fill="#ffffb3" stroke="#000000" points="1506.3809,-122 1395.6191,-122 1395.6191,-86 1506.3809,-86 1506.3809,-122"/>
<text text-anchor="middle" x="1451" y="-99.8" font-family="Times,serif" font-size="14.00" fill="#000000">SolarComponent</text>
</g>
<!-- SolarComponent&#45;&gt;DashboardModule -->
<g id="edge8" class="edge">
<title>SolarComponent&#45;&gt;DashboardModule</title>
<path fill="none" stroke="#000000" d="M1451,-122.1243C1451,-136.7832 1451,-155 1451,-155 1451,-155 1376.2334,-155 1376.2334,-155"/>
<polygon fill="#000000" stroke="#000000" points="1376.2334,-151.5001 1366.2334,-155 1376.2333,-158.5001 1376.2334,-151.5001"/>
</g>
<!-- StatusCardComponent -->
<g id="node9" class="node">
<title>StatusCardComponent</title>
<polygon fill="#ffffb3" stroke="#000000" points="1377.2674,-122 1234.7326,-122 1234.7326,-86 1377.2674,-86 1377.2674,-122"/>
<text text-anchor="middle" x="1306" y="-99.8" font-family="Times,serif" font-size="14.00" fill="#000000">StatusCardComponent</text>
</g>
<!-- StatusCardComponent&#45;&gt;DashboardModule -->
<g id="edge9" class="edge">
<title>StatusCardComponent&#45;&gt;DashboardModule</title>
<path fill="none" stroke="#000000" d="M1306,-122.1061C1306,-122.1061 1306,-140.991 1306,-140.991"/>
<polygon fill="#000000" stroke="#000000" points="1302.5001,-140.9909 1306,-150.991 1309.5001,-140.991 1302.5001,-140.9909"/>
</g>
<!-- TeamComponent -->
<g id="node10" class="node">
<title>TeamComponent</title>
<polygon fill="#ffffb3" stroke="#000000" points="1216.705,-122 1103.295,-122 1103.295,-86 1216.705,-86 1216.705,-122"/>
<text text-anchor="middle" x="1160" y="-99.8" font-family="Times,serif" font-size="14.00" fill="#000000">TeamComponent</text>
</g>
<!-- TeamComponent&#45;&gt;DashboardModule -->
<g id="edge10" class="edge">
<title>TeamComponent&#45;&gt;DashboardModule</title>
<path fill="none" stroke="#000000" d="M1160,-122.1243C1160,-136.7832 1160,-155 1160,-155 1160,-155 1235.7733,-155 1235.7733,-155"/>
<polygon fill="#000000" stroke="#000000" points="1235.7733,-158.5001 1245.7733,-155 1235.7733,-151.5001 1235.7733,-158.5001"/>
</g>
<!-- TemperatureComponent -->
<g id="node11" class="node">
<title>TemperatureComponent</title>
<polygon fill="#ffffb3" stroke="#000000" points="1085.3459,-122 932.6541,-122 932.6541,-86 1085.3459,-86 1085.3459,-122"/>
<text text-anchor="middle" x="1009" y="-99.8" font-family="Times,serif" font-size="14.00" fill="#000000">TemperatureComponent</text>
</g>
<!-- TemperatureComponent&#45;&gt;DashboardModule -->
<g id="edge11" class="edge">
<title>TemperatureComponent&#45;&gt;DashboardModule</title>
<path fill="none" stroke="#000000" d="M1009,-122.0091C1009,-138.0494 1009,-159 1009,-159 1009,-159 1235.8976,-159 1235.8976,-159"/>
<polygon fill="#000000" stroke="#000000" points="1235.8977,-162.5001 1245.8976,-159 1235.8976,-155.5001 1235.8977,-162.5001"/>
</g>
<!-- TemperatureDraggerComponent -->
<g id="node12" class="node">
<title>TemperatureDraggerComponent</title>
<polygon fill="#ffffb3" stroke="#000000" points="914.203,-122 715.797,-122 715.797,-86 914.203,-86 914.203,-122"/>
<text text-anchor="middle" x="815" y="-99.8" font-family="Times,serif" font-size="14.00" fill="#000000">TemperatureDraggerComponent</text>
</g>
<!-- TemperatureDraggerComponent&#45;&gt;DashboardModule -->
<g id="edge12" class="edge">
<title>TemperatureDraggerComponent&#45;&gt;DashboardModule</title>
<path fill="none" stroke="#000000" d="M815,-122.0225C815,-139.3734 815,-163 815,-163 815,-163 1235.7938,-163 1235.7938,-163"/>
<polygon fill="#000000" stroke="#000000" points="1235.7938,-166.5001 1245.7938,-163 1235.7937,-159.5001 1235.7938,-166.5001"/>
</g>
<!-- TrafficChartComponent -->
<g id="node13" class="node">
<title>TrafficChartComponent</title>
<polygon fill="#ffffb3" stroke="#000000" points="697.7893,-122 546.2107,-122 546.2107,-86 697.7893,-86 697.7893,-122"/>
<text text-anchor="middle" x="622" y="-99.8" font-family="Times,serif" font-size="14.00" fill="#000000">TrafficChartComponent</text>
</g>
<!-- TrafficChartComponent&#45;&gt;DashboardModule -->
<g id="edge13" class="edge">
<title>TrafficChartComponent&#45;&gt;DashboardModule</title>
<path fill="none" stroke="#000000" d="M622,-122.2222C622,-140.8285 622,-167 622,-167 622,-167 1235.899,-167 1235.899,-167"/>
<polygon fill="#000000" stroke="#000000" points="1235.8991,-170.5001 1245.899,-167 1235.899,-163.5001 1235.8991,-170.5001"/>
</g>
<!-- TrafficComponent -->
<g id="node14" class="node">
<title>TrafficComponent</title>
<polygon fill="#ffffb3" stroke="#000000" points="528.1867,-122 407.8133,-122 407.8133,-86 528.1867,-86 528.1867,-122"/>
<text text-anchor="middle" x="468" y="-99.8" font-family="Times,serif" font-size="14.00" fill="#000000">TrafficComponent</text>
</g>
<!-- TrafficComponent&#45;&gt;DashboardModule -->
<g id="edge14" class="edge">
<title>TrafficComponent&#45;&gt;DashboardModule</title>
<path fill="none" stroke="#000000" d="M468,-122.308C468,-142.1455 468,-171 468,-171 468,-171 1235.7331,-171 1235.7331,-171"/>
<polygon fill="#000000" stroke="#000000" points="1235.7331,-174.5001 1245.7331,-171 1235.7331,-167.5001 1235.7331,-174.5001"/>
</g>
<!-- WeatherComponent -->
<g id="node15" class="node">
<title>WeatherComponent</title>
<polygon fill="#ffffb3" stroke="#000000" points="390.2423,-122 261.7577,-122 261.7577,-86 390.2423,-86 390.2423,-122"/>
<text text-anchor="middle" x="326" y="-99.8" font-family="Times,serif" font-size="14.00" fill="#000000">WeatherComponent</text>
</g>
<!-- WeatherComponent&#45;&gt;DashboardModule -->
<g id="edge15" class="edge">
<title>WeatherComponent&#45;&gt;DashboardModule</title>
<path fill="none" stroke="#000000" d="M326,-122.2843C326,-143.3211 326,-175 326,-175 326,-175 1235.8045,-175 1235.8045,-175"/>
<polygon fill="#000000" stroke="#000000" points="1235.8045,-178.5001 1245.8045,-175 1235.8045,-171.5001 1235.8045,-178.5001"/>
</g>
<!-- SharedModule -->
<g id="node17" class="node">
<title>SharedModule</title>
<polygon fill="#8dd3c7" stroke="#000000" points="238.4231,-122 235.4231,-126 214.4231,-126 211.4231,-122 139.5769,-122 139.5769,-86 238.4231,-86 238.4231,-122"/>
<text text-anchor="middle" x="189" y="-99.8" font-family="Times,serif" font-size="14.00" fill="#000000">SharedModule</text>
</g>
<!-- SharedModule&#45;&gt;DashboardModule -->
<g id="edge16" class="edge">
<title>SharedModule&#45;&gt;DashboardModule</title>
<path fill="none" stroke="#000000" d="M189,-122.1554C189,-144.3519 189,-179 189,-179 189,-179 1235.5492,-179 1235.5492,-179"/>
<polygon fill="#000000" stroke="#000000" points="1235.5492,-182.5001 1245.5492,-179 1235.5491,-175.5001 1235.5492,-182.5001"/>
</g>
<!-- ThemeModule -->
<g id="node18" class="node">
<title>ThemeModule</title>
<polygon fill="#8dd3c7" stroke="#000000" points="122.4231,-122 119.4231,-126 98.4231,-126 95.4231,-122 23.5769,-122 23.5769,-86 122.4231,-86 122.4231,-122"/>
<text text-anchor="middle" x="73" y="-99.8" font-family="Times,serif" font-size="14.00" fill="#000000">ThemeModule</text>
</g>
<!-- ThemeModule&#45;&gt;DashboardModule -->
<g id="edge17" class="edge">
<title>ThemeModule&#45;&gt;DashboardModule</title>
<path fill="none" stroke="#000000" d="M73,-122.3228C73,-145.6602 73,-183 73,-183 73,-183 1235.6952,-183 1235.6952,-183"/>
<polygon fill="#000000" stroke="#000000" points="1235.6952,-186.5001 1245.6952,-183 1235.6951,-179.5001 1235.6952,-186.5001"/>
</g>
</g>
</svg>
