<?xml version="1.0" encoding="UTF-8" standalone="no"?>
<!DOCTYPE svg PUBLIC "-//W3C//DTD SVG 1.1//EN"
 "http://www.w3.org/Graphics/SVG/1.1/DTD/svg11.dtd">
<!-- Generated by graphviz version 2.40.1 (20161225.0304)
 -->
<!-- Title: dependencies Pages: 1 -->
<svg width="1144pt" height="211pt"
 viewBox="0.00 0.00 1144.00 211.00" xmlns="http://www.w3.org/2000/svg" xmlns:xlink="http://www.w3.org/1999/xlink">
<g id="graph0" class="graph" transform="scale(1 1) rotate(0) translate(4 207)">
<title>dependencies</title>
<polygon fill="#ffffff" stroke="transparent" points="-4,4 -4,-207 1140,-207 1140,4 -4,4"/>
<text text-anchor="start" x="547.0091" y="-42.4" font-family="sans-serif" font-weight="bold" font-size="14.00" fill="#000000">Legend</text>
<polygon fill="#ffffb3" stroke="transparent" points="334,-10 334,-30 354,-30 354,-10 334,-10"/>
<text text-anchor="start" x="357.629" y="-15.4" font-family="sans-serif" font-size="14.00" fill="#000000"> &#160;Declarations</text>
<polygon fill="#8dd3c7" stroke="transparent" points="447,-10 447,-30 467,-30 467,-10 447,-10"/>
<text text-anchor="start" x="470.7251" y="-15.4" font-family="sans-serif" font-size="14.00" fill="#000000"> &#160;Module</text>
<polygon fill="#80b1d3" stroke="transparent" points="533,-10 533,-30 553,-30 553,-10 533,-10"/>
<text text-anchor="start" x="556.7812" y="-15.4" font-family="sans-serif" font-size="14.00" fill="#000000"> &#160;Bootstrap</text>
<polygon fill="#fdb462" stroke="transparent" points="630,-10 630,-30 650,-30 650,-10 630,-10"/>
<text text-anchor="start" x="653.6732" y="-15.4" font-family="sans-serif" font-size="14.00" fill="#000000"> &#160;Providers</text>
<polygon fill="#fb8072" stroke="transparent" points="726,-10 726,-30 746,-30 746,-10 726,-10"/>
<text text-anchor="start" x="749.7258" y="-15.4" font-family="sans-serif" font-size="14.00" fill="#000000"> &#160;Exports</text>
<g id="clust1" class="cluster">
<title>cluster_MiscellaneousModule</title>
<polygon fill="none" stroke="#000000" stroke-dasharray="1,5" points="8,-70 8,-195 1128,-195 1128,-70 8,-70"/>
</g>
<g id="clust2" class="cluster">
<title>cluster_MiscellaneousModule_declarations</title>
<polygon fill="none" stroke="#000000" points="458,-78 458,-130 1120,-130 1120,-78 458,-78"/>
</g>
<g id="clust7" class="cluster">
<title>cluster_MiscellaneousModule_imports</title>
<polygon fill="none" stroke="#000000" points="16,-78 16,-130 450,-130 450,-78 16,-78"/>
</g>
<!-- ArticuloComponent -->
<g id="node1" class="node">
<title>ArticuloComponent</title>
<polygon fill="#ffffb3" stroke="#000000" points="1111.986,-122 984.014,-122 984.014,-86 1111.986,-86 1111.986,-122"/>
<text text-anchor="middle" x="1048" y="-99.8" font-family="Times,serif" font-size="14.00" fill="#000000">ArticuloComponent</text>
</g>
<!-- MiscellaneousModule -->
<g id="node5" class="node">
<title>MiscellaneousModule</title>
<polygon fill="#8dd3c7" stroke="#000000" points="615.4144,-187 612.4144,-191 591.4144,-191 588.4144,-187 474.5856,-187 474.5856,-151 615.4144,-151 615.4144,-187"/>
<text text-anchor="middle" x="545" y="-164.8" font-family="Times,serif" font-size="14.00" fill="#000000">MiscellaneousModule</text>
</g>
<!-- ArticuloComponent&#45;&gt;MiscellaneousModule -->
<g id="edge1" class="edge">
<title>ArticuloComponent&#45;&gt;MiscellaneousModule</title>
<path fill="none" stroke="#000000" d="M1048,-122.2921C1048,-144.2057 1048,-178 1048,-178 1048,-178 625.4696,-178 625.4696,-178"/>
<polygon fill="#000000" stroke="#000000" points="625.4697,-174.5001 615.4696,-178 625.4696,-181.5001 625.4697,-174.5001"/>
</g>
<!-- CrudArticuloComponent -->
<g id="node2" class="node">
<title>CrudArticuloComponent</title>
<polygon fill="#ffffb3" stroke="#000000" points="965.9832,-122 810.0168,-122 810.0168,-86 965.9832,-86 965.9832,-122"/>
<text text-anchor="middle" x="888" y="-99.8" font-family="Times,serif" font-size="14.00" fill="#000000">CrudArticuloComponent</text>
</g>
<!-- CrudArticuloComponent&#45;&gt;MiscellaneousModule -->
<g id="edge2" class="edge">
<title>CrudArticuloComponent&#45;&gt;MiscellaneousModule</title>
<path fill="none" stroke="#000000" d="M888,-122.1061C888,-141.3391 888,-169 888,-169 888,-169 625.2389,-169 625.2389,-169"/>
<polygon fill="#000000" stroke="#000000" points="625.2389,-165.5001 615.2389,-169 625.2388,-172.5001 625.2389,-165.5001"/>
</g>
<!-- ListArticuloComponent -->
<g id="node3" class="node">
<title>ListArticuloComponent</title>
<polygon fill="#ffffb3" stroke="#000000" points="791.7646,-122 642.2354,-122 642.2354,-86 791.7646,-86 791.7646,-122"/>
<text text-anchor="middle" x="717" y="-99.8" font-family="Times,serif" font-size="14.00" fill="#000000">ListArticuloComponent</text>
</g>
<!-- ListArticuloComponent&#45;&gt;MiscellaneousModule -->
<g id="edge3" class="edge">
<title>ListArticuloComponent&#45;&gt;MiscellaneousModule</title>
<path fill="none" stroke="#000000" d="M717,-122.027C717,-138.3976 717,-160 717,-160 717,-160 625.4553,-160 625.4553,-160"/>
<polygon fill="#000000" stroke="#000000" points="625.4553,-156.5001 615.4553,-160 625.4552,-163.5001 625.4553,-156.5001"/>
</g>
<!-- ViewArticuloComponent -->
<g id="node4" class="node">
<title>ViewArticuloComponent</title>
<polygon fill="#ffffb3" stroke="#000000" points="624.3047,-122 465.6953,-122 465.6953,-86 624.3047,-86 624.3047,-122"/>
<text text-anchor="middle" x="545" y="-99.8" font-family="Times,serif" font-size="14.00" fill="#000000">ViewArticuloComponent</text>
</g>
<!-- ViewArticuloComponent&#45;&gt;MiscellaneousModule -->
<g id="edge4" class="edge">
<title>ViewArticuloComponent&#45;&gt;MiscellaneousModule</title>
<path fill="none" stroke="#000000" d="M545,-122.1061C545,-122.1061 545,-140.991 545,-140.991"/>
<polygon fill="#000000" stroke="#000000" points="541.5001,-140.9909 545,-150.991 548.5001,-140.991 541.5001,-140.9909"/>
</g>
<!-- MiscellaneousRoutingModule -->
<g id="node6" class="node">
<title>MiscellaneousRoutingModule</title>
<polygon fill="#8dd3c7" stroke="#000000" points="441.5322,-122 438.5322,-126 417.5322,-126 414.5322,-122 256.4678,-122 256.4678,-86 441.5322,-86 441.5322,-122"/>
<text text-anchor="middle" x="349" y="-99.8" font-family="Times,serif" font-size="14.00" fill="#000000">MiscellaneousRoutingModule</text>
</g>
<!-- MiscellaneousRoutingModule&#45;&gt;MiscellaneousModule -->
<g id="edge5" class="edge">
<title>MiscellaneousRoutingModule&#45;&gt;MiscellaneousModule</title>
<path fill="none" stroke="#000000" d="M349,-122.027C349,-138.3976 349,-160 349,-160 349,-160 464.5164,-160 464.5164,-160"/>
<polygon fill="#000000" stroke="#000000" points="464.5164,-163.5001 474.5164,-160 464.5164,-156.5001 464.5164,-163.5001"/>
</g>
<!-- SharedModule -->
<g id="node7" class="node">
<title>SharedModule</title>
<polygon fill="#8dd3c7" stroke="#000000" points="238.4231,-122 235.4231,-126 214.4231,-126 211.4231,-122 139.5769,-122 139.5769,-86 238.4231,-86 238.4231,-122"/>
<text text-anchor="middle" x="189" y="-99.8" font-family="Times,serif" font-size="14.00" fill="#000000">SharedModule</text>
</g>
<!-- SharedModule&#45;&gt;MiscellaneousModule -->
<g id="edge6" class="edge">
<title>SharedModule&#45;&gt;MiscellaneousModule</title>
<path fill="none" stroke="#000000" d="M189,-122.1061C189,-141.3391 189,-169 189,-169 189,-169 464.6659,-169 464.6659,-169"/>
<polygon fill="#000000" stroke="#000000" points="464.6659,-172.5001 474.6659,-169 464.6658,-165.5001 464.6659,-172.5001"/>
</g>
<!-- ThemeModule -->
<g id="node8" class="node">
<title>ThemeModule</title>
<polygon fill="#8dd3c7" stroke="#000000" points="122.4231,-122 119.4231,-126 98.4231,-126 95.4231,-122 23.5769,-122 23.5769,-86 122.4231,-86 122.4231,-122"/>
<text text-anchor="middle" x="73" y="-99.8" font-family="Times,serif" font-size="14.00" fill="#000000">ThemeModule</text>
</g>
<!-- ThemeModule&#45;&gt;MiscellaneousModule -->
<g id="edge7" class="edge">
<title>ThemeModule&#45;&gt;MiscellaneousModule</title>
<path fill="none" stroke="#000000" d="M73,-122.2921C73,-144.2057 73,-178 73,-178 73,-178 464.5918,-178 464.5918,-178"/>
<polygon fill="#000000" stroke="#000000" points="464.5919,-181.5001 474.5918,-178 464.5918,-174.5001 464.5919,-181.5001"/>
</g>
</g>
</svg>
