<?xml version="1.0" encoding="UTF-8" standalone="no"?>
<!DOCTYPE svg PUBLIC "-//W3C//DTD SVG 1.1//EN"
 "http://www.w3.org/Graphics/SVG/1.1/DTD/svg11.dtd">
<!-- Generated by graphviz version 2.40.1 (20161225.0304)
 -->
<!-- Title: dependencies Pages: 1 -->
<svg width="1400pt" height="211pt"
 viewBox="0.00 0.00 1400.00 211.00" xmlns="http://www.w3.org/2000/svg" xmlns:xlink="http://www.w3.org/1999/xlink">
<g id="graph0" class="graph" transform="scale(1 1) rotate(0) translate(4 207)">
<title>dependencies</title>
<polygon fill="#ffffff" stroke="transparent" points="-4,4 -4,-207 1396,-207 1396,4 -4,4"/>
<text text-anchor="start" x="675.0091" y="-42.4" font-family="sans-serif" font-weight="bold" font-size="14.00" fill="#000000">Legend</text>
<polygon fill="#ffffb3" stroke="transparent" points="462,-10 462,-30 482,-30 482,-10 462,-10"/>
<text text-anchor="start" x="485.629" y="-15.4" font-family="sans-serif" font-size="14.00" fill="#000000"> &#160;Declarations</text>
<polygon fill="#8dd3c7" stroke="transparent" points="575,-10 575,-30 595,-30 595,-10 575,-10"/>
<text text-anchor="start" x="598.7251" y="-15.4" font-family="sans-serif" font-size="14.00" fill="#000000"> &#160;Module</text>
<polygon fill="#80b1d3" stroke="transparent" points="661,-10 661,-30 681,-30 681,-10 661,-10"/>
<text text-anchor="start" x="684.7812" y="-15.4" font-family="sans-serif" font-size="14.00" fill="#000000"> &#160;Bootstrap</text>
<polygon fill="#fdb462" stroke="transparent" points="758,-10 758,-30 778,-30 778,-10 758,-10"/>
<text text-anchor="start" x="781.6732" y="-15.4" font-family="sans-serif" font-size="14.00" fill="#000000"> &#160;Providers</text>
<polygon fill="#fb8072" stroke="transparent" points="854,-10 854,-30 874,-30 874,-10 854,-10"/>
<text text-anchor="start" x="877.7258" y="-15.4" font-family="sans-serif" font-size="14.00" fill="#000000"> &#160;Exports</text>
<g id="clust1" class="cluster">
<title>cluster_MiscellaneousModule</title>
<polygon fill="none" stroke="#000000" stroke-dasharray="1,5" points="8,-70 8,-195 1384,-195 1384,-70 8,-70"/>
</g>
<g id="clust2" class="cluster">
<title>cluster_MiscellaneousModule_declarations</title>
<polygon fill="none" stroke="#000000" points="458,-78 458,-130 1376,-130 1376,-78 458,-78"/>
</g>
<g id="clust7" class="cluster">
<title>cluster_MiscellaneousModule_imports</title>
<polygon fill="none" stroke="#000000" points="16,-78 16,-130 450,-130 450,-78 16,-78"/>
</g>
<!-- CrudExperienciaLaboralComponent -->
<g id="node1" class="node">
<title>CrudExperienciaLaboralComponent</title>
<polygon fill="#ffffb3" stroke="#000000" points="1367.7156,-122 1148.2844,-122 1148.2844,-86 1367.7156,-86 1367.7156,-122"/>
<text text-anchor="middle" x="1258" y="-99.8" font-family="Times,serif" font-size="14.00" fill="#000000">CrudExperienciaLaboralComponent</text>
</g>
<!-- MiscellaneousModule -->
<g id="node5" class="node">
<title>MiscellaneousModule</title>
<polygon fill="#8dd3c7" stroke="#000000" points="647.4144,-187 644.4144,-191 623.4144,-191 620.4144,-187 506.5856,-187 506.5856,-151 647.4144,-151 647.4144,-187"/>
<text text-anchor="middle" x="577" y="-164.8" font-family="Times,serif" font-size="14.00" fill="#000000">MiscellaneousModule</text>
</g>
<!-- CrudExperienciaLaboralComponent&#45;&gt;MiscellaneousModule -->
<g id="edge1" class="edge">
<title>CrudExperienciaLaboralComponent&#45;&gt;MiscellaneousModule</title>
<path fill="none" stroke="#000000" d="M1258,-122.2921C1258,-144.2057 1258,-178 1258,-178 1258,-178 657.314,-178 657.314,-178"/>
<polygon fill="#000000" stroke="#000000" points="657.314,-174.5001 647.314,-178 657.314,-181.5001 657.314,-174.5001"/>
</g>
<!-- ExperienciaLaboralComponent -->
<g id="node2" class="node">
<title>ExperienciaLaboralComponent</title>
<polygon fill="#ffffb3" stroke="#000000" points="1129.7184,-122 938.2816,-122 938.2816,-86 1129.7184,-86 1129.7184,-122"/>
<text text-anchor="middle" x="1034" y="-99.8" font-family="Times,serif" font-size="14.00" fill="#000000">ExperienciaLaboralComponent</text>
</g>
<!-- ExperienciaLaboralComponent&#45;&gt;MiscellaneousModule -->
<g id="edge2" class="edge">
<title>ExperienciaLaboralComponent&#45;&gt;MiscellaneousModule</title>
<path fill="none" stroke="#000000" d="M1034,-122.1061C1034,-141.3391 1034,-169 1034,-169 1034,-169 657.4047,-169 657.4047,-169"/>
<polygon fill="#000000" stroke="#000000" points="657.4048,-165.5001 647.4047,-169 657.4047,-172.5001 657.4048,-165.5001"/>
</g>
<!-- ListExperienciaLaboralComponent -->
<g id="node3" class="node">
<title>ListExperienciaLaboralComponent</title>
<polygon fill="#ffffb3" stroke="#000000" points="919.9972,-122 706.0028,-122 706.0028,-86 919.9972,-86 919.9972,-122"/>
<text text-anchor="middle" x="813" y="-99.8" font-family="Times,serif" font-size="14.00" fill="#000000">ListExperienciaLaboralComponent</text>
</g>
<!-- ListExperienciaLaboralComponent&#45;&gt;MiscellaneousModule -->
<g id="edge3" class="edge">
<title>ListExperienciaLaboralComponent&#45;&gt;MiscellaneousModule</title>
<path fill="none" stroke="#000000" d="M813,-122.027C813,-138.3976 813,-160 813,-160 813,-160 657.4881,-160 657.4881,-160"/>
<polygon fill="#000000" stroke="#000000" points="657.4881,-156.5001 647.4881,-160 657.4881,-163.5001 657.4881,-156.5001"/>
</g>
<!-- ViewExperienciaLaboralComponent -->
<g id="node4" class="node">
<title>ViewExperienciaLaboralComponent</title>
<polygon fill="#ffffb3" stroke="#000000" points="688.0366,-122 465.9634,-122 465.9634,-86 688.0366,-86 688.0366,-122"/>
<text text-anchor="middle" x="577" y="-99.8" font-family="Times,serif" font-size="14.00" fill="#000000">ViewExperienciaLaboralComponent</text>
</g>
<!-- ViewExperienciaLaboralComponent&#45;&gt;MiscellaneousModule -->
<g id="edge4" class="edge">
<title>ViewExperienciaLaboralComponent&#45;&gt;MiscellaneousModule</title>
<path fill="none" stroke="#000000" d="M577,-122.1061C577,-122.1061 577,-140.991 577,-140.991"/>
<polygon fill="#000000" stroke="#000000" points="573.5001,-140.9909 577,-150.991 580.5001,-140.991 573.5001,-140.9909"/>
</g>
<!-- MiscellaneousRoutingModule -->
<g id="node6" class="node">
<title>MiscellaneousRoutingModule</title>
<polygon fill="#8dd3c7" stroke="#000000" points="441.5322,-122 438.5322,-126 417.5322,-126 414.5322,-122 256.4678,-122 256.4678,-86 441.5322,-86 441.5322,-122"/>
<text text-anchor="middle" x="349" y="-99.8" font-family="Times,serif" font-size="14.00" fill="#000000">MiscellaneousRoutingModule</text>
</g>
<!-- MiscellaneousRoutingModule&#45;&gt;MiscellaneousModule -->
<g id="edge5" class="edge">
<title>MiscellaneousRoutingModule&#45;&gt;MiscellaneousModule</title>
<path fill="none" stroke="#000000" d="M349,-122.027C349,-138.3976 349,-160 349,-160 349,-160 496.7321,-160 496.7321,-160"/>
<polygon fill="#000000" stroke="#000000" points="496.7321,-163.5001 506.7321,-160 496.732,-156.5001 496.7321,-163.5001"/>
</g>
<!-- SharedModule -->
<g id="node7" class="node">
<title>SharedModule</title>
<polygon fill="#8dd3c7" stroke="#000000" points="238.4231,-122 235.4231,-126 214.4231,-126 211.4231,-122 139.5769,-122 139.5769,-86 238.4231,-86 238.4231,-122"/>
<text text-anchor="middle" x="189" y="-99.8" font-family="Times,serif" font-size="14.00" fill="#000000">SharedModule</text>
</g>
<!-- SharedModule&#45;&gt;MiscellaneousModule -->
<g id="edge6" class="edge">
<title>SharedModule&#45;&gt;MiscellaneousModule</title>
<path fill="none" stroke="#000000" d="M189,-122.1061C189,-141.3391 189,-169 189,-169 189,-169 496.7361,-169 496.7361,-169"/>
<polygon fill="#000000" stroke="#000000" points="496.7362,-172.5001 506.7361,-169 496.7361,-165.5001 496.7362,-172.5001"/>
</g>
<!-- ThemeModule -->
<g id="node8" class="node">
<title>ThemeModule</title>
<polygon fill="#8dd3c7" stroke="#000000" points="122.4231,-122 119.4231,-126 98.4231,-126 95.4231,-122 23.5769,-122 23.5769,-86 122.4231,-86 122.4231,-122"/>
<text text-anchor="middle" x="73" y="-99.8" font-family="Times,serif" font-size="14.00" fill="#000000">ThemeModule</text>
</g>
<!-- ThemeModule&#45;&gt;MiscellaneousModule -->
<g id="edge7" class="edge">
<title>ThemeModule&#45;&gt;MiscellaneousModule</title>
<path fill="none" stroke="#000000" d="M73,-122.2921C73,-144.2057 73,-178 73,-178 73,-178 496.6558,-178 496.6558,-178"/>
<polygon fill="#000000" stroke="#000000" points="496.6558,-181.5001 506.6558,-178 496.6558,-174.5001 496.6558,-181.5001"/>
</g>
</g>
</svg>
