<?xml version="1.0" encoding="UTF-8" standalone="no"?>
<!DOCTYPE svg PUBLIC "-//W3C//DTD SVG 1.1//EN"
 "http://www.w3.org/Graphics/SVG/1.1/DTD/svg11.dtd">
<!-- Generated by graphviz version 2.40.1 (20161225.0304)
 -->
<!-- Title: dependencies Pages: 1 -->
<svg width="2253pt" height="284pt"
 viewBox="0.00 0.00 2253.00 284.00" xmlns="http://www.w3.org/2000/svg" xmlns:xlink="http://www.w3.org/1999/xlink">
<g id="graph0" class="graph" transform="scale(1 1) rotate(0) translate(4 280)">
<title>dependencies</title>
<polygon fill="#ffffff" stroke="transparent" points="-4,4 -4,-280 2249,-280 2249,4 -4,4"/>
<text text-anchor="start" x="1101.5091" y="-42.4" font-family="sans-serif" font-weight="bold" font-size="14.00" fill="#000000">Legend</text>
<polygon fill="#ffffb3" stroke="transparent" points="888.5,-10 888.5,-30 908.5,-30 908.5,-10 888.5,-10"/>
<text text-anchor="start" x="912.129" y="-15.4" font-family="sans-serif" font-size="14.00" fill="#000000"> &#160;Declarations</text>
<polygon fill="#8dd3c7" stroke="transparent" points="1001.5,-10 1001.5,-30 1021.5,-30 1021.5,-10 1001.5,-10"/>
<text text-anchor="start" x="1025.2251" y="-15.4" font-family="sans-serif" font-size="14.00" fill="#000000"> &#160;Module</text>
<polygon fill="#80b1d3" stroke="transparent" points="1087.5,-10 1087.5,-30 1107.5,-30 1107.5,-10 1087.5,-10"/>
<text text-anchor="start" x="1111.2812" y="-15.4" font-family="sans-serif" font-size="14.00" fill="#000000"> &#160;Bootstrap</text>
<polygon fill="#fdb462" stroke="transparent" points="1184.5,-10 1184.5,-30 1204.5,-30 1204.5,-10 1184.5,-10"/>
<text text-anchor="start" x="1208.1732" y="-15.4" font-family="sans-serif" font-size="14.00" fill="#000000"> &#160;Providers</text>
<polygon fill="#fb8072" stroke="transparent" points="1280.5,-10 1280.5,-30 1300.5,-30 1300.5,-10 1280.5,-10"/>
<text text-anchor="start" x="1304.2258" y="-15.4" font-family="sans-serif" font-size="14.00" fill="#000000"> &#160;Exports</text>
<g id="clust1" class="cluster">
<title>cluster_InfoPersonaModule</title>
<polygon fill="none" stroke="#000000" stroke-dasharray="1,5" points="8,-70 8,-268 2237,-268 2237,-70 8,-70"/>
</g>
<g id="clust2" class="cluster">
<title>cluster_InfoPersonaModule_declarations</title>
<polygon fill="none" stroke="#000000" points="1274,-78 1274,-130 2229,-130 2229,-78 1274,-78"/>
</g>
<g id="clust7" class="cluster">
<title>cluster_InfoPersonaModule_imports</title>
<polygon fill="none" stroke="#000000" points="846,-78 846,-130 1266,-130 1266,-78 846,-78"/>
</g>
<g id="clust8" class="cluster">
<title>cluster_InfoPersonaModule_exports</title>
<polygon fill="none" stroke="#000000" points="762,-208 762,-260 1159,-260 1159,-208 762,-208"/>
</g>
<g id="clust10" class="cluster">
<title>cluster_InfoPersonaModule_providers</title>
<polygon fill="none" stroke="#000000" points="16,-78 16,-130 838,-130 838,-78 16,-78"/>
</g>
<!-- CrudDocumentoProgramaComponent -->
<g id="node1" class="node">
<title>CrudDocumentoProgramaComponent</title>
<polygon fill="#ffffb3" stroke="#000000" points="2220.5702,-122 1991.4298,-122 1991.4298,-86 2220.5702,-86 2220.5702,-122"/>
<text text-anchor="middle" x="2106" y="-99.8" font-family="Times,serif" font-size="14.00" fill="#000000">CrudDocumentoProgramaComponent</text>
</g>
<!-- InfoPersonaModule -->
<g id="node5" class="node">
<title>InfoPersonaModule</title>
<polygon fill="#8dd3c7" stroke="#000000" points="1024.6881,-187 1021.6881,-191 1000.6881,-191 997.6881,-187 897.3119,-187 897.3119,-151 1024.6881,-151 1024.6881,-187"/>
<text text-anchor="middle" x="961" y="-164.8" font-family="Times,serif" font-size="14.00" fill="#000000">InfoPersonaModule</text>
</g>
<!-- CrudDocumentoProgramaComponent&#45;&gt;InfoPersonaModule -->
<g id="edge1" class="edge">
<title>CrudDocumentoProgramaComponent&#45;&gt;InfoPersonaModule</title>
<path fill="none" stroke="#000000" d="M2106,-122.2479C2106,-145.0179 2106,-181 2106,-181 2106,-181 1034.6018,-181 1034.6018,-181"/>
<polygon fill="#000000" stroke="#000000" points="1034.6018,-177.5001 1024.6018,-181 1034.6018,-184.5001 1034.6018,-177.5001"/>
</g>
<!-- DocumentoProgramaComponent -->
<g id="node2" class="node">
<title>DocumentoProgramaComponent</title>
<polygon fill="#ffffb3" stroke="#000000" points="1973.573,-122 1772.427,-122 1772.427,-86 1973.573,-86 1973.573,-122"/>
<text text-anchor="middle" x="1873" y="-99.8" font-family="Times,serif" font-size="14.00" fill="#000000">DocumentoProgramaComponent</text>
</g>
<!-- DocumentoProgramaComponent&#45;&gt;InfoPersonaModule -->
<g id="edge2" class="edge">
<title>DocumentoProgramaComponent&#45;&gt;InfoPersonaModule</title>
<path fill="none" stroke="#000000" d="M1873,-122.2843C1873,-143.3211 1873,-175 1873,-175 1873,-175 1034.7676,-175 1034.7676,-175"/>
<polygon fill="#000000" stroke="#000000" points="1034.7676,-171.5001 1024.7676,-175 1034.7676,-178.5001 1034.7676,-171.5001"/>
</g>
<!-- ListDocumentoProgramaComponent -->
<g id="node3" class="node">
<title>ListDocumentoProgramaComponent</title>
<polygon fill="#ffffb3" stroke="#000000" points="1754.3514,-122 1531.6486,-122 1531.6486,-86 1754.3514,-86 1754.3514,-122"/>
<text text-anchor="middle" x="1643" y="-99.8" font-family="Times,serif" font-size="14.00" fill="#000000">ListDocumentoProgramaComponent</text>
</g>
<!-- ListDocumentoProgramaComponent&#45;&gt;InfoPersonaModule -->
<g id="edge3" class="edge">
<title>ListDocumentoProgramaComponent&#45;&gt;InfoPersonaModule</title>
<path fill="none" stroke="#000000" d="M1643,-122.1061C1643,-141.3391 1643,-169 1643,-169 1643,-169 1034.8544,-169 1034.8544,-169"/>
<polygon fill="#000000" stroke="#000000" points="1034.8544,-165.5001 1024.8544,-169 1034.8544,-172.5001 1034.8544,-165.5001"/>
</g>
<!-- ViewDocumentoProgramaComponent -->
<g id="node4" class="node">
<title>ViewDocumentoProgramaComponent</title>
<polygon fill="#ffffb3" stroke="#000000" points="1513.8917,-122 1282.1083,-122 1282.1083,-86 1513.8917,-86 1513.8917,-122"/>
<text text-anchor="middle" x="1398" y="-99.8" font-family="Times,serif" font-size="14.00" fill="#000000">ViewDocumentoProgramaComponent</text>
</g>
<!-- ViewDocumentoProgramaComponent&#45;&gt;InfoPersonaModule -->
<g id="edge4" class="edge">
<title>ViewDocumentoProgramaComponent&#45;&gt;InfoPersonaModule</title>
<path fill="none" stroke="#000000" d="M1398,-122.0225C1398,-139.3734 1398,-163 1398,-163 1398,-163 1035.0116,-163 1035.0116,-163"/>
<polygon fill="#000000" stroke="#000000" points="1035.0116,-159.5001 1025.0116,-163 1035.0115,-166.5001 1035.0116,-159.5001"/>
</g>
<!-- CrudInfoPersonaComponent  -->
<g id="node9" class="node">
<title>CrudInfoPersonaComponent </title>
<polygon fill="#fb8072" stroke="#000000" points="1151.4684,-252 970.5316,-252 970.5316,-216 1151.4684,-216 1151.4684,-252"/>
<text text-anchor="middle" x="1061" y="-229.8" font-family="Times,serif" font-size="14.00" fill="#000000">CrudInfoPersonaComponent </text>
</g>
<!-- InfoPersonaModule&#45;&gt;CrudInfoPersonaComponent  -->
<g id="edge8" class="edge">
<title>InfoPersonaModule&#45;&gt;CrudInfoPersonaComponent </title>
<path fill="none" stroke="#000000" stroke-dasharray="5,2" d="M997.6801,-187.1061C997.6801,-187.1061 997.6801,-205.991 997.6801,-205.991"/>
<polygon fill="#000000" stroke="#000000" points="994.1801,-205.9909 997.6801,-215.991 1001.1801,-205.991 994.1801,-205.9909"/>
</g>
<!-- ViewInfoPersonaComponent  -->
<g id="node10" class="node">
<title>ViewInfoPersonaComponent </title>
<polygon fill="#fb8072" stroke="#000000" points="952.2891,-252 769.7109,-252 769.7109,-216 952.2891,-216 952.2891,-252"/>
<text text-anchor="middle" x="861" y="-229.8" font-family="Times,serif" font-size="14.00" fill="#000000">ViewInfoPersonaComponent </text>
</g>
<!-- InfoPersonaModule&#45;&gt;ViewInfoPersonaComponent  -->
<g id="edge9" class="edge">
<title>InfoPersonaModule&#45;&gt;ViewInfoPersonaComponent </title>
<path fill="none" stroke="#000000" stroke-dasharray="5,2" d="M924.9003,-187.1061C924.9003,-187.1061 924.9003,-205.991 924.9003,-205.991"/>
<polygon fill="#000000" stroke="#000000" points="921.4003,-205.9909 924.9003,-215.991 928.4003,-205.991 921.4003,-205.9909"/>
</g>
<!-- InfoPersonaRoutingModule -->
<g id="node6" class="node">
<title>InfoPersonaRoutingModule</title>
<polygon fill="#8dd3c7" stroke="#000000" points="1258.3061,-122 1255.3061,-126 1234.3061,-126 1231.3061,-122 1085.6939,-122 1085.6939,-86 1258.3061,-86 1258.3061,-122"/>
<text text-anchor="middle" x="1172" y="-99.8" font-family="Times,serif" font-size="14.00" fill="#000000">InfoPersonaRoutingModule</text>
</g>
<!-- InfoPersonaRoutingModule&#45;&gt;InfoPersonaModule -->
<g id="edge5" class="edge">
<title>InfoPersonaRoutingModule&#45;&gt;InfoPersonaModule</title>
<path fill="none" stroke="#000000" d="M1118.5405,-122.2396C1118.5405,-137.5706 1118.5405,-157 1118.5405,-157 1118.5405,-157 1034.6236,-157 1034.6236,-157"/>
<polygon fill="#000000" stroke="#000000" points="1034.6237,-153.5001 1024.6236,-157 1034.6236,-160.5001 1034.6237,-153.5001"/>
</g>
<!-- SharedModule -->
<g id="node7" class="node">
<title>SharedModule</title>
<polygon fill="#8dd3c7" stroke="#000000" points="1068.4231,-122 1065.4231,-126 1044.4231,-126 1041.4231,-122 969.5769,-122 969.5769,-86 1068.4231,-86 1068.4231,-122"/>
<text text-anchor="middle" x="1019" y="-99.8" font-family="Times,serif" font-size="14.00" fill="#000000">SharedModule</text>
</g>
<!-- SharedModule&#45;&gt;InfoPersonaModule -->
<g id="edge6" class="edge">
<title>SharedModule&#45;&gt;InfoPersonaModule</title>
<path fill="none" stroke="#000000" d="M997.1915,-122.1061C997.1915,-122.1061 997.1915,-140.991 997.1915,-140.991"/>
<polygon fill="#000000" stroke="#000000" points="993.6915,-140.9909 997.1915,-150.991 1000.6915,-140.991 993.6915,-140.9909"/>
</g>
<!-- ThemeModule -->
<g id="node8" class="node">
<title>ThemeModule</title>
<polygon fill="#8dd3c7" stroke="#000000" points="952.4231,-122 949.4231,-126 928.4231,-126 925.4231,-122 853.5769,-122 853.5769,-86 952.4231,-86 952.4231,-122"/>
<text text-anchor="middle" x="903" y="-99.8" font-family="Times,serif" font-size="14.00" fill="#000000">ThemeModule</text>
</g>
<!-- ThemeModule&#45;&gt;InfoPersonaModule -->
<g id="edge7" class="edge">
<title>ThemeModule&#45;&gt;InfoPersonaModule</title>
<path fill="none" stroke="#000000" d="M924.8086,-122.1061C924.8086,-122.1061 924.8086,-140.991 924.8086,-140.991"/>
<polygon fill="#000000" stroke="#000000" points="921.3086,-140.9909 924.8086,-150.991 928.3086,-140.991 921.3086,-140.9909"/>
</g>
<!-- CampusMidService -->
<g id="node11" class="node">
<title>CampusMidService</title>
<ellipse fill="#fdb462" stroke="#000000" cx="742" cy="-104" rx="87.98" ry="18"/>
<text text-anchor="middle" x="742" y="-99.8" font-family="Times,serif" font-size="14.00" fill="#000000">CampusMidService</text>
</g>
<!-- CampusMidService&#45;&gt;InfoPersonaModule -->
<g id="edge10" class="edge">
<title>CampusMidService&#45;&gt;InfoPersonaModule</title>
<path fill="none" stroke="#000000" d="M799.6726,-117.6488C799.6726,-133.3523 799.6726,-157 799.6726,-157 799.6726,-157 887.2391,-157 887.2391,-157"/>
<polygon fill="#000000" stroke="#000000" points="887.2392,-160.5001 897.2391,-157 887.2391,-153.5001 887.2392,-160.5001"/>
</g>
<!-- EnteService -->
<g id="node12" class="node">
<title>EnteService</title>
<ellipse fill="#fdb462" stroke="#000000" cx="579" cy="-104" rx="57.881" ry="18"/>
<text text-anchor="middle" x="579" y="-99.8" font-family="Times,serif" font-size="14.00" fill="#000000">EnteService</text>
</g>
<!-- EnteService&#45;&gt;InfoPersonaModule -->
<g id="edge11" class="edge">
<title>EnteService&#45;&gt;InfoPersonaModule</title>
<path fill="none" stroke="#000000" d="M579,-122.0225C579,-139.3734 579,-163 579,-163 579,-163 887.0618,-163 887.0618,-163"/>
<polygon fill="#000000" stroke="#000000" points="887.0618,-166.5001 897.0618,-163 887.0618,-159.5001 887.0618,-166.5001"/>
</g>
<!-- EventoService -->
<g id="node13" class="node">
<title>EventoService</title>
<ellipse fill="#fdb462" stroke="#000000" cx="436" cy="-104" rx="67.1946" ry="18"/>
<text text-anchor="middle" x="436" y="-99.8" font-family="Times,serif" font-size="14.00" fill="#000000">EventoService</text>
</g>
<!-- EventoService&#45;&gt;InfoPersonaModule -->
<g id="edge12" class="edge">
<title>EventoService&#45;&gt;InfoPersonaModule</title>
<path fill="none" stroke="#000000" d="M436,-122.1061C436,-141.3391 436,-169 436,-169 436,-169 887.1496,-169 887.1496,-169"/>
<polygon fill="#000000" stroke="#000000" points="887.1496,-172.5001 897.1496,-169 887.1495,-165.5001 887.1496,-172.5001"/>
</g>
<!-- InscripcionService -->
<g id="node14" class="node">
<title>InscripcionService</title>
<ellipse fill="#fdb462" stroke="#000000" cx="267" cy="-104" rx="83.3635" ry="18"/>
<text text-anchor="middle" x="267" y="-99.8" font-family="Times,serif" font-size="14.00" fill="#000000">InscripcionService</text>
</g>
<!-- InscripcionService&#45;&gt;InfoPersonaModule -->
<g id="edge13" class="edge">
<title>InscripcionService&#45;&gt;InfoPersonaModule</title>
<path fill="none" stroke="#000000" d="M267,-122.2843C267,-143.3211 267,-175 267,-175 267,-175 887.2635,-175 887.2635,-175"/>
<polygon fill="#000000" stroke="#000000" points="887.2636,-178.5001 897.2635,-175 887.2635,-171.5001 887.2636,-178.5001"/>
</g>
<!-- PersonaService -->
<g id="node15" class="node">
<title>PersonaService</title>
<ellipse fill="#fdb462" stroke="#000000" cx="95" cy="-104" rx="70.622" ry="18"/>
<text text-anchor="middle" x="95" y="-99.8" font-family="Times,serif" font-size="14.00" fill="#000000">PersonaService</text>
</g>
<!-- PersonaService&#45;&gt;InfoPersonaModule -->
<g id="edge14" class="edge">
<title>PersonaService&#45;&gt;InfoPersonaModule</title>
<path fill="none" stroke="#000000" d="M95,-122.2479C95,-145.0179 95,-181 95,-181 95,-181 887.321,-181 887.321,-181"/>
<polygon fill="#000000" stroke="#000000" points="887.321,-184.5001 897.321,-181 887.3209,-177.5001 887.321,-184.5001"/>
</g>
</g>
</svg>
