<?xml version="1.0" encoding="UTF-8" standalone="no"?>
<!DOCTYPE svg PUBLIC "-//W3C//DTD SVG 1.1//EN"
 "http://www.w3.org/Graphics/SVG/1.1/DTD/svg11.dtd">
<!-- Generated by graphviz version 2.40.1 (20161225.0304)
 -->
<!-- Title: dependencies Pages: 1 -->
<svg width="1808pt" height="284pt"
 viewBox="0.00 0.00 1808.00 284.00" xmlns="http://www.w3.org/2000/svg" xmlns:xlink="http://www.w3.org/1999/xlink">
<g id="graph0" class="graph" transform="scale(1 1) rotate(0) translate(4 280)">
<title>dependencies</title>
<polygon fill="#ffffff" stroke="transparent" points="-4,4 -4,-280 1804,-280 1804,4 -4,4"/>
<text text-anchor="start" x="879.0091" y="-42.4" font-family="sans-serif" font-weight="bold" font-size="14.00" fill="#000000">Legend</text>
<polygon fill="#ffffb3" stroke="transparent" points="666,-10 666,-30 686,-30 686,-10 666,-10"/>
<text text-anchor="start" x="689.629" y="-15.4" font-family="sans-serif" font-size="14.00" fill="#000000"> &#160;Declarations</text>
<polygon fill="#8dd3c7" stroke="transparent" points="779,-10 779,-30 799,-30 799,-10 779,-10"/>
<text text-anchor="start" x="802.7251" y="-15.4" font-family="sans-serif" font-size="14.00" fill="#000000"> &#160;Module</text>
<polygon fill="#80b1d3" stroke="transparent" points="865,-10 865,-30 885,-30 885,-10 865,-10"/>
<text text-anchor="start" x="888.7812" y="-15.4" font-family="sans-serif" font-size="14.00" fill="#000000"> &#160;Bootstrap</text>
<polygon fill="#fdb462" stroke="transparent" points="962,-10 962,-30 982,-30 982,-10 962,-10"/>
<text text-anchor="start" x="985.6732" y="-15.4" font-family="sans-serif" font-size="14.00" fill="#000000"> &#160;Providers</text>
<polygon fill="#fb8072" stroke="transparent" points="1058,-10 1058,-30 1078,-30 1078,-10 1058,-10"/>
<text text-anchor="start" x="1081.7258" y="-15.4" font-family="sans-serif" font-size="14.00" fill="#000000"> &#160;Exports</text>
<g id="clust1" class="cluster">
<title>cluster_ProduccionArtesArquDisenoModule</title>
<polygon fill="none" stroke="#000000" stroke-dasharray="1,5" points="8,-70 8,-268 1792,-268 1792,-70 8,-70"/>
</g>
<g id="clust2" class="cluster">
<title>cluster_ProduccionArtesArquDisenoModule_declarations</title>
<polygon fill="none" stroke="#000000" points="818,-78 818,-130 1784,-130 1784,-78 818,-78"/>
</g>
<g id="clust7" class="cluster">
<title>cluster_ProduccionArtesArquDisenoModule_imports</title>
<polygon fill="none" stroke="#000000" points="294,-78 294,-130 810,-130 810,-78 294,-78"/>
</g>
<g id="clust8" class="cluster">
<title>cluster_ProduccionArtesArquDisenoModule_exports</title>
<polygon fill="none" stroke="#000000" points="367,-208 367,-260 1241,-260 1241,-208 367,-208"/>
</g>
<g id="clust10" class="cluster">
<title>cluster_ProduccionArtesArquDisenoModule_providers</title>
<polygon fill="none" stroke="#000000" points="16,-78 16,-130 286,-130 286,-78 16,-78"/>
</g>
<!-- CrudDescuentoAcademicoComponent -->
<g id="node1" class="node">
<title>CrudDescuentoAcademicoComponent</title>
<polygon fill="#ffffb3" stroke="#000000" points="1776.1615,-122 1543.8385,-122 1543.8385,-86 1776.1615,-86 1776.1615,-122"/>
<text text-anchor="middle" x="1660" y="-99.8" font-family="Times,serif" font-size="14.00" fill="#000000">CrudDescuentoAcademicoComponent</text>
</g>
<!-- ProduccionArtesArquDisenoModule -->
<g id="node5" class="node">
<title>ProduccionArtesArquDisenoModule</title>
<polygon fill="#8dd3c7" stroke="#000000" points="916.0534,-187 913.0534,-191 892.0534,-191 889.0534,-187 693.9466,-187 693.9466,-151 916.0534,-151 916.0534,-187"/>
<text text-anchor="middle" x="805" y="-164.8" font-family="Times,serif" font-size="14.00" fill="#000000">ProduccionArtesArquDisenoModule</text>
</g>
<!-- CrudDescuentoAcademicoComponent&#45;&gt;ProduccionArtesArquDisenoModule -->
<g id="edge1" class="edge">
<title>CrudDescuentoAcademicoComponent&#45;&gt;ProduccionArtesArquDisenoModule</title>
<path fill="none" stroke="#000000" d="M1660,-122.1289C1660,-142.5724 1660,-173 1660,-173 1660,-173 926.3377,-173 926.3377,-173"/>
<polygon fill="#000000" stroke="#000000" points="926.3378,-169.5001 916.3377,-173 926.3377,-176.5001 926.3378,-169.5001"/>
</g>
<!-- DescuentoAcademicoComponent -->
<g id="node2" class="node">
<title>DescuentoAcademicoComponent</title>
<polygon fill="#ffffb3" stroke="#000000" points="1526.1643,-122 1321.8357,-122 1321.8357,-86 1526.1643,-86 1526.1643,-122"/>
<text text-anchor="middle" x="1424" y="-99.8" font-family="Times,serif" font-size="14.00" fill="#000000">DescuentoAcademicoComponent</text>
</g>
<!-- DescuentoAcademicoComponent&#45;&gt;ProduccionArtesArquDisenoModule -->
<g id="edge2" class="edge">
<title>DescuentoAcademicoComponent&#45;&gt;ProduccionArtesArquDisenoModule</title>
<path fill="none" stroke="#000000" d="M1424,-122.2667C1424,-140.5552 1424,-166 1424,-166 1424,-166 926.3797,-166 926.3797,-166"/>
<polygon fill="#000000" stroke="#000000" points="926.3797,-162.5001 916.3797,-166 926.3797,-169.5001 926.3797,-162.5001"/>
</g>
<!-- ListDescuentoAcademicoComponent -->
<g id="node3" class="node">
<title>ListDescuentoAcademicoComponent</title>
<polygon fill="#ffffb3" stroke="#000000" points="1303.9426,-122 1078.0574,-122 1078.0574,-86 1303.9426,-86 1303.9426,-122"/>
<text text-anchor="middle" x="1191" y="-99.8" font-family="Times,serif" font-size="14.00" fill="#000000">ListDescuentoAcademicoComponent</text>
</g>
<!-- ListDescuentoAcademicoComponent&#45;&gt;ProduccionArtesArquDisenoModule -->
<g id="edge3" class="edge">
<title>ListDescuentoAcademicoComponent&#45;&gt;ProduccionArtesArquDisenoModule</title>
<path fill="none" stroke="#000000" d="M1155.3477,-122.0091C1155.3477,-138.0494 1155.3477,-159 1155.3477,-159 1155.3477,-159 926.3336,-159 926.3336,-159"/>
<polygon fill="#000000" stroke="#000000" points="926.3336,-155.5001 916.3336,-159 926.3335,-162.5001 926.3336,-155.5001"/>
</g>
<!-- ViewDescuentoAcademicoComponent -->
<g id="node4" class="node">
<title>ViewDescuentoAcademicoComponent</title>
<polygon fill="#ffffb3" stroke="#000000" points="1060.4831,-122 825.5169,-122 825.5169,-86 1060.4831,-86 1060.4831,-122"/>
<text text-anchor="middle" x="943" y="-99.8" font-family="Times,serif" font-size="14.00" fill="#000000">ViewDescuentoAcademicoComponent</text>
</g>
<!-- ViewDescuentoAcademicoComponent&#45;&gt;ProduccionArtesArquDisenoModule -->
<g id="edge4" class="edge">
<title>ViewDescuentoAcademicoComponent&#45;&gt;ProduccionArtesArquDisenoModule</title>
<path fill="none" stroke="#000000" d="M870.8927,-122.1061C870.8927,-122.1061 870.8927,-140.991 870.8927,-140.991"/>
<polygon fill="#000000" stroke="#000000" points="867.3928,-140.9909 870.8927,-150.991 874.3928,-140.991 867.3928,-140.9909"/>
</g>
<!-- CrudProduccionArtesArquDisenoComponent  -->
<g id="node9" class="node">
<title>CrudProduccionArtesArquDisenoComponent </title>
<polygon fill="#fb8072" stroke="#000000" points="1232.8334,-252 957.1666,-252 957.1666,-216 1232.8334,-216 1232.8334,-252"/>
<text text-anchor="middle" x="1095" y="-229.8" font-family="Times,serif" font-size="14.00" fill="#000000">CrudProduccionArtesArquDisenoComponent </text>
</g>
<!-- ProduccionArtesArquDisenoModule&#45;&gt;CrudProduccionArtesArquDisenoComponent  -->
<g id="edge8" class="edge">
<title>ProduccionArtesArquDisenoModule&#45;&gt;CrudProduccionArtesArquDisenoComponent </title>
<path fill="none" stroke="#000000" stroke-dasharray="5,2" d="M916.1364,-180C963.8231,-180 1008.7874,-180 1008.7874,-180 1008.7874,-180 1008.7874,-205.7181 1008.7874,-205.7181"/>
<polygon fill="#000000" stroke="#000000" points="1005.2874,-205.718 1008.7874,-215.7181 1012.2874,-205.7181 1005.2874,-205.718"/>
</g>
<!-- ListProduccionArtesArquDisenoComponent  -->
<g id="node10" class="node">
<title>ListProduccionArtesArquDisenoComponent </title>
<polygon fill="#fb8072" stroke="#000000" points="939.6144,-252 670.3856,-252 670.3856,-216 939.6144,-216 939.6144,-252"/>
<text text-anchor="middle" x="805" y="-229.8" font-family="Times,serif" font-size="14.00" fill="#000000">ListProduccionArtesArquDisenoComponent </text>
</g>
<!-- ProduccionArtesArquDisenoModule&#45;&gt;ListProduccionArtesArquDisenoComponent  -->
<g id="edge9" class="edge">
<title>ProduccionArtesArquDisenoModule&#45;&gt;ListProduccionArtesArquDisenoComponent </title>
<path fill="none" stroke="#000000" stroke-dasharray="5,2" d="M805,-187.1061C805,-187.1061 805,-205.991 805,-205.991"/>
<polygon fill="#000000" stroke="#000000" points="801.5001,-205.9909 805,-215.991 808.5001,-205.991 801.5001,-205.9909"/>
</g>
<!-- ViewProduccionArtesArquDisenoComponent  -->
<g id="node11" class="node">
<title>ViewProduccionArtesArquDisenoComponent </title>
<polygon fill="#fb8072" stroke="#000000" points="652.6546,-252 375.3454,-252 375.3454,-216 652.6546,-216 652.6546,-252"/>
<text text-anchor="middle" x="514" y="-229.8" font-family="Times,serif" font-size="14.00" fill="#000000">ViewProduccionArtesArquDisenoComponent </text>
</g>
<!-- ProduccionArtesArquDisenoModule&#45;&gt;ViewProduccionArtesArquDisenoComponent  -->
<g id="edge10" class="edge">
<title>ProduccionArtesArquDisenoModule&#45;&gt;ViewProduccionArtesArquDisenoComponent </title>
<path fill="none" stroke="#000000" stroke-dasharray="5,2" d="M693.7392,-180C642.8153,-180 593.6208,-180 593.6208,-180 593.6208,-180 593.6208,-205.7181 593.6208,-205.7181"/>
<polygon fill="#000000" stroke="#000000" points="590.1209,-205.718 593.6208,-215.7181 597.1209,-205.7181 590.1209,-205.718"/>
</g>
<!-- ProduccionArtesArquDisenoRoutingModule -->
<g id="node6" class="node">
<title>ProduccionArtesArquDisenoRoutingModule</title>
<polygon fill="#8dd3c7" stroke="#000000" points="801.6713,-122 798.6713,-126 777.6713,-126 774.6713,-122 534.3287,-122 534.3287,-86 801.6713,-86 801.6713,-122"/>
<text text-anchor="middle" x="668" y="-99.8" font-family="Times,serif" font-size="14.00" fill="#000000">ProduccionArtesArquDisenoRoutingModule</text>
</g>
<!-- ProduccionArtesArquDisenoRoutingModule&#45;&gt;ProduccionArtesArquDisenoModule -->
<g id="edge5" class="edge">
<title>ProduccionArtesArquDisenoRoutingModule&#45;&gt;ProduccionArtesArquDisenoModule</title>
<path fill="none" stroke="#000000" d="M747.7795,-122.1061C747.7795,-122.1061 747.7795,-140.991 747.7795,-140.991"/>
<polygon fill="#000000" stroke="#000000" points="744.2795,-140.9909 747.7795,-150.991 751.2795,-140.991 744.2795,-140.9909"/>
</g>
<!-- SharedModule -->
<g id="node7" class="node">
<title>SharedModule</title>
<polygon fill="#8dd3c7" stroke="#000000" points="516.4231,-122 513.4231,-126 492.4231,-126 489.4231,-122 417.5769,-122 417.5769,-86 516.4231,-86 516.4231,-122"/>
<text text-anchor="middle" x="467" y="-99.8" font-family="Times,serif" font-size="14.00" fill="#000000">SharedModule</text>
</g>
<!-- SharedModule&#45;&gt;ProduccionArtesArquDisenoModule -->
<g id="edge6" class="edge">
<title>SharedModule&#45;&gt;ProduccionArtesArquDisenoModule</title>
<path fill="none" stroke="#000000" d="M467,-122.0091C467,-138.0494 467,-159 467,-159 467,-159 683.858,-159 683.858,-159"/>
<polygon fill="#000000" stroke="#000000" points="683.858,-162.5001 693.858,-159 683.858,-155.5001 683.858,-162.5001"/>
</g>
<!-- ThemeModule -->
<g id="node8" class="node">
<title>ThemeModule</title>
<polygon fill="#8dd3c7" stroke="#000000" points="400.4231,-122 397.4231,-126 376.4231,-126 373.4231,-122 301.5769,-122 301.5769,-86 400.4231,-86 400.4231,-122"/>
<text text-anchor="middle" x="351" y="-99.8" font-family="Times,serif" font-size="14.00" fill="#000000">ThemeModule</text>
</g>
<!-- ThemeModule&#45;&gt;ProduccionArtesArquDisenoModule -->
<g id="edge7" class="edge">
<title>ThemeModule&#45;&gt;ProduccionArtesArquDisenoModule</title>
<path fill="none" stroke="#000000" d="M387.692,-122.2667C387.692,-140.5552 387.692,-166 387.692,-166 387.692,-166 683.7173,-166 683.7173,-166"/>
<polygon fill="#000000" stroke="#000000" points="683.7173,-169.5001 693.7173,-166 683.7173,-162.5001 683.7173,-169.5001"/>
</g>
<!-- ProduccionAcademicaService -->
<g id="node12" class="node">
<title>ProduccionAcademicaService</title>
<ellipse fill="#fdb462" stroke="#000000" cx="151" cy="-104" rx="127.3074" ry="18"/>
<text text-anchor="middle" x="151" y="-99.8" font-family="Times,serif" font-size="14.00" fill="#000000">ProduccionAcademicaService</text>
</g>
<!-- ProduccionAcademicaService&#45;&gt;ProduccionArtesArquDisenoModule -->
<g id="edge11" class="edge">
<title>ProduccionAcademicaService&#45;&gt;ProduccionArtesArquDisenoModule</title>
<path fill="none" stroke="#000000" d="M151,-122.1289C151,-142.5724 151,-173 151,-173 151,-173 683.6874,-173 683.6874,-173"/>
<polygon fill="#000000" stroke="#000000" points="683.6874,-176.5001 693.6874,-173 683.6873,-169.5001 683.6874,-176.5001"/>
</g>
</g>
</svg>
