<?xml version="1.0" encoding="UTF-8" standalone="no"?>
<!DOCTYPE svg PUBLIC "-//W3C//DTD SVG 1.1//EN"
 "http://www.w3.org/Graphics/SVG/1.1/DTD/svg11.dtd">
<!-- Generated by graphviz version 2.40.1 (20161225.0304)
 -->
<!-- Title: dependencies Pages: 1 -->
<svg width="1504pt" height="284pt"
 viewBox="0.00 0.00 1504.00 284.00" xmlns="http://www.w3.org/2000/svg" xmlns:xlink="http://www.w3.org/1999/xlink">
<g id="graph0" class="graph" transform="scale(1 1) rotate(0) translate(4 280)">
<title>dependencies</title>
<polygon fill="#ffffff" stroke="transparent" points="-4,4 -4,-280 1500,-280 1500,4 -4,4"/>
<text text-anchor="start" x="727.0091" y="-42.4" font-family="sans-serif" font-weight="bold" font-size="14.00" fill="#000000">Legend</text>
<polygon fill="#ffffb3" stroke="transparent" points="514,-10 514,-30 534,-30 534,-10 514,-10"/>
<text text-anchor="start" x="537.629" y="-15.4" font-family="sans-serif" font-size="14.00" fill="#000000"> &#160;Declarations</text>
<polygon fill="#8dd3c7" stroke="transparent" points="627,-10 627,-30 647,-30 647,-10 627,-10"/>
<text text-anchor="start" x="650.7251" y="-15.4" font-family="sans-serif" font-size="14.00" fill="#000000"> &#160;Module</text>
<polygon fill="#80b1d3" stroke="transparent" points="713,-10 713,-30 733,-30 733,-10 713,-10"/>
<text text-anchor="start" x="736.7812" y="-15.4" font-family="sans-serif" font-size="14.00" fill="#000000"> &#160;Bootstrap</text>
<polygon fill="#fdb462" stroke="transparent" points="810,-10 810,-30 830,-30 830,-10 810,-10"/>
<text text-anchor="start" x="833.6732" y="-15.4" font-family="sans-serif" font-size="14.00" fill="#000000"> &#160;Providers</text>
<polygon fill="#fb8072" stroke="transparent" points="906,-10 906,-30 926,-30 926,-10 906,-10"/>
<text text-anchor="start" x="929.7258" y="-15.4" font-family="sans-serif" font-size="14.00" fill="#000000"> &#160;Exports</text>
<g id="clust1" class="cluster">
<title>cluster_ProduccionArtesArquDisenoModule</title>
<polygon fill="none" stroke="#000000" stroke-dasharray="1,5" points="8,-70 8,-268 1488,-268 1488,-70 8,-70"/>
</g>
<g id="clust2" class="cluster">
<title>cluster_ProduccionArtesArquDisenoModule_declarations</title>
<polygon fill="none" stroke="#000000" points="818,-78 818,-130 1480,-130 1480,-78 818,-78"/>
</g>
<g id="clust7" class="cluster">
<title>cluster_ProduccionArtesArquDisenoModule_imports</title>
<polygon fill="none" stroke="#000000" points="294,-78 294,-130 810,-130 810,-78 294,-78"/>
</g>
<g id="clust8" class="cluster">
<title>cluster_ProduccionArtesArquDisenoModule_exports</title>
<polygon fill="none" stroke="#000000" points="348,-208 348,-260 1222,-260 1222,-208 348,-208"/>
</g>
<g id="clust10" class="cluster">
<title>cluster_ProduccionArtesArquDisenoModule_providers</title>
<polygon fill="none" stroke="#000000" points="16,-78 16,-130 286,-130 286,-78 16,-78"/>
</g>
<!-- ArticuloComponent -->
<g id="node1" class="node">
<title>ArticuloComponent</title>
<polygon fill="#ffffb3" stroke="#000000" points="1471.986,-122 1344.014,-122 1344.014,-86 1471.986,-86 1471.986,-122"/>
<text text-anchor="middle" x="1408" y="-99.8" font-family="Times,serif" font-size="14.00" fill="#000000">ArticuloComponent</text>
</g>
<!-- ProduccionArtesArquDisenoModule -->
<g id="node5" class="node">
<title>ProduccionArtesArquDisenoModule</title>
<polygon fill="#8dd3c7" stroke="#000000" points="897.0534,-187 894.0534,-191 873.0534,-191 870.0534,-187 674.9466,-187 674.9466,-151 897.0534,-151 897.0534,-187"/>
<text text-anchor="middle" x="786" y="-164.8" font-family="Times,serif" font-size="14.00" fill="#000000">ProduccionArtesArquDisenoModule</text>
</g>
<!-- ArticuloComponent&#45;&gt;ProduccionArtesArquDisenoModule -->
<g id="edge1" class="edge">
<title>ArticuloComponent&#45;&gt;ProduccionArtesArquDisenoModule</title>
<path fill="none" stroke="#000000" d="M1408,-122.1289C1408,-142.5724 1408,-173 1408,-173 1408,-173 907.2011,-173 907.2011,-173"/>
<polygon fill="#000000" stroke="#000000" points="907.2012,-169.5001 897.2011,-173 907.2011,-176.5001 907.2012,-169.5001"/>
</g>
<!-- CrudArticuloComponent -->
<g id="node2" class="node">
<title>CrudArticuloComponent</title>
<polygon fill="#ffffb3" stroke="#000000" points="1325.9832,-122 1170.0168,-122 1170.0168,-86 1325.9832,-86 1325.9832,-122"/>
<text text-anchor="middle" x="1248" y="-99.8" font-family="Times,serif" font-size="14.00" fill="#000000">CrudArticuloComponent</text>
</g>
<!-- CrudArticuloComponent&#45;&gt;ProduccionArtesArquDisenoModule -->
<g id="edge2" class="edge">
<title>CrudArticuloComponent&#45;&gt;ProduccionArtesArquDisenoModule</title>
<path fill="none" stroke="#000000" d="M1191.8375,-122.2667C1191.8375,-140.5552 1191.8375,-166 1191.8375,-166 1191.8375,-166 907.1652,-166 907.1652,-166"/>
<polygon fill="#000000" stroke="#000000" points="907.1652,-162.5001 897.1652,-166 907.1652,-169.5001 907.1652,-162.5001"/>
</g>
<!-- ListArticuloComponent -->
<g id="node3" class="node">
<title>ListArticuloComponent</title>
<polygon fill="#ffffb3" stroke="#000000" points="1151.7646,-122 1002.2354,-122 1002.2354,-86 1151.7646,-86 1151.7646,-122"/>
<text text-anchor="middle" x="1077" y="-99.8" font-family="Times,serif" font-size="14.00" fill="#000000">ListArticuloComponent</text>
</g>
<!-- ListArticuloComponent&#45;&gt;ProduccionArtesArquDisenoModule -->
<g id="edge3" class="edge">
<title>ListArticuloComponent&#45;&gt;ProduccionArtesArquDisenoModule</title>
<path fill="none" stroke="#000000" d="M1077,-122.0091C1077,-138.0494 1077,-159 1077,-159 1077,-159 907.2602,-159 907.2602,-159"/>
<polygon fill="#000000" stroke="#000000" points="907.2603,-155.5001 897.2602,-159 907.2602,-162.5001 907.2603,-155.5001"/>
</g>
<!-- ViewArticuloComponent -->
<g id="node4" class="node">
<title>ViewArticuloComponent</title>
<polygon fill="#ffffb3" stroke="#000000" points="984.3047,-122 825.6953,-122 825.6953,-86 984.3047,-86 984.3047,-122"/>
<text text-anchor="middle" x="905" y="-99.8" font-family="Times,serif" font-size="14.00" fill="#000000">ViewArticuloComponent</text>
</g>
<!-- ViewArticuloComponent&#45;&gt;ProduccionArtesArquDisenoModule -->
<g id="edge4" class="edge">
<title>ViewArticuloComponent&#45;&gt;ProduccionArtesArquDisenoModule</title>
<path fill="none" stroke="#000000" d="M861.4373,-122.1061C861.4373,-122.1061 861.4373,-140.991 861.4373,-140.991"/>
<polygon fill="#000000" stroke="#000000" points="857.9373,-140.9909 861.4373,-150.991 864.9373,-140.991 857.9373,-140.9909"/>
</g>
<!-- CrudProduccionArtesArquDisenoComponent  -->
<g id="node9" class="node">
<title>CrudProduccionArtesArquDisenoComponent </title>
<polygon fill="#fb8072" stroke="#000000" points="1213.8334,-252 938.1666,-252 938.1666,-216 1213.8334,-216 1213.8334,-252"/>
<text text-anchor="middle" x="1076" y="-229.8" font-family="Times,serif" font-size="14.00" fill="#000000">CrudProduccionArtesArquDisenoComponent </text>
</g>
<!-- ProduccionArtesArquDisenoModule&#45;&gt;CrudProduccionArtesArquDisenoComponent  -->
<g id="edge8" class="edge">
<title>ProduccionArtesArquDisenoModule&#45;&gt;CrudProduccionArtesArquDisenoComponent </title>
<path fill="none" stroke="#000000" stroke-dasharray="5,2" d="M897.4804,-180C932.0421,-180 961.2428,-180 961.2428,-180 961.2428,-180 961.2428,-205.7181 961.2428,-205.7181"/>
<polygon fill="#000000" stroke="#000000" points="957.7429,-205.718 961.2428,-215.7181 964.7429,-205.7181 957.7429,-205.718"/>
</g>
<!-- ListProduccionArtesArquDisenoComponent  -->
<g id="node10" class="node">
<title>ListProduccionArtesArquDisenoComponent </title>
<polygon fill="#fb8072" stroke="#000000" points="920.6144,-252 651.3856,-252 651.3856,-216 920.6144,-216 920.6144,-252"/>
<text text-anchor="middle" x="786" y="-229.8" font-family="Times,serif" font-size="14.00" fill="#000000">ListProduccionArtesArquDisenoComponent </text>
</g>
<!-- ProduccionArtesArquDisenoModule&#45;&gt;ListProduccionArtesArquDisenoComponent  -->
<g id="edge9" class="edge">
<title>ProduccionArtesArquDisenoModule&#45;&gt;ListProduccionArtesArquDisenoComponent </title>
<path fill="none" stroke="#000000" stroke-dasharray="5,2" d="M786,-187.1061C786,-187.1061 786,-205.991 786,-205.991"/>
<polygon fill="#000000" stroke="#000000" points="782.5001,-205.9909 786,-215.991 789.5001,-205.991 782.5001,-205.9909"/>
</g>
<!-- ViewProduccionArtesArquDisenoComponent  -->
<g id="node11" class="node">
<title>ViewProduccionArtesArquDisenoComponent </title>
<polygon fill="#fb8072" stroke="#000000" points="633.6546,-252 356.3454,-252 356.3454,-216 633.6546,-216 633.6546,-252"/>
<text text-anchor="middle" x="495" y="-229.8" font-family="Times,serif" font-size="14.00" fill="#000000">ViewProduccionArtesArquDisenoComponent </text>
</g>
<!-- ProduccionArtesArquDisenoModule&#45;&gt;ViewProduccionArtesArquDisenoComponent  -->
<g id="edge10" class="edge">
<title>ProduccionArtesArquDisenoModule&#45;&gt;ViewProduccionArtesArquDisenoComponent </title>
<path fill="none" stroke="#000000" stroke-dasharray="5,2" d="M674.7263,-180C627.9263,-180 584.1208,-180 584.1208,-180 584.1208,-180 584.1208,-205.7181 584.1208,-205.7181"/>
<polygon fill="#000000" stroke="#000000" points="580.6209,-205.718 584.1208,-215.7181 587.6209,-205.7181 580.6209,-205.718"/>
</g>
<!-- ProduccionArtesArquDisenoRoutingModule -->
<g id="node6" class="node">
<title>ProduccionArtesArquDisenoRoutingModule</title>
<polygon fill="#8dd3c7" stroke="#000000" points="801.6713,-122 798.6713,-126 777.6713,-126 774.6713,-122 534.3287,-122 534.3287,-86 801.6713,-86 801.6713,-122"/>
<text text-anchor="middle" x="668" y="-99.8" font-family="Times,serif" font-size="14.00" fill="#000000">ProduccionArtesArquDisenoRoutingModule</text>
</g>
<!-- ProduccionArtesArquDisenoRoutingModule&#45;&gt;ProduccionArtesArquDisenoModule -->
<g id="edge5" class="edge">
<title>ProduccionArtesArquDisenoRoutingModule&#45;&gt;ProduccionArtesArquDisenoModule</title>
<path fill="none" stroke="#000000" d="M738.2795,-122.1061C738.2795,-122.1061 738.2795,-140.991 738.2795,-140.991"/>
<polygon fill="#000000" stroke="#000000" points="734.7795,-140.9909 738.2795,-150.991 741.7795,-140.991 734.7795,-140.9909"/>
</g>
<!-- SharedModule -->
<g id="node7" class="node">
<title>SharedModule</title>
<polygon fill="#8dd3c7" stroke="#000000" points="516.4231,-122 513.4231,-126 492.4231,-126 489.4231,-122 417.5769,-122 417.5769,-86 516.4231,-86 516.4231,-122"/>
<text text-anchor="middle" x="467" y="-99.8" font-family="Times,serif" font-size="14.00" fill="#000000">SharedModule</text>
</g>
<!-- SharedModule&#45;&gt;ProduccionArtesArquDisenoModule -->
<g id="edge6" class="edge">
<title>SharedModule&#45;&gt;ProduccionArtesArquDisenoModule</title>
<path fill="none" stroke="#000000" d="M467,-122.0091C467,-138.0494 467,-159 467,-159 467,-159 664.8771,-159 664.8771,-159"/>
<polygon fill="#000000" stroke="#000000" points="664.8771,-162.5001 674.8771,-159 664.8771,-155.5001 664.8771,-162.5001"/>
</g>
<!-- ThemeModule -->
<g id="node8" class="node">
<title>ThemeModule</title>
<polygon fill="#8dd3c7" stroke="#000000" points="400.4231,-122 397.4231,-126 376.4231,-126 373.4231,-122 301.5769,-122 301.5769,-86 400.4231,-86 400.4231,-122"/>
<text text-anchor="middle" x="351" y="-99.8" font-family="Times,serif" font-size="14.00" fill="#000000">ThemeModule</text>
</g>
<!-- ThemeModule&#45;&gt;ProduccionArtesArquDisenoModule -->
<g id="edge7" class="edge">
<title>ThemeModule&#45;&gt;ProduccionArtesArquDisenoModule</title>
<path fill="none" stroke="#000000" d="M378.192,-122.2667C378.192,-140.5552 378.192,-166 378.192,-166 378.192,-166 664.8341,-166 664.8341,-166"/>
<polygon fill="#000000" stroke="#000000" points="664.8341,-169.5001 674.8341,-166 664.8341,-162.5001 664.8341,-169.5001"/>
</g>
<!-- ProduccionAcademicaService -->
<g id="node12" class="node">
<title>ProduccionAcademicaService</title>
<ellipse fill="#fdb462" stroke="#000000" cx="151" cy="-104" rx="127.3074" ry="18"/>
<text text-anchor="middle" x="151" y="-99.8" font-family="Times,serif" font-size="14.00" fill="#000000">ProduccionAcademicaService</text>
</g>
<!-- ProduccionAcademicaService&#45;&gt;ProduccionArtesArquDisenoModule -->
<g id="edge11" class="edge">
<title>ProduccionAcademicaService&#45;&gt;ProduccionArtesArquDisenoModule</title>
<path fill="none" stroke="#000000" d="M151,-122.1289C151,-142.5724 151,-173 151,-173 151,-173 664.6648,-173 664.6648,-173"/>
<polygon fill="#000000" stroke="#000000" points="664.6648,-176.5001 674.6648,-173 664.6648,-169.5001 664.6648,-176.5001"/>
</g>
</g>
</svg>
