<?xml version="1.0" encoding="UTF-8" standalone="no"?>
<!DOCTYPE svg PUBLIC "-//W3C//DTD SVG 1.1//EN"
 "http://www.w3.org/Graphics/SVG/1.1/DTD/svg11.dtd">
<!-- Generated by graphviz version 2.40.1 (20161225.0304)
 -->
<!-- Title: dependencies Pages: 1 -->
<svg width="1694pt" height="284pt"
 viewBox="0.00 0.00 1694.00 284.00" xmlns="http://www.w3.org/2000/svg" xmlns:xlink="http://www.w3.org/1999/xlink">
<g id="graph0" class="graph" transform="scale(1 1) rotate(0) translate(4 280)">
<title>dependencies</title>
<polygon fill="#ffffff" stroke="transparent" points="-4,4 -4,-280 1690,-280 1690,4 -4,4"/>
<text text-anchor="start" x="822.0091" y="-42.4" font-family="sans-serif" font-weight="bold" font-size="14.00" fill="#000000">Legend</text>
<polygon fill="#ffffb3" stroke="transparent" points="609,-10 609,-30 629,-30 629,-10 609,-10"/>
<text text-anchor="start" x="632.629" y="-15.4" font-family="sans-serif" font-size="14.00" fill="#000000"> &#160;Declarations</text>
<polygon fill="#8dd3c7" stroke="transparent" points="722,-10 722,-30 742,-30 742,-10 722,-10"/>
<text text-anchor="start" x="745.7251" y="-15.4" font-family="sans-serif" font-size="14.00" fill="#000000"> &#160;Module</text>
<polygon fill="#80b1d3" stroke="transparent" points="808,-10 808,-30 828,-30 828,-10 808,-10"/>
<text text-anchor="start" x="831.7812" y="-15.4" font-family="sans-serif" font-size="14.00" fill="#000000"> &#160;Bootstrap</text>
<polygon fill="#fdb462" stroke="transparent" points="905,-10 905,-30 925,-30 925,-10 905,-10"/>
<text text-anchor="start" x="928.6732" y="-15.4" font-family="sans-serif" font-size="14.00" fill="#000000"> &#160;Providers</text>
<polygon fill="#fb8072" stroke="transparent" points="1001,-10 1001,-30 1021,-30 1021,-10 1001,-10"/>
<text text-anchor="start" x="1024.7258" y="-15.4" font-family="sans-serif" font-size="14.00" fill="#000000"> &#160;Exports</text>
<g id="clust1" class="cluster">
<title>cluster_IdiomasModule</title>
<polygon fill="none" stroke="#000000" stroke-dasharray="1,5" points="8,-70 8,-268 1678,-268 1678,-70 8,-70"/>
</g>
<g id="clust2" class="cluster">
<title>cluster_IdiomasModule_declarations</title>
<polygon fill="none" stroke="#000000" points="715,-78 715,-130 1670,-130 1670,-78 715,-78"/>
</g>
<g id="clust7" class="cluster">
<title>cluster_IdiomasModule_imports</title>
<polygon fill="none" stroke="#000000" points="309,-78 309,-130 707,-130 707,-78 309,-78"/>
</g>
<g id="clust8" class="cluster">
<title>cluster_IdiomasModule_exports</title>
<polygon fill="none" stroke="#000000" points="362,-208 362,-260 884,-260 884,-208 362,-208"/>
</g>
<g id="clust10" class="cluster">
<title>cluster_IdiomasModule_providers</title>
<polygon fill="none" stroke="#000000" points="16,-78 16,-130 301,-130 301,-78 16,-78"/>
</g>
<!-- CrudDocumentoProgramaComponent -->
<g id="node1" class="node">
<title>CrudDocumentoProgramaComponent</title>
<polygon fill="#ffffb3" stroke="#000000" points="1661.5702,-122 1432.4298,-122 1432.4298,-86 1661.5702,-86 1661.5702,-122"/>
<text text-anchor="middle" x="1547" y="-99.8" font-family="Times,serif" font-size="14.00" fill="#000000">CrudDocumentoProgramaComponent</text>
</g>
<!-- IdiomasModule -->
<g id="node5" class="node">
<title>IdiomasModule</title>
<polygon fill="#8dd3c7" stroke="#000000" points="676.1514,-187 673.1514,-191 652.1514,-191 649.1514,-187 571.8486,-187 571.8486,-151 676.1514,-151 676.1514,-187"/>
<text text-anchor="middle" x="624" y="-164.8" font-family="Times,serif" font-size="14.00" fill="#000000">IdiomasModule</text>
</g>
<!-- CrudDocumentoProgramaComponent&#45;&gt;IdiomasModule -->
<g id="edge1" class="edge">
<title>CrudDocumentoProgramaComponent&#45;&gt;IdiomasModule</title>
<path fill="none" stroke="#000000" d="M1547,-122.2843C1547,-143.3211 1547,-175 1547,-175 1547,-175 686.2691,-175 686.2691,-175"/>
<polygon fill="#000000" stroke="#000000" points="686.2691,-171.5001 676.2691,-175 686.269,-178.5001 686.2691,-171.5001"/>
</g>
<!-- DocumentoProgramaComponent -->
<g id="node2" class="node">
<title>DocumentoProgramaComponent</title>
<polygon fill="#ffffb3" stroke="#000000" points="1414.573,-122 1213.427,-122 1213.427,-86 1414.573,-86 1414.573,-122"/>
<text text-anchor="middle" x="1314" y="-99.8" font-family="Times,serif" font-size="14.00" fill="#000000">DocumentoProgramaComponent</text>
</g>
<!-- DocumentoProgramaComponent&#45;&gt;IdiomasModule -->
<g id="edge2" class="edge">
<title>DocumentoProgramaComponent&#45;&gt;IdiomasModule</title>
<path fill="none" stroke="#000000" d="M1314,-122.1061C1314,-141.3391 1314,-169 1314,-169 1314,-169 686.4285,-169 686.4285,-169"/>
<polygon fill="#000000" stroke="#000000" points="686.4285,-165.5001 676.4285,-169 686.4284,-172.5001 686.4285,-165.5001"/>
</g>
<!-- ListDocumentoProgramaComponent -->
<g id="node3" class="node">
<title>ListDocumentoProgramaComponent</title>
<polygon fill="#ffffb3" stroke="#000000" points="1195.3514,-122 972.6486,-122 972.6486,-86 1195.3514,-86 1195.3514,-122"/>
<text text-anchor="middle" x="1084" y="-99.8" font-family="Times,serif" font-size="14.00" fill="#000000">ListDocumentoProgramaComponent</text>
</g>
<!-- ListDocumentoProgramaComponent&#45;&gt;IdiomasModule -->
<g id="edge3" class="edge">
<title>ListDocumentoProgramaComponent&#45;&gt;IdiomasModule</title>
<path fill="none" stroke="#000000" d="M1084,-122.0225C1084,-139.3734 1084,-163 1084,-163 1084,-163 686.32,-163 686.32,-163"/>
<polygon fill="#000000" stroke="#000000" points="686.32,-159.5001 676.32,-163 686.32,-166.5001 686.32,-159.5001"/>
</g>
<!-- ViewDocumentoProgramaComponent -->
<g id="node4" class="node">
<title>ViewDocumentoProgramaComponent</title>
<polygon fill="#ffffb3" stroke="#000000" points="954.8917,-122 723.1083,-122 723.1083,-86 954.8917,-86 954.8917,-122"/>
<text text-anchor="middle" x="839" y="-99.8" font-family="Times,serif" font-size="14.00" fill="#000000">ViewDocumentoProgramaComponent</text>
</g>
<!-- ViewDocumentoProgramaComponent&#45;&gt;IdiomasModule -->
<g id="edge4" class="edge">
<title>ViewDocumentoProgramaComponent&#45;&gt;IdiomasModule</title>
<path fill="none" stroke="#000000" d="M774.1913,-122.2396C774.1913,-137.5706 774.1913,-157 774.1913,-157 774.1913,-157 686.5296,-157 686.5296,-157"/>
<polygon fill="#000000" stroke="#000000" points="686.5297,-153.5001 676.5296,-157 686.5296,-160.5001 686.5297,-153.5001"/>
</g>
<!-- CrudIdiomasComponent  -->
<g id="node9" class="node">
<title>CrudIdiomasComponent </title>
<polygon fill="#fb8072" stroke="#000000" points="875.9306,-252 718.0694,-252 718.0694,-216 875.9306,-216 875.9306,-252"/>
<text text-anchor="middle" x="797" y="-229.8" font-family="Times,serif" font-size="14.00" fill="#000000">CrudIdiomasComponent </text>
</g>
<!-- IdiomasModule&#45;&gt;CrudIdiomasComponent  -->
<g id="edge8" class="edge">
<title>IdiomasModule&#45;&gt;CrudIdiomasComponent </title>
<path fill="none" stroke="#000000" stroke-dasharray="5,2" d="M676.306,-181C735.8846,-181 825.0783,-181 825.0783,-181 825.0783,-181 825.0783,-205.7604 825.0783,-205.7604"/>
<polygon fill="#000000" stroke="#000000" points="821.5784,-205.7604 825.0783,-215.7604 828.5784,-205.7604 821.5784,-205.7604"/>
</g>
<!-- ListIdiomasComponent  -->
<g id="node10" class="node">
<title>ListIdiomasComponent </title>
<polygon fill="#fb8072" stroke="#000000" points="699.7121,-252 548.2879,-252 548.2879,-216 699.7121,-216 699.7121,-252"/>
<text text-anchor="middle" x="624" y="-229.8" font-family="Times,serif" font-size="14.00" fill="#000000">ListIdiomasComponent </text>
</g>
<!-- IdiomasModule&#45;&gt;ListIdiomasComponent  -->
<g id="edge9" class="edge">
<title>IdiomasModule&#45;&gt;ListIdiomasComponent </title>
<path fill="none" stroke="#000000" stroke-dasharray="5,2" d="M624,-187.1061C624,-187.1061 624,-205.991 624,-205.991"/>
<polygon fill="#000000" stroke="#000000" points="620.5001,-205.9909 624,-215.991 627.5001,-205.991 620.5001,-205.9909"/>
</g>
<!-- ViewIdiomasComponent  -->
<g id="node11" class="node">
<title>ViewIdiomasComponent </title>
<polygon fill="#fb8072" stroke="#000000" points="530.252,-252 369.748,-252 369.748,-216 530.252,-216 530.252,-252"/>
<text text-anchor="middle" x="450" y="-229.8" font-family="Times,serif" font-size="14.00" fill="#000000">ViewIdiomasComponent </text>
</g>
<!-- IdiomasModule&#45;&gt;ViewIdiomasComponent  -->
<g id="edge10" class="edge">
<title>IdiomasModule&#45;&gt;ViewIdiomasComponent </title>
<path fill="none" stroke="#000000" stroke-dasharray="5,2" d="M571.5743,-181C525.3294,-181 465.2346,-181 465.2346,-181 465.2346,-181 465.2346,-205.7604 465.2346,-205.7604"/>
<polygon fill="#000000" stroke="#000000" points="461.7347,-205.7604 465.2346,-215.7604 468.7347,-205.7604 461.7347,-205.7604"/>
</g>
<!-- IdiomasRoutingModule -->
<g id="node6" class="node">
<title>IdiomasRoutingModule</title>
<polygon fill="#8dd3c7" stroke="#000000" points="698.7688,-122 695.7688,-126 674.7688,-126 671.7688,-122 549.2312,-122 549.2312,-86 698.7688,-86 698.7688,-122"/>
<text text-anchor="middle" x="624" y="-99.8" font-family="Times,serif" font-size="14.00" fill="#000000">IdiomasRoutingModule</text>
</g>
<!-- IdiomasRoutingModule&#45;&gt;IdiomasModule -->
<g id="edge5" class="edge">
<title>IdiomasRoutingModule&#45;&gt;IdiomasModule</title>
<path fill="none" stroke="#000000" d="M624,-122.1061C624,-122.1061 624,-140.991 624,-140.991"/>
<polygon fill="#000000" stroke="#000000" points="620.5001,-140.9909 624,-150.991 627.5001,-140.991 620.5001,-140.9909"/>
</g>
<!-- SharedModule -->
<g id="node7" class="node">
<title>SharedModule</title>
<polygon fill="#8dd3c7" stroke="#000000" points="531.4231,-122 528.4231,-126 507.4231,-126 504.4231,-122 432.5769,-122 432.5769,-86 531.4231,-86 531.4231,-122"/>
<text text-anchor="middle" x="482" y="-99.8" font-family="Times,serif" font-size="14.00" fill="#000000">SharedModule</text>
</g>
<!-- SharedModule&#45;&gt;IdiomasModule -->
<g id="edge6" class="edge">
<title>SharedModule&#45;&gt;IdiomasModule</title>
<path fill="none" stroke="#000000" d="M497.6802,-122.2396C497.6802,-137.5706 497.6802,-157 497.6802,-157 497.6802,-157 561.5265,-157 561.5265,-157"/>
<polygon fill="#000000" stroke="#000000" points="561.5265,-160.5001 571.5265,-157 561.5264,-153.5001 561.5265,-160.5001"/>
</g>
<!-- ThemeModule -->
<g id="node8" class="node">
<title>ThemeModule</title>
<polygon fill="#8dd3c7" stroke="#000000" points="415.4231,-122 412.4231,-126 391.4231,-126 388.4231,-122 316.5769,-122 316.5769,-86 415.4231,-86 415.4231,-122"/>
<text text-anchor="middle" x="366" y="-99.8" font-family="Times,serif" font-size="14.00" fill="#000000">ThemeModule</text>
</g>
<!-- ThemeModule&#45;&gt;IdiomasModule -->
<g id="edge7" class="edge">
<title>ThemeModule&#45;&gt;IdiomasModule</title>
<path fill="none" stroke="#000000" d="M392.5426,-122.0225C392.5426,-139.3734 392.5426,-163 392.5426,-163 392.5426,-163 561.7678,-163 561.7678,-163"/>
<polygon fill="#000000" stroke="#000000" points="561.7679,-166.5001 571.7678,-163 561.7678,-159.5001 561.7679,-166.5001"/>
</g>
<!-- IdiomaService -->
<g id="node12" class="node">
<title>IdiomaService</title>
<ellipse fill="#fdb462" stroke="#000000" cx="226" cy="-104" rx="67.1927" ry="18"/>
<text text-anchor="middle" x="226" y="-99.8" font-family="Times,serif" font-size="14.00" fill="#000000">IdiomaService</text>
</g>
<!-- IdiomaService&#45;&gt;IdiomasModule -->
<g id="edge11" class="edge">
<title>IdiomaService&#45;&gt;IdiomasModule</title>
<path fill="none" stroke="#000000" d="M226,-122.1061C226,-141.3391 226,-169 226,-169 226,-169 561.5592,-169 561.5592,-169"/>
<polygon fill="#000000" stroke="#000000" points="561.5592,-172.5001 571.5592,-169 561.5591,-165.5001 561.5592,-172.5001"/>
</g>
<!-- UserService -->
<g id="node13" class="node">
<title>UserService</title>
<ellipse fill="#fdb462" stroke="#000000" cx="82" cy="-104" rx="58.4415" ry="18"/>
<text text-anchor="middle" x="82" y="-99.8" font-family="Times,serif" font-size="14.00" fill="#000000">UserService</text>
</g>
<!-- UserService&#45;&gt;IdiomasModule -->
<g id="edge12" class="edge">
<title>UserService&#45;&gt;IdiomasModule</title>
<path fill="none" stroke="#000000" d="M82,-122.2843C82,-143.3211 82,-175 82,-175 82,-175 561.5383,-175 561.5383,-175"/>
<polygon fill="#000000" stroke="#000000" points="561.5383,-178.5001 571.5383,-175 561.5383,-171.5001 561.5383,-178.5001"/>
</g>
</g>
</svg>
