<?xml version="1.0" encoding="UTF-8" standalone="no"?>
<!DOCTYPE svg PUBLIC "-//W3C//DTD SVG 1.1//EN"
 "http://www.w3.org/Graphics/SVG/1.1/DTD/svg11.dtd">
<!-- Generated by graphviz version 2.40.1 (20161225.0304)
 -->
<!-- Title: dependencies Pages: 1 -->
<svg width="1762pt" height="284pt"
 viewBox="0.00 0.00 1762.00 284.00" xmlns="http://www.w3.org/2000/svg" xmlns:xlink="http://www.w3.org/1999/xlink">
<g id="graph0" class="graph" transform="scale(1 1) rotate(0) translate(4 280)">
<title>dependencies</title>
<polygon fill="#ffffff" stroke="transparent" points="-4,4 -4,-280 1758,-280 1758,4 -4,4"/>
<text text-anchor="start" x="856.0091" y="-42.4" font-family="sans-serif" font-weight="bold" font-size="14.00" fill="#000000">Legend</text>
<polygon fill="#ffffb3" stroke="transparent" points="643,-10 643,-30 663,-30 663,-10 643,-10"/>
<text text-anchor="start" x="666.629" y="-15.4" font-family="sans-serif" font-size="14.00" fill="#000000"> &#160;Declarations</text>
<polygon fill="#8dd3c7" stroke="transparent" points="756,-10 756,-30 776,-30 776,-10 756,-10"/>
<text text-anchor="start" x="779.7251" y="-15.4" font-family="sans-serif" font-size="14.00" fill="#000000"> &#160;Module</text>
<polygon fill="#80b1d3" stroke="transparent" points="842,-10 842,-30 862,-30 862,-10 842,-10"/>
<text text-anchor="start" x="865.7812" y="-15.4" font-family="sans-serif" font-size="14.00" fill="#000000"> &#160;Bootstrap</text>
<polygon fill="#fdb462" stroke="transparent" points="939,-10 939,-30 959,-30 959,-10 939,-10"/>
<text text-anchor="start" x="962.6732" y="-15.4" font-family="sans-serif" font-size="14.00" fill="#000000"> &#160;Providers</text>
<polygon fill="#fb8072" stroke="transparent" points="1035,-10 1035,-30 1055,-30 1055,-10 1035,-10"/>
<text text-anchor="start" x="1058.7258" y="-15.4" font-family="sans-serif" font-size="14.00" fill="#000000"> &#160;Exports</text>
<g id="clust1" class="cluster">
<title>cluster_InfoCaracteristicaModule</title>
<polygon fill="none" stroke="#000000" stroke-dasharray="1,5" points="8,-70 8,-268 1746,-268 1746,-70 8,-70"/>
</g>
<g id="clust2" class="cluster">
<title>cluster_InfoCaracteristicaModule_declarations</title>
<polygon fill="none" stroke="#000000" points="820,-78 820,-130 1738,-130 1738,-78 820,-78"/>
</g>
<g id="clust7" class="cluster">
<title>cluster_InfoCaracteristicaModule_imports</title>
<polygon fill="none" stroke="#000000" points="359,-78 359,-130 812,-130 812,-78 359,-78"/>
</g>
<g id="clust8" class="cluster">
<title>cluster_InfoCaracteristicaModule_exports</title>
<polygon fill="none" stroke="#000000" points="470,-208 470,-260 933,-260 933,-208 470,-208"/>
</g>
<g id="clust10" class="cluster">
<title>cluster_InfoCaracteristicaModule_providers</title>
<polygon fill="none" stroke="#000000" points="16,-78 16,-130 351,-130 351,-78 16,-78"/>
</g>
<!-- CrudExperienciaLaboralComponent -->
<g id="node1" class="node">
<title>CrudExperienciaLaboralComponent</title>
<polygon fill="#ffffb3" stroke="#000000" points="1729.7156,-122 1510.2844,-122 1510.2844,-86 1729.7156,-86 1729.7156,-122"/>
<text text-anchor="middle" x="1620" y="-99.8" font-family="Times,serif" font-size="14.00" fill="#000000">CrudExperienciaLaboralComponent</text>
</g>
<!-- InfoCaracteristicaModule -->
<g id="node5" class="node">
<title>InfoCaracteristicaModule</title>
<polygon fill="#8dd3c7" stroke="#000000" points="781.8235,-187 778.8235,-191 757.8235,-191 754.8235,-187 622.1765,-187 622.1765,-151 781.8235,-151 781.8235,-187"/>
<text text-anchor="middle" x="702" y="-164.8" font-family="Times,serif" font-size="14.00" fill="#000000">InfoCaracteristicaModule</text>
</g>
<!-- CrudExperienciaLaboralComponent&#45;&gt;InfoCaracteristicaModule -->
<g id="edge1" class="edge">
<title>CrudExperienciaLaboralComponent&#45;&gt;InfoCaracteristicaModule</title>
<path fill="none" stroke="#000000" d="M1620,-122.0109C1620,-144.4852 1620,-180 1620,-180 1620,-180 791.8606,-180 791.8606,-180"/>
<polygon fill="#000000" stroke="#000000" points="791.8606,-176.5001 781.8606,-180 791.8605,-183.5001 791.8606,-176.5001"/>
</g>
<!-- ExperienciaLaboralComponent -->
<g id="node2" class="node">
<title>ExperienciaLaboralComponent</title>
<polygon fill="#ffffb3" stroke="#000000" points="1491.7184,-122 1300.2816,-122 1300.2816,-86 1491.7184,-86 1491.7184,-122"/>
<text text-anchor="middle" x="1396" y="-99.8" font-family="Times,serif" font-size="14.00" fill="#000000">ExperienciaLaboralComponent</text>
</g>
<!-- ExperienciaLaboralComponent&#45;&gt;InfoCaracteristicaModule -->
<g id="edge2" class="edge">
<title>ExperienciaLaboralComponent&#45;&gt;InfoCaracteristicaModule</title>
<path fill="none" stroke="#000000" d="M1396,-122.1289C1396,-142.5724 1396,-173 1396,-173 1396,-173 791.9493,-173 791.9493,-173"/>
<polygon fill="#000000" stroke="#000000" points="791.9494,-169.5001 781.9493,-173 791.9493,-176.5001 791.9494,-169.5001"/>
</g>
<!-- ListExperienciaLaboralComponent -->
<g id="node3" class="node">
<title>ListExperienciaLaboralComponent</title>
<polygon fill="#ffffb3" stroke="#000000" points="1281.9972,-122 1068.0028,-122 1068.0028,-86 1281.9972,-86 1281.9972,-122"/>
<text text-anchor="middle" x="1175" y="-99.8" font-family="Times,serif" font-size="14.00" fill="#000000">ListExperienciaLaboralComponent</text>
</g>
<!-- ListExperienciaLaboralComponent&#45;&gt;InfoCaracteristicaModule -->
<g id="edge3" class="edge">
<title>ListExperienciaLaboralComponent&#45;&gt;InfoCaracteristicaModule</title>
<path fill="none" stroke="#000000" d="M1175,-122.2667C1175,-140.5552 1175,-166 1175,-166 1175,-166 791.9704,-166 791.9704,-166"/>
<polygon fill="#000000" stroke="#000000" points="791.9704,-162.5001 781.9704,-166 791.9704,-169.5001 791.9704,-162.5001"/>
</g>
<!-- ViewExperienciaLaboralComponent -->
<g id="node4" class="node">
<title>ViewExperienciaLaboralComponent</title>
<polygon fill="#ffffb3" stroke="#000000" points="1050.0366,-122 827.9634,-122 827.9634,-86 1050.0366,-86 1050.0366,-122"/>
<text text-anchor="middle" x="939" y="-99.8" font-family="Times,serif" font-size="14.00" fill="#000000">ViewExperienciaLaboralComponent</text>
</g>
<!-- ViewExperienciaLaboralComponent&#45;&gt;InfoCaracteristicaModule -->
<g id="edge4" class="edge">
<title>ViewExperienciaLaboralComponent&#45;&gt;InfoCaracteristicaModule</title>
<path fill="none" stroke="#000000" d="M876.2667,-122.0091C876.2667,-138.0494 876.2667,-159 876.2667,-159 876.2667,-159 791.9928,-159 791.9928,-159"/>
<polygon fill="#000000" stroke="#000000" points="791.9928,-155.5001 781.9928,-159 791.9928,-162.5001 791.9928,-155.5001"/>
</g>
<!-- CrudInfoCaracteristicaComponent  -->
<g id="node9" class="node">
<title>CrudInfoCaracteristicaComponent </title>
<polygon fill="#fb8072" stroke="#000000" points="924.6032,-252 711.3968,-252 711.3968,-216 924.6032,-216 924.6032,-252"/>
<text text-anchor="middle" x="818" y="-229.8" font-family="Times,serif" font-size="14.00" fill="#000000">CrudInfoCaracteristicaComponent </text>
</g>
<!-- InfoCaracteristicaModule&#45;&gt;CrudInfoCaracteristicaComponent  -->
<g id="edge8" class="edge">
<title>InfoCaracteristicaModule&#45;&gt;CrudInfoCaracteristicaComponent </title>
<path fill="none" stroke="#000000" stroke-dasharray="5,2" d="M746.68,-187.1061C746.68,-187.1061 746.68,-205.991 746.68,-205.991"/>
<polygon fill="#000000" stroke="#000000" points="743.1801,-205.9909 746.68,-215.991 750.1801,-205.991 743.1801,-205.9909"/>
</g>
<!-- ViewInfoCaracteristicaComponent  -->
<g id="node10" class="node">
<title>ViewInfoCaracteristicaComponent </title>
<polygon fill="#fb8072" stroke="#000000" points="693.9248,-252 478.0752,-252 478.0752,-216 693.9248,-216 693.9248,-252"/>
<text text-anchor="middle" x="586" y="-229.8" font-family="Times,serif" font-size="14.00" fill="#000000">ViewInfoCaracteristicaComponent </text>
</g>
<!-- InfoCaracteristicaModule&#45;&gt;ViewInfoCaracteristicaComponent  -->
<g id="edge9" class="edge">
<title>InfoCaracteristicaModule&#45;&gt;ViewInfoCaracteristicaComponent </title>
<path fill="none" stroke="#000000" stroke-dasharray="5,2" d="M657.9002,-187.1061C657.9002,-187.1061 657.9002,-205.991 657.9002,-205.991"/>
<polygon fill="#000000" stroke="#000000" points="654.4003,-205.9909 657.9002,-215.991 661.4003,-205.991 654.4003,-205.9909"/>
</g>
<!-- InfoCaracteristicaRoutingModule -->
<g id="node6" class="node">
<title>InfoCaracteristicaRoutingModule</title>
<polygon fill="#8dd3c7" stroke="#000000" points="804.4412,-122 801.4412,-126 780.4412,-126 777.4412,-122 599.5588,-122 599.5588,-86 804.4412,-86 804.4412,-122"/>
<text text-anchor="middle" x="702" y="-99.8" font-family="Times,serif" font-size="14.00" fill="#000000">InfoCaracteristicaRoutingModule</text>
</g>
<!-- InfoCaracteristicaRoutingModule&#45;&gt;InfoCaracteristicaModule -->
<g id="edge5" class="edge">
<title>InfoCaracteristicaRoutingModule&#45;&gt;InfoCaracteristicaModule</title>
<path fill="none" stroke="#000000" d="M702,-122.1061C702,-122.1061 702,-140.991 702,-140.991"/>
<polygon fill="#000000" stroke="#000000" points="698.5001,-140.9909 702,-150.991 705.5001,-140.991 698.5001,-140.9909"/>
</g>
<!-- SharedModule -->
<g id="node7" class="node">
<title>SharedModule</title>
<polygon fill="#8dd3c7" stroke="#000000" points="581.4231,-122 578.4231,-126 557.4231,-126 554.4231,-122 482.5769,-122 482.5769,-86 581.4231,-86 581.4231,-122"/>
<text text-anchor="middle" x="532" y="-99.8" font-family="Times,serif" font-size="14.00" fill="#000000">SharedModule</text>
</g>
<!-- SharedModule&#45;&gt;InfoCaracteristicaModule -->
<g id="edge6" class="edge">
<title>SharedModule&#45;&gt;InfoCaracteristicaModule</title>
<path fill="none" stroke="#000000" d="M532,-122.0091C532,-138.0494 532,-159 532,-159 532,-159 611.9779,-159 611.9779,-159"/>
<polygon fill="#000000" stroke="#000000" points="611.978,-162.5001 621.9779,-159 611.9779,-155.5001 611.978,-162.5001"/>
</g>
<!-- ThemeModule -->
<g id="node8" class="node">
<title>ThemeModule</title>
<polygon fill="#8dd3c7" stroke="#000000" points="465.4231,-122 462.4231,-126 441.4231,-126 438.4231,-122 366.5769,-122 366.5769,-86 465.4231,-86 465.4231,-122"/>
<text text-anchor="middle" x="416" y="-99.8" font-family="Times,serif" font-size="14.00" fill="#000000">ThemeModule</text>
</g>
<!-- ThemeModule&#45;&gt;InfoCaracteristicaModule -->
<g id="edge7" class="edge">
<title>ThemeModule&#45;&gt;InfoCaracteristicaModule</title>
<path fill="none" stroke="#000000" d="M416,-122.2667C416,-140.5552 416,-166 416,-166 416,-166 611.9528,-166 611.9528,-166"/>
<polygon fill="#000000" stroke="#000000" points="611.9528,-169.5001 621.9528,-166 611.9527,-162.5001 611.9528,-169.5001"/>
</g>
<!-- PersonaService -->
<g id="node11" class="node">
<title>PersonaService</title>
<ellipse fill="#fdb462" stroke="#000000" cx="272" cy="-104" rx="70.622" ry="18"/>
<text text-anchor="middle" x="272" y="-99.8" font-family="Times,serif" font-size="14.00" fill="#000000">PersonaService</text>
</g>
<!-- PersonaService&#45;&gt;InfoCaracteristicaModule -->
<g id="edge10" class="edge">
<title>PersonaService&#45;&gt;InfoCaracteristicaModule</title>
<path fill="none" stroke="#000000" d="M272,-122.1289C272,-142.5724 272,-173 272,-173 272,-173 612.128,-173 612.128,-173"/>
<polygon fill="#000000" stroke="#000000" points="612.1281,-176.5001 622.128,-173 612.128,-169.5001 612.1281,-176.5001"/>
</g>
<!-- UbicacionService -->
<g id="node12" class="node">
<title>UbicacionService</title>
<ellipse fill="#fdb462" stroke="#000000" cx="104" cy="-104" rx="79.8527" ry="18"/>
<text text-anchor="middle" x="104" y="-99.8" font-family="Times,serif" font-size="14.00" fill="#000000">UbicacionService</text>
</g>
<!-- UbicacionService&#45;&gt;InfoCaracteristicaModule -->
<g id="edge11" class="edge">
<title>UbicacionService&#45;&gt;InfoCaracteristicaModule</title>
<path fill="none" stroke="#000000" d="M104,-122.0109C104,-144.4852 104,-180 104,-180 104,-180 611.9716,-180 611.9716,-180"/>
<polygon fill="#000000" stroke="#000000" points="611.9716,-183.5001 621.9716,-180 611.9715,-176.5001 611.9716,-183.5001"/>
</g>
</g>
</svg>
