<?xml version="1.0" encoding="UTF-8" standalone="no"?>
<!DOCTYPE svg PUBLIC "-//W3C//DTD SVG 1.1//EN"
 "http://www.w3.org/Graphics/SVG/1.1/DTD/svg11.dtd">
<!-- Generated by graphviz version 2.40.1 (20161225.0304)
 -->
<!-- Title: dependencies Pages: 1 -->
<svg width="1467pt" height="284pt"
 viewBox="0.00 0.00 1467.00 284.00" xmlns="http://www.w3.org/2000/svg" xmlns:xlink="http://www.w3.org/1999/xlink">
<g id="graph0" class="graph" transform="scale(1 1) rotate(0) translate(4 280)">
<title>dependencies</title>
<polygon fill="#ffffff" stroke="transparent" points="-4,4 -4,-280 1463,-280 1463,4 -4,4"/>
<text text-anchor="start" x="708.5091" y="-42.4" font-family="sans-serif" font-weight="bold" font-size="14.00" fill="#000000">Legend</text>
<polygon fill="#ffffb3" stroke="transparent" points="495.5,-10 495.5,-30 515.5,-30 515.5,-10 495.5,-10"/>
<text text-anchor="start" x="519.129" y="-15.4" font-family="sans-serif" font-size="14.00" fill="#000000"> &#160;Declarations</text>
<polygon fill="#8dd3c7" stroke="transparent" points="608.5,-10 608.5,-30 628.5,-30 628.5,-10 608.5,-10"/>
<text text-anchor="start" x="632.2251" y="-15.4" font-family="sans-serif" font-size="14.00" fill="#000000"> &#160;Module</text>
<polygon fill="#80b1d3" stroke="transparent" points="694.5,-10 694.5,-30 714.5,-30 714.5,-10 694.5,-10"/>
<text text-anchor="start" x="718.2812" y="-15.4" font-family="sans-serif" font-size="14.00" fill="#000000"> &#160;Bootstrap</text>
<polygon fill="#fdb462" stroke="transparent" points="791.5,-10 791.5,-30 811.5,-30 811.5,-10 791.5,-10"/>
<text text-anchor="start" x="815.1732" y="-15.4" font-family="sans-serif" font-size="14.00" fill="#000000"> &#160;Providers</text>
<polygon fill="#fb8072" stroke="transparent" points="887.5,-10 887.5,-30 907.5,-30 907.5,-10 887.5,-10"/>
<text text-anchor="start" x="911.2258" y="-15.4" font-family="sans-serif" font-size="14.00" fill="#000000"> &#160;Exports</text>
<g id="clust1" class="cluster">
<title>cluster_ProgramasVirtualesModule</title>
<polygon fill="none" stroke="#000000" stroke-dasharray="1,5" points="8,-70 8,-268 1451,-268 1451,-70 8,-70"/>
</g>
<g id="clust2" class="cluster">
<title>cluster_ProgramasVirtualesModule_declarations</title>
<polygon fill="none" stroke="#000000" points="488,-78 488,-130 1443,-130 1443,-78 488,-78"/>
</g>
<g id="clust7" class="cluster">
<title>cluster_ProgramasVirtualesModule_imports</title>
<polygon fill="none" stroke="#000000" points="16,-78 16,-130 480,-130 480,-78 16,-78"/>
</g>
<g id="clust8" class="cluster">
<title>cluster_ProgramasVirtualesModule_exports</title>
<polygon fill="none" stroke="#000000" points="411,-208 411,-260 805,-260 805,-208 411,-208"/>
</g>
<!-- CrudDocumentoProgramaComponent -->
<g id="node1" class="node">
<title>CrudDocumentoProgramaComponent</title>
<polygon fill="#ffffb3" stroke="#000000" points="1434.5702,-122 1205.4298,-122 1205.4298,-86 1434.5702,-86 1434.5702,-122"/>
<text text-anchor="middle" x="1320" y="-99.8" font-family="Times,serif" font-size="14.00" fill="#000000">CrudDocumentoProgramaComponent</text>
</g>
<!-- ProgramasVirtualesModule -->
<g id="node5" class="node">
<title>ProgramasVirtualesModule</title>
<polygon fill="#8dd3c7" stroke="#000000" points="697.231,-187 694.231,-191 673.231,-191 670.231,-187 526.769,-187 526.769,-151 697.231,-151 697.231,-187"/>
<text text-anchor="middle" x="612" y="-164.8" font-family="Times,serif" font-size="14.00" fill="#000000">ProgramasVirtualesModule</text>
</g>
<!-- CrudDocumentoProgramaComponent&#45;&gt;ProgramasVirtualesModule -->
<g id="edge1" class="edge">
<title>CrudDocumentoProgramaComponent&#45;&gt;ProgramasVirtualesModule</title>
<path fill="none" stroke="#000000" d="M1320,-122.2921C1320,-144.2057 1320,-178 1320,-178 1320,-178 707.4013,-178 707.4013,-178"/>
<polygon fill="#000000" stroke="#000000" points="707.4014,-174.5001 697.4013,-178 707.4013,-181.5001 707.4014,-174.5001"/>
</g>
<!-- DocumentoProgramaComponent -->
<g id="node2" class="node">
<title>DocumentoProgramaComponent</title>
<polygon fill="#ffffb3" stroke="#000000" points="1187.573,-122 986.427,-122 986.427,-86 1187.573,-86 1187.573,-122"/>
<text text-anchor="middle" x="1087" y="-99.8" font-family="Times,serif" font-size="14.00" fill="#000000">DocumentoProgramaComponent</text>
</g>
<!-- DocumentoProgramaComponent&#45;&gt;ProgramasVirtualesModule -->
<g id="edge2" class="edge">
<title>DocumentoProgramaComponent&#45;&gt;ProgramasVirtualesModule</title>
<path fill="none" stroke="#000000" d="M1087,-122.1061C1087,-141.3391 1087,-169 1087,-169 1087,-169 707.4691,-169 707.4691,-169"/>
<polygon fill="#000000" stroke="#000000" points="707.4691,-165.5001 697.4691,-169 707.469,-172.5001 707.4691,-165.5001"/>
</g>
<!-- ListDocumentoProgramaComponent -->
<g id="node3" class="node">
<title>ListDocumentoProgramaComponent</title>
<polygon fill="#ffffb3" stroke="#000000" points="968.3514,-122 745.6486,-122 745.6486,-86 968.3514,-86 968.3514,-122"/>
<text text-anchor="middle" x="857" y="-99.8" font-family="Times,serif" font-size="14.00" fill="#000000">ListDocumentoProgramaComponent</text>
</g>
<!-- ListDocumentoProgramaComponent&#45;&gt;ProgramasVirtualesModule -->
<g id="edge3" class="edge">
<title>ListDocumentoProgramaComponent&#45;&gt;ProgramasVirtualesModule</title>
<path fill="none" stroke="#000000" d="M771.4097,-122.027C771.4097,-138.3976 771.4097,-160 771.4097,-160 771.4097,-160 707.305,-160 707.305,-160"/>
<polygon fill="#000000" stroke="#000000" points="707.305,-156.5001 697.305,-160 707.305,-163.5001 707.305,-156.5001"/>
</g>
<!-- ViewDocumentoProgramaComponent -->
<g id="node4" class="node">
<title>ViewDocumentoProgramaComponent</title>
<polygon fill="#ffffb3" stroke="#000000" points="727.8917,-122 496.1083,-122 496.1083,-86 727.8917,-86 727.8917,-122"/>
<text text-anchor="middle" x="612" y="-99.8" font-family="Times,serif" font-size="14.00" fill="#000000">ViewDocumentoProgramaComponent</text>
</g>
<!-- ViewDocumentoProgramaComponent&#45;&gt;ProgramasVirtualesModule -->
<g id="edge4" class="edge">
<title>ViewDocumentoProgramaComponent&#45;&gt;ProgramasVirtualesModule</title>
<path fill="none" stroke="#000000" d="M612,-122.1061C612,-122.1061 612,-140.991 612,-140.991"/>
<polygon fill="#000000" stroke="#000000" points="608.5001,-140.9909 612,-150.991 615.5001,-140.991 608.5001,-140.9909"/>
</g>
<!-- EETComponent  -->
<g id="node9" class="node">
<title>EETComponent </title>
<polygon fill="#fb8072" stroke="#000000" points="797.4913,-252 686.5087,-252 686.5087,-216 797.4913,-216 797.4913,-252"/>
<text text-anchor="middle" x="742" y="-229.8" font-family="Times,serif" font-size="14.00" fill="#000000">EETComponent </text>
</g>
<!-- ProgramasVirtualesModule&#45;&gt;EETComponent  -->
<g id="edge8" class="edge">
<title>ProgramasVirtualesModule&#45;&gt;EETComponent </title>
<path fill="none" stroke="#000000" stroke-dasharray="5,2" d="M692.0602,-187.1061C692.0602,-187.1061 692.0602,-205.991 692.0602,-205.991"/>
<polygon fill="#000000" stroke="#000000" points="688.5602,-205.9909 692.0602,-215.991 695.5602,-205.991 688.5602,-205.9909"/>
</g>
<!-- METComponent  -->
<g id="node10" class="node">
<title>METComponent </title>
<polygon fill="#fb8072" stroke="#000000" points="669.3828,-252 554.6172,-252 554.6172,-216 669.3828,-216 669.3828,-252"/>
<text text-anchor="middle" x="612" y="-229.8" font-family="Times,serif" font-size="14.00" fill="#000000">METComponent </text>
</g>
<!-- ProgramasVirtualesModule&#45;&gt;METComponent  -->
<g id="edge9" class="edge">
<title>ProgramasVirtualesModule&#45;&gt;METComponent </title>
<path fill="none" stroke="#000000" stroke-dasharray="5,2" d="M612,-187.1061C612,-187.1061 612,-205.991 612,-205.991"/>
<polygon fill="#000000" stroke="#000000" points="608.5001,-205.9909 612,-215.991 615.5001,-205.991 608.5001,-205.9909"/>
</g>
<!-- MTMComponent  -->
<g id="node11" class="node">
<title>MTMComponent </title>
<polygon fill="#fb8072" stroke="#000000" points="537.2745,-252 418.7255,-252 418.7255,-216 537.2745,-216 537.2745,-252"/>
<text text-anchor="middle" x="478" y="-229.8" font-family="Times,serif" font-size="14.00" fill="#000000">MTMComponent </text>
</g>
<!-- ProgramasVirtualesModule&#45;&gt;MTMComponent  -->
<g id="edge10" class="edge">
<title>ProgramasVirtualesModule&#45;&gt;MTMComponent </title>
<path fill="none" stroke="#000000" stroke-dasharray="5,2" d="M531.8859,-187.1061C531.8859,-187.1061 531.8859,-205.991 531.8859,-205.991"/>
<polygon fill="#000000" stroke="#000000" points="528.3859,-205.9909 531.8859,-215.991 535.3859,-205.991 528.3859,-205.9909"/>
</g>
<!-- ProgramasVirtualesRoutingModule -->
<g id="node6" class="node">
<title>ProgramasVirtualesRoutingModule</title>
<polygon fill="#8dd3c7" stroke="#000000" points="471.8487,-122 468.8487,-126 447.8487,-126 444.8487,-122 256.1513,-122 256.1513,-86 471.8487,-86 471.8487,-122"/>
<text text-anchor="middle" x="364" y="-99.8" font-family="Times,serif" font-size="14.00" fill="#000000">ProgramasVirtualesRoutingModule</text>
</g>
<!-- ProgramasVirtualesRoutingModule&#45;&gt;ProgramasVirtualesModule -->
<g id="edge5" class="edge">
<title>ProgramasVirtualesRoutingModule&#45;&gt;ProgramasVirtualesModule</title>
<path fill="none" stroke="#000000" d="M445.3936,-122.027C445.3936,-138.3976 445.3936,-160 445.3936,-160 445.3936,-160 516.7445,-160 516.7445,-160"/>
<polygon fill="#000000" stroke="#000000" points="516.7446,-163.5001 526.7445,-160 516.7445,-156.5001 516.7446,-163.5001"/>
</g>
<!-- SharedModule -->
<g id="node7" class="node">
<title>SharedModule</title>
<polygon fill="#8dd3c7" stroke="#000000" points="238.4231,-122 235.4231,-126 214.4231,-126 211.4231,-122 139.5769,-122 139.5769,-86 238.4231,-86 238.4231,-122"/>
<text text-anchor="middle" x="189" y="-99.8" font-family="Times,serif" font-size="14.00" fill="#000000">SharedModule</text>
</g>
<!-- SharedModule&#45;&gt;ProgramasVirtualesModule -->
<g id="edge6" class="edge">
<title>SharedModule&#45;&gt;ProgramasVirtualesModule</title>
<path fill="none" stroke="#000000" d="M189,-122.1061C189,-141.3391 189,-169 189,-169 189,-169 516.6542,-169 516.6542,-169"/>
<polygon fill="#000000" stroke="#000000" points="516.6542,-172.5001 526.6542,-169 516.6541,-165.5001 516.6542,-172.5001"/>
</g>
<!-- ThemeModule -->
<g id="node8" class="node">
<title>ThemeModule</title>
<polygon fill="#8dd3c7" stroke="#000000" points="122.4231,-122 119.4231,-126 98.4231,-126 95.4231,-122 23.5769,-122 23.5769,-86 122.4231,-86 122.4231,-122"/>
<text text-anchor="middle" x="73" y="-99.8" font-family="Times,serif" font-size="14.00" fill="#000000">ThemeModule</text>
</g>
<!-- ThemeModule&#45;&gt;ProgramasVirtualesModule -->
<g id="edge7" class="edge">
<title>ThemeModule&#45;&gt;ProgramasVirtualesModule</title>
<path fill="none" stroke="#000000" d="M73,-122.2921C73,-144.2057 73,-178 73,-178 73,-178 516.5938,-178 516.5938,-178"/>
<polygon fill="#000000" stroke="#000000" points="516.5939,-181.5001 526.5938,-178 516.5938,-174.5001 516.5939,-181.5001"/>
</g>
</g>
</svg>
