<?xml version="1.0" encoding="UTF-8" standalone="no"?>
<!DOCTYPE svg PUBLIC "-//W3C//DTD SVG 1.1//EN"
 "http://www.w3.org/Graphics/SVG/1.1/DTD/svg11.dtd">
<!-- Generated by graphviz version 2.40.1 (20161225.0304)
 -->
<!-- Title: dependencies Pages: 1 -->
<svg width="1670pt" height="284pt"
 viewBox="0.00 0.00 1670.00 284.00" xmlns="http://www.w3.org/2000/svg" xmlns:xlink="http://www.w3.org/1999/xlink">
<g id="graph0" class="graph" transform="scale(1 1) rotate(0) translate(4 280)">
<title>dependencies</title>
<polygon fill="#ffffff" stroke="transparent" points="-4,4 -4,-280 1666,-280 1666,4 -4,4"/>
<text text-anchor="start" x="810.0091" y="-42.4" font-family="sans-serif" font-weight="bold" font-size="14.00" fill="#000000">Legend</text>
<polygon fill="#ffffb3" stroke="transparent" points="597,-10 597,-30 617,-30 617,-10 597,-10"/>
<text text-anchor="start" x="620.629" y="-15.4" font-family="sans-serif" font-size="14.00" fill="#000000"> &#160;Declarations</text>
<polygon fill="#8dd3c7" stroke="transparent" points="710,-10 710,-30 730,-30 730,-10 710,-10"/>
<text text-anchor="start" x="733.7251" y="-15.4" font-family="sans-serif" font-size="14.00" fill="#000000"> &#160;Module</text>
<polygon fill="#80b1d3" stroke="transparent" points="796,-10 796,-30 816,-30 816,-10 796,-10"/>
<text text-anchor="start" x="819.7812" y="-15.4" font-family="sans-serif" font-size="14.00" fill="#000000"> &#160;Bootstrap</text>
<polygon fill="#fdb462" stroke="transparent" points="893,-10 893,-30 913,-30 913,-10 893,-10"/>
<text text-anchor="start" x="916.6732" y="-15.4" font-family="sans-serif" font-size="14.00" fill="#000000"> &#160;Providers</text>
<polygon fill="#fb8072" stroke="transparent" points="989,-10 989,-30 1009,-30 1009,-10 989,-10"/>
<text text-anchor="start" x="1012.7258" y="-15.4" font-family="sans-serif" font-size="14.00" fill="#000000"> &#160;Exports</text>
<g id="clust1" class="cluster">
<title>cluster_InformacionContactoModule</title>
<polygon fill="none" stroke="#000000" stroke-dasharray="1,5" points="8,-70 8,-268 1654,-268 1654,-70 8,-70"/>
</g>
<g id="clust2" class="cluster">
<title>cluster_InformacionContactoModule_declarations</title>
<polygon fill="none" stroke="#000000" points="680,-78 680,-130 1646,-130 1646,-78 680,-78"/>
</g>
<g id="clust7" class="cluster">
<title>cluster_InformacionContactoModule_imports</title>
<polygon fill="none" stroke="#000000" points="200,-78 200,-130 672,-130 672,-78 200,-78"/>
</g>
<g id="clust8" class="cluster">
<title>cluster_InformacionContactoModule_exports</title>
<polygon fill="none" stroke="#000000" points="427,-208 427,-260 928,-260 928,-208 427,-208"/>
</g>
<g id="clust10" class="cluster">
<title>cluster_InformacionContactoModule_providers</title>
<polygon fill="none" stroke="#000000" points="16,-78 16,-130 192,-130 192,-78 16,-78"/>
</g>
<!-- CrudDescuentoAcademicoComponent -->
<g id="node1" class="node">
<title>CrudDescuentoAcademicoComponent</title>
<polygon fill="#ffffb3" stroke="#000000" points="1638.1615,-122 1405.8385,-122 1405.8385,-86 1638.1615,-86 1638.1615,-122"/>
<text text-anchor="middle" x="1522" y="-99.8" font-family="Times,serif" font-size="14.00" fill="#000000">CrudDescuentoAcademicoComponent</text>
</g>
<!-- InformacionContactoModule -->
<g id="node5" class="node">
<title>InformacionContactoModule</title>
<polygon fill="#8dd3c7" stroke="#000000" points="767.7892,-187 764.7892,-191 743.7892,-191 740.7892,-187 588.2108,-187 588.2108,-151 767.7892,-151 767.7892,-187"/>
<text text-anchor="middle" x="678" y="-164.8" font-family="Times,serif" font-size="14.00" fill="#000000">InformacionContactoModule</text>
</g>
<!-- CrudDescuentoAcademicoComponent&#45;&gt;InformacionContactoModule -->
<g id="edge1" class="edge">
<title>CrudDescuentoAcademicoComponent&#45;&gt;InformacionContactoModule</title>
<path fill="none" stroke="#000000" d="M1522,-122.2921C1522,-144.2057 1522,-178 1522,-178 1522,-178 777.9229,-178 777.9229,-178"/>
<polygon fill="#000000" stroke="#000000" points="777.9229,-174.5001 767.9229,-178 777.9229,-181.5001 777.9229,-174.5001"/>
</g>
<!-- DescuentoAcademicoComponent -->
<g id="node2" class="node">
<title>DescuentoAcademicoComponent</title>
<polygon fill="#ffffb3" stroke="#000000" points="1388.1643,-122 1183.8357,-122 1183.8357,-86 1388.1643,-86 1388.1643,-122"/>
<text text-anchor="middle" x="1286" y="-99.8" font-family="Times,serif" font-size="14.00" fill="#000000">DescuentoAcademicoComponent</text>
</g>
<!-- DescuentoAcademicoComponent&#45;&gt;InformacionContactoModule -->
<g id="edge2" class="edge">
<title>DescuentoAcademicoComponent&#45;&gt;InformacionContactoModule</title>
<path fill="none" stroke="#000000" d="M1286,-122.1061C1286,-141.3391 1286,-169 1286,-169 1286,-169 777.7125,-169 777.7125,-169"/>
<polygon fill="#000000" stroke="#000000" points="777.7125,-165.5001 767.7125,-169 777.7125,-172.5001 777.7125,-165.5001"/>
</g>
<!-- ListDescuentoAcademicoComponent -->
<g id="node3" class="node">
<title>ListDescuentoAcademicoComponent</title>
<polygon fill="#ffffb3" stroke="#000000" points="1165.9426,-122 940.0574,-122 940.0574,-86 1165.9426,-86 1165.9426,-122"/>
<text text-anchor="middle" x="1053" y="-99.8" font-family="Times,serif" font-size="14.00" fill="#000000">ListDescuentoAcademicoComponent</text>
</g>
<!-- ListDescuentoAcademicoComponent&#45;&gt;InformacionContactoModule -->
<g id="edge3" class="edge">
<title>ListDescuentoAcademicoComponent&#45;&gt;InformacionContactoModule</title>
<path fill="none" stroke="#000000" d="M1053,-122.027C1053,-138.3976 1053,-160 1053,-160 1053,-160 777.8218,-160 777.8218,-160"/>
<polygon fill="#000000" stroke="#000000" points="777.8219,-156.5001 767.8218,-160 777.8218,-163.5001 777.8219,-156.5001"/>
</g>
<!-- ViewDescuentoAcademicoComponent -->
<g id="node4" class="node">
<title>ViewDescuentoAcademicoComponent</title>
<polygon fill="#ffffb3" stroke="#000000" points="922.4831,-122 687.5169,-122 687.5169,-86 922.4831,-86 922.4831,-122"/>
<text text-anchor="middle" x="805" y="-99.8" font-family="Times,serif" font-size="14.00" fill="#000000">ViewDescuentoAcademicoComponent</text>
</g>
<!-- ViewDescuentoAcademicoComponent&#45;&gt;InformacionContactoModule -->
<g id="edge4" class="edge">
<title>ViewDescuentoAcademicoComponent&#45;&gt;InformacionContactoModule</title>
<path fill="none" stroke="#000000" d="M727.7016,-122.1061C727.7016,-122.1061 727.7016,-140.991 727.7016,-140.991"/>
<polygon fill="#000000" stroke="#000000" points="724.2017,-140.9909 727.7016,-150.991 731.2017,-140.991 724.2017,-140.9909"/>
</g>
<!-- CrudInformacionContactoComponent  -->
<g id="node9" class="node">
<title>CrudInformacionContactoComponent </title>
<polygon fill="#fb8072" stroke="#000000" points="920.0692,-252 687.9308,-252 687.9308,-216 920.0692,-216 920.0692,-252"/>
<text text-anchor="middle" x="804" y="-229.8" font-family="Times,serif" font-size="14.00" fill="#000000">CrudInformacionContactoComponent </text>
</g>
<!-- InformacionContactoModule&#45;&gt;CrudInformacionContactoComponent  -->
<g id="edge8" class="edge">
<title>InformacionContactoModule&#45;&gt;CrudInformacionContactoComponent </title>
<path fill="none" stroke="#000000" stroke-dasharray="5,2" d="M727.68,-187.1061C727.68,-187.1061 727.68,-205.991 727.68,-205.991"/>
<polygon fill="#000000" stroke="#000000" points="724.1801,-205.9909 727.68,-215.991 731.1801,-205.991 724.1801,-205.9909"/>
</g>
<!-- ViewInformacionContactoComponent  -->
<g id="node10" class="node">
<title>ViewInformacionContactoComponent </title>
<polygon fill="#fb8072" stroke="#000000" points="669.39,-252 434.61,-252 434.61,-216 669.39,-216 669.39,-252"/>
<text text-anchor="middle" x="552" y="-229.8" font-family="Times,serif" font-size="14.00" fill="#000000">ViewInformacionContactoComponent </text>
</g>
<!-- InformacionContactoModule&#45;&gt;ViewInformacionContactoComponent  -->
<g id="edge9" class="edge">
<title>InformacionContactoModule&#45;&gt;ViewInformacionContactoComponent </title>
<path fill="none" stroke="#000000" stroke-dasharray="5,2" d="M628.9002,-187.1061C628.9002,-187.1061 628.9002,-205.991 628.9002,-205.991"/>
<polygon fill="#000000" stroke="#000000" points="625.4003,-205.9909 628.9002,-215.991 632.4003,-205.991 625.4003,-205.9909"/>
</g>
<!-- InformacionContactoRoutingModule -->
<g id="node6" class="node">
<title>InformacionContactoRoutingModule</title>
<polygon fill="#8dd3c7" stroke="#000000" points="664.4072,-122 661.4072,-126 640.4072,-126 637.4072,-122 439.5928,-122 439.5928,-86 664.4072,-86 664.4072,-122"/>
<text text-anchor="middle" x="552" y="-99.8" font-family="Times,serif" font-size="14.00" fill="#000000">InformacionContactoRoutingModule</text>
</g>
<!-- InformacionContactoRoutingModule&#45;&gt;InformacionContactoModule -->
<g id="edge5" class="edge">
<title>InformacionContactoRoutingModule&#45;&gt;InformacionContactoModule</title>
<path fill="none" stroke="#000000" d="M626.2795,-122.1061C626.2795,-122.1061 626.2795,-140.991 626.2795,-140.991"/>
<polygon fill="#000000" stroke="#000000" points="622.7795,-140.9909 626.2795,-150.991 629.7795,-140.991 622.7795,-140.9909"/>
</g>
<!-- SharedModule -->
<g id="node7" class="node">
<title>SharedModule</title>
<polygon fill="#8dd3c7" stroke="#000000" points="422.4231,-122 419.4231,-126 398.4231,-126 395.4231,-122 323.5769,-122 323.5769,-86 422.4231,-86 422.4231,-122"/>
<text text-anchor="middle" x="373" y="-99.8" font-family="Times,serif" font-size="14.00" fill="#000000">SharedModule</text>
</g>
<!-- SharedModule&#45;&gt;InformacionContactoModule -->
<g id="edge6" class="edge">
<title>SharedModule&#45;&gt;InformacionContactoModule</title>
<path fill="none" stroke="#000000" d="M373,-122.027C373,-138.3976 373,-160 373,-160 373,-160 578.1396,-160 578.1396,-160"/>
<polygon fill="#000000" stroke="#000000" points="578.1396,-163.5001 588.1396,-160 578.1395,-156.5001 578.1396,-163.5001"/>
</g>
<!-- ThemeModule -->
<g id="node8" class="node">
<title>ThemeModule</title>
<polygon fill="#8dd3c7" stroke="#000000" points="306.4231,-122 303.4231,-126 282.4231,-126 279.4231,-122 207.5769,-122 207.5769,-86 306.4231,-86 306.4231,-122"/>
<text text-anchor="middle" x="257" y="-99.8" font-family="Times,serif" font-size="14.00" fill="#000000">ThemeModule</text>
</g>
<!-- ThemeModule&#45;&gt;InformacionContactoModule -->
<g id="edge7" class="edge">
<title>ThemeModule&#45;&gt;InformacionContactoModule</title>
<path fill="none" stroke="#000000" d="M257,-122.1061C257,-141.3391 257,-169 257,-169 257,-169 578.2013,-169 578.2013,-169"/>
<polygon fill="#000000" stroke="#000000" points="578.2014,-172.5001 588.2013,-169 578.2013,-165.5001 578.2014,-172.5001"/>
</g>
<!-- UbicacionService -->
<g id="node11" class="node">
<title>UbicacionService</title>
<ellipse fill="#fdb462" stroke="#000000" cx="104" cy="-104" rx="79.8527" ry="18"/>
<text text-anchor="middle" x="104" y="-99.8" font-family="Times,serif" font-size="14.00" fill="#000000">UbicacionService</text>
</g>
<!-- UbicacionService&#45;&gt;InformacionContactoModule -->
<g id="edge10" class="edge">
<title>UbicacionService&#45;&gt;InformacionContactoModule</title>
<path fill="none" stroke="#000000" d="M104,-122.2921C104,-144.2057 104,-178 104,-178 104,-178 578.3125,-178 578.3125,-178"/>
<polygon fill="#000000" stroke="#000000" points="578.3125,-181.5001 588.3125,-178 578.3125,-174.5001 578.3125,-181.5001"/>
</g>
</g>
</svg>
