<?xml version="1.0" encoding="UTF-8" standalone="no"?>
<!DOCTYPE svg PUBLIC "-//W3C//DTD SVG 1.1//EN"
 "http://www.w3.org/Graphics/SVG/1.1/DTD/svg11.dtd">
<!-- Generated by graphviz version 2.40.1 (20161225.0304)
 -->
<!-- Title: dependencies Pages: 1 -->
<svg width="1366pt" height="284pt"
 viewBox="0.00 0.00 1366.00 284.00" xmlns="http://www.w3.org/2000/svg" xmlns:xlink="http://www.w3.org/1999/xlink">
<g id="graph0" class="graph" transform="scale(1 1) rotate(0) translate(4 280)">
<title>dependencies</title>
<polygon fill="#ffffff" stroke="transparent" points="-4,4 -4,-280 1362,-280 1362,4 -4,4"/>
<text text-anchor="start" x="658.0091" y="-42.4" font-family="sans-serif" font-weight="bold" font-size="14.00" fill="#000000">Legend</text>
<polygon fill="#ffffb3" stroke="transparent" points="445,-10 445,-30 465,-30 465,-10 445,-10"/>
<text text-anchor="start" x="468.629" y="-15.4" font-family="sans-serif" font-size="14.00" fill="#000000"> &#160;Declarations</text>
<polygon fill="#8dd3c7" stroke="transparent" points="558,-10 558,-30 578,-30 578,-10 558,-10"/>
<text text-anchor="start" x="581.7251" y="-15.4" font-family="sans-serif" font-size="14.00" fill="#000000"> &#160;Module</text>
<polygon fill="#80b1d3" stroke="transparent" points="644,-10 644,-30 664,-30 664,-10 644,-10"/>
<text text-anchor="start" x="667.7812" y="-15.4" font-family="sans-serif" font-size="14.00" fill="#000000"> &#160;Bootstrap</text>
<polygon fill="#fdb462" stroke="transparent" points="741,-10 741,-30 761,-30 761,-10 741,-10"/>
<text text-anchor="start" x="764.6732" y="-15.4" font-family="sans-serif" font-size="14.00" fill="#000000"> &#160;Providers</text>
<polygon fill="#fb8072" stroke="transparent" points="837,-10 837,-30 857,-30 857,-10 837,-10"/>
<text text-anchor="start" x="860.7258" y="-15.4" font-family="sans-serif" font-size="14.00" fill="#000000"> &#160;Exports</text>
<g id="clust1" class="cluster">
<title>cluster_InformacionContactoModule</title>
<polygon fill="none" stroke="#000000" stroke-dasharray="1,5" points="8,-70 8,-268 1350,-268 1350,-70 8,-70"/>
</g>
<g id="clust2" class="cluster">
<title>cluster_InformacionContactoModule_declarations</title>
<polygon fill="none" stroke="#000000" points="680,-78 680,-130 1342,-130 1342,-78 680,-78"/>
</g>
<g id="clust7" class="cluster">
<title>cluster_InformacionContactoModule_imports</title>
<polygon fill="none" stroke="#000000" points="200,-78 200,-130 672,-130 672,-78 200,-78"/>
</g>
<g id="clust8" class="cluster">
<title>cluster_InformacionContactoModule_exports</title>
<polygon fill="none" stroke="#000000" points="408,-208 408,-260 909,-260 909,-208 408,-208"/>
</g>
<g id="clust10" class="cluster">
<title>cluster_InformacionContactoModule_providers</title>
<polygon fill="none" stroke="#000000" points="16,-78 16,-130 192,-130 192,-78 16,-78"/>
</g>
<!-- ArticuloComponent -->
<g id="node1" class="node">
<title>ArticuloComponent</title>
<polygon fill="#ffffb3" stroke="#000000" points="1333.986,-122 1206.014,-122 1206.014,-86 1333.986,-86 1333.986,-122"/>
<text text-anchor="middle" x="1270" y="-99.8" font-family="Times,serif" font-size="14.00" fill="#000000">ArticuloComponent</text>
</g>
<!-- InformacionContactoModule -->
<g id="node5" class="node">
<title>InformacionContactoModule</title>
<polygon fill="#8dd3c7" stroke="#000000" points="748.7892,-187 745.7892,-191 724.7892,-191 721.7892,-187 569.2108,-187 569.2108,-151 748.7892,-151 748.7892,-187"/>
<text text-anchor="middle" x="659" y="-164.8" font-family="Times,serif" font-size="14.00" fill="#000000">InformacionContactoModule</text>
</g>
<!-- ArticuloComponent&#45;&gt;InformacionContactoModule -->
<g id="edge1" class="edge">
<title>ArticuloComponent&#45;&gt;InformacionContactoModule</title>
<path fill="none" stroke="#000000" d="M1270,-122.2921C1270,-144.2057 1270,-178 1270,-178 1270,-178 758.8268,-178 758.8268,-178"/>
<polygon fill="#000000" stroke="#000000" points="758.8269,-174.5001 748.8268,-178 758.8268,-181.5001 758.8269,-174.5001"/>
</g>
<!-- CrudArticuloComponent -->
<g id="node2" class="node">
<title>CrudArticuloComponent</title>
<polygon fill="#ffffb3" stroke="#000000" points="1187.9832,-122 1032.0168,-122 1032.0168,-86 1187.9832,-86 1187.9832,-122"/>
<text text-anchor="middle" x="1110" y="-99.8" font-family="Times,serif" font-size="14.00" fill="#000000">CrudArticuloComponent</text>
</g>
<!-- CrudArticuloComponent&#45;&gt;InformacionContactoModule -->
<g id="edge2" class="edge">
<title>CrudArticuloComponent&#45;&gt;InformacionContactoModule</title>
<path fill="none" stroke="#000000" d="M1110,-122.1061C1110,-141.3391 1110,-169 1110,-169 1110,-169 758.9123,-169 758.9123,-169"/>
<polygon fill="#000000" stroke="#000000" points="758.9124,-165.5001 748.9123,-169 758.9123,-172.5001 758.9124,-165.5001"/>
</g>
<!-- ListArticuloComponent -->
<g id="node3" class="node">
<title>ListArticuloComponent</title>
<polygon fill="#ffffb3" stroke="#000000" points="1013.7646,-122 864.2354,-122 864.2354,-86 1013.7646,-86 1013.7646,-122"/>
<text text-anchor="middle" x="939" y="-99.8" font-family="Times,serif" font-size="14.00" fill="#000000">ListArticuloComponent</text>
</g>
<!-- ListArticuloComponent&#45;&gt;InformacionContactoModule -->
<g id="edge3" class="edge">
<title>ListArticuloComponent&#45;&gt;InformacionContactoModule</title>
<path fill="none" stroke="#000000" d="M882.7011,-122.027C882.7011,-138.3976 882.7011,-160 882.7011,-160 882.7011,-160 758.6988,-160 758.6988,-160"/>
<polygon fill="#000000" stroke="#000000" points="758.6989,-156.5001 748.6988,-160 758.6988,-163.5001 758.6989,-156.5001"/>
</g>
<!-- ViewArticuloComponent -->
<g id="node4" class="node">
<title>ViewArticuloComponent</title>
<polygon fill="#ffffb3" stroke="#000000" points="846.3047,-122 687.6953,-122 687.6953,-86 846.3047,-86 846.3047,-122"/>
<text text-anchor="middle" x="767" y="-99.8" font-family="Times,serif" font-size="14.00" fill="#000000">ViewArticuloComponent</text>
</g>
<!-- ViewArticuloComponent&#45;&gt;InformacionContactoModule -->
<g id="edge4" class="edge">
<title>ViewArticuloComponent&#45;&gt;InformacionContactoModule</title>
<path fill="none" stroke="#000000" d="M718.2461,-122.1061C718.2461,-122.1061 718.2461,-140.991 718.2461,-140.991"/>
<polygon fill="#000000" stroke="#000000" points="714.7462,-140.9909 718.2461,-150.991 721.7462,-140.991 714.7462,-140.9909"/>
</g>
<!-- CrudInformacionContactoComponent  -->
<g id="node9" class="node">
<title>CrudInformacionContactoComponent </title>
<polygon fill="#fb8072" stroke="#000000" points="901.0692,-252 668.9308,-252 668.9308,-216 901.0692,-216 901.0692,-252"/>
<text text-anchor="middle" x="785" y="-229.8" font-family="Times,serif" font-size="14.00" fill="#000000">CrudInformacionContactoComponent </text>
</g>
<!-- InformacionContactoModule&#45;&gt;CrudInformacionContactoComponent  -->
<g id="edge8" class="edge">
<title>InformacionContactoModule&#45;&gt;CrudInformacionContactoComponent </title>
<path fill="none" stroke="#000000" stroke-dasharray="5,2" d="M708.68,-187.1061C708.68,-187.1061 708.68,-205.991 708.68,-205.991"/>
<polygon fill="#000000" stroke="#000000" points="705.1801,-205.9909 708.68,-215.991 712.1801,-205.991 705.1801,-205.9909"/>
</g>
<!-- ViewInformacionContactoComponent  -->
<g id="node10" class="node">
<title>ViewInformacionContactoComponent </title>
<polygon fill="#fb8072" stroke="#000000" points="650.39,-252 415.61,-252 415.61,-216 650.39,-216 650.39,-252"/>
<text text-anchor="middle" x="533" y="-229.8" font-family="Times,serif" font-size="14.00" fill="#000000">ViewInformacionContactoComponent </text>
</g>
<!-- InformacionContactoModule&#45;&gt;ViewInformacionContactoComponent  -->
<g id="edge9" class="edge">
<title>InformacionContactoModule&#45;&gt;ViewInformacionContactoComponent </title>
<path fill="none" stroke="#000000" stroke-dasharray="5,2" d="M609.9002,-187.1061C609.9002,-187.1061 609.9002,-205.991 609.9002,-205.991"/>
<polygon fill="#000000" stroke="#000000" points="606.4003,-205.9909 609.9002,-215.991 613.4003,-205.991 606.4003,-205.9909"/>
</g>
<!-- InformacionContactoRoutingModule -->
<g id="node6" class="node">
<title>InformacionContactoRoutingModule</title>
<polygon fill="#8dd3c7" stroke="#000000" points="664.4072,-122 661.4072,-126 640.4072,-126 637.4072,-122 439.5928,-122 439.5928,-86 664.4072,-86 664.4072,-122"/>
<text text-anchor="middle" x="552" y="-99.8" font-family="Times,serif" font-size="14.00" fill="#000000">InformacionContactoRoutingModule</text>
</g>
<!-- InformacionContactoRoutingModule&#45;&gt;InformacionContactoModule -->
<g id="edge5" class="edge">
<title>InformacionContactoRoutingModule&#45;&gt;InformacionContactoModule</title>
<path fill="none" stroke="#000000" d="M616.7795,-122.1061C616.7795,-122.1061 616.7795,-140.991 616.7795,-140.991"/>
<polygon fill="#000000" stroke="#000000" points="613.2795,-140.9909 616.7795,-150.991 620.2795,-140.991 613.2795,-140.9909"/>
</g>
<!-- SharedModule -->
<g id="node7" class="node">
<title>SharedModule</title>
<polygon fill="#8dd3c7" stroke="#000000" points="422.4231,-122 419.4231,-126 398.4231,-126 395.4231,-122 323.5769,-122 323.5769,-86 422.4231,-86 422.4231,-122"/>
<text text-anchor="middle" x="373" y="-99.8" font-family="Times,serif" font-size="14.00" fill="#000000">SharedModule</text>
</g>
<!-- SharedModule&#45;&gt;InformacionContactoModule -->
<g id="edge6" class="edge">
<title>SharedModule&#45;&gt;InformacionContactoModule</title>
<path fill="none" stroke="#000000" d="M369.672,-122.027C369.672,-138.3976 369.672,-160 369.672,-160 369.672,-160 559.0408,-160 559.0408,-160"/>
<polygon fill="#000000" stroke="#000000" points="559.0408,-163.5001 569.0408,-160 559.0407,-156.5001 559.0408,-163.5001"/>
</g>
<!-- ThemeModule -->
<g id="node8" class="node">
<title>ThemeModule</title>
<polygon fill="#8dd3c7" stroke="#000000" points="306.4231,-122 303.4231,-126 282.4231,-126 279.4231,-122 207.5769,-122 207.5769,-86 306.4231,-86 306.4231,-122"/>
<text text-anchor="middle" x="257" y="-99.8" font-family="Times,serif" font-size="14.00" fill="#000000">ThemeModule</text>
</g>
<!-- ThemeModule&#45;&gt;InformacionContactoModule -->
<g id="edge7" class="edge">
<title>ThemeModule&#45;&gt;InformacionContactoModule</title>
<path fill="none" stroke="#000000" d="M257,-122.1061C257,-141.3391 257,-169 257,-169 257,-169 559.2837,-169 559.2837,-169"/>
<polygon fill="#000000" stroke="#000000" points="559.2837,-172.5001 569.2837,-169 559.2837,-165.5001 559.2837,-172.5001"/>
</g>
<!-- UbicacionService -->
<g id="node11" class="node">
<title>UbicacionService</title>
<ellipse fill="#fdb462" stroke="#000000" cx="104" cy="-104" rx="79.8527" ry="18"/>
<text text-anchor="middle" x="104" y="-99.8" font-family="Times,serif" font-size="14.00" fill="#000000">UbicacionService</text>
</g>
<!-- UbicacionService&#45;&gt;InformacionContactoModule -->
<g id="edge10" class="edge">
<title>UbicacionService&#45;&gt;InformacionContactoModule</title>
<path fill="none" stroke="#000000" d="M104,-122.2921C104,-144.2057 104,-178 104,-178 104,-178 559.2128,-178 559.2128,-178"/>
<polygon fill="#000000" stroke="#000000" points="559.2129,-181.5001 569.2128,-178 559.2128,-174.5001 559.2129,-181.5001"/>
</g>
</g>
</svg>
