<?xml version="1.0" encoding="UTF-8" standalone="no"?>
<!DOCTYPE svg PUBLIC "-//W3C//DTD SVG 1.1//EN"
 "http://www.w3.org/Graphics/SVG/1.1/DTD/svg11.dtd">
<!-- Generated by graphviz version 2.40.1 (20161225.0304)
 -->
<!-- Title: dependencies Pages: 1 -->
<svg width="1449pt" height="284pt"
 viewBox="0.00 0.00 1449.00 284.00" xmlns="http://www.w3.org/2000/svg" xmlns:xlink="http://www.w3.org/1999/xlink">
<g id="graph0" class="graph" transform="scale(1 1) rotate(0) translate(4 280)">
<title>dependencies</title>
<polygon fill="#ffffff" stroke="transparent" points="-4,4 -4,-280 1445,-280 1445,4 -4,4"/>
<text text-anchor="start" x="699.5091" y="-42.4" font-family="sans-serif" font-weight="bold" font-size="14.00" fill="#000000">Legend</text>
<polygon fill="#ffffb3" stroke="transparent" points="486.5,-10 486.5,-30 506.5,-30 506.5,-10 486.5,-10"/>
<text text-anchor="start" x="510.129" y="-15.4" font-family="sans-serif" font-size="14.00" fill="#000000"> &#160;Declarations</text>
<polygon fill="#8dd3c7" stroke="transparent" points="599.5,-10 599.5,-30 619.5,-30 619.5,-10 599.5,-10"/>
<text text-anchor="start" x="623.2251" y="-15.4" font-family="sans-serif" font-size="14.00" fill="#000000"> &#160;Module</text>
<polygon fill="#80b1d3" stroke="transparent" points="685.5,-10 685.5,-30 705.5,-30 705.5,-10 685.5,-10"/>
<text text-anchor="start" x="709.2812" y="-15.4" font-family="sans-serif" font-size="14.00" fill="#000000"> &#160;Bootstrap</text>
<polygon fill="#fdb462" stroke="transparent" points="782.5,-10 782.5,-30 802.5,-30 802.5,-10 782.5,-10"/>
<text text-anchor="start" x="806.1732" y="-15.4" font-family="sans-serif" font-size="14.00" fill="#000000"> &#160;Providers</text>
<polygon fill="#fb8072" stroke="transparent" points="878.5,-10 878.5,-30 898.5,-30 898.5,-10 878.5,-10"/>
<text text-anchor="start" x="902.2258" y="-15.4" font-family="sans-serif" font-size="14.00" fill="#000000"> &#160;Exports</text>
<g id="clust1" class="cluster">
<title>cluster_ProduccionTecnicaModule</title>
<polygon fill="none" stroke="#000000" stroke-dasharray="1,5" points="8,-70 8,-268 1433,-268 1433,-70 8,-70"/>
</g>
<g id="clust2" class="cluster">
<title>cluster_ProduccionTecnicaModule_declarations</title>
<polygon fill="none" stroke="#000000" points="763,-78 763,-130 1425,-130 1425,-78 763,-78"/>
</g>
<g id="clust7" class="cluster">
<title>cluster_ProduccionTecnicaModule_imports</title>
<polygon fill="none" stroke="#000000" points="294,-78 294,-130 755,-130 755,-78 294,-78"/>
</g>
<g id="clust8" class="cluster">
<title>cluster_ProduccionTecnicaModule_exports</title>
<polygon fill="none" stroke="#000000" points="388,-208 388,-260 1099,-260 1099,-208 388,-208"/>
</g>
<g id="clust10" class="cluster">
<title>cluster_ProduccionTecnicaModule_providers</title>
<polygon fill="none" stroke="#000000" points="16,-78 16,-130 286,-130 286,-78 16,-78"/>
</g>
<!-- ArticuloComponent -->
<g id="node1" class="node">
<title>ArticuloComponent</title>
<polygon fill="#ffffb3" stroke="#000000" points="1416.986,-122 1289.014,-122 1289.014,-86 1416.986,-86 1416.986,-122"/>
<text text-anchor="middle" x="1353" y="-99.8" font-family="Times,serif" font-size="14.00" fill="#000000">ArticuloComponent</text>
</g>
<!-- ProduccionTecnicaModule -->
<g id="node5" class="node">
<title>ProduccionTecnicaModule</title>
<polygon fill="#8dd3c7" stroke="#000000" points="828.6148,-187 825.6148,-191 804.6148,-191 801.6148,-187 661.3852,-187 661.3852,-151 828.6148,-151 828.6148,-187"/>
<text text-anchor="middle" x="745" y="-164.8" font-family="Times,serif" font-size="14.00" fill="#000000">ProduccionTecnicaModule</text>
</g>
<!-- ArticuloComponent&#45;&gt;ProduccionTecnicaModule -->
<g id="edge1" class="edge">
<title>ArticuloComponent&#45;&gt;ProduccionTecnicaModule</title>
<path fill="none" stroke="#000000" d="M1353,-122.1289C1353,-142.5724 1353,-173 1353,-173 1353,-173 838.9015,-173 838.9015,-173"/>
<polygon fill="#000000" stroke="#000000" points="838.9015,-169.5001 828.9015,-173 838.9014,-176.5001 838.9015,-169.5001"/>
</g>
<!-- CrudArticuloComponent -->
<g id="node2" class="node">
<title>CrudArticuloComponent</title>
<polygon fill="#ffffb3" stroke="#000000" points="1270.9832,-122 1115.0168,-122 1115.0168,-86 1270.9832,-86 1270.9832,-122"/>
<text text-anchor="middle" x="1193" y="-99.8" font-family="Times,serif" font-size="14.00" fill="#000000">CrudArticuloComponent</text>
</g>
<!-- CrudArticuloComponent&#45;&gt;ProduccionTecnicaModule -->
<g id="edge2" class="edge">
<title>CrudArticuloComponent&#45;&gt;ProduccionTecnicaModule</title>
<path fill="none" stroke="#000000" d="M1193,-122.2667C1193,-140.5552 1193,-166 1193,-166 1193,-166 838.7398,-166 838.7398,-166"/>
<polygon fill="#000000" stroke="#000000" points="838.7399,-162.5001 828.7398,-166 838.7398,-169.5001 838.7399,-162.5001"/>
</g>
<!-- ListArticuloComponent -->
<g id="node3" class="node">
<title>ListArticuloComponent</title>
<polygon fill="#ffffb3" stroke="#000000" points="1096.7646,-122 947.2354,-122 947.2354,-86 1096.7646,-86 1096.7646,-122"/>
<text text-anchor="middle" x="1022" y="-99.8" font-family="Times,serif" font-size="14.00" fill="#000000">ListArticuloComponent</text>
</g>
<!-- ListArticuloComponent&#45;&gt;ProduccionTecnicaModule -->
<g id="edge3" class="edge">
<title>ListArticuloComponent&#45;&gt;ProduccionTecnicaModule</title>
<path fill="none" stroke="#000000" d="M1019.2825,-122.0091C1019.2825,-138.0494 1019.2825,-159 1019.2825,-159 1019.2825,-159 838.7841,-159 838.7841,-159"/>
<polygon fill="#000000" stroke="#000000" points="838.7842,-155.5001 828.7841,-159 838.7841,-162.5001 838.7842,-155.5001"/>
</g>
<!-- ViewArticuloComponent -->
<g id="node4" class="node">
<title>ViewArticuloComponent</title>
<polygon fill="#ffffb3" stroke="#000000" points="929.3047,-122 770.6953,-122 770.6953,-86 929.3047,-86 929.3047,-122"/>
<text text-anchor="middle" x="850" y="-99.8" font-family="Times,serif" font-size="14.00" fill="#000000">ViewArticuloComponent</text>
</g>
<!-- ViewArticuloComponent&#45;&gt;ProduccionTecnicaModule -->
<g id="edge4" class="edge">
<title>ViewArticuloComponent&#45;&gt;ProduccionTecnicaModule</title>
<path fill="none" stroke="#000000" d="M799.8275,-122.1061C799.8275,-122.1061 799.8275,-140.991 799.8275,-140.991"/>
<polygon fill="#000000" stroke="#000000" points="796.3276,-140.9909 799.8275,-150.991 803.3276,-140.991 796.3276,-140.9909"/>
</g>
<!-- CrudProduccionTecnicaComponent  -->
<g id="node9" class="node">
<title>CrudProduccionTecnicaComponent </title>
<polygon fill="#fb8072" stroke="#000000" points="1091.3942,-252 870.6058,-252 870.6058,-216 1091.3942,-216 1091.3942,-252"/>
<text text-anchor="middle" x="981" y="-229.8" font-family="Times,serif" font-size="14.00" fill="#000000">CrudProduccionTecnicaComponent </text>
</g>
<!-- ProduccionTecnicaModule&#45;&gt;CrudProduccionTecnicaComponent  -->
<g id="edge8" class="edge">
<title>ProduccionTecnicaModule&#45;&gt;CrudProduccionTecnicaComponent </title>
<path fill="none" stroke="#000000" stroke-dasharray="5,2" d="M828.7713,-180C865.2579,-180 899.8526,-180 899.8526,-180 899.8526,-180 899.8526,-205.7181 899.8526,-205.7181"/>
<polygon fill="#000000" stroke="#000000" points="896.3526,-205.718 899.8526,-215.7181 903.3526,-205.7181 896.3526,-205.718"/>
</g>
<!-- ListProduccionTecnicaComponent  -->
<g id="node10" class="node">
<title>ListProduccionTecnicaComponent </title>
<polygon fill="#fb8072" stroke="#000000" points="852.1756,-252 637.8244,-252 637.8244,-216 852.1756,-216 852.1756,-252"/>
<text text-anchor="middle" x="745" y="-229.8" font-family="Times,serif" font-size="14.00" fill="#000000">ListProduccionTecnicaComponent </text>
</g>
<!-- ProduccionTecnicaModule&#45;&gt;ListProduccionTecnicaComponent  -->
<g id="edge9" class="edge">
<title>ProduccionTecnicaModule&#45;&gt;ListProduccionTecnicaComponent </title>
<path fill="none" stroke="#000000" stroke-dasharray="5,2" d="M745,-187.1061C745,-187.1061 745,-205.991 745,-205.991"/>
<polygon fill="#000000" stroke="#000000" points="741.5001,-205.9909 745,-215.991 748.5001,-205.991 741.5001,-205.9909"/>
</g>
<!-- ViewProduccionTecnicaComponent  -->
<g id="node11" class="node">
<title>ViewProduccionTecnicaComponent </title>
<polygon fill="#fb8072" stroke="#000000" points="619.7155,-252 396.2845,-252 396.2845,-216 619.7155,-216 619.7155,-252"/>
<text text-anchor="middle" x="508" y="-229.8" font-family="Times,serif" font-size="14.00" fill="#000000">ViewProduccionTecnicaComponent </text>
</g>
<!-- ProduccionTecnicaModule&#45;&gt;ViewProduccionTecnicaComponent  -->
<g id="edge10" class="edge">
<title>ProduccionTecnicaModule&#45;&gt;ViewProduccionTecnicaComponent </title>
<path fill="none" stroke="#000000" stroke-dasharray="5,2" d="M661.0604,-180C619.0906,-180 577.1208,-180 577.1208,-180 577.1208,-180 577.1208,-205.7181 577.1208,-205.7181"/>
<polygon fill="#000000" stroke="#000000" points="573.6209,-205.718 577.1208,-215.7181 580.6209,-205.7181 573.6209,-205.718"/>
</g>
<!-- ProduccionTecnicaRoutingModule -->
<g id="node6" class="node">
<title>ProduccionTecnicaRoutingModule</title>
<polygon fill="#8dd3c7" stroke="#000000" points="747.2324,-122 744.2324,-126 723.2324,-126 720.2324,-122 534.7676,-122 534.7676,-86 747.2324,-86 747.2324,-122"/>
<text text-anchor="middle" x="641" y="-99.8" font-family="Times,serif" font-size="14.00" fill="#000000">ProduccionTecnicaRoutingModule</text>
</g>
<!-- ProduccionTecnicaRoutingModule&#45;&gt;ProduccionTecnicaModule -->
<g id="edge5" class="edge">
<title>ProduccionTecnicaRoutingModule&#45;&gt;ProduccionTecnicaModule</title>
<path fill="none" stroke="#000000" d="M704.2795,-122.1061C704.2795,-122.1061 704.2795,-140.991 704.2795,-140.991"/>
<polygon fill="#000000" stroke="#000000" points="700.7795,-140.9909 704.2795,-150.991 707.7795,-140.991 700.7795,-140.9909"/>
</g>
<!-- SharedModule -->
<g id="node7" class="node">
<title>SharedModule</title>
<polygon fill="#8dd3c7" stroke="#000000" points="516.4231,-122 513.4231,-126 492.4231,-126 489.4231,-122 417.5769,-122 417.5769,-86 516.4231,-86 516.4231,-122"/>
<text text-anchor="middle" x="467" y="-99.8" font-family="Times,serif" font-size="14.00" fill="#000000">SharedModule</text>
</g>
<!-- SharedModule&#45;&gt;ProduccionTecnicaModule -->
<g id="edge6" class="edge">
<title>SharedModule&#45;&gt;ProduccionTecnicaModule</title>
<path fill="none" stroke="#000000" d="M467,-122.0091C467,-138.0494 467,-159 467,-159 467,-159 651.2138,-159 651.2138,-159"/>
<polygon fill="#000000" stroke="#000000" points="651.2139,-162.5001 661.2138,-159 651.2138,-155.5001 651.2139,-162.5001"/>
</g>
<!-- ThemeModule -->
<g id="node8" class="node">
<title>ThemeModule</title>
<polygon fill="#8dd3c7" stroke="#000000" points="400.4231,-122 397.4231,-126 376.4231,-126 373.4231,-122 301.5769,-122 301.5769,-86 400.4231,-86 400.4231,-122"/>
<text text-anchor="middle" x="351" y="-99.8" font-family="Times,serif" font-size="14.00" fill="#000000">ThemeModule</text>
</g>
<!-- ThemeModule&#45;&gt;ProduccionTecnicaModule -->
<g id="edge7" class="edge">
<title>ThemeModule&#45;&gt;ProduccionTecnicaModule</title>
<path fill="none" stroke="#000000" d="M349.0906,-122.2667C349.0906,-140.5552 349.0906,-166 349.0906,-166 349.0906,-166 651.0378,-166 651.0378,-166"/>
<polygon fill="#000000" stroke="#000000" points="651.0378,-169.5001 661.0378,-166 651.0378,-162.5001 651.0378,-169.5001"/>
</g>
<!-- ProduccionAcademicaService -->
<g id="node12" class="node">
<title>ProduccionAcademicaService</title>
<ellipse fill="#fdb462" stroke="#000000" cx="151" cy="-104" rx="127.3074" ry="18"/>
<text text-anchor="middle" x="151" y="-99.8" font-family="Times,serif" font-size="14.00" fill="#000000">ProduccionAcademicaService</text>
</g>
<!-- ProduccionAcademicaService&#45;&gt;ProduccionTecnicaModule -->
<g id="edge11" class="edge">
<title>ProduccionAcademicaService&#45;&gt;ProduccionTecnicaModule</title>
<path fill="none" stroke="#000000" d="M151,-122.1289C151,-142.5724 151,-173 151,-173 151,-173 651.1541,-173 651.1541,-173"/>
<polygon fill="#000000" stroke="#000000" points="651.1542,-176.5001 661.1541,-173 651.1541,-169.5001 651.1542,-176.5001"/>
</g>
</g>
</svg>
