<?xml version="1.0" encoding="UTF-8" standalone="no"?>
<!DOCTYPE svg PUBLIC "-//W3C//DTD SVG 1.1//EN"
 "http://www.w3.org/Graphics/SVG/1.1/DTD/svg11.dtd">
<!-- Generated by graphviz version 2.40.1 (20161225.0304)
 -->
<!-- Title: dependencies Pages: 1 -->
<svg width="1753pt" height="284pt"
 viewBox="0.00 0.00 1753.00 284.00" xmlns="http://www.w3.org/2000/svg" xmlns:xlink="http://www.w3.org/1999/xlink">
<g id="graph0" class="graph" transform="scale(1 1) rotate(0) translate(4 280)">
<title>dependencies</title>
<polygon fill="#ffffff" stroke="transparent" points="-4,4 -4,-280 1749,-280 1749,4 -4,4"/>
<text text-anchor="start" x="851.5091" y="-42.4" font-family="sans-serif" font-weight="bold" font-size="14.00" fill="#000000">Legend</text>
<polygon fill="#ffffb3" stroke="transparent" points="638.5,-10 638.5,-30 658.5,-30 658.5,-10 638.5,-10"/>
<text text-anchor="start" x="662.129" y="-15.4" font-family="sans-serif" font-size="14.00" fill="#000000"> &#160;Declarations</text>
<polygon fill="#8dd3c7" stroke="transparent" points="751.5,-10 751.5,-30 771.5,-30 771.5,-10 751.5,-10"/>
<text text-anchor="start" x="775.2251" y="-15.4" font-family="sans-serif" font-size="14.00" fill="#000000"> &#160;Module</text>
<polygon fill="#80b1d3" stroke="transparent" points="837.5,-10 837.5,-30 857.5,-30 857.5,-10 837.5,-10"/>
<text text-anchor="start" x="861.2812" y="-15.4" font-family="sans-serif" font-size="14.00" fill="#000000"> &#160;Bootstrap</text>
<polygon fill="#fdb462" stroke="transparent" points="934.5,-10 934.5,-30 954.5,-30 954.5,-10 934.5,-10"/>
<text text-anchor="start" x="958.1732" y="-15.4" font-family="sans-serif" font-size="14.00" fill="#000000"> &#160;Providers</text>
<polygon fill="#fb8072" stroke="transparent" points="1030.5,-10 1030.5,-30 1050.5,-30 1050.5,-10 1030.5,-10"/>
<text text-anchor="start" x="1054.2258" y="-15.4" font-family="sans-serif" font-size="14.00" fill="#000000"> &#160;Exports</text>
<g id="clust1" class="cluster">
<title>cluster_ProduccionTecnicaModule</title>
<polygon fill="none" stroke="#000000" stroke-dasharray="1,5" points="8,-70 8,-268 1737,-268 1737,-70 8,-70"/>
</g>
<g id="clust2" class="cluster">
<title>cluster_ProduccionTecnicaModule_declarations</title>
<polygon fill="none" stroke="#000000" points="763,-78 763,-130 1729,-130 1729,-78 763,-78"/>
</g>
<g id="clust7" class="cluster">
<title>cluster_ProduccionTecnicaModule_imports</title>
<polygon fill="none" stroke="#000000" points="294,-78 294,-130 755,-130 755,-78 294,-78"/>
</g>
<g id="clust8" class="cluster">
<title>cluster_ProduccionTecnicaModule_exports</title>
<polygon fill="none" stroke="#000000" points="407,-208 407,-260 1118,-260 1118,-208 407,-208"/>
</g>
<g id="clust10" class="cluster">
<title>cluster_ProduccionTecnicaModule_providers</title>
<polygon fill="none" stroke="#000000" points="16,-78 16,-130 286,-130 286,-78 16,-78"/>
</g>
<!-- CrudDescuentoAcademicoComponent -->
<g id="node1" class="node">
<title>CrudDescuentoAcademicoComponent</title>
<polygon fill="#ffffb3" stroke="#000000" points="1721.1615,-122 1488.8385,-122 1488.8385,-86 1721.1615,-86 1721.1615,-122"/>
<text text-anchor="middle" x="1605" y="-99.8" font-family="Times,serif" font-size="14.00" fill="#000000">CrudDescuentoAcademicoComponent</text>
</g>
<!-- ProduccionTecnicaModule -->
<g id="node5" class="node">
<title>ProduccionTecnicaModule</title>
<polygon fill="#8dd3c7" stroke="#000000" points="847.6148,-187 844.6148,-191 823.6148,-191 820.6148,-187 680.3852,-187 680.3852,-151 847.6148,-151 847.6148,-187"/>
<text text-anchor="middle" x="764" y="-164.8" font-family="Times,serif" font-size="14.00" fill="#000000">ProduccionTecnicaModule</text>
</g>
<!-- CrudDescuentoAcademicoComponent&#45;&gt;ProduccionTecnicaModule -->
<g id="edge1" class="edge">
<title>CrudDescuentoAcademicoComponent&#45;&gt;ProduccionTecnicaModule</title>
<path fill="none" stroke="#000000" d="M1605,-122.1289C1605,-142.5724 1605,-173 1605,-173 1605,-173 857.7129,-173 857.7129,-173"/>
<polygon fill="#000000" stroke="#000000" points="857.713,-169.5001 847.7129,-173 857.7129,-176.5001 857.713,-169.5001"/>
</g>
<!-- DescuentoAcademicoComponent -->
<g id="node2" class="node">
<title>DescuentoAcademicoComponent</title>
<polygon fill="#ffffb3" stroke="#000000" points="1471.1643,-122 1266.8357,-122 1266.8357,-86 1471.1643,-86 1471.1643,-122"/>
<text text-anchor="middle" x="1369" y="-99.8" font-family="Times,serif" font-size="14.00" fill="#000000">DescuentoAcademicoComponent</text>
</g>
<!-- DescuentoAcademicoComponent&#45;&gt;ProduccionTecnicaModule -->
<g id="edge2" class="edge">
<title>DescuentoAcademicoComponent&#45;&gt;ProduccionTecnicaModule</title>
<path fill="none" stroke="#000000" d="M1369,-122.2667C1369,-140.5552 1369,-166 1369,-166 1369,-166 857.8048,-166 857.8048,-166"/>
<polygon fill="#000000" stroke="#000000" points="857.8049,-162.5001 847.8048,-166 857.8048,-169.5001 857.8049,-162.5001"/>
</g>
<!-- ListDescuentoAcademicoComponent -->
<g id="node3" class="node">
<title>ListDescuentoAcademicoComponent</title>
<polygon fill="#ffffb3" stroke="#000000" points="1248.9426,-122 1023.0574,-122 1023.0574,-86 1248.9426,-86 1248.9426,-122"/>
<text text-anchor="middle" x="1136" y="-99.8" font-family="Times,serif" font-size="14.00" fill="#000000">ListDescuentoAcademicoComponent</text>
</g>
<!-- ListDescuentoAcademicoComponent&#45;&gt;ProduccionTecnicaModule -->
<g id="edge3" class="edge">
<title>ListDescuentoAcademicoComponent&#45;&gt;ProduccionTecnicaModule</title>
<path fill="none" stroke="#000000" d="M1066.7379,-122.0091C1066.7379,-138.0494 1066.7379,-159 1066.7379,-159 1066.7379,-159 857.9274,-159 857.9274,-159"/>
<polygon fill="#000000" stroke="#000000" points="857.9274,-155.5001 847.9274,-159 857.9273,-162.5001 857.9274,-155.5001"/>
</g>
<!-- ViewDescuentoAcademicoComponent -->
<g id="node4" class="node">
<title>ViewDescuentoAcademicoComponent</title>
<polygon fill="#ffffb3" stroke="#000000" points="1005.4831,-122 770.5169,-122 770.5169,-86 1005.4831,-86 1005.4831,-122"/>
<text text-anchor="middle" x="888" y="-99.8" font-family="Times,serif" font-size="14.00" fill="#000000">ViewDescuentoAcademicoComponent</text>
</g>
<!-- ViewDescuentoAcademicoComponent&#45;&gt;ProduccionTecnicaModule -->
<g id="edge4" class="edge">
<title>ViewDescuentoAcademicoComponent&#45;&gt;ProduccionTecnicaModule</title>
<path fill="none" stroke="#000000" d="M809.283,-122.1061C809.283,-122.1061 809.283,-140.991 809.283,-140.991"/>
<polygon fill="#000000" stroke="#000000" points="805.783,-140.9909 809.283,-150.991 812.783,-140.991 805.783,-140.9909"/>
</g>
<!-- CrudProduccionTecnicaComponent  -->
<g id="node9" class="node">
<title>CrudProduccionTecnicaComponent </title>
<polygon fill="#fb8072" stroke="#000000" points="1110.3942,-252 889.6058,-252 889.6058,-216 1110.3942,-216 1110.3942,-252"/>
<text text-anchor="middle" x="1000" y="-229.8" font-family="Times,serif" font-size="14.00" fill="#000000">CrudProduccionTecnicaComponent </text>
</g>
<!-- ProduccionTecnicaModule&#45;&gt;CrudProduccionTecnicaComponent  -->
<g id="edge8" class="edge">
<title>ProduccionTecnicaModule&#45;&gt;CrudProduccionTecnicaComponent </title>
<path fill="none" stroke="#000000" stroke-dasharray="5,2" d="M847.6483,-180C896.0175,-180 947.3971,-180 947.3971,-180 947.3971,-180 947.3971,-205.7181 947.3971,-205.7181"/>
<polygon fill="#000000" stroke="#000000" points="943.8972,-205.718 947.3971,-215.7181 950.8972,-205.7181 943.8972,-205.718"/>
</g>
<!-- ListProduccionTecnicaComponent  -->
<g id="node10" class="node">
<title>ListProduccionTecnicaComponent </title>
<polygon fill="#fb8072" stroke="#000000" points="871.1756,-252 656.8244,-252 656.8244,-216 871.1756,-216 871.1756,-252"/>
<text text-anchor="middle" x="764" y="-229.8" font-family="Times,serif" font-size="14.00" fill="#000000">ListProduccionTecnicaComponent </text>
</g>
<!-- ProduccionTecnicaModule&#45;&gt;ListProduccionTecnicaComponent  -->
<g id="edge9" class="edge">
<title>ProduccionTecnicaModule&#45;&gt;ListProduccionTecnicaComponent </title>
<path fill="none" stroke="#000000" stroke-dasharray="5,2" d="M764,-187.1061C764,-187.1061 764,-205.991 764,-205.991"/>
<polygon fill="#000000" stroke="#000000" points="760.5001,-205.9909 764,-215.991 767.5001,-205.991 760.5001,-205.9909"/>
</g>
<!-- ViewProduccionTecnicaComponent  -->
<g id="node11" class="node">
<title>ViewProduccionTecnicaComponent </title>
<polygon fill="#fb8072" stroke="#000000" points="638.7155,-252 415.2845,-252 415.2845,-216 638.7155,-216 638.7155,-252"/>
<text text-anchor="middle" x="527" y="-229.8" font-family="Times,serif" font-size="14.00" fill="#000000">ViewProduccionTecnicaComponent </text>
</g>
<!-- ProduccionTecnicaModule&#45;&gt;ViewProduccionTecnicaComponent  -->
<g id="edge10" class="edge">
<title>ProduccionTecnicaModule&#45;&gt;ViewProduccionTecnicaComponent </title>
<path fill="none" stroke="#000000" stroke-dasharray="5,2" d="M680.245,-180C634.3179,-180 586.6208,-180 586.6208,-180 586.6208,-180 586.6208,-205.7181 586.6208,-205.7181"/>
<polygon fill="#000000" stroke="#000000" points="583.1209,-205.718 586.6208,-215.7181 590.1209,-205.7181 583.1209,-205.718"/>
</g>
<!-- ProduccionTecnicaRoutingModule -->
<g id="node6" class="node">
<title>ProduccionTecnicaRoutingModule</title>
<polygon fill="#8dd3c7" stroke="#000000" points="747.2324,-122 744.2324,-126 723.2324,-126 720.2324,-122 534.7676,-122 534.7676,-86 747.2324,-86 747.2324,-122"/>
<text text-anchor="middle" x="641" y="-99.8" font-family="Times,serif" font-size="14.00" fill="#000000">ProduccionTecnicaRoutingModule</text>
</g>
<!-- ProduccionTecnicaRoutingModule&#45;&gt;ProduccionTecnicaModule -->
<g id="edge5" class="edge">
<title>ProduccionTecnicaRoutingModule&#45;&gt;ProduccionTecnicaModule</title>
<path fill="none" stroke="#000000" d="M713.7795,-122.1061C713.7795,-122.1061 713.7795,-140.991 713.7795,-140.991"/>
<polygon fill="#000000" stroke="#000000" points="710.2795,-140.9909 713.7795,-150.991 717.2795,-140.991 710.2795,-140.9909"/>
</g>
<!-- SharedModule -->
<g id="node7" class="node">
<title>SharedModule</title>
<polygon fill="#8dd3c7" stroke="#000000" points="516.4231,-122 513.4231,-126 492.4231,-126 489.4231,-122 417.5769,-122 417.5769,-86 516.4231,-86 516.4231,-122"/>
<text text-anchor="middle" x="467" y="-99.8" font-family="Times,serif" font-size="14.00" fill="#000000">SharedModule</text>
</g>
<!-- SharedModule&#45;&gt;ProduccionTecnicaModule -->
<g id="edge6" class="edge">
<title>SharedModule&#45;&gt;ProduccionTecnicaModule</title>
<path fill="none" stroke="#000000" d="M467,-122.0091C467,-138.0494 467,-159 467,-159 467,-159 670.0826,-159 670.0826,-159"/>
<polygon fill="#000000" stroke="#000000" points="670.0827,-162.5001 680.0826,-159 670.0826,-155.5001 670.0827,-162.5001"/>
</g>
<!-- ThemeModule -->
<g id="node8" class="node">
<title>ThemeModule</title>
<polygon fill="#8dd3c7" stroke="#000000" points="400.4231,-122 397.4231,-126 376.4231,-126 373.4231,-122 301.5769,-122 301.5769,-86 400.4231,-86 400.4231,-122"/>
<text text-anchor="middle" x="351" y="-99.8" font-family="Times,serif" font-size="14.00" fill="#000000">ThemeModule</text>
</g>
<!-- ThemeModule&#45;&gt;ProduccionTecnicaModule -->
<g id="edge7" class="edge">
<title>ThemeModule&#45;&gt;ProduccionTecnicaModule</title>
<path fill="none" stroke="#000000" d="M351,-122.2667C351,-140.5552 351,-166 351,-166 351,-166 669.9255,-166 669.9255,-166"/>
<polygon fill="#000000" stroke="#000000" points="669.9255,-169.5001 679.9255,-166 669.9254,-162.5001 669.9255,-169.5001"/>
</g>
<!-- ProduccionAcademicaService -->
<g id="node12" class="node">
<title>ProduccionAcademicaService</title>
<ellipse fill="#fdb462" stroke="#000000" cx="151" cy="-104" rx="127.3074" ry="18"/>
<text text-anchor="middle" x="151" y="-99.8" font-family="Times,serif" font-size="14.00" fill="#000000">ProduccionAcademicaService</text>
</g>
<!-- ProduccionAcademicaService&#45;&gt;ProduccionTecnicaModule -->
<g id="edge11" class="edge">
<title>ProduccionAcademicaService&#45;&gt;ProduccionTecnicaModule</title>
<path fill="none" stroke="#000000" d="M151,-122.1289C151,-142.5724 151,-173 151,-173 151,-173 670.3704,-173 670.3704,-173"/>
<polygon fill="#000000" stroke="#000000" points="670.3705,-176.5001 680.3704,-173 670.3704,-169.5001 670.3705,-176.5001"/>
</g>
</g>
</svg>
