<?xml version="1.0" encoding="UTF-8" standalone="no"?>
<!DOCTYPE svg PUBLIC "-//W3C//DTD SVG 1.1//EN"
 "http://www.w3.org/Graphics/SVG/1.1/DTD/svg11.dtd">
<!-- Generated by graphviz version 2.40.1 (20161225.0304)
 -->
<!-- Title: dependencies Pages: 1 -->
<svg width="1713pt" height="211pt"
 viewBox="0.00 0.00 1713.00 211.00" xmlns="http://www.w3.org/2000/svg" xmlns:xlink="http://www.w3.org/1999/xlink">
<g id="graph0" class="graph" transform="scale(1 1) rotate(0) translate(4 207)">
<title>dependencies</title>
<polygon fill="#ffffff" stroke="transparent" points="-4,4 -4,-207 1709,-207 1709,4 -4,4"/>
<text text-anchor="start" x="831.5091" y="-42.4" font-family="sans-serif" font-weight="bold" font-size="14.00" fill="#000000">Legend</text>
<polygon fill="#ffffb3" stroke="transparent" points="618.5,-10 618.5,-30 638.5,-30 638.5,-10 618.5,-10"/>
<text text-anchor="start" x="642.129" y="-15.4" font-family="sans-serif" font-size="14.00" fill="#000000"> &#160;Declarations</text>
<polygon fill="#8dd3c7" stroke="transparent" points="731.5,-10 731.5,-30 751.5,-30 751.5,-10 731.5,-10"/>
<text text-anchor="start" x="755.2251" y="-15.4" font-family="sans-serif" font-size="14.00" fill="#000000"> &#160;Module</text>
<polygon fill="#80b1d3" stroke="transparent" points="817.5,-10 817.5,-30 837.5,-30 837.5,-10 817.5,-10"/>
<text text-anchor="start" x="841.2812" y="-15.4" font-family="sans-serif" font-size="14.00" fill="#000000"> &#160;Bootstrap</text>
<polygon fill="#fdb462" stroke="transparent" points="914.5,-10 914.5,-30 934.5,-30 934.5,-10 914.5,-10"/>
<text text-anchor="start" x="938.1732" y="-15.4" font-family="sans-serif" font-size="14.00" fill="#000000"> &#160;Providers</text>
<polygon fill="#fb8072" stroke="transparent" points="1010.5,-10 1010.5,-30 1030.5,-30 1030.5,-10 1010.5,-10"/>
<text text-anchor="start" x="1034.2258" y="-15.4" font-family="sans-serif" font-size="14.00" fill="#000000"> &#160;Exports</text>
<g id="clust1" class="cluster">
<title>cluster_AdmisionModule</title>
<polygon fill="none" stroke="#000000" stroke-dasharray="1,5" points="8,-70 8,-195 1697,-195 1697,-70 8,-70"/>
</g>
<g id="clust2" class="cluster">
<title>cluster_AdmisionModule_declarations</title>
<polygon fill="none" stroke="#000000" points="1027,-78 1027,-130 1689,-130 1689,-78 1027,-78"/>
</g>
<g id="clust7" class="cluster">
<title>cluster_AdmisionModule_imports</title>
<polygon fill="none" stroke="#000000" points="471,-78 471,-130 1019,-130 1019,-78 471,-78"/>
</g>
<g id="clust10" class="cluster">
<title>cluster_AdmisionModule_providers</title>
<polygon fill="none" stroke="#000000" points="16,-78 16,-130 463,-130 463,-78 16,-78"/>
</g>
<!-- ArticuloComponent -->
<g id="node1" class="node">
<title>ArticuloComponent</title>
<polygon fill="#ffffb3" stroke="#000000" points="1680.986,-122 1553.014,-122 1553.014,-86 1680.986,-86 1680.986,-122"/>
<text text-anchor="middle" x="1617" y="-99.8" font-family="Times,serif" font-size="14.00" fill="#000000">ArticuloComponent</text>
</g>
<!-- AdmisionModule -->
<g id="node5" class="node">
<title>AdmisionModule</title>
<polygon fill="#8dd3c7" stroke="#000000" points="908.273,-187 905.273,-191 884.273,-191 881.273,-187 793.727,-187 793.727,-151 908.273,-151 908.273,-187"/>
<text text-anchor="middle" x="851" y="-164.8" font-family="Times,serif" font-size="14.00" fill="#000000">AdmisionModule</text>
</g>
<!-- ArticuloComponent&#45;&gt;AdmisionModule -->
<g id="edge1" class="edge">
<title>ArticuloComponent&#45;&gt;AdmisionModule</title>
<path fill="none" stroke="#000000" d="M1617,-122.0109C1617,-144.4852 1617,-180 1617,-180 1617,-180 918.5745,-180 918.5745,-180"/>
<polygon fill="#000000" stroke="#000000" points="918.5745,-176.5001 908.5745,-180 918.5745,-183.5001 918.5745,-176.5001"/>
</g>
<!-- CrudArticuloComponent -->
<g id="node2" class="node">
<title>CrudArticuloComponent</title>
<polygon fill="#ffffb3" stroke="#000000" points="1534.9832,-122 1379.0168,-122 1379.0168,-86 1534.9832,-86 1534.9832,-122"/>
<text text-anchor="middle" x="1457" y="-99.8" font-family="Times,serif" font-size="14.00" fill="#000000">CrudArticuloComponent</text>
</g>
<!-- CrudArticuloComponent&#45;&gt;AdmisionModule -->
<g id="edge2" class="edge">
<title>CrudArticuloComponent&#45;&gt;AdmisionModule</title>
<path fill="none" stroke="#000000" d="M1457,-122.1289C1457,-142.5724 1457,-173 1457,-173 1457,-173 918.2839,-173 918.2839,-173"/>
<polygon fill="#000000" stroke="#000000" points="918.2839,-169.5001 908.2839,-173 918.2839,-176.5001 918.2839,-169.5001"/>
</g>
<!-- ListArticuloComponent -->
<g id="node3" class="node">
<title>ListArticuloComponent</title>
<polygon fill="#ffffb3" stroke="#000000" points="1360.7646,-122 1211.2354,-122 1211.2354,-86 1360.7646,-86 1360.7646,-122"/>
<text text-anchor="middle" x="1286" y="-99.8" font-family="Times,serif" font-size="14.00" fill="#000000">ListArticuloComponent</text>
</g>
<!-- ListArticuloComponent&#45;&gt;AdmisionModule -->
<g id="edge3" class="edge">
<title>ListArticuloComponent&#45;&gt;AdmisionModule</title>
<path fill="none" stroke="#000000" d="M1286,-122.2667C1286,-140.5552 1286,-166 1286,-166 1286,-166 918.316,-166 918.316,-166"/>
<polygon fill="#000000" stroke="#000000" points="918.316,-162.5001 908.316,-166 918.3159,-169.5001 918.316,-162.5001"/>
</g>
<!-- ViewArticuloComponent -->
<g id="node4" class="node">
<title>ViewArticuloComponent</title>
<polygon fill="#ffffb3" stroke="#000000" points="1193.3047,-122 1034.6953,-122 1034.6953,-86 1193.3047,-86 1193.3047,-122"/>
<text text-anchor="middle" x="1114" y="-99.8" font-family="Times,serif" font-size="14.00" fill="#000000">ViewArticuloComponent</text>
</g>
<!-- ViewArticuloComponent&#45;&gt;AdmisionModule -->
<g id="edge4" class="edge">
<title>ViewArticuloComponent&#45;&gt;AdmisionModule</title>
<path fill="none" stroke="#000000" d="M1114,-122.0091C1114,-138.0494 1114,-159 1114,-159 1114,-159 918.3915,-159 918.3915,-159"/>
<polygon fill="#000000" stroke="#000000" points="918.3915,-155.5001 908.3915,-159 918.3914,-162.5001 918.3915,-155.5001"/>
</g>
<!-- AdmisionRoutingModule -->
<g id="node6" class="node">
<title>AdmisionRoutingModule</title>
<polygon fill="#8dd3c7" stroke="#000000" points="1010.8906,-122 1007.8906,-126 986.8906,-126 983.8906,-122 851.1094,-122 851.1094,-86 1010.8906,-86 1010.8906,-122"/>
<text text-anchor="middle" x="931" y="-99.8" font-family="Times,serif" font-size="14.00" fill="#000000">AdmisionRoutingModule</text>
</g>
<!-- AdmisionRoutingModule&#45;&gt;AdmisionModule -->
<g id="edge5" class="edge">
<title>AdmisionRoutingModule&#45;&gt;AdmisionModule</title>
<path fill="none" stroke="#000000" d="M879.7206,-122.1061C879.7206,-122.1061 879.7206,-140.991 879.7206,-140.991"/>
<polygon fill="#000000" stroke="#000000" points="876.2206,-140.9909 879.7206,-150.991 883.2206,-140.991 876.2206,-140.9909"/>
</g>
<!-- InscripcionModule -->
<g id="node7" class="node">
<title>InscripcionModule</title>
<polygon fill="#8dd3c7" stroke="#000000" points="833.0269,-122 830.0269,-126 809.0269,-126 806.0269,-122 710.9731,-122 710.9731,-86 833.0269,-86 833.0269,-122"/>
<text text-anchor="middle" x="772" y="-99.8" font-family="Times,serif" font-size="14.00" fill="#000000">InscripcionModule</text>
</g>
<!-- InscripcionModule&#45;&gt;AdmisionModule -->
<g id="edge6" class="edge">
<title>InscripcionModule&#45;&gt;AdmisionModule</title>
<path fill="none" stroke="#000000" d="M813.4383,-122.1061C813.4383,-122.1061 813.4383,-140.991 813.4383,-140.991"/>
<polygon fill="#000000" stroke="#000000" points="809.9384,-140.9909 813.4383,-150.991 816.9384,-140.991 809.9384,-140.9909"/>
</g>
<!-- SharedModule -->
<g id="node8" class="node">
<title>SharedModule</title>
<polygon fill="#8dd3c7" stroke="#000000" points="693.4231,-122 690.4231,-126 669.4231,-126 666.4231,-122 594.5769,-122 594.5769,-86 693.4231,-86 693.4231,-122"/>
<text text-anchor="middle" x="644" y="-99.8" font-family="Times,serif" font-size="14.00" fill="#000000">SharedModule</text>
</g>
<!-- SharedModule&#45;&gt;AdmisionModule -->
<g id="edge7" class="edge">
<title>SharedModule&#45;&gt;AdmisionModule</title>
<path fill="none" stroke="#000000" d="M644,-122.0091C644,-138.0494 644,-159 644,-159 644,-159 783.6139,-159 783.6139,-159"/>
<polygon fill="#000000" stroke="#000000" points="783.6139,-162.5001 793.6139,-159 783.6138,-155.5001 783.6139,-162.5001"/>
</g>
<!-- ThemeModule -->
<g id="node9" class="node">
<title>ThemeModule</title>
<polygon fill="#8dd3c7" stroke="#000000" points="577.4231,-122 574.4231,-126 553.4231,-126 550.4231,-122 478.5769,-122 478.5769,-86 577.4231,-86 577.4231,-122"/>
<text text-anchor="middle" x="528" y="-99.8" font-family="Times,serif" font-size="14.00" fill="#000000">ThemeModule</text>
</g>
<!-- ThemeModule&#45;&gt;AdmisionModule -->
<g id="edge8" class="edge">
<title>ThemeModule&#45;&gt;AdmisionModule</title>
<path fill="none" stroke="#000000" d="M528,-122.2667C528,-140.5552 528,-166 528,-166 528,-166 783.6263,-166 783.6263,-166"/>
<polygon fill="#000000" stroke="#000000" points="783.6263,-169.5001 793.6263,-166 783.6262,-162.5001 783.6263,-169.5001"/>
</g>
<!-- ImplicitAutenticationService -->
<g id="node10" class="node">
<title>ImplicitAutenticationService</title>
<ellipse fill="#fdb462" stroke="#000000" cx="332" cy="-104" rx="123.2649" ry="18"/>
<text text-anchor="middle" x="332" y="-99.8" font-family="Times,serif" font-size="14.00" fill="#000000">ImplicitAutenticationService</text>
</g>
<!-- ImplicitAutenticationService&#45;&gt;AdmisionModule -->
<g id="edge9" class="edge">
<title>ImplicitAutenticationService&#45;&gt;AdmisionModule</title>
<path fill="none" stroke="#000000" d="M332,-122.1289C332,-142.5724 332,-173 332,-173 332,-173 783.4749,-173 783.4749,-173"/>
<polygon fill="#000000" stroke="#000000" points="783.475,-176.5001 793.4749,-173 783.4749,-169.5001 783.475,-176.5001"/>
</g>
<!-- InscripcionService -->
<g id="node11" class="node">
<title>InscripcionService</title>
<ellipse fill="#fdb462" stroke="#000000" cx="107" cy="-104" rx="83.3635" ry="18"/>
<text text-anchor="middle" x="107" y="-99.8" font-family="Times,serif" font-size="14.00" fill="#000000">InscripcionService</text>
</g>
<!-- InscripcionService&#45;&gt;AdmisionModule -->
<g id="edge10" class="edge">
<title>InscripcionService&#45;&gt;AdmisionModule</title>
<path fill="none" stroke="#000000" d="M107,-122.0109C107,-144.4852 107,-180 107,-180 107,-180 783.5472,-180 783.5472,-180"/>
<polygon fill="#000000" stroke="#000000" points="783.5472,-183.5001 793.5472,-180 783.5471,-176.5001 783.5472,-183.5001"/>
</g>
</g>
</svg>
