<?xml version="1.0" encoding="UTF-8" standalone="no"?>
<!DOCTYPE svg PUBLIC "-//W3C//DTD SVG 1.1//EN"
 "http://www.w3.org/Graphics/SVG/1.1/DTD/svg11.dtd">
<!-- Generated by graphviz version 2.40.1 (20161225.0304)
 -->
<!-- Title: dependencies Pages: 1 -->
<svg width="1736pt" height="284pt"
 viewBox="0.00 0.00 1736.00 284.00" xmlns="http://www.w3.org/2000/svg" xmlns:xlink="http://www.w3.org/1999/xlink">
<g id="graph0" class="graph" transform="scale(1 1) rotate(0) translate(4 280)">
<title>dependencies</title>
<polygon fill="#ffffff" stroke="transparent" points="-4,4 -4,-280 1732,-280 1732,4 -4,4"/>
<text text-anchor="start" x="843.0091" y="-42.4" font-family="sans-serif" font-weight="bold" font-size="14.00" fill="#000000">Legend</text>
<polygon fill="#ffffb3" stroke="transparent" points="630,-10 630,-30 650,-30 650,-10 630,-10"/>
<text text-anchor="start" x="653.629" y="-15.4" font-family="sans-serif" font-size="14.00" fill="#000000"> &#160;Declarations</text>
<polygon fill="#8dd3c7" stroke="transparent" points="743,-10 743,-30 763,-30 763,-10 743,-10"/>
<text text-anchor="start" x="766.7251" y="-15.4" font-family="sans-serif" font-size="14.00" fill="#000000"> &#160;Module</text>
<polygon fill="#80b1d3" stroke="transparent" points="829,-10 829,-30 849,-30 849,-10 829,-10"/>
<text text-anchor="start" x="852.7812" y="-15.4" font-family="sans-serif" font-size="14.00" fill="#000000"> &#160;Bootstrap</text>
<polygon fill="#fdb462" stroke="transparent" points="926,-10 926,-30 946,-30 946,-10 926,-10"/>
<text text-anchor="start" x="949.6732" y="-15.4" font-family="sans-serif" font-size="14.00" fill="#000000"> &#160;Providers</text>
<polygon fill="#fb8072" stroke="transparent" points="1022,-10 1022,-30 1042,-30 1042,-10 1022,-10"/>
<text text-anchor="start" x="1045.7258" y="-15.4" font-family="sans-serif" font-size="14.00" fill="#000000"> &#160;Exports</text>
<g id="clust1" class="cluster">
<title>cluster_OtroDocumentoModule</title>
<polygon fill="none" stroke="#000000" stroke-dasharray="1,5" points="8,-70 8,-268 1720,-268 1720,-70 8,-70"/>
</g>
<g id="clust2" class="cluster">
<title>cluster_OtroDocumentoModule_declarations</title>
<polygon fill="none" stroke="#000000" points="746,-78 746,-130 1712,-130 1712,-78 746,-78"/>
</g>
<g id="clust7" class="cluster">
<title>cluster_OtroDocumentoModule_imports</title>
<polygon fill="none" stroke="#000000" points="294,-78 294,-130 738,-130 738,-78 294,-78"/>
</g>
<g id="clust8" class="cluster">
<title>cluster_OtroDocumentoModule_exports</title>
<polygon fill="none" stroke="#000000" points="420,-208 420,-260 1080,-260 1080,-208 420,-208"/>
</g>
<g id="clust10" class="cluster">
<title>cluster_OtroDocumentoModule_providers</title>
<polygon fill="none" stroke="#000000" points="16,-78 16,-130 286,-130 286,-78 16,-78"/>
</g>
<!-- CrudDescuentoAcademicoComponent -->
<g id="node1" class="node">
<title>CrudDescuentoAcademicoComponent</title>
<polygon fill="#ffffb3" stroke="#000000" points="1704.1615,-122 1471.8385,-122 1471.8385,-86 1704.1615,-86 1704.1615,-122"/>
<text text-anchor="middle" x="1588" y="-99.8" font-family="Times,serif" font-size="14.00" fill="#000000">CrudDescuentoAcademicoComponent</text>
</g>
<!-- OtroDocumentoModule -->
<g id="node5" class="node">
<title>OtroDocumentoModule</title>
<polygon fill="#8dd3c7" stroke="#000000" points="826.0253,-187 823.0253,-191 802.0253,-191 799.0253,-187 675.9747,-187 675.9747,-151 826.0253,-151 826.0253,-187"/>
<text text-anchor="middle" x="751" y="-164.8" font-family="Times,serif" font-size="14.00" fill="#000000">OtroDocumentoModule</text>
</g>
<!-- CrudDescuentoAcademicoComponent&#45;&gt;OtroDocumentoModule -->
<g id="edge1" class="edge">
<title>CrudDescuentoAcademicoComponent&#45;&gt;OtroDocumentoModule</title>
<path fill="none" stroke="#000000" d="M1588,-122.1289C1588,-142.5724 1588,-173 1588,-173 1588,-173 836.3842,-173 836.3842,-173"/>
<polygon fill="#000000" stroke="#000000" points="836.3842,-169.5001 826.3842,-173 836.3842,-176.5001 836.3842,-169.5001"/>
</g>
<!-- DescuentoAcademicoComponent -->
<g id="node2" class="node">
<title>DescuentoAcademicoComponent</title>
<polygon fill="#ffffb3" stroke="#000000" points="1454.1643,-122 1249.8357,-122 1249.8357,-86 1454.1643,-86 1454.1643,-122"/>
<text text-anchor="middle" x="1352" y="-99.8" font-family="Times,serif" font-size="14.00" fill="#000000">DescuentoAcademicoComponent</text>
</g>
<!-- DescuentoAcademicoComponent&#45;&gt;OtroDocumentoModule -->
<g id="edge2" class="edge">
<title>DescuentoAcademicoComponent&#45;&gt;OtroDocumentoModule</title>
<path fill="none" stroke="#000000" d="M1352,-122.2667C1352,-140.5552 1352,-166 1352,-166 1352,-166 836.205,-166 836.205,-166"/>
<polygon fill="#000000" stroke="#000000" points="836.205,-162.5001 826.205,-166 836.2049,-169.5001 836.205,-162.5001"/>
</g>
<!-- ListDescuentoAcademicoComponent -->
<g id="node3" class="node">
<title>ListDescuentoAcademicoComponent</title>
<polygon fill="#ffffb3" stroke="#000000" points="1231.9426,-122 1006.0574,-122 1006.0574,-86 1231.9426,-86 1231.9426,-122"/>
<text text-anchor="middle" x="1119" y="-99.8" font-family="Times,serif" font-size="14.00" fill="#000000">ListDescuentoAcademicoComponent</text>
</g>
<!-- ListDescuentoAcademicoComponent&#45;&gt;OtroDocumentoModule -->
<g id="edge3" class="edge">
<title>ListDescuentoAcademicoComponent&#45;&gt;OtroDocumentoModule</title>
<path fill="none" stroke="#000000" d="M1038.9655,-122.0091C1038.9655,-138.0494 1038.9655,-159 1038.9655,-159 1038.9655,-159 836.2834,-159 836.2834,-159"/>
<polygon fill="#000000" stroke="#000000" points="836.2834,-155.5001 826.2834,-159 836.2834,-162.5001 836.2834,-155.5001"/>
</g>
<!-- ViewDescuentoAcademicoComponent -->
<g id="node4" class="node">
<title>ViewDescuentoAcademicoComponent</title>
<polygon fill="#ffffb3" stroke="#000000" points="988.4831,-122 753.5169,-122 753.5169,-86 988.4831,-86 988.4831,-122"/>
<text text-anchor="middle" x="871" y="-99.8" font-family="Times,serif" font-size="14.00" fill="#000000">ViewDescuentoAcademicoComponent</text>
</g>
<!-- ViewDescuentoAcademicoComponent&#45;&gt;OtroDocumentoModule -->
<g id="edge4" class="edge">
<title>ViewDescuentoAcademicoComponent&#45;&gt;OtroDocumentoModule</title>
<path fill="none" stroke="#000000" d="M790.0105,-122.1061C790.0105,-122.1061 790.0105,-140.991 790.0105,-140.991"/>
<polygon fill="#000000" stroke="#000000" points="786.5106,-140.9909 790.0105,-150.991 793.5106,-140.991 786.5106,-140.9909"/>
</g>
<!-- CrudOtroDocumentoComponent  -->
<g id="node9" class="node">
<title>CrudOtroDocumentoComponent </title>
<polygon fill="#fb8072" stroke="#000000" points="1071.8045,-252 868.1955,-252 868.1955,-216 1071.8045,-216 1071.8045,-252"/>
<text text-anchor="middle" x="970" y="-229.8" font-family="Times,serif" font-size="14.00" fill="#000000">CrudOtroDocumentoComponent </text>
</g>
<!-- OtroDocumentoModule&#45;&gt;CrudOtroDocumentoComponent  -->
<g id="edge8" class="edge">
<title>OtroDocumentoModule&#45;&gt;CrudOtroDocumentoComponent </title>
<path fill="none" stroke="#000000" stroke-dasharray="5,2" d="M826.1358,-180C874.4234,-180 928.1696,-180 928.1696,-180 928.1696,-180 928.1696,-205.7181 928.1696,-205.7181"/>
<polygon fill="#000000" stroke="#000000" points="924.6696,-205.718 928.1696,-215.7181 931.6696,-205.7181 924.6696,-205.718"/>
</g>
<!-- ListOtroDocumentoComponent  -->
<g id="node10" class="node">
<title>ListOtroDocumentoComponent </title>
<polygon fill="#fb8072" stroke="#000000" points="849.586,-252 652.414,-252 652.414,-216 849.586,-216 849.586,-252"/>
<text text-anchor="middle" x="751" y="-229.8" font-family="Times,serif" font-size="14.00" fill="#000000">ListOtroDocumentoComponent </text>
</g>
<!-- OtroDocumentoModule&#45;&gt;ListOtroDocumentoComponent  -->
<g id="edge9" class="edge">
<title>OtroDocumentoModule&#45;&gt;ListOtroDocumentoComponent </title>
<path fill="none" stroke="#000000" stroke-dasharray="5,2" d="M751,-187.1061C751,-187.1061 751,-205.991 751,-205.991"/>
<polygon fill="#000000" stroke="#000000" points="747.5001,-205.9909 751,-215.991 754.5001,-205.991 747.5001,-205.9909"/>
</g>
<!-- ViewOtroDocumentoComponent  -->
<g id="node11" class="node">
<title>ViewOtroDocumentoComponent </title>
<polygon fill="#fb8072" stroke="#000000" points="634.1256,-252 427.8744,-252 427.8744,-216 634.1256,-216 634.1256,-252"/>
<text text-anchor="middle" x="531" y="-229.8" font-family="Times,serif" font-size="14.00" fill="#000000">ViewOtroDocumentoComponent </text>
</g>
<!-- OtroDocumentoModule&#45;&gt;ViewOtroDocumentoComponent  -->
<g id="edge10" class="edge">
<title>OtroDocumentoModule&#45;&gt;ViewOtroDocumentoComponent </title>
<path fill="none" stroke="#000000" stroke-dasharray="5,2" d="M675.8595,-180C631.5655,-180 584.1208,-180 584.1208,-180 584.1208,-180 584.1208,-205.7181 584.1208,-205.7181"/>
<polygon fill="#000000" stroke="#000000" points="580.6209,-205.718 584.1208,-215.7181 587.6209,-205.7181 580.6209,-205.718"/>
</g>
<!-- OtroDocumentoRoutingModule -->
<g id="node6" class="node">
<title>OtroDocumentoRoutingModule</title>
<polygon fill="#8dd3c7" stroke="#000000" points="729.6427,-122 726.6427,-126 705.6427,-126 702.6427,-122 534.3573,-122 534.3573,-86 729.6427,-86 729.6427,-122"/>
<text text-anchor="middle" x="632" y="-99.8" font-family="Times,serif" font-size="14.00" fill="#000000">OtroDocumentoRoutingModule</text>
</g>
<!-- OtroDocumentoRoutingModule&#45;&gt;OtroDocumentoModule -->
<g id="edge5" class="edge">
<title>OtroDocumentoRoutingModule&#45;&gt;OtroDocumentoModule</title>
<path fill="none" stroke="#000000" d="M702.7795,-122.1061C702.7795,-122.1061 702.7795,-140.991 702.7795,-140.991"/>
<polygon fill="#000000" stroke="#000000" points="699.2795,-140.9909 702.7795,-150.991 706.2795,-140.991 699.2795,-140.9909"/>
</g>
<!-- SharedModule -->
<g id="node7" class="node">
<title>SharedModule</title>
<polygon fill="#8dd3c7" stroke="#000000" points="516.4231,-122 513.4231,-126 492.4231,-126 489.4231,-122 417.5769,-122 417.5769,-86 516.4231,-86 516.4231,-122"/>
<text text-anchor="middle" x="467" y="-99.8" font-family="Times,serif" font-size="14.00" fill="#000000">SharedModule</text>
</g>
<!-- SharedModule&#45;&gt;OtroDocumentoModule -->
<g id="edge6" class="edge">
<title>SharedModule&#45;&gt;OtroDocumentoModule</title>
<path fill="none" stroke="#000000" d="M472.0742,-122.0091C472.0742,-138.0494 472.0742,-159 472.0742,-159 472.0742,-159 665.8861,-159 665.8861,-159"/>
<polygon fill="#000000" stroke="#000000" points="665.8861,-162.5001 675.8861,-159 665.886,-155.5001 665.8861,-162.5001"/>
</g>
<!-- ThemeModule -->
<g id="node8" class="node">
<title>ThemeModule</title>
<polygon fill="#8dd3c7" stroke="#000000" points="400.4231,-122 397.4231,-126 376.4231,-126 373.4231,-122 301.5769,-122 301.5769,-86 400.4231,-86 400.4231,-122"/>
<text text-anchor="middle" x="351" y="-99.8" font-family="Times,serif" font-size="14.00" fill="#000000">ThemeModule</text>
</g>
<!-- ThemeModule&#45;&gt;OtroDocumentoModule -->
<g id="edge7" class="edge">
<title>ThemeModule&#45;&gt;OtroDocumentoModule</title>
<path fill="none" stroke="#000000" d="M351,-122.2667C351,-140.5552 351,-166 351,-166 351,-166 665.7631,-166 665.7631,-166"/>
<polygon fill="#000000" stroke="#000000" points="665.7631,-169.5001 675.7631,-166 665.763,-162.5001 665.7631,-169.5001"/>
</g>
<!-- ProduccionAcademicaService -->
<g id="node12" class="node">
<title>ProduccionAcademicaService</title>
<ellipse fill="#fdb462" stroke="#000000" cx="151" cy="-104" rx="127.3074" ry="18"/>
<text text-anchor="middle" x="151" y="-99.8" font-family="Times,serif" font-size="14.00" fill="#000000">ProduccionAcademicaService</text>
</g>
<!-- ProduccionAcademicaService&#45;&gt;OtroDocumentoModule -->
<g id="edge11" class="edge">
<title>ProduccionAcademicaService&#45;&gt;OtroDocumentoModule</title>
<path fill="none" stroke="#000000" d="M151,-122.1289C151,-142.5724 151,-173 151,-173 151,-173 665.9202,-173 665.9202,-173"/>
<polygon fill="#000000" stroke="#000000" points="665.9202,-176.5001 675.9202,-173 665.9201,-169.5001 665.9202,-176.5001"/>
</g>
</g>
</svg>
