<?xml version="1.0" encoding="UTF-8" standalone="no"?>
<!DOCTYPE svg PUBLIC "-//W3C//DTD SVG 1.1//EN"
 "http://www.w3.org/Graphics/SVG/1.1/DTD/svg11.dtd">
<!-- Generated by graphviz version 2.40.1 (20161225.0304)
 -->
<!-- Title: dependencies Pages: 1 -->
<svg width="1432pt" height="284pt"
 viewBox="0.00 0.00 1432.00 284.00" xmlns="http://www.w3.org/2000/svg" xmlns:xlink="http://www.w3.org/1999/xlink">
<g id="graph0" class="graph" transform="scale(1 1) rotate(0) translate(4 280)">
<title>dependencies</title>
<polygon fill="#ffffff" stroke="transparent" points="-4,4 -4,-280 1428,-280 1428,4 -4,4"/>
<text text-anchor="start" x="691.0091" y="-42.4" font-family="sans-serif" font-weight="bold" font-size="14.00" fill="#000000">Legend</text>
<polygon fill="#ffffb3" stroke="transparent" points="478,-10 478,-30 498,-30 498,-10 478,-10"/>
<text text-anchor="start" x="501.629" y="-15.4" font-family="sans-serif" font-size="14.00" fill="#000000"> &#160;Declarations</text>
<polygon fill="#8dd3c7" stroke="transparent" points="591,-10 591,-30 611,-30 611,-10 591,-10"/>
<text text-anchor="start" x="614.7251" y="-15.4" font-family="sans-serif" font-size="14.00" fill="#000000"> &#160;Module</text>
<polygon fill="#80b1d3" stroke="transparent" points="677,-10 677,-30 697,-30 697,-10 677,-10"/>
<text text-anchor="start" x="700.7812" y="-15.4" font-family="sans-serif" font-size="14.00" fill="#000000"> &#160;Bootstrap</text>
<polygon fill="#fdb462" stroke="transparent" points="774,-10 774,-30 794,-30 794,-10 774,-10"/>
<text text-anchor="start" x="797.6732" y="-15.4" font-family="sans-serif" font-size="14.00" fill="#000000"> &#160;Providers</text>
<polygon fill="#fb8072" stroke="transparent" points="870,-10 870,-30 890,-30 890,-10 870,-10"/>
<text text-anchor="start" x="893.7258" y="-15.4" font-family="sans-serif" font-size="14.00" fill="#000000"> &#160;Exports</text>
<g id="clust1" class="cluster">
<title>cluster_OtroDocumentoModule</title>
<polygon fill="none" stroke="#000000" stroke-dasharray="1,5" points="8,-70 8,-268 1416,-268 1416,-70 8,-70"/>
</g>
<g id="clust2" class="cluster">
<title>cluster_OtroDocumentoModule_declarations</title>
<polygon fill="none" stroke="#000000" points="746,-78 746,-130 1408,-130 1408,-78 746,-78"/>
</g>
<g id="clust7" class="cluster">
<title>cluster_OtroDocumentoModule_imports</title>
<polygon fill="none" stroke="#000000" points="294,-78 294,-130 738,-130 738,-78 294,-78"/>
</g>
<g id="clust8" class="cluster">
<title>cluster_OtroDocumentoModule_exports</title>
<polygon fill="none" stroke="#000000" points="401,-208 401,-260 1061,-260 1061,-208 401,-208"/>
</g>
<g id="clust10" class="cluster">
<title>cluster_OtroDocumentoModule_providers</title>
<polygon fill="none" stroke="#000000" points="16,-78 16,-130 286,-130 286,-78 16,-78"/>
</g>
<!-- ArticuloComponent -->
<g id="node1" class="node">
<title>ArticuloComponent</title>
<polygon fill="#ffffb3" stroke="#000000" points="1399.986,-122 1272.014,-122 1272.014,-86 1399.986,-86 1399.986,-122"/>
<text text-anchor="middle" x="1336" y="-99.8" font-family="Times,serif" font-size="14.00" fill="#000000">ArticuloComponent</text>
</g>
<!-- OtroDocumentoModule -->
<g id="node5" class="node">
<title>OtroDocumentoModule</title>
<polygon fill="#8dd3c7" stroke="#000000" points="807.0253,-187 804.0253,-191 783.0253,-191 780.0253,-187 656.9747,-187 656.9747,-151 807.0253,-151 807.0253,-187"/>
<text text-anchor="middle" x="732" y="-164.8" font-family="Times,serif" font-size="14.00" fill="#000000">OtroDocumentoModule</text>
</g>
<!-- ArticuloComponent&#45;&gt;OtroDocumentoModule -->
<g id="edge1" class="edge">
<title>ArticuloComponent&#45;&gt;OtroDocumentoModule</title>
<path fill="none" stroke="#000000" d="M1336,-122.1289C1336,-142.5724 1336,-173 1336,-173 1336,-173 817.2758,-173 817.2758,-173"/>
<polygon fill="#000000" stroke="#000000" points="817.2758,-169.5001 807.2758,-173 817.2757,-176.5001 817.2758,-169.5001"/>
</g>
<!-- CrudArticuloComponent -->
<g id="node2" class="node">
<title>CrudArticuloComponent</title>
<polygon fill="#ffffb3" stroke="#000000" points="1253.9832,-122 1098.0168,-122 1098.0168,-86 1253.9832,-86 1253.9832,-122"/>
<text text-anchor="middle" x="1176" y="-99.8" font-family="Times,serif" font-size="14.00" fill="#000000">CrudArticuloComponent</text>
</g>
<!-- CrudArticuloComponent&#45;&gt;OtroDocumentoModule -->
<g id="edge2" class="edge">
<title>CrudArticuloComponent&#45;&gt;OtroDocumentoModule</title>
<path fill="none" stroke="#000000" d="M1176,-122.2667C1176,-140.5552 1176,-166 1176,-166 1176,-166 817.0674,-166 817.0674,-166"/>
<polygon fill="#000000" stroke="#000000" points="817.0674,-162.5001 807.0674,-166 817.0673,-169.5001 817.0674,-162.5001"/>
</g>
<!-- ListArticuloComponent -->
<g id="node3" class="node">
<title>ListArticuloComponent</title>
<polygon fill="#ffffb3" stroke="#000000" points="1079.7646,-122 930.2354,-122 930.2354,-86 1079.7646,-86 1079.7646,-122"/>
<text text-anchor="middle" x="1005" y="-99.8" font-family="Times,serif" font-size="14.00" fill="#000000">ListArticuloComponent</text>
</g>
<!-- ListArticuloComponent&#45;&gt;OtroDocumentoModule -->
<g id="edge3" class="edge">
<title>ListArticuloComponent&#45;&gt;OtroDocumentoModule</title>
<path fill="none" stroke="#000000" d="M991.51,-122.0091C991.51,-138.0494 991.51,-159 991.51,-159 991.51,-159 817.061,-159 817.061,-159"/>
<polygon fill="#000000" stroke="#000000" points="817.0611,-155.5001 807.061,-159 817.061,-162.5001 817.0611,-155.5001"/>
</g>
<!-- ViewArticuloComponent -->
<g id="node4" class="node">
<title>ViewArticuloComponent</title>
<polygon fill="#ffffb3" stroke="#000000" points="912.3047,-122 753.6953,-122 753.6953,-86 912.3047,-86 912.3047,-122"/>
<text text-anchor="middle" x="833" y="-99.8" font-family="Times,serif" font-size="14.00" fill="#000000">ViewArticuloComponent</text>
</g>
<!-- ViewArticuloComponent&#45;&gt;OtroDocumentoModule -->
<g id="edge4" class="edge">
<title>ViewArticuloComponent&#45;&gt;OtroDocumentoModule</title>
<path fill="none" stroke="#000000" d="M780.555,-122.1061C780.555,-122.1061 780.555,-140.991 780.555,-140.991"/>
<polygon fill="#000000" stroke="#000000" points="777.0551,-140.9909 780.555,-150.991 784.0551,-140.991 777.0551,-140.9909"/>
</g>
<!-- CrudOtroDocumentoComponent  -->
<g id="node9" class="node">
<title>CrudOtroDocumentoComponent </title>
<polygon fill="#fb8072" stroke="#000000" points="1052.8045,-252 849.1955,-252 849.1955,-216 1052.8045,-216 1052.8045,-252"/>
<text text-anchor="middle" x="951" y="-229.8" font-family="Times,serif" font-size="14.00" fill="#000000">CrudOtroDocumentoComponent </text>
</g>
<!-- OtroDocumentoModule&#45;&gt;CrudOtroDocumentoComponent  -->
<g id="edge8" class="edge">
<title>OtroDocumentoModule&#45;&gt;CrudOtroDocumentoComponent </title>
<path fill="none" stroke="#000000" stroke-dasharray="5,2" d="M807.1833,-180C844.047,-180 880.625,-180 880.625,-180 880.625,-180 880.625,-205.7181 880.625,-205.7181"/>
<polygon fill="#000000" stroke="#000000" points="877.1251,-205.718 880.625,-215.7181 884.1251,-205.7181 877.1251,-205.718"/>
</g>
<!-- ListOtroDocumentoComponent  -->
<g id="node10" class="node">
<title>ListOtroDocumentoComponent </title>
<polygon fill="#fb8072" stroke="#000000" points="830.586,-252 633.414,-252 633.414,-216 830.586,-216 830.586,-252"/>
<text text-anchor="middle" x="732" y="-229.8" font-family="Times,serif" font-size="14.00" fill="#000000">ListOtroDocumentoComponent </text>
</g>
<!-- OtroDocumentoModule&#45;&gt;ListOtroDocumentoComponent  -->
<g id="edge9" class="edge">
<title>OtroDocumentoModule&#45;&gt;ListOtroDocumentoComponent </title>
<path fill="none" stroke="#000000" stroke-dasharray="5,2" d="M732,-187.1061C732,-187.1061 732,-205.991 732,-205.991"/>
<polygon fill="#000000" stroke="#000000" points="728.5001,-205.9909 732,-215.991 735.5001,-205.991 728.5001,-205.9909"/>
</g>
<!-- ViewOtroDocumentoComponent  -->
<g id="node11" class="node">
<title>ViewOtroDocumentoComponent </title>
<polygon fill="#fb8072" stroke="#000000" points="615.1256,-252 408.8744,-252 408.8744,-216 615.1256,-216 615.1256,-252"/>
<text text-anchor="middle" x="512" y="-229.8" font-family="Times,serif" font-size="14.00" fill="#000000">ViewOtroDocumentoComponent </text>
</g>
<!-- OtroDocumentoModule&#45;&gt;ViewOtroDocumentoComponent  -->
<g id="edge10" class="edge">
<title>OtroDocumentoModule&#45;&gt;ViewOtroDocumentoComponent </title>
<path fill="none" stroke="#000000" stroke-dasharray="5,2" d="M656.5371,-180C616.1467,-180 574.6208,-180 574.6208,-180 574.6208,-180 574.6208,-205.7181 574.6208,-205.7181"/>
<polygon fill="#000000" stroke="#000000" points="571.1209,-205.718 574.6208,-215.7181 578.1209,-205.7181 571.1209,-205.718"/>
</g>
<!-- OtroDocumentoRoutingModule -->
<g id="node6" class="node">
<title>OtroDocumentoRoutingModule</title>
<polygon fill="#8dd3c7" stroke="#000000" points="729.6427,-122 726.6427,-126 705.6427,-126 702.6427,-122 534.3573,-122 534.3573,-86 729.6427,-86 729.6427,-122"/>
<text text-anchor="middle" x="632" y="-99.8" font-family="Times,serif" font-size="14.00" fill="#000000">OtroDocumentoRoutingModule</text>
</g>
<!-- OtroDocumentoRoutingModule&#45;&gt;OtroDocumentoModule -->
<g id="edge5" class="edge">
<title>OtroDocumentoRoutingModule&#45;&gt;OtroDocumentoModule</title>
<path fill="none" stroke="#000000" d="M693.2795,-122.1061C693.2795,-122.1061 693.2795,-140.991 693.2795,-140.991"/>
<polygon fill="#000000" stroke="#000000" points="689.7795,-140.9909 693.2795,-150.991 696.7795,-140.991 689.7795,-140.9909"/>
</g>
<!-- SharedModule -->
<g id="node7" class="node">
<title>SharedModule</title>
<polygon fill="#8dd3c7" stroke="#000000" points="516.4231,-122 513.4231,-126 492.4231,-126 489.4231,-122 417.5769,-122 417.5769,-86 516.4231,-86 516.4231,-122"/>
<text text-anchor="middle" x="467" y="-99.8" font-family="Times,serif" font-size="14.00" fill="#000000">SharedModule</text>
</g>
<!-- SharedModule&#45;&gt;OtroDocumentoModule -->
<g id="edge6" class="edge">
<title>SharedModule&#45;&gt;OtroDocumentoModule</title>
<path fill="none" stroke="#000000" d="M467,-122.0091C467,-138.0494 467,-159 467,-159 467,-159 646.7705,-159 646.7705,-159"/>
<polygon fill="#000000" stroke="#000000" points="646.7705,-162.5001 656.7705,-159 646.7704,-155.5001 646.7705,-162.5001"/>
</g>
<!-- ThemeModule -->
<g id="node8" class="node">
<title>ThemeModule</title>
<polygon fill="#8dd3c7" stroke="#000000" points="400.4231,-122 397.4231,-126 376.4231,-126 373.4231,-122 301.5769,-122 301.5769,-86 400.4231,-86 400.4231,-122"/>
<text text-anchor="middle" x="351" y="-99.8" font-family="Times,serif" font-size="14.00" fill="#000000">ThemeModule</text>
</g>
<!-- ThemeModule&#45;&gt;OtroDocumentoModule -->
<g id="edge7" class="edge">
<title>ThemeModule&#45;&gt;OtroDocumentoModule</title>
<path fill="none" stroke="#000000" d="M351,-122.2667C351,-140.5552 351,-166 351,-166 351,-166 646.7267,-166 646.7267,-166"/>
<polygon fill="#000000" stroke="#000000" points="646.7267,-169.5001 656.7267,-166 646.7266,-162.5001 646.7267,-169.5001"/>
</g>
<!-- ProduccionAcademicaService -->
<g id="node12" class="node">
<title>ProduccionAcademicaService</title>
<ellipse fill="#fdb462" stroke="#000000" cx="151" cy="-104" rx="127.3074" ry="18"/>
<text text-anchor="middle" x="151" y="-99.8" font-family="Times,serif" font-size="14.00" fill="#000000">ProduccionAcademicaService</text>
</g>
<!-- ProduccionAcademicaService&#45;&gt;OtroDocumentoModule -->
<g id="edge11" class="edge">
<title>ProduccionAcademicaService&#45;&gt;OtroDocumentoModule</title>
<path fill="none" stroke="#000000" d="M151,-122.1289C151,-142.5724 151,-173 151,-173 151,-173 646.9372,-173 646.9372,-173"/>
<polygon fill="#000000" stroke="#000000" points="646.9372,-176.5001 656.9372,-173 646.9371,-169.5001 646.9372,-176.5001"/>
</g>
</g>
</svg>
