<?xml version="1.0" encoding="UTF-8" standalone="no"?>
<!DOCTYPE svg PUBLIC "-//W3C//DTD SVG 1.1//EN"
 "http://www.w3.org/Graphics/SVG/1.1/DTD/svg11.dtd">
<!-- Generated by graphviz version 2.40.1 (20161225.0304)
 -->
<!-- Title: dependencies Pages: 1 -->
<svg width="1523pt" height="284pt"
 viewBox="0.00 0.00 1523.00 284.00" xmlns="http://www.w3.org/2000/svg" xmlns:xlink="http://www.w3.org/1999/xlink">
<g id="graph0" class="graph" transform="scale(1 1) rotate(0) translate(4 280)">
<title>dependencies</title>
<polygon fill="#ffffff" stroke="transparent" points="-4,4 -4,-280 1519,-280 1519,4 -4,4"/>
<text text-anchor="start" x="736.5091" y="-42.4" font-family="sans-serif" font-weight="bold" font-size="14.00" fill="#000000">Legend</text>
<polygon fill="#ffffb3" stroke="transparent" points="523.5,-10 523.5,-30 543.5,-30 543.5,-10 523.5,-10"/>
<text text-anchor="start" x="547.129" y="-15.4" font-family="sans-serif" font-size="14.00" fill="#000000"> &#160;Declarations</text>
<polygon fill="#8dd3c7" stroke="transparent" points="636.5,-10 636.5,-30 656.5,-30 656.5,-10 636.5,-10"/>
<text text-anchor="start" x="660.2251" y="-15.4" font-family="sans-serif" font-size="14.00" fill="#000000"> &#160;Module</text>
<polygon fill="#80b1d3" stroke="transparent" points="722.5,-10 722.5,-30 742.5,-30 742.5,-10 722.5,-10"/>
<text text-anchor="start" x="746.2812" y="-15.4" font-family="sans-serif" font-size="14.00" fill="#000000"> &#160;Bootstrap</text>
<polygon fill="#fdb462" stroke="transparent" points="819.5,-10 819.5,-30 839.5,-30 839.5,-10 819.5,-10"/>
<text text-anchor="start" x="843.1732" y="-15.4" font-family="sans-serif" font-size="14.00" fill="#000000"> &#160;Providers</text>
<polygon fill="#fb8072" stroke="transparent" points="915.5,-10 915.5,-30 935.5,-30 935.5,-10 915.5,-10"/>
<text text-anchor="start" x="939.2258" y="-15.4" font-family="sans-serif" font-size="14.00" fill="#000000"> &#160;Exports</text>
<g id="clust1" class="cluster">
<title>cluster_ArticuloModule</title>
<polygon fill="none" stroke="#000000" stroke-dasharray="1,5" points="8,-70 8,-268 1507,-268 1507,-70 8,-70"/>
</g>
<g id="clust2" class="cluster">
<title>cluster_ArticuloModule_declarations</title>
<polygon fill="none" stroke="#000000" points="837,-78 837,-130 1499,-130 1499,-78 837,-78"/>
</g>
<g id="clust7" class="cluster">
<title>cluster_ArticuloModule_imports</title>
<polygon fill="none" stroke="#000000" points="429,-78 429,-130 829,-130 829,-78 429,-78"/>
</g>
<g id="clust8" class="cluster">
<title>cluster_ArticuloModule_exports</title>
<polygon fill="none" stroke="#000000" points="480,-208 480,-260 1007,-260 1007,-208 480,-208"/>
</g>
<g id="clust10" class="cluster">
<title>cluster_ArticuloModule_providers</title>
<polygon fill="none" stroke="#000000" points="16,-78 16,-130 421,-130 421,-78 16,-78"/>
</g>
<!-- ArticuloComponent -->
<g id="node1" class="node">
<title>ArticuloComponent</title>
<polygon fill="#ffffb3" stroke="#000000" points="1490.986,-122 1363.014,-122 1363.014,-86 1490.986,-86 1490.986,-122"/>
<text text-anchor="middle" x="1427" y="-99.8" font-family="Times,serif" font-size="14.00" fill="#000000">ArticuloComponent</text>
</g>
<!-- ArticuloModule -->
<g id="node5" class="node">
<title>ArticuloModule</title>
<polygon fill="#8dd3c7" stroke="#000000" points="798.2036,-187 795.2036,-191 774.2036,-191 771.2036,-187 691.7964,-187 691.7964,-151 798.2036,-151 798.2036,-187"/>
<text text-anchor="middle" x="745" y="-164.8" font-family="Times,serif" font-size="14.00" fill="#000000">ArticuloModule</text>
</g>
<!-- ArticuloComponent&#45;&gt;ArticuloModule -->
<g id="edge1" class="edge">
<title>ArticuloComponent&#45;&gt;ArticuloModule</title>
<path fill="none" stroke="#000000" d="M1427,-122.2843C1427,-143.3211 1427,-175 1427,-175 1427,-175 808.2313,-175 808.2313,-175"/>
<polygon fill="#000000" stroke="#000000" points="808.2314,-171.5001 798.2313,-175 808.2313,-178.5001 808.2314,-171.5001"/>
</g>
<!-- CrudArticuloComponent -->
<g id="node2" class="node">
<title>CrudArticuloComponent</title>
<polygon fill="#ffffb3" stroke="#000000" points="1344.9832,-122 1189.0168,-122 1189.0168,-86 1344.9832,-86 1344.9832,-122"/>
<text text-anchor="middle" x="1267" y="-99.8" font-family="Times,serif" font-size="14.00" fill="#000000">CrudArticuloComponent</text>
</g>
<!-- CrudArticuloComponent&#45;&gt;ArticuloModule -->
<g id="edge2" class="edge">
<title>CrudArticuloComponent&#45;&gt;ArticuloModule</title>
<path fill="none" stroke="#000000" d="M1267,-122.1061C1267,-141.3391 1267,-169 1267,-169 1267,-169 808.41,-169 808.41,-169"/>
<polygon fill="#000000" stroke="#000000" points="808.4101,-165.5001 798.41,-169 808.41,-172.5001 808.4101,-165.5001"/>
</g>
<!-- ListArticuloComponent -->
<g id="node3" class="node">
<title>ListArticuloComponent</title>
<polygon fill="#ffffb3" stroke="#000000" points="1170.7646,-122 1021.2354,-122 1021.2354,-86 1170.7646,-86 1170.7646,-122"/>
<text text-anchor="middle" x="1096" y="-99.8" font-family="Times,serif" font-size="14.00" fill="#000000">ListArticuloComponent</text>
</g>
<!-- ListArticuloComponent&#45;&gt;ArticuloModule -->
<g id="edge3" class="edge">
<title>ListArticuloComponent&#45;&gt;ArticuloModule</title>
<path fill="none" stroke="#000000" d="M1096,-122.0225C1096,-139.3734 1096,-163 1096,-163 1096,-163 808.3093,-163 808.3093,-163"/>
<polygon fill="#000000" stroke="#000000" points="808.3094,-159.5001 798.3093,-163 808.3093,-166.5001 808.3094,-159.5001"/>
</g>
<!-- ViewArticuloComponent -->
<g id="node4" class="node">
<title>ViewArticuloComponent</title>
<polygon fill="#ffffb3" stroke="#000000" points="1003.3047,-122 844.6953,-122 844.6953,-86 1003.3047,-86 1003.3047,-122"/>
<text text-anchor="middle" x="924" y="-99.8" font-family="Times,serif" font-size="14.00" fill="#000000">ViewArticuloComponent</text>
</g>
<!-- ViewArticuloComponent&#45;&gt;ArticuloModule -->
<g id="edge4" class="edge">
<title>ViewArticuloComponent&#45;&gt;ArticuloModule</title>
<path fill="none" stroke="#000000" d="M896.1457,-122.2396C896.1457,-137.5706 896.1457,-157 896.1457,-157 896.1457,-157 808.2883,-157 808.2883,-157"/>
<polygon fill="#000000" stroke="#000000" points="808.2884,-153.5001 798.2883,-157 808.2883,-160.5001 808.2884,-153.5001"/>
</g>
<!-- CrudArticuloComponent  -->
<g id="node9" class="node">
<title>CrudArticuloComponent </title>
<polygon fill="#fb8072" stroke="#000000" points="998.9839,-252 839.0161,-252 839.0161,-216 998.9839,-216 998.9839,-252"/>
<text text-anchor="middle" x="919" y="-229.8" font-family="Times,serif" font-size="14.00" fill="#000000">CrudArticuloComponent </text>
</g>
<!-- ArticuloModule&#45;&gt;CrudArticuloComponent  -->
<g id="edge8" class="edge">
<title>ArticuloModule&#45;&gt;CrudArticuloComponent </title>
<path fill="none" stroke="#000000" stroke-dasharray="5,2" d="M798.1897,-181C858.1703,-181 947.4437,-181 947.4437,-181 947.4437,-181 947.4437,-205.7604 947.4437,-205.7604"/>
<polygon fill="#000000" stroke="#000000" points="943.9438,-205.7604 947.4437,-215.7604 950.9438,-205.7604 943.9438,-205.7604"/>
</g>
<!-- ListArticuloComponent  -->
<g id="node10" class="node">
<title>ListArticuloComponent </title>
<polygon fill="#fb8072" stroke="#000000" points="821.7646,-252 668.2354,-252 668.2354,-216 821.7646,-216 821.7646,-252"/>
<text text-anchor="middle" x="745" y="-229.8" font-family="Times,serif" font-size="14.00" fill="#000000">ListArticuloComponent </text>
</g>
<!-- ArticuloModule&#45;&gt;ListArticuloComponent  -->
<g id="edge9" class="edge">
<title>ArticuloModule&#45;&gt;ListArticuloComponent </title>
<path fill="none" stroke="#000000" stroke-dasharray="5,2" d="M745,-187.1061C745,-187.1061 745,-205.991 745,-205.991"/>
<polygon fill="#000000" stroke="#000000" points="741.5001,-205.9909 745,-215.991 748.5001,-205.991 741.5001,-205.9909"/>
</g>
<!-- ViewArticuloComponent  -->
<g id="node11" class="node">
<title>ViewArticuloComponent </title>
<polygon fill="#fb8072" stroke="#000000" points="649.8045,-252 488.1955,-252 488.1955,-216 649.8045,-216 649.8045,-252"/>
<text text-anchor="middle" x="569" y="-229.8" font-family="Times,serif" font-size="14.00" fill="#000000">ViewArticuloComponent </text>
</g>
<!-- ArticuloModule&#45;&gt;ViewArticuloComponent  -->
<g id="edge10" class="edge">
<title>ArticuloModule&#45;&gt;ViewArticuloComponent </title>
<path fill="none" stroke="#000000" stroke-dasharray="5,2" d="M691.7756,-181C645.278,-181 585.16,-181 585.16,-181 585.16,-181 585.16,-205.7604 585.16,-205.7604"/>
<polygon fill="#000000" stroke="#000000" points="581.6601,-205.7604 585.16,-215.7604 588.6601,-205.7604 581.6601,-205.7604"/>
</g>
<!-- ArticuloRoutingModule -->
<g id="node6" class="node">
<title>ArticuloRoutingModule</title>
<polygon fill="#8dd3c7" stroke="#000000" points="820.8215,-122 817.8215,-126 796.8215,-126 793.8215,-122 669.1785,-122 669.1785,-86 820.8215,-86 820.8215,-122"/>
<text text-anchor="middle" x="745" y="-99.8" font-family="Times,serif" font-size="14.00" fill="#000000">ArticuloRoutingModule</text>
</g>
<!-- ArticuloRoutingModule&#45;&gt;ArticuloModule -->
<g id="edge5" class="edge">
<title>ArticuloRoutingModule&#45;&gt;ArticuloModule</title>
<path fill="none" stroke="#000000" d="M745,-122.1061C745,-122.1061 745,-140.991 745,-140.991"/>
<polygon fill="#000000" stroke="#000000" points="741.5001,-140.9909 745,-150.991 748.5001,-140.991 741.5001,-140.9909"/>
</g>
<!-- SharedModule -->
<g id="node7" class="node">
<title>SharedModule</title>
<polygon fill="#8dd3c7" stroke="#000000" points="651.4231,-122 648.4231,-126 627.4231,-126 624.4231,-122 552.5769,-122 552.5769,-86 651.4231,-86 651.4231,-122"/>
<text text-anchor="middle" x="602" y="-99.8" font-family="Times,serif" font-size="14.00" fill="#000000">SharedModule</text>
</g>
<!-- SharedModule&#45;&gt;ArticuloModule -->
<g id="edge6" class="edge">
<title>SharedModule&#45;&gt;ArticuloModule</title>
<path fill="none" stroke="#000000" d="M617.5311,-122.2396C617.5311,-137.5706 617.5311,-157 617.5311,-157 617.5311,-157 681.6803,-157 681.6803,-157"/>
<polygon fill="#000000" stroke="#000000" points="681.6803,-160.5001 691.6803,-157 681.6803,-153.5001 681.6803,-160.5001"/>
</g>
<!-- ThemeModule -->
<g id="node8" class="node">
<title>ThemeModule</title>
<polygon fill="#8dd3c7" stroke="#000000" points="535.4231,-122 532.4231,-126 511.4231,-126 508.4231,-122 436.5769,-122 436.5769,-86 535.4231,-86 535.4231,-122"/>
<text text-anchor="middle" x="486" y="-99.8" font-family="Times,serif" font-size="14.00" fill="#000000">ThemeModule</text>
</g>
<!-- ThemeModule&#45;&gt;ArticuloModule -->
<g id="edge7" class="edge">
<title>ThemeModule&#45;&gt;ArticuloModule</title>
<path fill="none" stroke="#000000" d="M511.6545,-122.0225C511.6545,-139.3734 511.6545,-163 511.6545,-163 511.6545,-163 681.7583,-163 681.7583,-163"/>
<polygon fill="#000000" stroke="#000000" points="681.7583,-166.5001 691.7583,-163 681.7583,-159.5001 681.7583,-166.5001"/>
</g>
<!-- ProduccionAcademicaService -->
<g id="node12" class="node">
<title>ProduccionAcademicaService</title>
<ellipse fill="#fdb462" stroke="#000000" cx="286" cy="-104" rx="127.3074" ry="18"/>
<text text-anchor="middle" x="286" y="-99.8" font-family="Times,serif" font-size="14.00" fill="#000000">ProduccionAcademicaService</text>
</g>
<!-- ProduccionAcademicaService&#45;&gt;ArticuloModule -->
<g id="edge11" class="edge">
<title>ProduccionAcademicaService&#45;&gt;ArticuloModule</title>
<path fill="none" stroke="#000000" d="M286,-122.1061C286,-141.3391 286,-169 286,-169 286,-169 681.4486,-169 681.4486,-169"/>
<polygon fill="#000000" stroke="#000000" points="681.4486,-172.5001 691.4486,-169 681.4485,-165.5001 681.4486,-172.5001"/>
</g>
<!-- UserService -->
<g id="node13" class="node">
<title>UserService</title>
<ellipse fill="#fdb462" stroke="#000000" cx="82" cy="-104" rx="58.4415" ry="18"/>
<text text-anchor="middle" x="82" y="-99.8" font-family="Times,serif" font-size="14.00" fill="#000000">UserService</text>
</g>
<!-- UserService&#45;&gt;ArticuloModule -->
<g id="edge12" class="edge">
<title>UserService&#45;&gt;ArticuloModule</title>
<path fill="none" stroke="#000000" d="M82,-122.2843C82,-143.3211 82,-175 82,-175 82,-175 681.8647,-175 681.8647,-175"/>
<polygon fill="#000000" stroke="#000000" points="681.8647,-178.5001 691.8647,-175 681.8646,-171.5001 681.8647,-178.5001"/>
</g>
</g>
</svg>
