<?xml version="1.0" encoding="UTF-8" standalone="no"?>
<!DOCTYPE svg PUBLIC "-//W3C//DTD SVG 1.1//EN"
 "http://www.w3.org/Graphics/SVG/1.1/DTD/svg11.dtd">
<!-- Generated by graphviz version 2.40.1 (20161225.0304)
 -->
<!-- Title: dependencies Pages: 1 -->
<svg width="1940pt" height="284pt"
 viewBox="0.00 0.00 1940.00 284.00" xmlns="http://www.w3.org/2000/svg" xmlns:xlink="http://www.w3.org/1999/xlink">
<g id="graph0" class="graph" transform="scale(1 1) rotate(0) translate(4 280)">
<title>dependencies</title>
<polygon fill="#ffffff" stroke="transparent" points="-4,4 -4,-280 1936,-280 1936,4 -4,4"/>
<text text-anchor="start" x="945.0091" y="-42.4" font-family="sans-serif" font-weight="bold" font-size="14.00" fill="#000000">Legend</text>
<polygon fill="#ffffb3" stroke="transparent" points="732,-10 732,-30 752,-30 752,-10 732,-10"/>
<text text-anchor="start" x="755.629" y="-15.4" font-family="sans-serif" font-size="14.00" fill="#000000"> &#160;Declarations</text>
<polygon fill="#8dd3c7" stroke="transparent" points="845,-10 845,-30 865,-30 865,-10 845,-10"/>
<text text-anchor="start" x="868.7251" y="-15.4" font-family="sans-serif" font-size="14.00" fill="#000000"> &#160;Module</text>
<polygon fill="#80b1d3" stroke="transparent" points="931,-10 931,-30 951,-30 951,-10 931,-10"/>
<text text-anchor="start" x="954.7812" y="-15.4" font-family="sans-serif" font-size="14.00" fill="#000000"> &#160;Bootstrap</text>
<polygon fill="#fdb462" stroke="transparent" points="1028,-10 1028,-30 1048,-30 1048,-10 1028,-10"/>
<text text-anchor="start" x="1051.6732" y="-15.4" font-family="sans-serif" font-size="14.00" fill="#000000"> &#160;Providers</text>
<polygon fill="#fb8072" stroke="transparent" points="1124,-10 1124,-30 1144,-30 1144,-10 1124,-10"/>
<text text-anchor="start" x="1147.7258" y="-15.4" font-family="sans-serif" font-size="14.00" fill="#000000"> &#160;Exports</text>
<g id="clust1" class="cluster">
<title>cluster_DocumentoProgramaModule</title>
<polygon fill="none" stroke="#000000" stroke-dasharray="1,5" points="8,-70 8,-268 1924,-268 1924,-70 8,-70"/>
</g>
<g id="clust2" class="cluster">
<title>cluster_DocumentoProgramaModule_declarations</title>
<polygon fill="none" stroke="#000000" points="950,-78 950,-130 1916,-130 1916,-78 950,-78"/>
</g>
<g id="clust7" class="cluster">
<title>cluster_DocumentoProgramaModule_imports</title>
<polygon fill="none" stroke="#000000" points="470,-78 470,-130 942,-130 942,-78 470,-78"/>
</g>
<g id="clust8" class="cluster">
<title>cluster_DocumentoProgramaModule_exports</title>
<polygon fill="none" stroke="#000000" points="448,-208 448,-260 1193,-260 1193,-208 448,-208"/>
</g>
<g id="clust10" class="cluster">
<title>cluster_DocumentoProgramaModule_providers</title>
<polygon fill="none" stroke="#000000" points="16,-78 16,-130 462,-130 462,-78 16,-78"/>
</g>
<!-- CrudDescuentoAcademicoComponent -->
<g id="node1" class="node">
<title>CrudDescuentoAcademicoComponent</title>
<polygon fill="#ffffb3" stroke="#000000" points="1908.1615,-122 1675.8385,-122 1675.8385,-86 1908.1615,-86 1908.1615,-122"/>
<text text-anchor="middle" x="1792" y="-99.8" font-family="Times,serif" font-size="14.00" fill="#000000">CrudDescuentoAcademicoComponent</text>
</g>
<!-- DocumentoProgramaModule -->
<g id="node5" class="node">
<title>DocumentoProgramaModule</title>
<polygon fill="#8dd3c7" stroke="#000000" points="911.7906,-187 908.7906,-191 887.7906,-191 884.7906,-187 732.2094,-187 732.2094,-151 911.7906,-151 911.7906,-187"/>
<text text-anchor="middle" x="822" y="-164.8" font-family="Times,serif" font-size="14.00" fill="#000000">DocumentoProgramaModule</text>
</g>
<!-- CrudDescuentoAcademicoComponent&#45;&gt;DocumentoProgramaModule -->
<g id="edge1" class="edge">
<title>CrudDescuentoAcademicoComponent&#45;&gt;DocumentoProgramaModule</title>
<path fill="none" stroke="#000000" d="M1792,-122.2843C1792,-143.3211 1792,-175 1792,-175 1792,-175 921.95,-175 921.95,-175"/>
<polygon fill="#000000" stroke="#000000" points="921.95,-171.5001 911.95,-175 921.9499,-178.5001 921.95,-171.5001"/>
</g>
<!-- DescuentoAcademicoComponent -->
<g id="node2" class="node">
<title>DescuentoAcademicoComponent</title>
<polygon fill="#ffffb3" stroke="#000000" points="1658.1643,-122 1453.8357,-122 1453.8357,-86 1658.1643,-86 1658.1643,-122"/>
<text text-anchor="middle" x="1556" y="-99.8" font-family="Times,serif" font-size="14.00" fill="#000000">DescuentoAcademicoComponent</text>
</g>
<!-- DescuentoAcademicoComponent&#45;&gt;DocumentoProgramaModule -->
<g id="edge2" class="edge">
<title>DescuentoAcademicoComponent&#45;&gt;DocumentoProgramaModule</title>
<path fill="none" stroke="#000000" d="M1556,-122.1061C1556,-141.3391 1556,-169 1556,-169 1556,-169 922.0028,-169 922.0028,-169"/>
<polygon fill="#000000" stroke="#000000" points="922.0028,-165.5001 912.0028,-169 922.0028,-172.5001 922.0028,-165.5001"/>
</g>
<!-- ListDescuentoAcademicoComponent -->
<g id="node3" class="node">
<title>ListDescuentoAcademicoComponent</title>
<polygon fill="#ffffb3" stroke="#000000" points="1435.9426,-122 1210.0574,-122 1210.0574,-86 1435.9426,-86 1435.9426,-122"/>
<text text-anchor="middle" x="1323" y="-99.8" font-family="Times,serif" font-size="14.00" fill="#000000">ListDescuentoAcademicoComponent</text>
</g>
<!-- ListDescuentoAcademicoComponent&#45;&gt;DocumentoProgramaModule -->
<g id="edge3" class="edge">
<title>ListDescuentoAcademicoComponent&#45;&gt;DocumentoProgramaModule</title>
<path fill="none" stroke="#000000" d="M1323,-122.0225C1323,-139.3734 1323,-163 1323,-163 1323,-163 921.8579,-163 921.8579,-163"/>
<polygon fill="#000000" stroke="#000000" points="921.8579,-159.5001 911.8579,-163 921.8579,-166.5001 921.8579,-159.5001"/>
</g>
<!-- ViewDescuentoAcademicoComponent -->
<g id="node4" class="node">
<title>ViewDescuentoAcademicoComponent</title>
<polygon fill="#ffffb3" stroke="#000000" points="1192.4831,-122 957.5169,-122 957.5169,-86 1192.4831,-86 1192.4831,-122"/>
<text text-anchor="middle" x="1075" y="-99.8" font-family="Times,serif" font-size="14.00" fill="#000000">ViewDescuentoAcademicoComponent</text>
</g>
<!-- ViewDescuentoAcademicoComponent&#45;&gt;DocumentoProgramaModule -->
<g id="edge4" class="edge">
<title>ViewDescuentoAcademicoComponent&#45;&gt;DocumentoProgramaModule</title>
<path fill="none" stroke="#000000" d="M1033.6008,-122.2396C1033.6008,-137.5706 1033.6008,-157 1033.6008,-157 1033.6008,-157 921.7378,-157 921.7378,-157"/>
<polygon fill="#000000" stroke="#000000" points="921.7378,-153.5001 911.7378,-157 921.7378,-160.5001 921.7378,-153.5001"/>
</g>
<!-- CrudDocumentoProgramaComponent  -->
<g id="node9" class="node">
<title>CrudDocumentoProgramaComponent </title>
<polygon fill="#fb8072" stroke="#000000" points="1185.0706,-252 952.9294,-252 952.9294,-216 1185.0706,-216 1185.0706,-252"/>
<text text-anchor="middle" x="1069" y="-229.8" font-family="Times,serif" font-size="14.00" fill="#000000">CrudDocumentoProgramaComponent </text>
</g>
<!-- DocumentoProgramaModule&#45;&gt;CrudDocumentoProgramaComponent  -->
<g id="edge8" class="edge">
<title>DocumentoProgramaModule&#45;&gt;CrudDocumentoProgramaComponent </title>
<path fill="none" stroke="#000000" stroke-dasharray="5,2" d="M911.7664,-181C996.1054,-181 1109.443,-181 1109.443,-181 1109.443,-181 1109.443,-205.7604 1109.443,-205.7604"/>
<polygon fill="#000000" stroke="#000000" points="1105.9431,-205.7604 1109.443,-215.7604 1112.9431,-205.7604 1105.9431,-205.7604"/>
</g>
<!-- ListDocumentoProgramaComponent  -->
<g id="node10" class="node">
<title>ListDocumentoProgramaComponent </title>
<polygon fill="#fb8072" stroke="#000000" points="935.3517,-252 708.6483,-252 708.6483,-216 935.3517,-216 935.3517,-252"/>
<text text-anchor="middle" x="822" y="-229.8" font-family="Times,serif" font-size="14.00" fill="#000000">ListDocumentoProgramaComponent </text>
</g>
<!-- DocumentoProgramaModule&#45;&gt;ListDocumentoProgramaComponent  -->
<g id="edge9" class="edge">
<title>DocumentoProgramaModule&#45;&gt;ListDocumentoProgramaComponent </title>
<path fill="none" stroke="#000000" stroke-dasharray="5,2" d="M822,-187.1061C822,-187.1061 822,-205.991 822,-205.991"/>
<polygon fill="#000000" stroke="#000000" points="818.5001,-205.9909 822,-215.991 825.5001,-205.991 818.5001,-205.9909"/>
</g>
<!-- ViewDocumentoProgramaComponent  -->
<g id="node11" class="node">
<title>ViewDocumentoProgramaComponent </title>
<polygon fill="#fb8072" stroke="#000000" points="690.3914,-252 455.6086,-252 455.6086,-216 690.3914,-216 690.3914,-252"/>
<text text-anchor="middle" x="573" y="-229.8" font-family="Times,serif" font-size="14.00" fill="#000000">ViewDocumentoProgramaComponent </text>
</g>
<!-- DocumentoProgramaModule&#45;&gt;ViewDocumentoProgramaComponent  -->
<g id="edge10" class="edge">
<title>DocumentoProgramaModule&#45;&gt;ViewDocumentoProgramaComponent </title>
<path fill="none" stroke="#000000" stroke-dasharray="5,2" d="M732.3209,-181C680.7136,-181 626.0078,-181 626.0078,-181 626.0078,-181 626.0078,-205.7604 626.0078,-205.7604"/>
<polygon fill="#000000" stroke="#000000" points="622.5079,-205.7604 626.0078,-215.7604 629.5079,-205.7604 622.5079,-205.7604"/>
</g>
<!-- DocumentoProgramaRoutingModule -->
<g id="node6" class="node">
<title>DocumentoProgramaRoutingModule</title>
<polygon fill="#8dd3c7" stroke="#000000" points="934.4086,-122 931.4086,-126 910.4086,-126 907.4086,-122 709.5914,-122 709.5914,-86 934.4086,-86 934.4086,-122"/>
<text text-anchor="middle" x="822" y="-99.8" font-family="Times,serif" font-size="14.00" fill="#000000">DocumentoProgramaRoutingModule</text>
</g>
<!-- DocumentoProgramaRoutingModule&#45;&gt;DocumentoProgramaModule -->
<g id="edge5" class="edge">
<title>DocumentoProgramaRoutingModule&#45;&gt;DocumentoProgramaModule</title>
<path fill="none" stroke="#000000" d="M822,-122.1061C822,-122.1061 822,-140.991 822,-140.991"/>
<polygon fill="#000000" stroke="#000000" points="818.5001,-140.9909 822,-150.991 825.5001,-140.991 818.5001,-140.9909"/>
</g>
<!-- SharedModule -->
<g id="node7" class="node">
<title>SharedModule</title>
<polygon fill="#8dd3c7" stroke="#000000" points="692.4231,-122 689.4231,-126 668.4231,-126 665.4231,-122 593.5769,-122 593.5769,-86 692.4231,-86 692.4231,-122"/>
<text text-anchor="middle" x="643" y="-99.8" font-family="Times,serif" font-size="14.00" fill="#000000">SharedModule</text>
</g>
<!-- SharedModule&#45;&gt;DocumentoProgramaModule -->
<g id="edge6" class="edge">
<title>SharedModule&#45;&gt;DocumentoProgramaModule</title>
<path fill="none" stroke="#000000" d="M658.2268,-122.2396C658.2268,-137.5706 658.2268,-157 658.2268,-157 658.2268,-157 721.9687,-157 721.9687,-157"/>
<polygon fill="#000000" stroke="#000000" points="721.9687,-160.5001 731.9687,-157 721.9687,-153.5001 721.9687,-160.5001"/>
</g>
<!-- ThemeModule -->
<g id="node8" class="node">
<title>ThemeModule</title>
<polygon fill="#8dd3c7" stroke="#000000" points="576.4231,-122 573.4231,-126 552.4231,-126 549.4231,-122 477.5769,-122 477.5769,-86 576.4231,-86 576.4231,-122"/>
<text text-anchor="middle" x="527" y="-99.8" font-family="Times,serif" font-size="14.00" fill="#000000">ThemeModule</text>
</g>
<!-- ThemeModule&#45;&gt;DocumentoProgramaModule -->
<g id="edge7" class="edge">
<title>ThemeModule&#45;&gt;DocumentoProgramaModule</title>
<path fill="none" stroke="#000000" d="M527,-122.0225C527,-139.3734 527,-163 527,-163 527,-163 722.2888,-163 722.2888,-163"/>
<polygon fill="#000000" stroke="#000000" points="722.2888,-166.5001 732.2888,-163 722.2887,-159.5001 722.2888,-166.5001"/>
</g>
<!-- DocumentoProgramaService -->
<g id="node12" class="node">
<title>DocumentoProgramaService</title>
<ellipse fill="#fdb462" stroke="#000000" cx="331" cy="-104" rx="122.6736" ry="18"/>
<text text-anchor="middle" x="331" y="-99.8" font-family="Times,serif" font-size="14.00" fill="#000000">DocumentoProgramaService</text>
</g>
<!-- DocumentoProgramaService&#45;&gt;DocumentoProgramaModule -->
<g id="edge11" class="edge">
<title>DocumentoProgramaService&#45;&gt;DocumentoProgramaModule</title>
<path fill="none" stroke="#000000" d="M331,-122.1061C331,-141.3391 331,-169 331,-169 331,-169 722.2287,-169 722.2287,-169"/>
<polygon fill="#000000" stroke="#000000" points="722.2287,-172.5001 732.2287,-169 722.2286,-165.5001 722.2287,-172.5001"/>
</g>
<!-- InscripcionService -->
<g id="node13" class="node">
<title>InscripcionService</title>
<ellipse fill="#fdb462" stroke="#000000" cx="107" cy="-104" rx="83.3635" ry="18"/>
<text text-anchor="middle" x="107" y="-99.8" font-family="Times,serif" font-size="14.00" fill="#000000">InscripcionService</text>
</g>
<!-- InscripcionService&#45;&gt;DocumentoProgramaModule -->
<g id="edge12" class="edge">
<title>InscripcionService&#45;&gt;DocumentoProgramaModule</title>
<path fill="none" stroke="#000000" d="M107,-122.2843C107,-143.3211 107,-175 107,-175 107,-175 722.1687,-175 722.1687,-175"/>
<polygon fill="#000000" stroke="#000000" points="722.1688,-178.5001 732.1687,-175 722.1687,-171.5001 722.1688,-178.5001"/>
</g>
</g>
</svg>
