<?xml version="1.0" encoding="UTF-8" standalone="no"?>
<!DOCTYPE svg PUBLIC "-//W3C//DTD SVG 1.1//EN"
 "http://www.w3.org/Graphics/SVG/1.1/DTD/svg11.dtd">
<!-- Generated by graphviz version 2.40.1 (20161225.0304)
 -->
<!-- Title: dependencies Pages: 1 -->
<svg width="1452pt" height="284pt"
 viewBox="0.00 0.00 1452.00 284.00" xmlns="http://www.w3.org/2000/svg" xmlns:xlink="http://www.w3.org/1999/xlink">
<g id="graph0" class="graph" transform="scale(1 1) rotate(0) translate(4 280)">
<title>dependencies</title>
<polygon fill="#ffffff" stroke="transparent" points="-4,4 -4,-280 1448,-280 1448,4 -4,4"/>
<text text-anchor="start" x="701.0091" y="-42.4" font-family="sans-serif" font-weight="bold" font-size="14.00" fill="#000000">Legend</text>
<polygon fill="#ffffb3" stroke="transparent" points="488,-10 488,-30 508,-30 508,-10 488,-10"/>
<text text-anchor="start" x="511.629" y="-15.4" font-family="sans-serif" font-size="14.00" fill="#000000"> &#160;Declarations</text>
<polygon fill="#8dd3c7" stroke="transparent" points="601,-10 601,-30 621,-30 621,-10 601,-10"/>
<text text-anchor="start" x="624.7251" y="-15.4" font-family="sans-serif" font-size="14.00" fill="#000000"> &#160;Module</text>
<polygon fill="#80b1d3" stroke="transparent" points="687,-10 687,-30 707,-30 707,-10 687,-10"/>
<text text-anchor="start" x="710.7812" y="-15.4" font-family="sans-serif" font-size="14.00" fill="#000000"> &#160;Bootstrap</text>
<polygon fill="#fdb462" stroke="transparent" points="784,-10 784,-30 804,-30 804,-10 784,-10"/>
<text text-anchor="start" x="807.6732" y="-15.4" font-family="sans-serif" font-size="14.00" fill="#000000"> &#160;Providers</text>
<polygon fill="#fb8072" stroke="transparent" points="880,-10 880,-30 900,-30 900,-10 880,-10"/>
<text text-anchor="start" x="903.7258" y="-15.4" font-family="sans-serif" font-size="14.00" fill="#000000"> &#160;Exports</text>
<g id="clust1" class="cluster">
<title>cluster_DocumentoProgramaModule</title>
<polygon fill="none" stroke="#000000" stroke-dasharray="1,5" points="8,-70 8,-268 1436,-268 1436,-70 8,-70"/>
</g>
<g id="clust2" class="cluster">
<title>cluster_DocumentoProgramaModule_declarations</title>
<polygon fill="none" stroke="#000000" points="766,-78 766,-130 1428,-130 1428,-78 766,-78"/>
</g>
<g id="clust7" class="cluster">
<title>cluster_DocumentoProgramaModule_imports</title>
<polygon fill="none" stroke="#000000" points="286,-78 286,-130 758,-130 758,-78 286,-78"/>
</g>
<g id="clust8" class="cluster">
<title>cluster_DocumentoProgramaModule_exports</title>
<polygon fill="none" stroke="#000000" points="371,-208 371,-260 1116,-260 1116,-208 371,-208"/>
</g>
<g id="clust10" class="cluster">
<title>cluster_DocumentoProgramaModule_providers</title>
<polygon fill="none" stroke="#000000" points="16,-78 16,-130 278,-130 278,-78 16,-78"/>
</g>
<!-- ArticuloComponent -->
<g id="node1" class="node">
<title>ArticuloComponent</title>
<polygon fill="#ffffb3" stroke="#000000" points="1419.986,-122 1292.014,-122 1292.014,-86 1419.986,-86 1419.986,-122"/>
<text text-anchor="middle" x="1356" y="-99.8" font-family="Times,serif" font-size="14.00" fill="#000000">ArticuloComponent</text>
</g>
<!-- DocumentoProgramaModule -->
<g id="node5" class="node">
<title>DocumentoProgramaModule</title>
<polygon fill="#8dd3c7" stroke="#000000" points="834.7906,-187 831.7906,-191 810.7906,-191 807.7906,-187 655.2094,-187 655.2094,-151 834.7906,-151 834.7906,-187"/>
<text text-anchor="middle" x="745" y="-164.8" font-family="Times,serif" font-size="14.00" fill="#000000">DocumentoProgramaModule</text>
</g>
<!-- ArticuloComponent&#45;&gt;DocumentoProgramaModule -->
<g id="edge1" class="edge">
<title>ArticuloComponent&#45;&gt;DocumentoProgramaModule</title>
<path fill="none" stroke="#000000" d="M1356,-122.1289C1356,-142.5724 1356,-173 1356,-173 1356,-173 844.8268,-173 844.8268,-173"/>
<polygon fill="#000000" stroke="#000000" points="844.8269,-169.5001 834.8268,-173 844.8268,-176.5001 844.8269,-169.5001"/>
</g>
<!-- CrudArticuloComponent -->
<g id="node2" class="node">
<title>CrudArticuloComponent</title>
<polygon fill="#ffffb3" stroke="#000000" points="1273.9832,-122 1118.0168,-122 1118.0168,-86 1273.9832,-86 1273.9832,-122"/>
<text text-anchor="middle" x="1196" y="-99.8" font-family="Times,serif" font-size="14.00" fill="#000000">CrudArticuloComponent</text>
</g>
<!-- CrudArticuloComponent&#45;&gt;DocumentoProgramaModule -->
<g id="edge2" class="edge">
<title>CrudArticuloComponent&#45;&gt;DocumentoProgramaModule</title>
<path fill="none" stroke="#000000" d="M1196,-122.2667C1196,-140.5552 1196,-166 1196,-166 1196,-166 844.9123,-166 844.9123,-166"/>
<polygon fill="#000000" stroke="#000000" points="844.9124,-162.5001 834.9123,-166 844.9123,-169.5001 844.9124,-162.5001"/>
</g>
<!-- ListArticuloComponent -->
<g id="node3" class="node">
<title>ListArticuloComponent</title>
<polygon fill="#ffffb3" stroke="#000000" points="1099.7646,-122 950.2354,-122 950.2354,-86 1099.7646,-86 1099.7646,-122"/>
<text text-anchor="middle" x="1025" y="-99.8" font-family="Times,serif" font-size="14.00" fill="#000000">ListArticuloComponent</text>
</g>
<!-- ListArticuloComponent&#45;&gt;DocumentoProgramaModule -->
<g id="edge3" class="edge">
<title>ListArticuloComponent&#45;&gt;DocumentoProgramaModule</title>
<path fill="none" stroke="#000000" d="M1025,-122.0091C1025,-138.0494 1025,-159 1025,-159 1025,-159 844.7491,-159 844.7491,-159"/>
<polygon fill="#000000" stroke="#000000" points="844.7491,-155.5001 834.7491,-159 844.7491,-162.5001 844.7491,-155.5001"/>
</g>
<!-- ViewArticuloComponent -->
<g id="node4" class="node">
<title>ViewArticuloComponent</title>
<polygon fill="#ffffb3" stroke="#000000" points="932.3047,-122 773.6953,-122 773.6953,-86 932.3047,-86 932.3047,-122"/>
<text text-anchor="middle" x="853" y="-99.8" font-family="Times,serif" font-size="14.00" fill="#000000">ViewArticuloComponent</text>
</g>
<!-- ViewArticuloComponent&#45;&gt;DocumentoProgramaModule -->
<g id="edge4" class="edge">
<title>ViewArticuloComponent&#45;&gt;DocumentoProgramaModule</title>
<path fill="none" stroke="#000000" d="M804.2465,-122.1061C804.2465,-122.1061 804.2465,-140.991 804.2465,-140.991"/>
<polygon fill="#000000" stroke="#000000" points="800.7466,-140.9909 804.2465,-150.991 807.7466,-140.991 800.7466,-140.9909"/>
</g>
<!-- CrudDocumentoProgramaComponent  -->
<g id="node9" class="node">
<title>CrudDocumentoProgramaComponent </title>
<polygon fill="#fb8072" stroke="#000000" points="1108.0706,-252 875.9294,-252 875.9294,-216 1108.0706,-216 1108.0706,-252"/>
<text text-anchor="middle" x="992" y="-229.8" font-family="Times,serif" font-size="14.00" fill="#000000">CrudDocumentoProgramaComponent </text>
</g>
<!-- DocumentoProgramaModule&#45;&gt;CrudDocumentoProgramaComponent  -->
<g id="edge8" class="edge">
<title>DocumentoProgramaModule&#45;&gt;CrudDocumentoProgramaComponent </title>
<path fill="none" stroke="#000000" stroke-dasharray="5,2" d="M834.6853,-180C870.7359,-180 903.9336,-180 903.9336,-180 903.9336,-180 903.9336,-205.7181 903.9336,-205.7181"/>
<polygon fill="#000000" stroke="#000000" points="900.4336,-205.718 903.9336,-215.7181 907.4336,-205.7181 900.4336,-205.718"/>
</g>
<!-- ListDocumentoProgramaComponent  -->
<g id="node10" class="node">
<title>ListDocumentoProgramaComponent </title>
<polygon fill="#fb8072" stroke="#000000" points="858.3517,-252 631.6483,-252 631.6483,-216 858.3517,-216 858.3517,-252"/>
<text text-anchor="middle" x="745" y="-229.8" font-family="Times,serif" font-size="14.00" fill="#000000">ListDocumentoProgramaComponent </text>
</g>
<!-- DocumentoProgramaModule&#45;&gt;ListDocumentoProgramaComponent  -->
<g id="edge9" class="edge">
<title>DocumentoProgramaModule&#45;&gt;ListDocumentoProgramaComponent </title>
<path fill="none" stroke="#000000" stroke-dasharray="5,2" d="M745,-187.1061C745,-187.1061 745,-205.991 745,-205.991"/>
<polygon fill="#000000" stroke="#000000" points="741.5001,-205.9909 745,-215.991 748.5001,-205.991 741.5001,-205.9909"/>
</g>
<!-- ViewDocumentoProgramaComponent  -->
<g id="node11" class="node">
<title>ViewDocumentoProgramaComponent </title>
<polygon fill="#fb8072" stroke="#000000" points="613.3914,-252 378.6086,-252 378.6086,-216 613.3914,-216 613.3914,-252"/>
<text text-anchor="middle" x="496" y="-229.8" font-family="Times,serif" font-size="14.00" fill="#000000">ViewDocumentoProgramaComponent </text>
</g>
<!-- DocumentoProgramaModule&#45;&gt;ViewDocumentoProgramaComponent  -->
<g id="edge10" class="edge">
<title>DocumentoProgramaModule&#45;&gt;ViewDocumentoProgramaComponent </title>
<path fill="none" stroke="#000000" stroke-dasharray="5,2" d="M655.2553,-180C612.1062,-180 569.6208,-180 569.6208,-180 569.6208,-180 569.6208,-205.7181 569.6208,-205.7181"/>
<polygon fill="#000000" stroke="#000000" points="566.1209,-205.718 569.6208,-215.7181 573.1209,-205.7181 566.1209,-205.718"/>
</g>
<!-- DocumentoProgramaRoutingModule -->
<g id="node6" class="node">
<title>DocumentoProgramaRoutingModule</title>
<polygon fill="#8dd3c7" stroke="#000000" points="750.4086,-122 747.4086,-126 726.4086,-126 723.4086,-122 525.5914,-122 525.5914,-86 750.4086,-86 750.4086,-122"/>
<text text-anchor="middle" x="638" y="-99.8" font-family="Times,serif" font-size="14.00" fill="#000000">DocumentoProgramaRoutingModule</text>
</g>
<!-- DocumentoProgramaRoutingModule&#45;&gt;DocumentoProgramaModule -->
<g id="edge5" class="edge">
<title>DocumentoProgramaRoutingModule&#45;&gt;DocumentoProgramaModule</title>
<path fill="none" stroke="#000000" d="M702.7795,-122.1061C702.7795,-122.1061 702.7795,-140.991 702.7795,-140.991"/>
<polygon fill="#000000" stroke="#000000" points="699.2795,-140.9909 702.7795,-150.991 706.2795,-140.991 699.2795,-140.9909"/>
</g>
<!-- SharedModule -->
<g id="node7" class="node">
<title>SharedModule</title>
<polygon fill="#8dd3c7" stroke="#000000" points="508.4231,-122 505.4231,-126 484.4231,-126 481.4231,-122 409.5769,-122 409.5769,-86 508.4231,-86 508.4231,-122"/>
<text text-anchor="middle" x="459" y="-99.8" font-family="Times,serif" font-size="14.00" fill="#000000">SharedModule</text>
</g>
<!-- SharedModule&#45;&gt;DocumentoProgramaModule -->
<g id="edge6" class="edge">
<title>SharedModule&#45;&gt;DocumentoProgramaModule</title>
<path fill="none" stroke="#000000" d="M459,-122.0091C459,-138.0494 459,-159 459,-159 459,-159 645.2925,-159 645.2925,-159"/>
<polygon fill="#000000" stroke="#000000" points="645.2925,-162.5001 655.2925,-159 645.2925,-155.5001 645.2925,-162.5001"/>
</g>
<!-- ThemeModule -->
<g id="node8" class="node">
<title>ThemeModule</title>
<polygon fill="#8dd3c7" stroke="#000000" points="392.4231,-122 389.4231,-126 368.4231,-126 365.4231,-122 293.5769,-122 293.5769,-86 392.4231,-86 392.4231,-122"/>
<text text-anchor="middle" x="343" y="-99.8" font-family="Times,serif" font-size="14.00" fill="#000000">ThemeModule</text>
</g>
<!-- ThemeModule&#45;&gt;DocumentoProgramaModule -->
<g id="edge7" class="edge">
<title>ThemeModule&#45;&gt;DocumentoProgramaModule</title>
<path fill="none" stroke="#000000" d="M385.3827,-122.2667C385.3827,-140.5552 385.3827,-166 385.3827,-166 385.3827,-166 645.181,-166 645.181,-166"/>
<polygon fill="#000000" stroke="#000000" points="645.1811,-169.5001 655.181,-166 645.181,-162.5001 645.1811,-169.5001"/>
</g>
<!-- DocumentoProgramaService -->
<g id="node12" class="node">
<title>DocumentoProgramaService</title>
<ellipse fill="#fdb462" stroke="#000000" cx="147" cy="-104" rx="122.6736" ry="18"/>
<text text-anchor="middle" x="147" y="-99.8" font-family="Times,serif" font-size="14.00" fill="#000000">DocumentoProgramaService</text>
</g>
<!-- DocumentoProgramaService&#45;&gt;DocumentoProgramaModule -->
<g id="edge11" class="edge">
<title>DocumentoProgramaService&#45;&gt;DocumentoProgramaModule</title>
<path fill="none" stroke="#000000" d="M147,-122.1289C147,-142.5724 147,-173 147,-173 147,-173 645.1498,-173 645.1498,-173"/>
<polygon fill="#000000" stroke="#000000" points="645.1499,-176.5001 655.1498,-173 645.1498,-169.5001 645.1499,-176.5001"/>
</g>
</g>
</svg>
