<?xml version="1.0" encoding="UTF-8" standalone="no"?>
<!DOCTYPE svg PUBLIC "-//W3C//DTD SVG 1.1//EN"
 "http://www.w3.org/Graphics/SVG/1.1/DTD/svg11.dtd">
<!-- Generated by graphviz version 2.40.1 (20161225.0304)
 -->
<!-- Title: dependencies Pages: 1 -->
<svg width="3028pt" height="284pt"
 viewBox="0.00 0.00 3028.00 284.00" xmlns="http://www.w3.org/2000/svg" xmlns:xlink="http://www.w3.org/1999/xlink">
<g id="graph0" class="graph" transform="scale(1 1) rotate(0) translate(4 280)">
<title>dependencies</title>
<polygon fill="#ffffff" stroke="transparent" points="-4,4 -4,-280 3024,-280 3024,4 -4,4"/>
<text text-anchor="start" x="1489.0091" y="-42.4" font-family="sans-serif" font-weight="bold" font-size="14.00" fill="#000000">Legend</text>
<polygon fill="#ffffb3" stroke="transparent" points="1276,-10 1276,-30 1296,-30 1296,-10 1276,-10"/>
<text text-anchor="start" x="1299.629" y="-15.4" font-family="sans-serif" font-size="14.00" fill="#000000"> &#160;Declarations</text>
<polygon fill="#8dd3c7" stroke="transparent" points="1389,-10 1389,-30 1409,-30 1409,-10 1389,-10"/>
<text text-anchor="start" x="1412.7251" y="-15.4" font-family="sans-serif" font-size="14.00" fill="#000000"> &#160;Module</text>
<polygon fill="#80b1d3" stroke="transparent" points="1475,-10 1475,-30 1495,-30 1495,-10 1475,-10"/>
<text text-anchor="start" x="1498.7812" y="-15.4" font-family="sans-serif" font-size="14.00" fill="#000000"> &#160;Bootstrap</text>
<polygon fill="#fdb462" stroke="transparent" points="1572,-10 1572,-30 1592,-30 1592,-10 1572,-10"/>
<text text-anchor="start" x="1595.6732" y="-15.4" font-family="sans-serif" font-size="14.00" fill="#000000"> &#160;Providers</text>
<polygon fill="#fb8072" stroke="transparent" points="1668,-10 1668,-30 1688,-30 1688,-10 1668,-10"/>
<text text-anchor="start" x="1691.7258" y="-15.4" font-family="sans-serif" font-size="14.00" fill="#000000"> &#160;Exports</text>
<g id="clust1" class="cluster">
<title>cluster_PagoLineaModule</title>
<polygon fill="none" stroke="#000000" stroke-dasharray="1,5" points="8,-70 8,-268 3012,-268 3012,-70 8,-70"/>
</g>
<g id="clust2" class="cluster">
<title>cluster_PagoLineaModule_declarations</title>
<polygon fill="none" stroke="#000000" points="2038,-78 2038,-130 3004,-130 3004,-78 2038,-78"/>
</g>
<g id="clust7" class="cluster">
<title>cluster_PagoLineaModule_imports</title>
<polygon fill="none" stroke="#000000" points="1618,-78 1618,-130 2030,-130 2030,-78 1618,-78"/>
</g>
<g id="clust8" class="cluster">
<title>cluster_PagoLineaModule_exports</title>
<polygon fill="none" stroke="#000000" points="1235,-208 1235,-260 1634,-260 1634,-208 1235,-208"/>
</g>
<g id="clust10" class="cluster">
<title>cluster_PagoLineaModule_providers</title>
<polygon fill="none" stroke="#000000" points="16,-78 16,-130 1610,-130 1610,-78 16,-78"/>
</g>
<!-- CrudDescuentoAcademicoComponent -->
<g id="node1" class="node">
<title>CrudDescuentoAcademicoComponent</title>
<polygon fill="#ffffb3" stroke="#000000" points="2996.1615,-122 2763.8385,-122 2763.8385,-86 2996.1615,-86 2996.1615,-122"/>
<text text-anchor="middle" x="2880" y="-99.8" font-family="Times,serif" font-size="14.00" fill="#000000">CrudDescuentoAcademicoComponent</text>
</g>
<!-- PagoLineaModule -->
<g id="node5" class="node">
<title>PagoLineaModule</title>
<polygon fill="#8dd3c7" stroke="#000000" points="1490.9201,-187 1487.9201,-191 1466.9201,-191 1463.9201,-187 1371.0799,-187 1371.0799,-151 1490.9201,-151 1490.9201,-187"/>
<text text-anchor="middle" x="1431" y="-164.8" font-family="Times,serif" font-size="14.00" fill="#000000">PagoLineaModule</text>
</g>
<!-- CrudDescuentoAcademicoComponent&#45;&gt;PagoLineaModule -->
<g id="edge1" class="edge">
<title>CrudDescuentoAcademicoComponent&#45;&gt;PagoLineaModule</title>
<path fill="none" stroke="#000000" d="M2880,-122.3228C2880,-145.6602 2880,-183 2880,-183 2880,-183 1500.9596,-183 1500.9596,-183"/>
<polygon fill="#000000" stroke="#000000" points="1500.9597,-179.5001 1490.9596,-183 1500.9596,-186.5001 1500.9597,-179.5001"/>
</g>
<!-- DescuentoAcademicoComponent -->
<g id="node2" class="node">
<title>DescuentoAcademicoComponent</title>
<polygon fill="#ffffb3" stroke="#000000" points="2746.1643,-122 2541.8357,-122 2541.8357,-86 2746.1643,-86 2746.1643,-122"/>
<text text-anchor="middle" x="2644" y="-99.8" font-family="Times,serif" font-size="14.00" fill="#000000">DescuentoAcademicoComponent</text>
</g>
<!-- DescuentoAcademicoComponent&#45;&gt;PagoLineaModule -->
<g id="edge2" class="edge">
<title>DescuentoAcademicoComponent&#45;&gt;PagoLineaModule</title>
<path fill="none" stroke="#000000" d="M2644,-122.2921C2644,-144.2057 2644,-178 2644,-178 2644,-178 1500.7391,-178 1500.7391,-178"/>
<polygon fill="#000000" stroke="#000000" points="1500.7392,-174.5001 1490.7391,-178 1500.7391,-181.5001 1500.7392,-174.5001"/>
</g>
<!-- ListDescuentoAcademicoComponent -->
<g id="node3" class="node">
<title>ListDescuentoAcademicoComponent</title>
<polygon fill="#ffffb3" stroke="#000000" points="2523.9426,-122 2298.0574,-122 2298.0574,-86 2523.9426,-86 2523.9426,-122"/>
<text text-anchor="middle" x="2411" y="-99.8" font-family="Times,serif" font-size="14.00" fill="#000000">ListDescuentoAcademicoComponent</text>
</g>
<!-- ListDescuentoAcademicoComponent&#45;&gt;PagoLineaModule -->
<g id="edge3" class="edge">
<title>ListDescuentoAcademicoComponent&#45;&gt;PagoLineaModule</title>
<path fill="none" stroke="#000000" d="M2411,-122.0267C2411,-142.7672 2411,-174 2411,-174 2411,-174 1500.8282,-174 1500.8282,-174"/>
<polygon fill="#000000" stroke="#000000" points="1500.8282,-170.5001 1490.8282,-174 1500.8281,-177.5001 1500.8282,-170.5001"/>
</g>
<!-- ViewDescuentoAcademicoComponent -->
<g id="node4" class="node">
<title>ViewDescuentoAcademicoComponent</title>
<polygon fill="#ffffb3" stroke="#000000" points="2280.4831,-122 2045.5169,-122 2045.5169,-86 2280.4831,-86 2280.4831,-122"/>
<text text-anchor="middle" x="2163" y="-99.8" font-family="Times,serif" font-size="14.00" fill="#000000">ViewDescuentoAcademicoComponent</text>
</g>
<!-- ViewDescuentoAcademicoComponent&#45;&gt;PagoLineaModule -->
<g id="edge4" class="edge">
<title>ViewDescuentoAcademicoComponent&#45;&gt;PagoLineaModule</title>
<path fill="none" stroke="#000000" d="M2163,-122.1061C2163,-141.3391 2163,-169 2163,-169 2163,-169 1500.9026,-169 1500.9026,-169"/>
<polygon fill="#000000" stroke="#000000" points="1500.9027,-165.5001 1490.9026,-169 1500.9026,-172.5001 1500.9027,-165.5001"/>
</g>
<!-- PagoComprobanteComponent  -->
<g id="node9" class="node">
<title>PagoComprobanteComponent </title>
<polygon fill="#fb8072" stroke="#000000" points="1625.5372,-252 1436.4628,-252 1436.4628,-216 1625.5372,-216 1625.5372,-252"/>
<text text-anchor="middle" x="1531" y="-229.8" font-family="Times,serif" font-size="14.00" fill="#000000">PagoComprobanteComponent </text>
</g>
<!-- PagoLineaModule&#45;&gt;PagoComprobanteComponent  -->
<g id="edge8" class="edge">
<title>PagoLineaModule&#45;&gt;PagoComprobanteComponent </title>
<path fill="none" stroke="#000000" stroke-dasharray="5,2" d="M1463.5956,-187.1061C1463.5956,-187.1061 1463.5956,-205.991 1463.5956,-205.991"/>
<polygon fill="#000000" stroke="#000000" points="1460.0956,-205.9909 1463.5956,-215.991 1467.0956,-205.991 1460.0956,-205.9909"/>
</g>
<!-- PagoInscripcionComponent  -->
<g id="node10" class="node">
<title>PagoInscripcionComponent </title>
<polygon fill="#fb8072" stroke="#000000" points="1418.8059,-252 1243.1941,-252 1243.1941,-216 1418.8059,-216 1418.8059,-252"/>
<text text-anchor="middle" x="1331" y="-229.8" font-family="Times,serif" font-size="14.00" fill="#000000">PagoInscripcionComponent </text>
</g>
<!-- PagoLineaModule&#45;&gt;PagoInscripcionComponent  -->
<g id="edge9" class="edge">
<title>PagoLineaModule&#45;&gt;PagoInscripcionComponent </title>
<path fill="none" stroke="#000000" stroke-dasharray="5,2" d="M1395.0966,-187.1061C1395.0966,-187.1061 1395.0966,-205.991 1395.0966,-205.991"/>
<polygon fill="#000000" stroke="#000000" points="1391.5967,-205.9909 1395.0966,-215.991 1398.5967,-205.991 1391.5967,-205.9909"/>
</g>
<!-- PagoLineaRoutingModule -->
<g id="node6" class="node">
<title>PagoLineaRoutingModule</title>
<polygon fill="#8dd3c7" stroke="#000000" points="2022.0378,-122 2019.0378,-126 1998.0378,-126 1995.0378,-122 1857.9622,-122 1857.9622,-86 2022.0378,-86 2022.0378,-122"/>
<text text-anchor="middle" x="1940" y="-99.8" font-family="Times,serif" font-size="14.00" fill="#000000">PagoLineaRoutingModule</text>
</g>
<!-- PagoLineaRoutingModule&#45;&gt;PagoLineaModule -->
<g id="edge5" class="edge">
<title>PagoLineaRoutingModule&#45;&gt;PagoLineaModule</title>
<path fill="none" stroke="#000000" d="M1940,-122.302C1940,-140.2699 1940,-165 1940,-165 1940,-165 1500.8855,-165 1500.8855,-165"/>
<polygon fill="#000000" stroke="#000000" points="1500.8856,-161.5001 1490.8855,-165 1500.8855,-168.5001 1500.8856,-161.5001"/>
</g>
<!-- SharedModule -->
<g id="node7" class="node">
<title>SharedModule</title>
<polygon fill="#8dd3c7" stroke="#000000" points="1840.4231,-122 1837.4231,-126 1816.4231,-126 1813.4231,-122 1741.5769,-122 1741.5769,-86 1840.4231,-86 1840.4231,-122"/>
<text text-anchor="middle" x="1791" y="-99.8" font-family="Times,serif" font-size="14.00" fill="#000000">SharedModule</text>
</g>
<!-- SharedModule&#45;&gt;PagoLineaModule -->
<g id="edge6" class="edge">
<title>SharedModule&#45;&gt;PagoLineaModule</title>
<path fill="none" stroke="#000000" d="M1791,-122.027C1791,-138.3976 1791,-160 1791,-160 1791,-160 1500.8508,-160 1500.8508,-160"/>
<polygon fill="#000000" stroke="#000000" points="1500.8508,-156.5001 1490.8508,-160 1500.8508,-163.5001 1500.8508,-156.5001"/>
</g>
<!-- ThemeModule -->
<g id="node8" class="node">
<title>ThemeModule</title>
<polygon fill="#8dd3c7" stroke="#000000" points="1724.4231,-122 1721.4231,-126 1700.4231,-126 1697.4231,-122 1625.5769,-122 1625.5769,-86 1724.4231,-86 1724.4231,-122"/>
<text text-anchor="middle" x="1675" y="-99.8" font-family="Times,serif" font-size="14.00" fill="#000000">ThemeModule</text>
</g>
<!-- ThemeModule&#45;&gt;PagoLineaModule -->
<g id="edge7" class="edge">
<title>ThemeModule&#45;&gt;PagoLineaModule</title>
<path fill="none" stroke="#000000" d="M1675,-122.1871C1675,-137.1824 1675,-156 1675,-156 1675,-156 1501.0016,-156 1501.0016,-156"/>
<polygon fill="#000000" stroke="#000000" points="1501.0017,-152.5001 1491.0016,-156 1501.0016,-159.5001 1501.0017,-152.5001"/>
</g>
<!-- CampusMidService -->
<g id="node11" class="node">
<title>CampusMidService</title>
<ellipse fill="#fdb462" stroke="#000000" cx="1514" cy="-104" rx="87.98" ry="18"/>
<text text-anchor="middle" x="1514" y="-99.8" font-family="Times,serif" font-size="14.00" fill="#000000">CampusMidService</text>
</g>
<!-- CampusMidService&#45;&gt;PagoLineaModule -->
<g id="edge10" class="edge">
<title>CampusMidService&#45;&gt;PagoLineaModule</title>
<path fill="none" stroke="#000000" d="M1458.485,-118.104C1458.485,-118.104 1458.485,-140.7209 1458.485,-140.7209"/>
<polygon fill="#000000" stroke="#000000" points="1454.9851,-140.7209 1458.485,-150.7209 1461.9851,-140.7209 1454.9851,-140.7209"/>
</g>
<!-- CoreService -->
<g id="node12" class="node">
<title>CoreService</title>
<ellipse fill="#fdb462" stroke="#000000" cx="1349" cy="-104" rx="58.5251" ry="18"/>
<text text-anchor="middle" x="1349" y="-99.8" font-family="Times,serif" font-size="14.00" fill="#000000">CoreService</text>
</g>
<!-- CoreService&#45;&gt;PagoLineaModule -->
<g id="edge11" class="edge">
<title>CoreService&#45;&gt;PagoLineaModule</title>
<path fill="none" stroke="#000000" d="M1389.5262,-117.1537C1389.5262,-117.1537 1389.5262,-140.6938 1389.5262,-140.6938"/>
<polygon fill="#000000" stroke="#000000" points="1386.0263,-140.6938 1389.5262,-150.6938 1393.0263,-140.6939 1386.0263,-140.6938"/>
</g>
<!-- ImplicitAutenticationService -->
<g id="node13" class="node">
<title>ImplicitAutenticationService</title>
<ellipse fill="#fdb462" stroke="#000000" cx="1149" cy="-104" rx="123.2649" ry="18"/>
<text text-anchor="middle" x="1149" y="-99.8" font-family="Times,serif" font-size="14.00" fill="#000000">ImplicitAutenticationService</text>
</g>
<!-- ImplicitAutenticationService&#45;&gt;PagoLineaModule -->
<g id="edge12" class="edge">
<title>ImplicitAutenticationService&#45;&gt;PagoLineaModule</title>
<path fill="none" stroke="#000000" d="M1257.6147,-112.5867C1257.6147,-127.3562 1257.6147,-156 1257.6147,-156 1257.6147,-156 1360.8449,-156 1360.8449,-156"/>
<polygon fill="#000000" stroke="#000000" points="1360.8449,-159.5001 1370.8449,-156 1360.8448,-152.5001 1360.8449,-159.5001"/>
</g>
<!-- InscripcionService -->
<g id="node14" class="node">
<title>InscripcionService</title>
<ellipse fill="#fdb462" stroke="#000000" cx="924" cy="-104" rx="83.3635" ry="18"/>
<text text-anchor="middle" x="924" y="-99.8" font-family="Times,serif" font-size="14.00" fill="#000000">InscripcionService</text>
</g>
<!-- InscripcionService&#45;&gt;PagoLineaModule -->
<g id="edge13" class="edge">
<title>InscripcionService&#45;&gt;PagoLineaModule</title>
<path fill="none" stroke="#000000" d="M924,-122.027C924,-138.3976 924,-160 924,-160 924,-160 1360.8495,-160 1360.8495,-160"/>
<polygon fill="#000000" stroke="#000000" points="1360.8495,-163.5001 1370.8495,-160 1360.8495,-156.5001 1360.8495,-163.5001"/>
</g>
<!-- NuxeoService -->
<g id="node15" class="node">
<title>NuxeoService</title>
<ellipse fill="#fdb462" stroke="#000000" cx="757" cy="-104" rx="65.9716" ry="18"/>
<text text-anchor="middle" x="757" y="-99.8" font-family="Times,serif" font-size="14.00" fill="#000000">NuxeoService</text>
</g>
<!-- NuxeoService&#45;&gt;PagoLineaModule -->
<g id="edge14" class="edge">
<title>NuxeoService&#45;&gt;PagoLineaModule</title>
<path fill="none" stroke="#000000" d="M757,-122.302C757,-140.2699 757,-165 757,-165 757,-165 1361.187,-165 1361.187,-165"/>
<polygon fill="#000000" stroke="#000000" points="1361.187,-168.5001 1371.187,-165 1361.187,-161.5001 1361.187,-168.5001"/>
</g>
<!-- PagoService -->
<g id="node16" class="node">
<title>PagoService</title>
<ellipse fill="#fdb462" stroke="#000000" cx="614" cy="-104" rx="59.1083" ry="18"/>
<text text-anchor="middle" x="614" y="-99.8" font-family="Times,serif" font-size="14.00" fill="#000000">PagoService</text>
</g>
<!-- PagoService&#45;&gt;PagoLineaModule -->
<g id="edge15" class="edge">
<title>PagoService&#45;&gt;PagoLineaModule</title>
<path fill="none" stroke="#000000" d="M614,-122.1061C614,-141.3391 614,-169 614,-169 614,-169 1361.255,-169 1361.255,-169"/>
<polygon fill="#000000" stroke="#000000" points="1361.2551,-172.5001 1371.255,-169 1361.255,-165.5001 1361.2551,-172.5001"/>
</g>
<!-- PersonaService -->
<g id="node17" class="node">
<title>PersonaService</title>
<ellipse fill="#fdb462" stroke="#000000" cx="466" cy="-104" rx="70.622" ry="18"/>
<text text-anchor="middle" x="466" y="-99.8" font-family="Times,serif" font-size="14.00" fill="#000000">PersonaService</text>
</g>
<!-- PersonaService&#45;&gt;PagoLineaModule -->
<g id="edge16" class="edge">
<title>PersonaService&#45;&gt;PagoLineaModule</title>
<path fill="none" stroke="#000000" d="M466,-122.0267C466,-142.7672 466,-174 466,-174 466,-174 1360.9995,-174 1360.9995,-174"/>
<polygon fill="#000000" stroke="#000000" points="1360.9996,-177.5001 1370.9995,-174 1360.9995,-170.5001 1360.9996,-177.5001"/>
</g>
<!-- ProgramaOikosService -->
<g id="node18" class="node">
<title>ProgramaOikosService</title>
<ellipse fill="#fdb462" stroke="#000000" cx="277" cy="-104" rx="100.6998" ry="18"/>
<text text-anchor="middle" x="277" y="-99.8" font-family="Times,serif" font-size="14.00" fill="#000000">ProgramaOikosService</text>
</g>
<!-- ProgramaOikosService&#45;&gt;PagoLineaModule -->
<g id="edge17" class="edge">
<title>ProgramaOikosService&#45;&gt;PagoLineaModule</title>
<path fill="none" stroke="#000000" d="M277,-122.2921C277,-144.2057 277,-178 277,-178 277,-178 1360.984,-178 1360.984,-178"/>
<polygon fill="#000000" stroke="#000000" points="1360.984,-181.5001 1370.984,-178 1360.9839,-174.5001 1360.984,-181.5001"/>
</g>
<!-- ReciboService -->
<g id="node19" class="node">
<title>ReciboService</title>
<ellipse fill="#fdb462" stroke="#000000" cx="91" cy="-104" rx="67.1927" ry="18"/>
<text text-anchor="middle" x="91" y="-99.8" font-family="Times,serif" font-size="14.00" fill="#000000">ReciboService</text>
</g>
<!-- ReciboService&#45;&gt;PagoLineaModule -->
<g id="edge18" class="edge">
<title>ReciboService&#45;&gt;PagoLineaModule</title>
<path fill="none" stroke="#000000" d="M91,-122.3228C91,-145.6602 91,-183 91,-183 91,-183 1361.257,-183 1361.257,-183"/>
<polygon fill="#000000" stroke="#000000" points="1361.2571,-186.5001 1371.257,-183 1361.257,-179.5001 1361.2571,-186.5001"/>
</g>
</g>
</svg>
