<?xml version="1.0" encoding="UTF-8" standalone="no"?>
<!DOCTYPE svg PUBLIC "-//W3C//DTD SVG 1.1//EN"
 "http://www.w3.org/Graphics/SVG/1.1/DTD/svg11.dtd">
<!-- Generated by graphviz version 2.40.1 (20161225.0304)
 -->
<!-- Title: dependencies Pages: 1 -->
<svg width="2878pt" height="284pt"
 viewBox="0.00 0.00 2878.00 284.00" xmlns="http://www.w3.org/2000/svg" xmlns:xlink="http://www.w3.org/1999/xlink">
<g id="graph0" class="graph" transform="scale(1 1) rotate(0) translate(4 280)">
<title>dependencies</title>
<polygon fill="#ffffff" stroke="transparent" points="-4,4 -4,-280 2874,-280 2874,4 -4,4"/>
<text text-anchor="start" x="1414.0091" y="-42.4" font-family="sans-serif" font-weight="bold" font-size="14.00" fill="#000000">Legend</text>
<polygon fill="#ffffb3" stroke="transparent" points="1201,-10 1201,-30 1221,-30 1221,-10 1201,-10"/>
<text text-anchor="start" x="1224.629" y="-15.4" font-family="sans-serif" font-size="14.00" fill="#000000"> &#160;Declarations</text>
<polygon fill="#8dd3c7" stroke="transparent" points="1314,-10 1314,-30 1334,-30 1334,-10 1314,-10"/>
<text text-anchor="start" x="1337.7251" y="-15.4" font-family="sans-serif" font-size="14.00" fill="#000000"> &#160;Module</text>
<polygon fill="#80b1d3" stroke="transparent" points="1400,-10 1400,-30 1420,-30 1420,-10 1400,-10"/>
<text text-anchor="start" x="1423.7812" y="-15.4" font-family="sans-serif" font-size="14.00" fill="#000000"> &#160;Bootstrap</text>
<polygon fill="#fdb462" stroke="transparent" points="1497,-10 1497,-30 1517,-30 1517,-10 1497,-10"/>
<text text-anchor="start" x="1520.6732" y="-15.4" font-family="sans-serif" font-size="14.00" fill="#000000"> &#160;Providers</text>
<polygon fill="#fb8072" stroke="transparent" points="1593,-10 1593,-30 1613,-30 1613,-10 1593,-10"/>
<text text-anchor="start" x="1616.7258" y="-15.4" font-family="sans-serif" font-size="14.00" fill="#000000"> &#160;Exports</text>
<g id="clust1" class="cluster">
<title>cluster_DescuentoAcademicoModule</title>
<polygon fill="none" stroke="#000000" stroke-dasharray="1,5" points="8,-70 8,-268 2862,-268 2862,-70 8,-70"/>
</g>
<g id="clust2" class="cluster">
<title>cluster_DescuentoAcademicoModule_declarations</title>
<polygon fill="none" stroke="#000000" points="1888,-78 1888,-130 2854,-130 2854,-78 1888,-78"/>
</g>
<g id="clust7" class="cluster">
<title>cluster_DescuentoAcademicoModule_imports</title>
<polygon fill="none" stroke="#000000" points="1404,-78 1404,-130 1880,-130 1880,-78 1404,-78"/>
</g>
<g id="clust8" class="cluster">
<title>cluster_DescuentoAcademicoModule_exports</title>
<polygon fill="none" stroke="#000000" points="1001,-208 1001,-260 1757,-260 1757,-208 1001,-208"/>
</g>
<g id="clust10" class="cluster">
<title>cluster_DescuentoAcademicoModule_providers</title>
<polygon fill="none" stroke="#000000" points="16,-78 16,-130 1396,-130 1396,-78 16,-78"/>
</g>
<!-- CrudDescuentoAcademicoComponent -->
<g id="node1" class="node">
<title>CrudDescuentoAcademicoComponent</title>
<polygon fill="#ffffb3" stroke="#000000" points="2846.1615,-122 2613.8385,-122 2613.8385,-86 2846.1615,-86 2846.1615,-122"/>
<text text-anchor="middle" x="2730" y="-99.8" font-family="Times,serif" font-size="14.00" fill="#000000">CrudDescuentoAcademicoComponent</text>
</g>
<!-- DescuentoAcademicoModule -->
<g id="node5" class="node">
<title>DescuentoAcademicoModule</title>
<polygon fill="#8dd3c7" stroke="#000000" points="1471.382,-187 1468.382,-191 1447.382,-191 1444.382,-187 1288.618,-187 1288.618,-151 1471.382,-151 1471.382,-187"/>
<text text-anchor="middle" x="1380" y="-164.8" font-family="Times,serif" font-size="14.00" fill="#000000">DescuentoAcademicoModule</text>
</g>
<!-- CrudDescuentoAcademicoComponent&#45;&gt;DescuentoAcademicoModule -->
<g id="edge1" class="edge">
<title>CrudDescuentoAcademicoComponent&#45;&gt;DescuentoAcademicoModule</title>
<path fill="none" stroke="#000000" d="M2730,-122.2921C2730,-144.2057 2730,-178 2730,-178 2730,-178 1481.2009,-178 1481.2009,-178"/>
<polygon fill="#000000" stroke="#000000" points="1481.201,-174.5001 1471.2009,-178 1481.2009,-181.5001 1481.201,-174.5001"/>
</g>
<!-- DescuentoAcademicoComponent -->
<g id="node2" class="node">
<title>DescuentoAcademicoComponent</title>
<polygon fill="#ffffb3" stroke="#000000" points="2596.1643,-122 2391.8357,-122 2391.8357,-86 2596.1643,-86 2596.1643,-122"/>
<text text-anchor="middle" x="2494" y="-99.8" font-family="Times,serif" font-size="14.00" fill="#000000">DescuentoAcademicoComponent</text>
</g>
<!-- DescuentoAcademicoComponent&#45;&gt;DescuentoAcademicoModule -->
<g id="edge2" class="edge">
<title>DescuentoAcademicoComponent&#45;&gt;DescuentoAcademicoModule</title>
<path fill="none" stroke="#000000" d="M2494,-122.0267C2494,-142.7672 2494,-174 2494,-174 2494,-174 1481.6367,-174 1481.6367,-174"/>
<polygon fill="#000000" stroke="#000000" points="1481.6367,-170.5001 1471.6367,-174 1481.6366,-177.5001 1481.6367,-170.5001"/>
</g>
<!-- ListDescuentoAcademicoComponent -->
<g id="node3" class="node">
<title>ListDescuentoAcademicoComponent</title>
<polygon fill="#ffffb3" stroke="#000000" points="2373.9426,-122 2148.0574,-122 2148.0574,-86 2373.9426,-86 2373.9426,-122"/>
<text text-anchor="middle" x="2261" y="-99.8" font-family="Times,serif" font-size="14.00" fill="#000000">ListDescuentoAcademicoComponent</text>
</g>
<!-- ListDescuentoAcademicoComponent&#45;&gt;DescuentoAcademicoModule -->
<g id="edge3" class="edge">
<title>ListDescuentoAcademicoComponent&#45;&gt;DescuentoAcademicoModule</title>
<path fill="none" stroke="#000000" d="M2261,-122.1061C2261,-141.3391 2261,-169 2261,-169 2261,-169 1481.3764,-169 1481.3764,-169"/>
<polygon fill="#000000" stroke="#000000" points="1481.3764,-165.5001 1471.3764,-169 1481.3763,-172.5001 1481.3764,-165.5001"/>
</g>
<!-- ViewDescuentoAcademicoComponent -->
<g id="node4" class="node">
<title>ViewDescuentoAcademicoComponent</title>
<polygon fill="#ffffb3" stroke="#000000" points="2130.4831,-122 1895.5169,-122 1895.5169,-86 2130.4831,-86 2130.4831,-122"/>
<text text-anchor="middle" x="2013" y="-99.8" font-family="Times,serif" font-size="14.00" fill="#000000">ViewDescuentoAcademicoComponent</text>
</g>
<!-- ViewDescuentoAcademicoComponent&#45;&gt;DescuentoAcademicoModule -->
<g id="edge4" class="edge">
<title>ViewDescuentoAcademicoComponent&#45;&gt;DescuentoAcademicoModule</title>
<path fill="none" stroke="#000000" d="M2013,-122.302C2013,-140.2699 2013,-165 2013,-165 2013,-165 1481.3676,-165 1481.3676,-165"/>
<polygon fill="#000000" stroke="#000000" points="1481.3676,-161.5001 1471.3676,-165 1481.3676,-168.5001 1481.3676,-161.5001"/>
</g>
<!-- CrudDescuentoAcademicoComponent  -->
<g id="node9" class="node">
<title>CrudDescuentoAcademicoComponent </title>
<polygon fill="#fb8072" stroke="#000000" points="1748.6616,-252 1513.3384,-252 1513.3384,-216 1748.6616,-216 1748.6616,-252"/>
<text text-anchor="middle" x="1631" y="-229.8" font-family="Times,serif" font-size="14.00" fill="#000000">CrudDescuentoAcademicoComponent </text>
</g>
<!-- DescuentoAcademicoModule&#45;&gt;CrudDescuentoAcademicoComponent  -->
<g id="edge8" class="edge">
<title>DescuentoAcademicoModule&#45;&gt;CrudDescuentoAcademicoComponent </title>
<path fill="none" stroke="#000000" stroke-dasharray="5,2" d="M1471.3463,-183C1498.1777,-183 1520.4791,-183 1520.4791,-183 1520.4791,-183 1520.4791,-205.8757 1520.4791,-205.8757"/>
<polygon fill="#000000" stroke="#000000" points="1516.9792,-205.8757 1520.4791,-215.8757 1523.9792,-205.8757 1516.9792,-205.8757"/>
</g>
<!-- ListDescuentoAcademicoComponent  -->
<g id="node10" class="node">
<title>ListDescuentoAcademicoComponent </title>
<polygon fill="#fb8072" stroke="#000000" points="1494.943,-252 1265.057,-252 1265.057,-216 1494.943,-216 1494.943,-252"/>
<text text-anchor="middle" x="1380" y="-229.8" font-family="Times,serif" font-size="14.00" fill="#000000">ListDescuentoAcademicoComponent </text>
</g>
<!-- DescuentoAcademicoModule&#45;&gt;ListDescuentoAcademicoComponent  -->
<g id="edge9" class="edge">
<title>DescuentoAcademicoModule&#45;&gt;ListDescuentoAcademicoComponent </title>
<path fill="none" stroke="#000000" stroke-dasharray="5,2" d="M1380,-187.1061C1380,-187.1061 1380,-205.991 1380,-205.991"/>
<polygon fill="#000000" stroke="#000000" points="1376.5001,-205.9909 1380,-215.991 1383.5001,-205.991 1376.5001,-205.9909"/>
</g>
<!-- ViewDescuentoAcademicoComponent  -->
<g id="node11" class="node">
<title>ViewDescuentoAcademicoComponent </title>
<polygon fill="#fb8072" stroke="#000000" points="1246.9826,-252 1009.0174,-252 1009.0174,-216 1246.9826,-216 1246.9826,-252"/>
<text text-anchor="middle" x="1128" y="-229.8" font-family="Times,serif" font-size="14.00" fill="#000000">ViewDescuentoAcademicoComponent </text>
</g>
<!-- DescuentoAcademicoModule&#45;&gt;ViewDescuentoAcademicoComponent  -->
<g id="edge10" class="edge">
<title>DescuentoAcademicoModule&#45;&gt;ViewDescuentoAcademicoComponent </title>
<path fill="none" stroke="#000000" stroke-dasharray="5,2" d="M1288.6261,-183C1257.1378,-183 1229.6258,-183 1229.6258,-183 1229.6258,-183 1229.6258,-205.8757 1229.6258,-205.8757"/>
<polygon fill="#000000" stroke="#000000" points="1226.1259,-205.8757 1229.6258,-215.8757 1233.1259,-205.8757 1226.1259,-205.8757"/>
</g>
<!-- DescuentoAcademicoRoutingModule -->
<g id="node6" class="node">
<title>DescuentoAcademicoRoutingModule</title>
<polygon fill="#8dd3c7" stroke="#000000" points="1871.9999,-122 1868.9999,-126 1847.9999,-126 1844.9999,-122 1644.0001,-122 1644.0001,-86 1871.9999,-86 1871.9999,-122"/>
<text text-anchor="middle" x="1758" y="-99.8" font-family="Times,serif" font-size="14.00" fill="#000000">DescuentoAcademicoRoutingModule</text>
</g>
<!-- DescuentoAcademicoRoutingModule&#45;&gt;DescuentoAcademicoModule -->
<g id="edge5" class="edge">
<title>DescuentoAcademicoRoutingModule&#45;&gt;DescuentoAcademicoModule</title>
<path fill="none" stroke="#000000" d="M1696.5405,-122.027C1696.5405,-138.3976 1696.5405,-160 1696.5405,-160 1696.5405,-160 1481.5566,-160 1481.5566,-160"/>
<polygon fill="#000000" stroke="#000000" points="1481.5567,-156.5001 1471.5566,-160 1481.5566,-163.5001 1481.5567,-156.5001"/>
</g>
<!-- SharedModule -->
<g id="node7" class="node">
<title>SharedModule</title>
<polygon fill="#8dd3c7" stroke="#000000" points="1626.4231,-122 1623.4231,-126 1602.4231,-126 1599.4231,-122 1527.5769,-122 1527.5769,-86 1626.4231,-86 1626.4231,-122"/>
<text text-anchor="middle" x="1577" y="-99.8" font-family="Times,serif" font-size="14.00" fill="#000000">SharedModule</text>
</g>
<!-- SharedModule&#45;&gt;DescuentoAcademicoModule -->
<g id="edge6" class="edge">
<title>SharedModule&#45;&gt;DescuentoAcademicoModule</title>
<path fill="none" stroke="#000000" d="M1577,-122.1871C1577,-137.1824 1577,-156 1577,-156 1577,-156 1481.2914,-156 1481.2914,-156"/>
<polygon fill="#000000" stroke="#000000" points="1481.2914,-152.5001 1471.2914,-156 1481.2913,-159.5001 1481.2914,-152.5001"/>
</g>
<!-- ThemeModule -->
<g id="node8" class="node">
<title>ThemeModule</title>
<polygon fill="#8dd3c7" stroke="#000000" points="1510.4231,-122 1507.4231,-126 1486.4231,-126 1483.4231,-122 1411.5769,-122 1411.5769,-86 1510.4231,-86 1510.4231,-122"/>
<text text-anchor="middle" x="1461" y="-99.8" font-family="Times,serif" font-size="14.00" fill="#000000">ThemeModule</text>
</g>
<!-- ThemeModule&#45;&gt;DescuentoAcademicoModule -->
<g id="edge7" class="edge">
<title>ThemeModule&#45;&gt;DescuentoAcademicoModule</title>
<path fill="none" stroke="#000000" d="M1441.4899,-122.1061C1441.4899,-122.1061 1441.4899,-140.991 1441.4899,-140.991"/>
<polygon fill="#000000" stroke="#000000" points="1437.9899,-140.9909 1441.4899,-150.991 1444.9899,-140.991 1437.9899,-140.9909"/>
</g>
<!-- CampusMidService -->
<g id="node12" class="node">
<title>CampusMidService</title>
<ellipse fill="#fdb462" stroke="#000000" cx="1300" cy="-104" rx="87.98" ry="18"/>
<text text-anchor="middle" x="1300" y="-99.8" font-family="Times,serif" font-size="14.00" fill="#000000">CampusMidService</text>
</g>
<!-- CampusMidService&#45;&gt;DescuentoAcademicoModule -->
<g id="edge11" class="edge">
<title>CampusMidService&#45;&gt;DescuentoAcademicoModule</title>
<path fill="none" stroke="#000000" d="M1338.2744,-120.4022C1338.2744,-120.4022 1338.2744,-140.5366 1338.2744,-140.5366"/>
<polygon fill="#000000" stroke="#000000" points="1334.7745,-140.5366 1338.2744,-150.5366 1341.7745,-140.5367 1334.7745,-140.5366"/>
</g>
<!-- DescuentoAcademicoService -->
<g id="node13" class="node">
<title>DescuentoAcademicoService</title>
<ellipse fill="#fdb462" stroke="#000000" cx="1070" cy="-104" rx="124.9384" ry="18"/>
<text text-anchor="middle" x="1070" y="-99.8" font-family="Times,serif" font-size="14.00" fill="#000000">DescuentoAcademicoService</text>
</g>
<!-- DescuentoAcademicoService&#45;&gt;DescuentoAcademicoModule -->
<g id="edge12" class="edge">
<title>DescuentoAcademicoService&#45;&gt;DescuentoAcademicoModule</title>
<path fill="none" stroke="#000000" d="M1101.8639,-121.6048C1101.8639,-136.6904 1101.8639,-156 1101.8639,-156 1101.8639,-156 1278.5426,-156 1278.5426,-156"/>
<polygon fill="#000000" stroke="#000000" points="1278.5426,-159.5001 1288.5426,-156 1278.5426,-152.5001 1278.5426,-159.5001"/>
</g>
<!-- DocumentoService -->
<g id="node14" class="node">
<title>DocumentoService</title>
<ellipse fill="#fdb462" stroke="#000000" cx="842" cy="-104" rx="85.0928" ry="18"/>
<text text-anchor="middle" x="842" y="-99.8" font-family="Times,serif" font-size="14.00" fill="#000000">DocumentoService</text>
</g>
<!-- DocumentoService&#45;&gt;DescuentoAcademicoModule -->
<g id="edge13" class="edge">
<title>DocumentoService&#45;&gt;DescuentoAcademicoModule</title>
<path fill="none" stroke="#000000" d="M842,-122.027C842,-138.3976 842,-160 842,-160 842,-160 1278.7356,-160 1278.7356,-160"/>
<polygon fill="#000000" stroke="#000000" points="1278.7357,-163.5001 1288.7356,-160 1278.7356,-156.5001 1278.7357,-163.5001"/>
</g>
<!-- ImplicitAutenticationService -->
<g id="node15" class="node">
<title>ImplicitAutenticationService</title>
<ellipse fill="#fdb462" stroke="#000000" cx="616" cy="-104" rx="123.2649" ry="18"/>
<text text-anchor="middle" x="616" y="-99.8" font-family="Times,serif" font-size="14.00" fill="#000000">ImplicitAutenticationService</text>
</g>
<!-- ImplicitAutenticationService&#45;&gt;DescuentoAcademicoModule -->
<g id="edge14" class="edge">
<title>ImplicitAutenticationService&#45;&gt;DescuentoAcademicoModule</title>
<path fill="none" stroke="#000000" d="M616,-122.302C616,-140.2699 616,-165 616,-165 616,-165 1278.6026,-165 1278.6026,-165"/>
<polygon fill="#000000" stroke="#000000" points="1278.6026,-168.5001 1288.6026,-165 1278.6026,-161.5001 1278.6026,-168.5001"/>
</g>
<!-- InscripcionService -->
<g id="node16" class="node">
<title>InscripcionService</title>
<ellipse fill="#fdb462" stroke="#000000" cx="391" cy="-104" rx="83.3635" ry="18"/>
<text text-anchor="middle" x="391" y="-99.8" font-family="Times,serif" font-size="14.00" fill="#000000">InscripcionService</text>
</g>
<!-- InscripcionService&#45;&gt;DescuentoAcademicoModule -->
<g id="edge15" class="edge">
<title>InscripcionService&#45;&gt;DescuentoAcademicoModule</title>
<path fill="none" stroke="#000000" d="M391,-122.1061C391,-141.3391 391,-169 391,-169 391,-169 1278.73,-169 1278.73,-169"/>
<polygon fill="#000000" stroke="#000000" points="1278.73,-172.5001 1288.73,-169 1278.7299,-165.5001 1278.73,-172.5001"/>
</g>
<!-- NuxeoService -->
<g id="node17" class="node">
<title>NuxeoService</title>
<ellipse fill="#fdb462" stroke="#000000" cx="224" cy="-104" rx="65.9716" ry="18"/>
<text text-anchor="middle" x="224" y="-99.8" font-family="Times,serif" font-size="14.00" fill="#000000">NuxeoService</text>
</g>
<!-- NuxeoService&#45;&gt;DescuentoAcademicoModule -->
<g id="edge16" class="edge">
<title>NuxeoService&#45;&gt;DescuentoAcademicoModule</title>
<path fill="none" stroke="#000000" d="M224,-122.0267C224,-142.7672 224,-174 224,-174 224,-174 1278.808,-174 1278.808,-174"/>
<polygon fill="#000000" stroke="#000000" points="1278.8081,-177.5001 1288.808,-174 1278.808,-170.5001 1278.8081,-177.5001"/>
</g>
<!-- UserService -->
<g id="node18" class="node">
<title>UserService</title>
<ellipse fill="#fdb462" stroke="#000000" cx="82" cy="-104" rx="58.4415" ry="18"/>
<text text-anchor="middle" x="82" y="-99.8" font-family="Times,serif" font-size="14.00" fill="#000000">UserService</text>
</g>
<!-- UserService&#45;&gt;DescuentoAcademicoModule -->
<g id="edge17" class="edge">
<title>UserService&#45;&gt;DescuentoAcademicoModule</title>
<path fill="none" stroke="#000000" d="M82,-122.2921C82,-144.2057 82,-178 82,-178 82,-178 1278.7272,-178 1278.7272,-178"/>
<polygon fill="#000000" stroke="#000000" points="1278.7272,-181.5001 1288.7272,-178 1278.7271,-174.5001 1278.7272,-181.5001"/>
</g>
</g>
</svg>
