<?xml version="1.0" encoding="UTF-8" standalone="no"?>
<!DOCTYPE svg PUBLIC "-//W3C//DTD SVG 1.1//EN"
 "http://www.w3.org/Graphics/SVG/1.1/DTD/svg11.dtd">
<!-- Generated by graphviz version 2.40.1 (20161225.0304)
 -->
<!-- Title: dependencies Pages: 1 -->
<svg width="2022pt" height="284pt"
 viewBox="0.00 0.00 2022.00 284.00" xmlns="http://www.w3.org/2000/svg" xmlns:xlink="http://www.w3.org/1999/xlink">
<g id="graph0" class="graph" transform="scale(1 1) rotate(0) translate(4 280)">
<title>dependencies</title>
<polygon fill="#ffffff" stroke="transparent" points="-4,4 -4,-280 2018,-280 2018,4 -4,4"/>
<text text-anchor="start" x="986.0091" y="-42.4" font-family="sans-serif" font-weight="bold" font-size="14.00" fill="#000000">Legend</text>
<polygon fill="#ffffb3" stroke="transparent" points="773,-10 773,-30 793,-30 793,-10 773,-10"/>
<text text-anchor="start" x="796.629" y="-15.4" font-family="sans-serif" font-size="14.00" fill="#000000"> &#160;Declarations</text>
<polygon fill="#8dd3c7" stroke="transparent" points="886,-10 886,-30 906,-30 906,-10 886,-10"/>
<text text-anchor="start" x="909.7251" y="-15.4" font-family="sans-serif" font-size="14.00" fill="#000000"> &#160;Module</text>
<polygon fill="#80b1d3" stroke="transparent" points="972,-10 972,-30 992,-30 992,-10 972,-10"/>
<text text-anchor="start" x="995.7812" y="-15.4" font-family="sans-serif" font-size="14.00" fill="#000000"> &#160;Bootstrap</text>
<polygon fill="#fdb462" stroke="transparent" points="1069,-10 1069,-30 1089,-30 1089,-10 1069,-10"/>
<text text-anchor="start" x="1092.6732" y="-15.4" font-family="sans-serif" font-size="14.00" fill="#000000"> &#160;Providers</text>
<polygon fill="#fb8072" stroke="transparent" points="1165,-10 1165,-30 1185,-30 1185,-10 1165,-10"/>
<text text-anchor="start" x="1188.7258" y="-15.4" font-family="sans-serif" font-size="14.00" fill="#000000"> &#160;Exports</text>
<g id="clust1" class="cluster">
<title>cluster_ExperienciaLaboralModule</title>
<polygon fill="none" stroke="#000000" stroke-dasharray="1,5" points="8,-70 8,-268 2006,-268 2006,-70 8,-70"/>
</g>
<g id="clust2" class="cluster">
<title>cluster_ExperienciaLaboralModule_declarations</title>
<polygon fill="none" stroke="#000000" points="1080,-78 1080,-130 1998,-130 1998,-78 1080,-78"/>
</g>
<g id="clust7" class="cluster">
<title>cluster_ExperienciaLaboralModule_imports</title>
<polygon fill="none" stroke="#000000" points="608,-78 608,-130 1072,-130 1072,-78 608,-78"/>
</g>
<g id="clust8" class="cluster">
<title>cluster_ExperienciaLaboralModule_exports</title>
<polygon fill="none" stroke="#000000" points="508,-208 508,-260 1226,-260 1226,-208 508,-208"/>
</g>
<g id="clust10" class="cluster">
<title>cluster_ExperienciaLaboralModule_providers</title>
<polygon fill="none" stroke="#000000" points="16,-78 16,-130 600,-130 600,-78 16,-78"/>
</g>
<!-- CrudExperienciaLaboralComponent -->
<g id="node1" class="node">
<title>CrudExperienciaLaboralComponent</title>
<polygon fill="#ffffb3" stroke="#000000" points="1989.7156,-122 1770.2844,-122 1770.2844,-86 1989.7156,-86 1989.7156,-122"/>
<text text-anchor="middle" x="1880" y="-99.8" font-family="Times,serif" font-size="14.00" fill="#000000">CrudExperienciaLaboralComponent</text>
</g>
<!-- ExperienciaLaboralModule -->
<g id="node5" class="node">
<title>ExperienciaLaboralModule</title>
<polygon fill="#8dd3c7" stroke="#000000" points="952.9356,-187 949.9356,-191 928.9356,-191 925.9356,-187 783.0644,-187 783.0644,-151 952.9356,-151 952.9356,-187"/>
<text text-anchor="middle" x="868" y="-164.8" font-family="Times,serif" font-size="14.00" fill="#000000">ExperienciaLaboralModule</text>
</g>
<!-- CrudExperienciaLaboralComponent&#45;&gt;ExperienciaLaboralModule -->
<g id="edge1" class="edge">
<title>CrudExperienciaLaboralComponent&#45;&gt;ExperienciaLaboralModule</title>
<path fill="none" stroke="#000000" d="M1880,-122.2843C1880,-143.3211 1880,-175 1880,-175 1880,-175 962.9757,-175 962.9757,-175"/>
<polygon fill="#000000" stroke="#000000" points="962.9757,-171.5001 952.9757,-175 962.9756,-178.5001 962.9757,-171.5001"/>
</g>
<!-- ExperienciaLaboralComponent -->
<g id="node2" class="node">
<title>ExperienciaLaboralComponent</title>
<polygon fill="#ffffb3" stroke="#000000" points="1751.7184,-122 1560.2816,-122 1560.2816,-86 1751.7184,-86 1751.7184,-122"/>
<text text-anchor="middle" x="1656" y="-99.8" font-family="Times,serif" font-size="14.00" fill="#000000">ExperienciaLaboralComponent</text>
</g>
<!-- ExperienciaLaboralComponent&#45;&gt;ExperienciaLaboralModule -->
<g id="edge2" class="edge">
<title>ExperienciaLaboralComponent&#45;&gt;ExperienciaLaboralModule</title>
<path fill="none" stroke="#000000" d="M1656,-122.1061C1656,-141.3391 1656,-169 1656,-169 1656,-169 963.0785,-169 963.0785,-169"/>
<polygon fill="#000000" stroke="#000000" points="963.0785,-165.5001 953.0785,-169 963.0785,-172.5001 963.0785,-165.5001"/>
</g>
<!-- ListExperienciaLaboralComponent -->
<g id="node3" class="node">
<title>ListExperienciaLaboralComponent</title>
<polygon fill="#ffffb3" stroke="#000000" points="1541.9972,-122 1328.0028,-122 1328.0028,-86 1541.9972,-86 1541.9972,-122"/>
<text text-anchor="middle" x="1435" y="-99.8" font-family="Times,serif" font-size="14.00" fill="#000000">ListExperienciaLaboralComponent</text>
</g>
<!-- ListExperienciaLaboralComponent&#45;&gt;ExperienciaLaboralModule -->
<g id="edge3" class="edge">
<title>ListExperienciaLaboralComponent&#45;&gt;ExperienciaLaboralModule</title>
<path fill="none" stroke="#000000" d="M1435,-122.0225C1435,-139.3734 1435,-163 1435,-163 1435,-163 963.1924,-163 963.1924,-163"/>
<polygon fill="#000000" stroke="#000000" points="963.1924,-159.5001 953.1924,-163 963.1923,-166.5001 963.1924,-159.5001"/>
</g>
<!-- ViewExperienciaLaboralComponent -->
<g id="node4" class="node">
<title>ViewExperienciaLaboralComponent</title>
<polygon fill="#ffffb3" stroke="#000000" points="1310.0366,-122 1087.9634,-122 1087.9634,-86 1310.0366,-86 1310.0366,-122"/>
<text text-anchor="middle" x="1199" y="-99.8" font-family="Times,serif" font-size="14.00" fill="#000000">ViewExperienciaLaboralComponent</text>
</g>
<!-- ViewExperienciaLaboralComponent&#45;&gt;ExperienciaLaboralModule -->
<g id="edge4" class="edge">
<title>ViewExperienciaLaboralComponent&#45;&gt;ExperienciaLaboralModule</title>
<path fill="none" stroke="#000000" d="M1152.7947,-122.2396C1152.7947,-137.5706 1152.7947,-157 1152.7947,-157 1152.7947,-157 963.062,-157 963.062,-157"/>
<polygon fill="#000000" stroke="#000000" points="963.0621,-153.5001 953.062,-157 963.062,-160.5001 963.0621,-153.5001"/>
</g>
<!-- CrudExperienciaLaboralComponent  -->
<g id="node9" class="node">
<title>CrudExperienciaLaboralComponent </title>
<polygon fill="#fb8072" stroke="#000000" points="1217.7155,-252 994.2845,-252 994.2845,-216 1217.7155,-216 1217.7155,-252"/>
<text text-anchor="middle" x="1106" y="-229.8" font-family="Times,serif" font-size="14.00" fill="#000000">CrudExperienciaLaboralComponent </text>
</g>
<!-- ExperienciaLaboralModule&#45;&gt;CrudExperienciaLaboralComponent  -->
<g id="edge8" class="edge">
<title>ExperienciaLaboralModule&#45;&gt;CrudExperienciaLaboralComponent </title>
<path fill="none" stroke="#000000" stroke-dasharray="5,2" d="M953.193,-181C991.802,-181 1028.9595,-181 1028.9595,-181 1028.9595,-181 1028.9595,-205.7604 1028.9595,-205.7604"/>
<polygon fill="#000000" stroke="#000000" points="1025.4596,-205.7604 1028.9595,-215.7604 1032.4596,-205.7604 1025.4596,-205.7604"/>
</g>
<!-- ListExperienciaLaboralComponent  -->
<g id="node10" class="node">
<title>ListExperienciaLaboralComponent </title>
<polygon fill="#fb8072" stroke="#000000" points="976.4966,-252 759.5034,-252 759.5034,-216 976.4966,-216 976.4966,-252"/>
<text text-anchor="middle" x="868" y="-229.8" font-family="Times,serif" font-size="14.00" fill="#000000">ListExperienciaLaboralComponent </text>
</g>
<!-- ExperienciaLaboralModule&#45;&gt;ListExperienciaLaboralComponent  -->
<g id="edge9" class="edge">
<title>ExperienciaLaboralModule&#45;&gt;ListExperienciaLaboralComponent </title>
<path fill="none" stroke="#000000" stroke-dasharray="5,2" d="M868,-187.1061C868,-187.1061 868,-205.991 868,-205.991"/>
<polygon fill="#000000" stroke="#000000" points="864.5001,-205.9909 868,-215.991 871.5001,-205.991 864.5001,-205.9909"/>
</g>
<!-- ViewExperienciaLaboralComponent  -->
<g id="node11" class="node">
<title>ViewExperienciaLaboralComponent </title>
<polygon fill="#fb8072" stroke="#000000" points="741.5371,-252 516.4629,-252 516.4629,-216 741.5371,-216 741.5371,-252"/>
<text text-anchor="middle" x="629" y="-229.8" font-family="Times,serif" font-size="14.00" fill="#000000">ViewExperienciaLaboralComponent </text>
</g>
<!-- ExperienciaLaboralModule&#45;&gt;ViewExperienciaLaboralComponent  -->
<g id="edge10" class="edge">
<title>ExperienciaLaboralModule&#45;&gt;ViewExperienciaLaboralComponent </title>
<path fill="none" stroke="#000000" stroke-dasharray="5,2" d="M783.0424,-181C757.8151,-181 736.7786,-181 736.7786,-181 736.7786,-181 736.7786,-205.7604 736.7786,-205.7604"/>
<polygon fill="#000000" stroke="#000000" points="733.2787,-205.7604 736.7786,-215.7604 740.2787,-205.7604 733.2787,-205.7604"/>
</g>
<!-- ExperienciaLaboralRoutingModule -->
<g id="node6" class="node">
<title>ExperienciaLaboralRoutingModule</title>
<polygon fill="#8dd3c7" stroke="#000000" points="1063.5534,-122 1060.5534,-126 1039.5534,-126 1036.5534,-122 848.4466,-122 848.4466,-86 1063.5534,-86 1063.5534,-122"/>
<text text-anchor="middle" x="956" y="-99.8" font-family="Times,serif" font-size="14.00" fill="#000000">ExperienciaLaboralRoutingModule</text>
</g>
<!-- ExperienciaLaboralRoutingModule&#45;&gt;ExperienciaLaboralModule -->
<g id="edge5" class="edge">
<title>ExperienciaLaboralRoutingModule&#45;&gt;ExperienciaLaboralModule</title>
<path fill="none" stroke="#000000" d="M900.7206,-122.1061C900.7206,-122.1061 900.7206,-140.991 900.7206,-140.991"/>
<polygon fill="#000000" stroke="#000000" points="897.2206,-140.9909 900.7206,-150.991 904.2206,-140.991 897.2206,-140.9909"/>
</g>
<!-- SharedModule -->
<g id="node7" class="node">
<title>SharedModule</title>
<polygon fill="#8dd3c7" stroke="#000000" points="830.4231,-122 827.4231,-126 806.4231,-126 803.4231,-122 731.5769,-122 731.5769,-86 830.4231,-86 830.4231,-122"/>
<text text-anchor="middle" x="781" y="-99.8" font-family="Times,serif" font-size="14.00" fill="#000000">SharedModule</text>
</g>
<!-- SharedModule&#45;&gt;ExperienciaLaboralModule -->
<g id="edge6" class="edge">
<title>SharedModule&#45;&gt;ExperienciaLaboralModule</title>
<path fill="none" stroke="#000000" d="M806.6217,-122.1061C806.6217,-122.1061 806.6217,-140.991 806.6217,-140.991"/>
<polygon fill="#000000" stroke="#000000" points="803.1217,-140.9909 806.6217,-150.991 810.1217,-140.991 803.1217,-140.9909"/>
</g>
<!-- ThemeModule -->
<g id="node8" class="node">
<title>ThemeModule</title>
<polygon fill="#8dd3c7" stroke="#000000" points="714.4231,-122 711.4231,-126 690.4231,-126 687.4231,-122 615.5769,-122 615.5769,-86 714.4231,-86 714.4231,-122"/>
<text text-anchor="middle" x="665" y="-99.8" font-family="Times,serif" font-size="14.00" fill="#000000">ThemeModule</text>
</g>
<!-- ThemeModule&#45;&gt;ExperienciaLaboralModule -->
<g id="edge7" class="edge">
<title>ThemeModule&#45;&gt;ExperienciaLaboralModule</title>
<path fill="none" stroke="#000000" d="M665,-122.2396C665,-137.5706 665,-157 665,-157 665,-157 772.7921,-157 772.7921,-157"/>
<polygon fill="#000000" stroke="#000000" points="772.7921,-160.5001 782.7921,-157 772.792,-153.5001 772.7921,-160.5001"/>
</g>
<!-- CampusMidService -->
<g id="node12" class="node">
<title>CampusMidService</title>
<ellipse fill="#fdb462" stroke="#000000" cx="504" cy="-104" rx="87.98" ry="18"/>
<text text-anchor="middle" x="504" y="-99.8" font-family="Times,serif" font-size="14.00" fill="#000000">CampusMidService</text>
</g>
<!-- CampusMidService&#45;&gt;ExperienciaLaboralModule -->
<g id="edge11" class="edge">
<title>CampusMidService&#45;&gt;ExperienciaLaboralModule</title>
<path fill="none" stroke="#000000" d="M553.9857,-118.8882C553.9857,-136.3665 553.9857,-163 553.9857,-163 553.9857,-163 773.0232,-163 773.0232,-163"/>
<polygon fill="#000000" stroke="#000000" points="773.0232,-166.5001 783.0232,-163 773.0232,-159.5001 773.0232,-166.5001"/>
</g>
<!-- ExperienciaService -->
<g id="node13" class="node">
<title>ExperienciaService</title>
<ellipse fill="#fdb462" stroke="#000000" cx="312" cy="-104" rx="86.2116" ry="18"/>
<text text-anchor="middle" x="312" y="-99.8" font-family="Times,serif" font-size="14.00" fill="#000000">ExperienciaService</text>
</g>
<!-- ExperienciaService&#45;&gt;ExperienciaLaboralModule -->
<g id="edge12" class="edge">
<title>ExperienciaService&#45;&gt;ExperienciaLaboralModule</title>
<path fill="none" stroke="#000000" d="M312,-122.1061C312,-141.3391 312,-169 312,-169 312,-169 772.9503,-169 772.9503,-169"/>
<polygon fill="#000000" stroke="#000000" points="772.9504,-172.5001 782.9503,-169 772.9503,-165.5001 772.9504,-172.5001"/>
</g>
<!-- OrganizacionService -->
<g id="node14" class="node">
<title>OrganizacionService</title>
<ellipse fill="#fdb462" stroke="#000000" cx="116" cy="-104" rx="92.0123" ry="18"/>
<text text-anchor="middle" x="116" y="-99.8" font-family="Times,serif" font-size="14.00" fill="#000000">OrganizacionService</text>
</g>
<!-- OrganizacionService&#45;&gt;ExperienciaLaboralModule -->
<g id="edge13" class="edge">
<title>OrganizacionService&#45;&gt;ExperienciaLaboralModule</title>
<path fill="none" stroke="#000000" d="M116,-122.2843C116,-143.3211 116,-175 116,-175 116,-175 772.8333,-175 772.8333,-175"/>
<polygon fill="#000000" stroke="#000000" points="772.8334,-178.5001 782.8333,-175 772.8333,-171.5001 772.8334,-178.5001"/>
</g>
</g>
</svg>
