<?xml version="1.0" encoding="UTF-8" standalone="no"?>
<!DOCTYPE svg PUBLIC "-//W3C//DTD SVG 1.1//EN"
 "http://www.w3.org/Graphics/SVG/1.1/DTD/svg11.dtd">
<!-- Generated by graphviz version 2.40.1 (20161225.0304)
 -->
<!-- Title: dependencies Pages: 1 -->
<svg width="940pt" height="284pt"
 viewBox="0.00 0.00 940.00 284.00" xmlns="http://www.w3.org/2000/svg" xmlns:xlink="http://www.w3.org/1999/xlink">
<g id="graph0" class="graph" transform="scale(1 1) rotate(0) translate(4 280)">
<title>dependencies</title>
<polygon fill="#ffffff" stroke="transparent" points="-4,4 -4,-280 936,-280 936,4 -4,4"/>
<text text-anchor="start" x="445.0091" y="-42.4" font-family="sans-serif" font-weight="bold" font-size="14.00" fill="#000000">Legend</text>
<polygon fill="#ffffb3" stroke="transparent" points="232,-10 232,-30 252,-30 252,-10 232,-10"/>
<text text-anchor="start" x="255.629" y="-15.4" font-family="sans-serif" font-size="14.00" fill="#000000"> &#160;Declarations</text>
<polygon fill="#8dd3c7" stroke="transparent" points="345,-10 345,-30 365,-30 365,-10 345,-10"/>
<text text-anchor="start" x="368.7251" y="-15.4" font-family="sans-serif" font-size="14.00" fill="#000000"> &#160;Module</text>
<polygon fill="#80b1d3" stroke="transparent" points="431,-10 431,-30 451,-30 451,-10 431,-10"/>
<text text-anchor="start" x="454.7812" y="-15.4" font-family="sans-serif" font-size="14.00" fill="#000000"> &#160;Bootstrap</text>
<polygon fill="#fdb462" stroke="transparent" points="528,-10 528,-30 548,-30 548,-10 528,-10"/>
<text text-anchor="start" x="551.6732" y="-15.4" font-family="sans-serif" font-size="14.00" fill="#000000"> &#160;Providers</text>
<polygon fill="#fb8072" stroke="transparent" points="624,-10 624,-30 644,-30 644,-10 624,-10"/>
<text text-anchor="start" x="647.7258" y="-15.4" font-family="sans-serif" font-size="14.00" fill="#000000"> &#160;Exports</text>
<g id="clust1" class="cluster">
<title>cluster_AppModule</title>
<polygon fill="none" stroke="#000000" stroke-dasharray="1,5" points="8,-70 8,-268 924,-268 924,-70 8,-70"/>
</g>
<g id="clust2" class="cluster">
<title>cluster_AppModule_declarations</title>
<polygon fill="none" stroke="#000000" points="794,-78 794,-130 916,-130 916,-78 794,-78"/>
</g>
<g id="clust4" class="cluster">
<title>cluster_AppModule_imports</title>
<polygon fill="none" stroke="#000000" points="420,-78 420,-130 786,-130 786,-78 420,-78"/>
</g>
<g id="clust6" class="cluster">
<title>cluster_AppModule_bootstrap</title>
<polygon fill="none" stroke="#000000" points="470,-208 470,-260 594,-260 594,-208 470,-208"/>
</g>
<g id="clust7" class="cluster">
<title>cluster_AppModule_providers</title>
<polygon fill="none" stroke="#000000" points="16,-78 16,-130 412,-130 412,-78 16,-78"/>
</g>
<!-- AppComponent -->
<g id="node1" class="node">
<title>AppComponent</title>
<polygon fill="#ffffb3" stroke="#000000" points="907.9399,-122 802.0601,-122 802.0601,-86 907.9399,-86 907.9399,-122"/>
<text text-anchor="middle" x="855" y="-99.8" font-family="Times,serif" font-size="14.00" fill="#000000">AppComponent</text>
</g>
<!-- AppModule -->
<g id="node2" class="node">
<title>AppModule</title>
<polygon fill="#8dd3c7" stroke="#000000" points="573.6571,-187 570.6571,-191 549.6571,-191 546.6571,-187 490.3429,-187 490.3429,-151 573.6571,-151 573.6571,-187"/>
<text text-anchor="middle" x="532" y="-164.8" font-family="Times,serif" font-size="14.00" fill="#000000">AppModule</text>
</g>
<!-- AppComponent&#45;&gt;AppModule -->
<g id="edge1" class="edge">
<title>AppComponent&#45;&gt;AppModule</title>
<path fill="none" stroke="#000000" d="M855,-122.2843C855,-143.3211 855,-175 855,-175 855,-175 583.8955,-175 583.8955,-175"/>
<polygon fill="#000000" stroke="#000000" points="583.8955,-171.5001 573.8955,-175 583.8954,-178.5001 583.8955,-171.5001"/>
</g>
<!-- AppComponent  -->
<g id="node6" class="node">
<title>AppComponent </title>
<polygon fill="#80b1d3" stroke="#000000" points="586.439,-252 477.561,-252 477.561,-216 586.439,-216 586.439,-252"/>
<text text-anchor="middle" x="532" y="-229.8" font-family="Times,serif" font-size="14.00" fill="#000000">AppComponent </text>
</g>
<!-- AppModule&#45;&gt;AppComponent  -->
<g id="edge5" class="edge">
<title>AppModule&#45;&gt;AppComponent </title>
<path fill="none" stroke="#000000" stroke-dasharray="1,5" d="M532,-187.1061C532,-187.1061 532,-205.991 532,-205.991"/>
<polygon fill="#000000" stroke="#000000" points="528.5001,-205.9909 532,-215.991 535.5001,-205.991 528.5001,-205.9909"/>
</g>
<!-- AppRoutingModule -->
<g id="node3" class="node">
<title>AppRoutingModule</title>
<polygon fill="#8dd3c7" stroke="#000000" points="778.2744,-122 775.2744,-126 754.2744,-126 751.2744,-122 649.7256,-122 649.7256,-86 778.2744,-86 778.2744,-122"/>
<text text-anchor="middle" x="714" y="-99.8" font-family="Times,serif" font-size="14.00" fill="#000000">AppRoutingModule</text>
</g>
<!-- AppRoutingModule&#45;&gt;AppModule -->
<g id="edge2" class="edge">
<title>AppRoutingModule&#45;&gt;AppModule</title>
<path fill="none" stroke="#000000" d="M714,-122.0225C714,-139.3734 714,-163 714,-163 714,-163 583.7545,-163 583.7545,-163"/>
<polygon fill="#000000" stroke="#000000" points="583.7545,-159.5001 573.7545,-163 583.7544,-166.5001 583.7545,-159.5001"/>
</g>
<!-- CoreModule -->
<g id="node4" class="node">
<title>CoreModule</title>
<polygon fill="#8dd3c7" stroke="#000000" points="631.2619,-122 628.2619,-126 607.2619,-126 604.2619,-122 544.7381,-122 544.7381,-86 631.2619,-86 631.2619,-122"/>
<text text-anchor="middle" x="588" y="-99.8" font-family="Times,serif" font-size="14.00" fill="#000000">CoreModule</text>
</g>
<!-- CoreModule&#45;&gt;AppModule -->
<g id="edge3" class="edge">
<title>CoreModule&#45;&gt;AppModule</title>
<path fill="none" stroke="#000000" d="M559.2237,-122.1061C559.2237,-122.1061 559.2237,-140.991 559.2237,-140.991"/>
<polygon fill="#000000" stroke="#000000" points="555.7238,-140.9909 559.2237,-150.991 562.7238,-140.991 555.7238,-140.9909"/>
</g>
<!-- ThemeModule -->
<g id="node5" class="node">
<title>ThemeModule</title>
<polygon fill="#8dd3c7" stroke="#000000" points="526.4231,-122 523.4231,-126 502.4231,-126 499.4231,-122 427.5769,-122 427.5769,-86 526.4231,-86 526.4231,-122"/>
<text text-anchor="middle" x="477" y="-99.8" font-family="Times,serif" font-size="14.00" fill="#000000">ThemeModule</text>
</g>
<!-- ThemeModule&#45;&gt;AppModule -->
<g id="edge4" class="edge">
<title>ThemeModule&#45;&gt;AppModule</title>
<path fill="none" stroke="#000000" d="M508.1915,-122.1061C508.1915,-122.1061 508.1915,-140.991 508.1915,-140.991"/>
<polygon fill="#000000" stroke="#000000" points="504.6915,-140.9909 508.1915,-150.991 511.6915,-140.991 504.6915,-140.9909"/>
</g>
<!-- ImplicitAutenticationService -->
<g id="node7" class="node">
<title>ImplicitAutenticationService</title>
<ellipse fill="#fdb462" stroke="#000000" cx="281" cy="-104" rx="123.2649" ry="18"/>
<text text-anchor="middle" x="281" y="-99.8" font-family="Times,serif" font-size="14.00" fill="#000000">ImplicitAutenticationService</text>
</g>
<!-- ImplicitAutenticationService&#45;&gt;AppModule -->
<g id="edge6" class="edge">
<title>ImplicitAutenticationService&#45;&gt;AppModule</title>
<path fill="none" stroke="#000000" d="M281,-122.0225C281,-139.3734 281,-163 281,-163 281,-163 480.2707,-163 480.2707,-163"/>
<polygon fill="#000000" stroke="#000000" points="480.2707,-166.5001 490.2707,-163 480.2707,-159.5001 480.2707,-166.5001"/>
</g>
<!-- UserService -->
<g id="node8" class="node">
<title>UserService</title>
<ellipse fill="#fdb462" stroke="#000000" cx="82" cy="-104" rx="58.4415" ry="18"/>
<text text-anchor="middle" x="82" y="-99.8" font-family="Times,serif" font-size="14.00" fill="#000000">UserService</text>
</g>
<!-- UserService&#45;&gt;AppModule -->
<g id="edge7" class="edge">
<title>UserService&#45;&gt;AppModule</title>
<path fill="none" stroke="#000000" d="M82,-122.2843C82,-143.3211 82,-175 82,-175 82,-175 480.0692,-175 480.0692,-175"/>
<polygon fill="#000000" stroke="#000000" points="480.0692,-178.5001 490.0692,-175 480.0692,-171.5001 480.0692,-178.5001"/>
</g>
</g>
</svg>
