<?xml version="1.0" encoding="UTF-8" standalone="no"?>
<!DOCTYPE svg PUBLIC "-//W3C//DTD SVG 1.1//EN"
 "http://www.w3.org/Graphics/SVG/1.1/DTD/svg11.dtd">
<!-- Generated by graphviz version 2.40.1 (20161225.0304)
 -->
<!-- Title: dependencies Pages: 1 -->
<svg width="1404pt" height="284pt"
 viewBox="0.00 0.00 1404.00 284.00" xmlns="http://www.w3.org/2000/svg" xmlns:xlink="http://www.w3.org/1999/xlink">
<g id="graph0" class="graph" transform="scale(1 1) rotate(0) translate(4 280)">
<title>dependencies</title>
<polygon fill="#ffffff" stroke="transparent" points="-4,4 -4,-280 1400,-280 1400,4 -4,4"/>
<text text-anchor="start" x="677.0091" y="-42.4" font-family="sans-serif" font-weight="bold" font-size="14.00" fill="#000000">Legend</text>
<polygon fill="#ffffb3" stroke="transparent" points="464,-10 464,-30 484,-30 484,-10 464,-10"/>
<text text-anchor="start" x="487.629" y="-15.4" font-family="sans-serif" font-size="14.00" fill="#000000"> &#160;Declarations</text>
<polygon fill="#8dd3c7" stroke="transparent" points="577,-10 577,-30 597,-30 597,-10 577,-10"/>
<text text-anchor="start" x="600.7251" y="-15.4" font-family="sans-serif" font-size="14.00" fill="#000000"> &#160;Module</text>
<polygon fill="#80b1d3" stroke="transparent" points="663,-10 663,-30 683,-30 683,-10 663,-10"/>
<text text-anchor="start" x="686.7812" y="-15.4" font-family="sans-serif" font-size="14.00" fill="#000000"> &#160;Bootstrap</text>
<polygon fill="#fdb462" stroke="transparent" points="760,-10 760,-30 780,-30 780,-10 760,-10"/>
<text text-anchor="start" x="783.6732" y="-15.4" font-family="sans-serif" font-size="14.00" fill="#000000"> &#160;Providers</text>
<polygon fill="#fb8072" stroke="transparent" points="856,-10 856,-30 876,-30 876,-10 856,-10"/>
<text text-anchor="start" x="879.7258" y="-15.4" font-family="sans-serif" font-size="14.00" fill="#000000"> &#160;Exports</text>
<g id="clust1" class="cluster">
<title>cluster_TraduccionModule</title>
<polygon fill="none" stroke="#000000" stroke-dasharray="1,5" points="8,-70 8,-268 1388,-268 1388,-70 8,-70"/>
</g>
<g id="clust2" class="cluster">
<title>cluster_TraduccionModule_declarations</title>
<polygon fill="none" stroke="#000000" points="718,-78 718,-130 1380,-130 1380,-78 718,-78"/>
</g>
<g id="clust7" class="cluster">
<title>cluster_TraduccionModule_imports</title>
<polygon fill="none" stroke="#000000" points="294,-78 294,-130 710,-130 710,-78 294,-78"/>
</g>
<g id="clust8" class="cluster">
<title>cluster_TraduccionModule_exports</title>
<polygon fill="none" stroke="#000000" points="439,-208 439,-260 1016,-260 1016,-208 439,-208"/>
</g>
<g id="clust10" class="cluster">
<title>cluster_TraduccionModule_providers</title>
<polygon fill="none" stroke="#000000" points="16,-78 16,-130 286,-130 286,-78 16,-78"/>
</g>
<!-- ArticuloComponent -->
<g id="node1" class="node">
<title>ArticuloComponent</title>
<polygon fill="#ffffb3" stroke="#000000" points="1371.986,-122 1244.014,-122 1244.014,-86 1371.986,-86 1371.986,-122"/>
<text text-anchor="middle" x="1308" y="-99.8" font-family="Times,serif" font-size="14.00" fill="#000000">ArticuloComponent</text>
</g>
<!-- TraduccionModule -->
<g id="node5" class="node">
<title>TraduccionModule</title>
<polygon fill="#8dd3c7" stroke="#000000" points="790.7978,-187 787.7978,-191 766.7978,-191 763.7978,-187 667.2022,-187 667.2022,-151 790.7978,-151 790.7978,-187"/>
<text text-anchor="middle" x="729" y="-164.8" font-family="Times,serif" font-size="14.00" fill="#000000">TraduccionModule</text>
</g>
<!-- ArticuloComponent&#45;&gt;TraduccionModule -->
<g id="edge1" class="edge">
<title>ArticuloComponent&#45;&gt;TraduccionModule</title>
<path fill="none" stroke="#000000" d="M1308,-122.1289C1308,-142.5724 1308,-173 1308,-173 1308,-173 800.6888,-173 800.6888,-173"/>
<polygon fill="#000000" stroke="#000000" points="800.6889,-169.5001 790.6888,-173 800.6888,-176.5001 800.6889,-169.5001"/>
</g>
<!-- CrudArticuloComponent -->
<g id="node2" class="node">
<title>CrudArticuloComponent</title>
<polygon fill="#ffffb3" stroke="#000000" points="1225.9832,-122 1070.0168,-122 1070.0168,-86 1225.9832,-86 1225.9832,-122"/>
<text text-anchor="middle" x="1148" y="-99.8" font-family="Times,serif" font-size="14.00" fill="#000000">CrudArticuloComponent</text>
</g>
<!-- CrudArticuloComponent&#45;&gt;TraduccionModule -->
<g id="edge2" class="edge">
<title>CrudArticuloComponent&#45;&gt;TraduccionModule</title>
<path fill="none" stroke="#000000" d="M1148,-122.2667C1148,-140.5552 1148,-166 1148,-166 1148,-166 800.8249,-166 800.8249,-166"/>
<polygon fill="#000000" stroke="#000000" points="800.8249,-162.5001 790.8249,-166 800.8249,-169.5001 800.8249,-162.5001"/>
</g>
<!-- ListArticuloComponent -->
<g id="node3" class="node">
<title>ListArticuloComponent</title>
<polygon fill="#ffffb3" stroke="#000000" points="1051.7646,-122 902.2354,-122 902.2354,-86 1051.7646,-86 1051.7646,-122"/>
<text text-anchor="middle" x="977" y="-99.8" font-family="Times,serif" font-size="14.00" fill="#000000">ListArticuloComponent</text>
</g>
<!-- ListArticuloComponent&#45;&gt;TraduccionModule -->
<g id="edge3" class="edge">
<title>ListArticuloComponent&#45;&gt;TraduccionModule</title>
<path fill="none" stroke="#000000" d="M955.2032,-122.0091C955.2032,-138.0494 955.2032,-159 955.2032,-159 955.2032,-159 800.811,-159 800.811,-159"/>
<polygon fill="#000000" stroke="#000000" points="800.8111,-155.5001 790.811,-159 800.811,-162.5001 800.8111,-155.5001"/>
</g>
<!-- ViewArticuloComponent -->
<g id="node4" class="node">
<title>ViewArticuloComponent</title>
<polygon fill="#ffffb3" stroke="#000000" points="884.3047,-122 725.6953,-122 725.6953,-86 884.3047,-86 884.3047,-122"/>
<text text-anchor="middle" x="805" y="-99.8" font-family="Times,serif" font-size="14.00" fill="#000000">ViewArticuloComponent</text>
</g>
<!-- ViewArticuloComponent&#45;&gt;TraduccionModule -->
<g id="edge4" class="edge">
<title>ViewArticuloComponent&#45;&gt;TraduccionModule</title>
<path fill="none" stroke="#000000" d="M758.2483,-122.1061C758.2483,-122.1061 758.2483,-140.991 758.2483,-140.991"/>
<polygon fill="#000000" stroke="#000000" points="754.7483,-140.9909 758.2483,-150.991 761.7483,-140.991 754.7483,-140.9909"/>
</g>
<!-- CrudTraduccionComponent  -->
<g id="node9" class="node">
<title>CrudTraduccionComponent </title>
<polygon fill="#fb8072" stroke="#000000" points="1008.0777,-252 831.9223,-252 831.9223,-216 1008.0777,-216 1008.0777,-252"/>
<text text-anchor="middle" x="920" y="-229.8" font-family="Times,serif" font-size="14.00" fill="#000000">CrudTraduccionComponent </text>
</g>
<!-- TraduccionModule&#45;&gt;CrudTraduccionComponent  -->
<g id="edge8" class="edge">
<title>TraduccionModule&#45;&gt;CrudTraduccionComponent </title>
<path fill="none" stroke="#000000" stroke-dasharray="5,2" d="M790.8224,-180C823.912,-180 857.9318,-180 857.9318,-180 857.9318,-180 857.9318,-205.7181 857.9318,-205.7181"/>
<polygon fill="#000000" stroke="#000000" points="854.4319,-205.718 857.9318,-215.7181 861.4319,-205.7181 854.4319,-205.718"/>
</g>
<!-- ListTraduccionComponent  -->
<g id="node10" class="node">
<title>ListTraduccionComponent </title>
<polygon fill="#fb8072" stroke="#000000" points="814.3588,-252 643.6412,-252 643.6412,-216 814.3588,-216 814.3588,-252"/>
<text text-anchor="middle" x="729" y="-229.8" font-family="Times,serif" font-size="14.00" fill="#000000">ListTraduccionComponent </text>
</g>
<!-- TraduccionModule&#45;&gt;ListTraduccionComponent  -->
<g id="edge9" class="edge">
<title>TraduccionModule&#45;&gt;ListTraduccionComponent </title>
<path fill="none" stroke="#000000" stroke-dasharray="5,2" d="M729,-187.1061C729,-187.1061 729,-205.991 729,-205.991"/>
<polygon fill="#000000" stroke="#000000" points="725.5001,-205.9909 729,-215.991 732.5001,-205.991 725.5001,-205.9909"/>
</g>
<!-- ViewTraduccionComponent  -->
<g id="node11" class="node">
<title>ViewTraduccionComponent </title>
<polygon fill="#fb8072" stroke="#000000" points="625.3984,-252 446.6016,-252 446.6016,-216 625.3984,-216 625.3984,-252"/>
<text text-anchor="middle" x="536" y="-229.8" font-family="Times,serif" font-size="14.00" fill="#000000">ViewTraduccionComponent </text>
</g>
<!-- TraduccionModule&#45;&gt;ViewTraduccionComponent  -->
<g id="edge10" class="edge">
<title>TraduccionModule&#45;&gt;ViewTraduccionComponent </title>
<path fill="none" stroke="#000000" stroke-dasharray="5,2" d="M667.1228,-180C640.1722,-180 614.6191,-180 614.6191,-180 614.6191,-180 614.6191,-205.7181 614.6191,-205.7181"/>
<polygon fill="#000000" stroke="#000000" points="611.1191,-205.718 614.6191,-215.7181 618.1191,-205.7181 611.1191,-205.718"/>
</g>
<!-- SharedModule -->
<g id="node6" class="node">
<title>SharedModule</title>
<polygon fill="#8dd3c7" stroke="#000000" points="702.4231,-122 699.4231,-126 678.4231,-126 675.4231,-122 603.5769,-122 603.5769,-86 702.4231,-86 702.4231,-122"/>
<text text-anchor="middle" x="653" y="-99.8" font-family="Times,serif" font-size="14.00" fill="#000000">SharedModule</text>
</g>
<!-- SharedModule&#45;&gt;TraduccionModule -->
<g id="edge5" class="edge">
<title>SharedModule&#45;&gt;TraduccionModule</title>
<path fill="none" stroke="#000000" d="M684.7812,-122.1061C684.7812,-122.1061 684.7812,-140.991 684.7812,-140.991"/>
<polygon fill="#000000" stroke="#000000" points="681.2813,-140.9909 684.7812,-150.991 688.2813,-140.991 681.2813,-140.9909"/>
</g>
<!-- ThemeModule -->
<g id="node7" class="node">
<title>ThemeModule</title>
<polygon fill="#8dd3c7" stroke="#000000" points="586.4231,-122 583.4231,-126 562.4231,-126 559.4231,-122 487.5769,-122 487.5769,-86 586.4231,-86 586.4231,-122"/>
<text text-anchor="middle" x="537" y="-99.8" font-family="Times,serif" font-size="14.00" fill="#000000">ThemeModule</text>
</g>
<!-- ThemeModule&#45;&gt;TraduccionModule -->
<g id="edge6" class="edge">
<title>ThemeModule&#45;&gt;TraduccionModule</title>
<path fill="none" stroke="#000000" d="M537,-122.0091C537,-138.0494 537,-159 537,-159 537,-159 657.1931,-159 657.1931,-159"/>
<polygon fill="#000000" stroke="#000000" points="657.1932,-162.5001 667.1931,-159 657.1931,-155.5001 657.1932,-162.5001"/>
</g>
<!-- TraduccionRoutingModule -->
<g id="node8" class="node">
<title>TraduccionRoutingModule</title>
<polygon fill="#8dd3c7" stroke="#000000" points="470.4157,-122 467.4157,-126 446.4157,-126 443.4157,-122 301.5843,-122 301.5843,-86 470.4157,-86 470.4157,-122"/>
<text text-anchor="middle" x="386" y="-99.8" font-family="Times,serif" font-size="14.00" fill="#000000">TraduccionRoutingModule</text>
</g>
<!-- TraduccionRoutingModule&#45;&gt;TraduccionModule -->
<g id="edge7" class="edge">
<title>TraduccionRoutingModule&#45;&gt;TraduccionModule</title>
<path fill="none" stroke="#000000" d="M458.3792,-122.2667C458.3792,-140.5552 458.3792,-166 458.3792,-166 458.3792,-166 657.2533,-166 657.2533,-166"/>
<polygon fill="#000000" stroke="#000000" points="657.2534,-169.5001 667.2533,-166 657.2533,-162.5001 657.2534,-169.5001"/>
</g>
<!-- ProduccionAcademicaService -->
<g id="node12" class="node">
<title>ProduccionAcademicaService</title>
<ellipse fill="#fdb462" stroke="#000000" cx="151" cy="-104" rx="127.3074" ry="18"/>
<text text-anchor="middle" x="151" y="-99.8" font-family="Times,serif" font-size="14.00" fill="#000000">ProduccionAcademicaService</text>
</g>
<!-- ProduccionAcademicaService&#45;&gt;TraduccionModule -->
<g id="edge11" class="edge">
<title>ProduccionAcademicaService&#45;&gt;TraduccionModule</title>
<path fill="none" stroke="#000000" d="M151,-122.1289C151,-142.5724 151,-173 151,-173 151,-173 657.1439,-173 657.1439,-173"/>
<polygon fill="#000000" stroke="#000000" points="657.1439,-176.5001 667.1439,-173 657.1438,-169.5001 657.1439,-176.5001"/>
</g>
</g>
</svg>
