<?xml version="1.0" encoding="UTF-8" standalone="no"?>
<!DOCTYPE svg PUBLIC "-//W3C//DTD SVG 1.1//EN"
 "http://www.w3.org/Graphics/SVG/1.1/DTD/svg11.dtd">
<!-- Generated by graphviz version 2.40.1 (20161225.0304)
 -->
<!-- Title: dependencies Pages: 1 -->
<svg width="1426pt" height="211pt"
 viewBox="0.00 0.00 1426.00 211.00" xmlns="http://www.w3.org/2000/svg" xmlns:xlink="http://www.w3.org/1999/xlink">
<g id="graph0" class="graph" transform="scale(1 1) rotate(0) translate(4 207)">
<title>dependencies</title>
<polygon fill="#ffffff" stroke="transparent" points="-4,4 -4,-207 1422,-207 1422,4 -4,4"/>
<text text-anchor="start" x="688.0091" y="-42.4" font-family="sans-serif" font-weight="bold" font-size="14.00" fill="#000000">Legend</text>
<polygon fill="#ffffb3" stroke="transparent" points="475,-10 475,-30 495,-30 495,-10 475,-10"/>
<text text-anchor="start" x="498.629" y="-15.4" font-family="sans-serif" font-size="14.00" fill="#000000"> &#160;Declarations</text>
<polygon fill="#8dd3c7" stroke="transparent" points="588,-10 588,-30 608,-30 608,-10 588,-10"/>
<text text-anchor="start" x="611.7251" y="-15.4" font-family="sans-serif" font-size="14.00" fill="#000000"> &#160;Module</text>
<polygon fill="#80b1d3" stroke="transparent" points="674,-10 674,-30 694,-30 694,-10 674,-10"/>
<text text-anchor="start" x="697.7812" y="-15.4" font-family="sans-serif" font-size="14.00" fill="#000000"> &#160;Bootstrap</text>
<polygon fill="#fdb462" stroke="transparent" points="771,-10 771,-30 791,-30 791,-10 771,-10"/>
<text text-anchor="start" x="794.6732" y="-15.4" font-family="sans-serif" font-size="14.00" fill="#000000"> &#160;Providers</text>
<polygon fill="#fb8072" stroke="transparent" points="867,-10 867,-30 887,-30 887,-10 867,-10"/>
<text text-anchor="start" x="890.7258" y="-15.4" font-family="sans-serif" font-size="14.00" fill="#000000"> &#160;Exports</text>
<g id="clust1" class="cluster">
<title>cluster_NotificacionModule</title>
<polygon fill="none" stroke="#000000" stroke-dasharray="1,5" points="8,-70 8,-195 1410,-195 1410,-70 8,-70"/>
</g>
<g id="clust2" class="cluster">
<title>cluster_NotificacionModule_declarations</title>
<polygon fill="none" stroke="#000000" points="447,-78 447,-130 1402,-130 1402,-78 447,-78"/>
</g>
<g id="clust7" class="cluster">
<title>cluster_NotificacionModule_imports</title>
<polygon fill="none" stroke="#000000" points="16,-78 16,-130 439,-130 439,-78 16,-78"/>
</g>
<!-- CrudDocumentoProgramaComponent -->
<g id="node1" class="node">
<title>CrudDocumentoProgramaComponent</title>
<polygon fill="#ffffb3" stroke="#000000" points="1393.5702,-122 1164.4298,-122 1164.4298,-86 1393.5702,-86 1393.5702,-122"/>
<text text-anchor="middle" x="1279" y="-99.8" font-family="Times,serif" font-size="14.00" fill="#000000">CrudDocumentoProgramaComponent</text>
</g>
<!-- NotificacionModule -->
<g id="node5" class="node">
<title>NotificacionModule</title>
<polygon fill="#8dd3c7" stroke="#000000" points="635.5241,-187 632.5241,-191 611.5241,-191 608.5241,-187 506.4759,-187 506.4759,-151 635.5241,-151 635.5241,-187"/>
<text text-anchor="middle" x="571" y="-164.8" font-family="Times,serif" font-size="14.00" fill="#000000">NotificacionModule</text>
</g>
<!-- CrudDocumentoProgramaComponent&#45;&gt;NotificacionModule -->
<g id="edge1" class="edge">
<title>CrudDocumentoProgramaComponent&#45;&gt;NotificacionModule</title>
<path fill="none" stroke="#000000" d="M1279,-122.2921C1279,-144.2057 1279,-178 1279,-178 1279,-178 645.7072,-178 645.7072,-178"/>
<polygon fill="#000000" stroke="#000000" points="645.7072,-174.5001 635.7072,-178 645.7071,-181.5001 645.7072,-174.5001"/>
</g>
<!-- DocumentoProgramaComponent -->
<g id="node2" class="node">
<title>DocumentoProgramaComponent</title>
<polygon fill="#ffffb3" stroke="#000000" points="1146.573,-122 945.427,-122 945.427,-86 1146.573,-86 1146.573,-122"/>
<text text-anchor="middle" x="1046" y="-99.8" font-family="Times,serif" font-size="14.00" fill="#000000">DocumentoProgramaComponent</text>
</g>
<!-- DocumentoProgramaComponent&#45;&gt;NotificacionModule -->
<g id="edge2" class="edge">
<title>DocumentoProgramaComponent&#45;&gt;NotificacionModule</title>
<path fill="none" stroke="#000000" d="M1046,-122.1061C1046,-141.3391 1046,-169 1046,-169 1046,-169 645.555,-169 645.555,-169"/>
<polygon fill="#000000" stroke="#000000" points="645.555,-165.5001 635.555,-169 645.5549,-172.5001 645.555,-165.5001"/>
</g>
<!-- ListDocumentoProgramaComponent -->
<g id="node3" class="node">
<title>ListDocumentoProgramaComponent</title>
<polygon fill="#ffffb3" stroke="#000000" points="927.3514,-122 704.6486,-122 704.6486,-86 927.3514,-86 927.3514,-122"/>
<text text-anchor="middle" x="816" y="-99.8" font-family="Times,serif" font-size="14.00" fill="#000000">ListDocumentoProgramaComponent</text>
</g>
<!-- ListDocumentoProgramaComponent&#45;&gt;NotificacionModule -->
<g id="edge3" class="edge">
<title>ListDocumentoProgramaComponent&#45;&gt;NotificacionModule</title>
<path fill="none" stroke="#000000" d="M816,-122.027C816,-138.3976 816,-160 816,-160 816,-160 645.6913,-160 645.6913,-160"/>
<polygon fill="#000000" stroke="#000000" points="645.6914,-156.5001 635.6913,-160 645.6913,-163.5001 645.6914,-156.5001"/>
</g>
<!-- ViewDocumentoProgramaComponent -->
<g id="node4" class="node">
<title>ViewDocumentoProgramaComponent</title>
<polygon fill="#ffffb3" stroke="#000000" points="686.8917,-122 455.1083,-122 455.1083,-86 686.8917,-86 686.8917,-122"/>
<text text-anchor="middle" x="571" y="-99.8" font-family="Times,serif" font-size="14.00" fill="#000000">ViewDocumentoProgramaComponent</text>
</g>
<!-- ViewDocumentoProgramaComponent&#45;&gt;NotificacionModule -->
<g id="edge4" class="edge">
<title>ViewDocumentoProgramaComponent&#45;&gt;NotificacionModule</title>
<path fill="none" stroke="#000000" d="M571,-122.1061C571,-122.1061 571,-140.991 571,-140.991"/>
<polygon fill="#000000" stroke="#000000" points="567.5001,-140.9909 571,-150.991 574.5001,-140.991 567.5001,-140.9909"/>
</g>
<!-- NotificacionRoutingModule -->
<g id="node6" class="node">
<title>NotificacionRoutingModule</title>
<polygon fill="#8dd3c7" stroke="#000000" points="431.1414,-122 428.1414,-126 407.1414,-126 404.1414,-122 256.8586,-122 256.8586,-86 431.1414,-86 431.1414,-122"/>
<text text-anchor="middle" x="344" y="-99.8" font-family="Times,serif" font-size="14.00" fill="#000000">NotificacionRoutingModule</text>
</g>
<!-- NotificacionRoutingModule&#45;&gt;NotificacionModule -->
<g id="edge5" class="edge">
<title>NotificacionRoutingModule&#45;&gt;NotificacionModule</title>
<path fill="none" stroke="#000000" d="M344,-122.027C344,-138.3976 344,-160 344,-160 344,-160 496.2547,-160 496.2547,-160"/>
<polygon fill="#000000" stroke="#000000" points="496.2547,-163.5001 506.2547,-160 496.2547,-156.5001 496.2547,-163.5001"/>
</g>
<!-- SharedModule -->
<g id="node7" class="node">
<title>SharedModule</title>
<polygon fill="#8dd3c7" stroke="#000000" points="238.4231,-122 235.4231,-126 214.4231,-126 211.4231,-122 139.5769,-122 139.5769,-86 238.4231,-86 238.4231,-122"/>
<text text-anchor="middle" x="189" y="-99.8" font-family="Times,serif" font-size="14.00" fill="#000000">SharedModule</text>
</g>
<!-- SharedModule&#45;&gt;NotificacionModule -->
<g id="edge6" class="edge">
<title>SharedModule&#45;&gt;NotificacionModule</title>
<path fill="none" stroke="#000000" d="M189,-122.1061C189,-141.3391 189,-169 189,-169 189,-169 496.1989,-169 496.1989,-169"/>
<polygon fill="#000000" stroke="#000000" points="496.1989,-172.5001 506.1989,-169 496.1989,-165.5001 496.1989,-172.5001"/>
</g>
<!-- ThemeModule -->
<g id="node8" class="node">
<title>ThemeModule</title>
<polygon fill="#8dd3c7" stroke="#000000" points="122.4231,-122 119.4231,-126 98.4231,-126 95.4231,-122 23.5769,-122 23.5769,-86 122.4231,-86 122.4231,-122"/>
<text text-anchor="middle" x="73" y="-99.8" font-family="Times,serif" font-size="14.00" fill="#000000">ThemeModule</text>
</g>
<!-- ThemeModule&#45;&gt;NotificacionModule -->
<g id="edge7" class="edge">
<title>ThemeModule&#45;&gt;NotificacionModule</title>
<path fill="none" stroke="#000000" d="M73,-122.2921C73,-144.2057 73,-178 73,-178 73,-178 496.4057,-178 496.4057,-178"/>
<polygon fill="#000000" stroke="#000000" points="496.4058,-181.5001 506.4057,-178 496.4057,-174.5001 496.4058,-181.5001"/>
</g>
</g>
</svg>
