<?xml version="1.0" encoding="UTF-8" standalone="no"?>
<!DOCTYPE svg PUBLIC "-//W3C//DTD SVG 1.1//EN"
 "http://www.w3.org/Graphics/SVG/1.1/DTD/svg11.dtd">
<!-- Generated by graphviz version 2.40.1 (20161225.0304)
 -->
<!-- Title: dependencies Pages: 1 -->
<svg width="1133pt" height="211pt"
 viewBox="0.00 0.00 1133.00 211.00" xmlns="http://www.w3.org/2000/svg" xmlns:xlink="http://www.w3.org/1999/xlink">
<g id="graph0" class="graph" transform="scale(1 1) rotate(0) translate(4 207)">
<title>dependencies</title>
<polygon fill="#ffffff" stroke="transparent" points="-4,4 -4,-207 1129,-207 1129,4 -4,4"/>
<text text-anchor="start" x="541.5091" y="-42.4" font-family="sans-serif" font-weight="bold" font-size="14.00" fill="#000000">Legend</text>
<polygon fill="#ffffb3" stroke="transparent" points="328.5,-10 328.5,-30 348.5,-30 348.5,-10 328.5,-10"/>
<text text-anchor="start" x="352.129" y="-15.4" font-family="sans-serif" font-size="14.00" fill="#000000"> &#160;Declarations</text>
<polygon fill="#8dd3c7" stroke="transparent" points="441.5,-10 441.5,-30 461.5,-30 461.5,-10 441.5,-10"/>
<text text-anchor="start" x="465.2251" y="-15.4" font-family="sans-serif" font-size="14.00" fill="#000000"> &#160;Module</text>
<polygon fill="#80b1d3" stroke="transparent" points="527.5,-10 527.5,-30 547.5,-30 547.5,-10 527.5,-10"/>
<text text-anchor="start" x="551.2812" y="-15.4" font-family="sans-serif" font-size="14.00" fill="#000000"> &#160;Bootstrap</text>
<polygon fill="#fdb462" stroke="transparent" points="624.5,-10 624.5,-30 644.5,-30 644.5,-10 624.5,-10"/>
<text text-anchor="start" x="648.1732" y="-15.4" font-family="sans-serif" font-size="14.00" fill="#000000"> &#160;Providers</text>
<polygon fill="#fb8072" stroke="transparent" points="720.5,-10 720.5,-30 740.5,-30 740.5,-10 720.5,-10"/>
<text text-anchor="start" x="744.2258" y="-15.4" font-family="sans-serif" font-size="14.00" fill="#000000"> &#160;Exports</text>
<g id="clust1" class="cluster">
<title>cluster_NotificacionModule</title>
<polygon fill="none" stroke="#000000" stroke-dasharray="1,5" points="8,-70 8,-195 1117,-195 1117,-70 8,-70"/>
</g>
<g id="clust2" class="cluster">
<title>cluster_NotificacionModule_declarations</title>
<polygon fill="none" stroke="#000000" points="447,-78 447,-130 1109,-130 1109,-78 447,-78"/>
</g>
<g id="clust7" class="cluster">
<title>cluster_NotificacionModule_imports</title>
<polygon fill="none" stroke="#000000" points="16,-78 16,-130 439,-130 439,-78 16,-78"/>
</g>
<!-- ArticuloComponent -->
<g id="node1" class="node">
<title>ArticuloComponent</title>
<polygon fill="#ffffb3" stroke="#000000" points="1100.986,-122 973.014,-122 973.014,-86 1100.986,-86 1100.986,-122"/>
<text text-anchor="middle" x="1037" y="-99.8" font-family="Times,serif" font-size="14.00" fill="#000000">ArticuloComponent</text>
</g>
<!-- NotificacionModule -->
<g id="node5" class="node">
<title>NotificacionModule</title>
<polygon fill="#8dd3c7" stroke="#000000" points="598.5241,-187 595.5241,-191 574.5241,-191 571.5241,-187 469.4759,-187 469.4759,-151 598.5241,-151 598.5241,-187"/>
<text text-anchor="middle" x="534" y="-164.8" font-family="Times,serif" font-size="14.00" fill="#000000">NotificacionModule</text>
</g>
<!-- ArticuloComponent&#45;&gt;NotificacionModule -->
<g id="edge1" class="edge">
<title>ArticuloComponent&#45;&gt;NotificacionModule</title>
<path fill="none" stroke="#000000" d="M1037,-122.2921C1037,-144.2057 1037,-178 1037,-178 1037,-178 608.7287,-178 608.7287,-178"/>
<polygon fill="#000000" stroke="#000000" points="608.7287,-174.5001 598.7287,-178 608.7287,-181.5001 608.7287,-174.5001"/>
</g>
<!-- CrudArticuloComponent -->
<g id="node2" class="node">
<title>CrudArticuloComponent</title>
<polygon fill="#ffffb3" stroke="#000000" points="954.9832,-122 799.0168,-122 799.0168,-86 954.9832,-86 954.9832,-122"/>
<text text-anchor="middle" x="877" y="-99.8" font-family="Times,serif" font-size="14.00" fill="#000000">CrudArticuloComponent</text>
</g>
<!-- CrudArticuloComponent&#45;&gt;NotificacionModule -->
<g id="edge2" class="edge">
<title>CrudArticuloComponent&#45;&gt;NotificacionModule</title>
<path fill="none" stroke="#000000" d="M877,-122.1061C877,-141.3391 877,-169 877,-169 877,-169 608.9189,-169 608.9189,-169"/>
<polygon fill="#000000" stroke="#000000" points="608.919,-165.5001 598.9189,-169 608.9189,-172.5001 608.919,-165.5001"/>
</g>
<!-- ListArticuloComponent -->
<g id="node3" class="node">
<title>ListArticuloComponent</title>
<polygon fill="#ffffb3" stroke="#000000" points="780.7646,-122 631.2354,-122 631.2354,-86 780.7646,-86 780.7646,-122"/>
<text text-anchor="middle" x="706" y="-99.8" font-family="Times,serif" font-size="14.00" fill="#000000">ListArticuloComponent</text>
</g>
<!-- ListArticuloComponent&#45;&gt;NotificacionModule -->
<g id="edge3" class="edge">
<title>ListArticuloComponent&#45;&gt;NotificacionModule</title>
<path fill="none" stroke="#000000" d="M706,-122.027C706,-138.3976 706,-160 706,-160 706,-160 608.5358,-160 608.5358,-160"/>
<polygon fill="#000000" stroke="#000000" points="608.5358,-156.5001 598.5358,-160 608.5358,-163.5001 608.5358,-156.5001"/>
</g>
<!-- ViewArticuloComponent -->
<g id="node4" class="node">
<title>ViewArticuloComponent</title>
<polygon fill="#ffffb3" stroke="#000000" points="613.3047,-122 454.6953,-122 454.6953,-86 613.3047,-86 613.3047,-122"/>
<text text-anchor="middle" x="534" y="-99.8" font-family="Times,serif" font-size="14.00" fill="#000000">ViewArticuloComponent</text>
</g>
<!-- ViewArticuloComponent&#45;&gt;NotificacionModule -->
<g id="edge4" class="edge">
<title>ViewArticuloComponent&#45;&gt;NotificacionModule</title>
<path fill="none" stroke="#000000" d="M534,-122.1061C534,-122.1061 534,-140.991 534,-140.991"/>
<polygon fill="#000000" stroke="#000000" points="530.5001,-140.9909 534,-150.991 537.5001,-140.991 530.5001,-140.9909"/>
</g>
<!-- NotificacionRoutingModule -->
<g id="node6" class="node">
<title>NotificacionRoutingModule</title>
<polygon fill="#8dd3c7" stroke="#000000" points="431.1414,-122 428.1414,-126 407.1414,-126 404.1414,-122 256.8586,-122 256.8586,-86 431.1414,-86 431.1414,-122"/>
<text text-anchor="middle" x="344" y="-99.8" font-family="Times,serif" font-size="14.00" fill="#000000">NotificacionRoutingModule</text>
</g>
<!-- NotificacionRoutingModule&#45;&gt;NotificacionModule -->
<g id="edge5" class="edge">
<title>NotificacionRoutingModule&#45;&gt;NotificacionModule</title>
<path fill="none" stroke="#000000" d="M344,-122.027C344,-138.3976 344,-160 344,-160 344,-160 459.4095,-160 459.4095,-160"/>
<polygon fill="#000000" stroke="#000000" points="459.4096,-163.5001 469.4095,-160 459.4095,-156.5001 459.4096,-163.5001"/>
</g>
<!-- SharedModule -->
<g id="node7" class="node">
<title>SharedModule</title>
<polygon fill="#8dd3c7" stroke="#000000" points="238.4231,-122 235.4231,-126 214.4231,-126 211.4231,-122 139.5769,-122 139.5769,-86 238.4231,-86 238.4231,-122"/>
<text text-anchor="middle" x="189" y="-99.8" font-family="Times,serif" font-size="14.00" fill="#000000">SharedModule</text>
</g>
<!-- SharedModule&#45;&gt;NotificacionModule -->
<g id="edge6" class="edge">
<title>SharedModule&#45;&gt;NotificacionModule</title>
<path fill="none" stroke="#000000" d="M189,-122.1061C189,-141.3391 189,-169 189,-169 189,-169 459.1081,-169 459.1081,-169"/>
<polygon fill="#000000" stroke="#000000" points="459.1082,-172.5001 469.1081,-169 459.1081,-165.5001 459.1082,-172.5001"/>
</g>
<!-- ThemeModule -->
<g id="node8" class="node">
<title>ThemeModule</title>
<polygon fill="#8dd3c7" stroke="#000000" points="122.4231,-122 119.4231,-126 98.4231,-126 95.4231,-122 23.5769,-122 23.5769,-86 122.4231,-86 122.4231,-122"/>
<text text-anchor="middle" x="73" y="-99.8" font-family="Times,serif" font-size="14.00" fill="#000000">ThemeModule</text>
</g>
<!-- ThemeModule&#45;&gt;NotificacionModule -->
<g id="edge7" class="edge">
<title>ThemeModule&#45;&gt;NotificacionModule</title>
<path fill="none" stroke="#000000" d="M73,-122.2921C73,-144.2057 73,-178 73,-178 73,-178 459.4145,-178 459.4145,-178"/>
<polygon fill="#000000" stroke="#000000" points="459.4146,-181.5001 469.4145,-178 459.4145,-174.5001 459.4146,-181.5001"/>
</g>
</g>
</svg>
