<?xml version="1.0" encoding="UTF-8" standalone="no"?>
<!DOCTYPE svg PUBLIC "-//W3C//DTD SVG 1.1//EN"
 "http://www.w3.org/Graphics/SVG/1.1/DTD/svg11.dtd">
<!-- Generated by graphviz version 2.40.1 (20161225.0304)
 -->
<!-- Title: dependencies Pages: 1 -->
<svg width="1389pt" height="211pt"
 viewBox="0.00 0.00 1389.00 211.00" xmlns="http://www.w3.org/2000/svg" xmlns:xlink="http://www.w3.org/1999/xlink">
<g id="graph0" class="graph" transform="scale(1 1) rotate(0) translate(4 207)">
<title>dependencies</title>
<polygon fill="#ffffff" stroke="transparent" points="-4,4 -4,-207 1385,-207 1385,4 -4,4"/>
<text text-anchor="start" x="669.5091" y="-42.4" font-family="sans-serif" font-weight="bold" font-size="14.00" fill="#000000">Legend</text>
<polygon fill="#ffffb3" stroke="transparent" points="456.5,-10 456.5,-30 476.5,-30 476.5,-10 456.5,-10"/>
<text text-anchor="start" x="480.129" y="-15.4" font-family="sans-serif" font-size="14.00" fill="#000000"> &#160;Declarations</text>
<polygon fill="#8dd3c7" stroke="transparent" points="569.5,-10 569.5,-30 589.5,-30 589.5,-10 569.5,-10"/>
<text text-anchor="start" x="593.2251" y="-15.4" font-family="sans-serif" font-size="14.00" fill="#000000"> &#160;Module</text>
<polygon fill="#80b1d3" stroke="transparent" points="655.5,-10 655.5,-30 675.5,-30 675.5,-10 655.5,-10"/>
<text text-anchor="start" x="679.2812" y="-15.4" font-family="sans-serif" font-size="14.00" fill="#000000"> &#160;Bootstrap</text>
<polygon fill="#fdb462" stroke="transparent" points="752.5,-10 752.5,-30 772.5,-30 772.5,-10 752.5,-10"/>
<text text-anchor="start" x="776.1732" y="-15.4" font-family="sans-serif" font-size="14.00" fill="#000000"> &#160;Providers</text>
<polygon fill="#fb8072" stroke="transparent" points="848.5,-10 848.5,-30 868.5,-30 868.5,-10 848.5,-10"/>
<text text-anchor="start" x="872.2258" y="-15.4" font-family="sans-serif" font-size="14.00" fill="#000000"> &#160;Exports</text>
<g id="clust1" class="cluster">
<title>cluster_NotificacionModule</title>
<polygon fill="none" stroke="#000000" stroke-dasharray="1,5" points="8,-70 8,-195 1373,-195 1373,-70 8,-70"/>
</g>
<g id="clust2" class="cluster">
<title>cluster_NotificacionModule_declarations</title>
<polygon fill="none" stroke="#000000" points="447,-78 447,-130 1365,-130 1365,-78 447,-78"/>
</g>
<g id="clust7" class="cluster">
<title>cluster_NotificacionModule_imports</title>
<polygon fill="none" stroke="#000000" points="16,-78 16,-130 439,-130 439,-78 16,-78"/>
</g>
<!-- CrudExperienciaLaboralComponent -->
<g id="node1" class="node">
<title>CrudExperienciaLaboralComponent</title>
<polygon fill="#ffffb3" stroke="#000000" points="1356.7156,-122 1137.2844,-122 1137.2844,-86 1356.7156,-86 1356.7156,-122"/>
<text text-anchor="middle" x="1247" y="-99.8" font-family="Times,serif" font-size="14.00" fill="#000000">CrudExperienciaLaboralComponent</text>
</g>
<!-- NotificacionModule -->
<g id="node5" class="node">
<title>NotificacionModule</title>
<polygon fill="#8dd3c7" stroke="#000000" points="630.5241,-187 627.5241,-191 606.5241,-191 603.5241,-187 501.4759,-187 501.4759,-151 630.5241,-151 630.5241,-187"/>
<text text-anchor="middle" x="566" y="-164.8" font-family="Times,serif" font-size="14.00" fill="#000000">NotificacionModule</text>
</g>
<!-- CrudExperienciaLaboralComponent&#45;&gt;NotificacionModule -->
<g id="edge1" class="edge">
<title>CrudExperienciaLaboralComponent&#45;&gt;NotificacionModule</title>
<path fill="none" stroke="#000000" d="M1247,-122.2921C1247,-144.2057 1247,-178 1247,-178 1247,-178 640.6808,-178 640.6808,-178"/>
<polygon fill="#000000" stroke="#000000" points="640.6808,-174.5001 630.6808,-178 640.6807,-181.5001 640.6808,-174.5001"/>
</g>
<!-- ExperienciaLaboralComponent -->
<g id="node2" class="node">
<title>ExperienciaLaboralComponent</title>
<polygon fill="#ffffb3" stroke="#000000" points="1118.7184,-122 927.2816,-122 927.2816,-86 1118.7184,-86 1118.7184,-122"/>
<text text-anchor="middle" x="1023" y="-99.8" font-family="Times,serif" font-size="14.00" fill="#000000">ExperienciaLaboralComponent</text>
</g>
<!-- ExperienciaLaboralComponent&#45;&gt;NotificacionModule -->
<g id="edge2" class="edge">
<title>ExperienciaLaboralComponent&#45;&gt;NotificacionModule</title>
<path fill="none" stroke="#000000" d="M1023,-122.1061C1023,-141.3391 1023,-169 1023,-169 1023,-169 640.9916,-169 640.9916,-169"/>
<polygon fill="#000000" stroke="#000000" points="640.9917,-165.5001 630.9916,-169 640.9916,-172.5001 640.9917,-165.5001"/>
</g>
<!-- ListExperienciaLaboralComponent -->
<g id="node3" class="node">
<title>ListExperienciaLaboralComponent</title>
<polygon fill="#ffffb3" stroke="#000000" points="908.9972,-122 695.0028,-122 695.0028,-86 908.9972,-86 908.9972,-122"/>
<text text-anchor="middle" x="802" y="-99.8" font-family="Times,serif" font-size="14.00" fill="#000000">ListExperienciaLaboralComponent</text>
</g>
<!-- ListExperienciaLaboralComponent&#45;&gt;NotificacionModule -->
<g id="edge3" class="edge">
<title>ListExperienciaLaboralComponent&#45;&gt;NotificacionModule</title>
<path fill="none" stroke="#000000" d="M802,-122.027C802,-138.3976 802,-160 802,-160 802,-160 640.8002,-160 640.8002,-160"/>
<polygon fill="#000000" stroke="#000000" points="640.8002,-156.5001 630.8002,-160 640.8002,-163.5001 640.8002,-156.5001"/>
</g>
<!-- ViewExperienciaLaboralComponent -->
<g id="node4" class="node">
<title>ViewExperienciaLaboralComponent</title>
<polygon fill="#ffffb3" stroke="#000000" points="677.0366,-122 454.9634,-122 454.9634,-86 677.0366,-86 677.0366,-122"/>
<text text-anchor="middle" x="566" y="-99.8" font-family="Times,serif" font-size="14.00" fill="#000000">ViewExperienciaLaboralComponent</text>
</g>
<!-- ViewExperienciaLaboralComponent&#45;&gt;NotificacionModule -->
<g id="edge4" class="edge">
<title>ViewExperienciaLaboralComponent&#45;&gt;NotificacionModule</title>
<path fill="none" stroke="#000000" d="M566,-122.1061C566,-122.1061 566,-140.991 566,-140.991"/>
<polygon fill="#000000" stroke="#000000" points="562.5001,-140.9909 566,-150.991 569.5001,-140.991 562.5001,-140.9909"/>
</g>
<!-- NotificacionRoutingModule -->
<g id="node6" class="node">
<title>NotificacionRoutingModule</title>
<polygon fill="#8dd3c7" stroke="#000000" points="431.1414,-122 428.1414,-126 407.1414,-126 404.1414,-122 256.8586,-122 256.8586,-86 431.1414,-86 431.1414,-122"/>
<text text-anchor="middle" x="344" y="-99.8" font-family="Times,serif" font-size="14.00" fill="#000000">NotificacionRoutingModule</text>
</g>
<!-- NotificacionRoutingModule&#45;&gt;NotificacionModule -->
<g id="edge5" class="edge">
<title>NotificacionRoutingModule&#45;&gt;NotificacionModule</title>
<path fill="none" stroke="#000000" d="M344,-122.027C344,-138.3976 344,-160 344,-160 344,-160 491.1916,-160 491.1916,-160"/>
<polygon fill="#000000" stroke="#000000" points="491.1917,-163.5001 501.1916,-160 491.1916,-156.5001 491.1917,-163.5001"/>
</g>
<!-- SharedModule -->
<g id="node7" class="node">
<title>SharedModule</title>
<polygon fill="#8dd3c7" stroke="#000000" points="238.4231,-122 235.4231,-126 214.4231,-126 211.4231,-122 139.5769,-122 139.5769,-86 238.4231,-86 238.4231,-122"/>
<text text-anchor="middle" x="189" y="-99.8" font-family="Times,serif" font-size="14.00" fill="#000000">SharedModule</text>
</g>
<!-- SharedModule&#45;&gt;NotificacionModule -->
<g id="edge6" class="edge">
<title>SharedModule&#45;&gt;NotificacionModule</title>
<path fill="none" stroke="#000000" d="M189,-122.1061C189,-141.3391 189,-169 189,-169 189,-169 491.1914,-169 491.1914,-169"/>
<polygon fill="#000000" stroke="#000000" points="491.1914,-172.5001 501.1914,-169 491.1914,-165.5001 491.1914,-172.5001"/>
</g>
<!-- ThemeModule -->
<g id="node8" class="node">
<title>ThemeModule</title>
<polygon fill="#8dd3c7" stroke="#000000" points="122.4231,-122 119.4231,-126 98.4231,-126 95.4231,-122 23.5769,-122 23.5769,-86 122.4231,-86 122.4231,-122"/>
<text text-anchor="middle" x="73" y="-99.8" font-family="Times,serif" font-size="14.00" fill="#000000">ThemeModule</text>
</g>
<!-- ThemeModule&#45;&gt;NotificacionModule -->
<g id="edge7" class="edge">
<title>ThemeModule&#45;&gt;NotificacionModule</title>
<path fill="none" stroke="#000000" d="M73,-122.2921C73,-144.2057 73,-178 73,-178 73,-178 491.2956,-178 491.2956,-178"/>
<polygon fill="#000000" stroke="#000000" points="491.2956,-181.5001 501.2956,-178 491.2955,-174.5001 491.2956,-181.5001"/>
</g>
</g>
</svg>
