<?xml version="1.0" encoding="UTF-8" standalone="no"?>
<!DOCTYPE svg PUBLIC "-//W3C//DTD SVG 1.1//EN"
 "http://www.w3.org/Graphics/SVG/1.1/DTD/svg11.dtd">
<!-- Generated by graphviz version 2.40.1 (20161225.0304)
 -->
<!-- Title: dependencies Pages: 1 -->
<svg width="1440pt" height="284pt"
 viewBox="0.00 0.00 1440.00 284.00" xmlns="http://www.w3.org/2000/svg" xmlns:xlink="http://www.w3.org/1999/xlink">
<g id="graph0" class="graph" transform="scale(1 1) rotate(0) translate(4 280)">
<title>dependencies</title>
<polygon fill="#ffffff" stroke="transparent" points="-4,4 -4,-280 1436,-280 1436,4 -4,4"/>
<text text-anchor="start" x="695.0091" y="-42.4" font-family="sans-serif" font-weight="bold" font-size="14.00" fill="#000000">Legend</text>
<polygon fill="#ffffb3" stroke="transparent" points="482,-10 482,-30 502,-30 502,-10 482,-10"/>
<text text-anchor="start" x="505.629" y="-15.4" font-family="sans-serif" font-size="14.00" fill="#000000"> &#160;Declarations</text>
<polygon fill="#8dd3c7" stroke="transparent" points="595,-10 595,-30 615,-30 615,-10 595,-10"/>
<text text-anchor="start" x="618.7251" y="-15.4" font-family="sans-serif" font-size="14.00" fill="#000000"> &#160;Module</text>
<polygon fill="#80b1d3" stroke="transparent" points="681,-10 681,-30 701,-30 701,-10 681,-10"/>
<text text-anchor="start" x="704.7812" y="-15.4" font-family="sans-serif" font-size="14.00" fill="#000000"> &#160;Bootstrap</text>
<polygon fill="#fdb462" stroke="transparent" points="778,-10 778,-30 798,-30 798,-10 778,-10"/>
<text text-anchor="start" x="801.6732" y="-15.4" font-family="sans-serif" font-size="14.00" fill="#000000"> &#160;Providers</text>
<polygon fill="#fb8072" stroke="transparent" points="874,-10 874,-30 894,-30 894,-10 874,-10"/>
<text text-anchor="start" x="897.7258" y="-15.4" font-family="sans-serif" font-size="14.00" fill="#000000"> &#160;Exports</text>
<g id="clust1" class="cluster">
<title>cluster_DescuentoMatriculaModule</title>
<polygon fill="none" stroke="#000000" stroke-dasharray="1,5" points="8,-70 8,-268 1424,-268 1424,-70 8,-70"/>
</g>
<g id="clust2" class="cluster">
<title>cluster_DescuentoMatriculaModule_declarations</title>
<polygon fill="none" stroke="#000000" points="754,-78 754,-130 1416,-130 1416,-78 754,-78"/>
</g>
<g id="clust7" class="cluster">
<title>cluster_DescuentoMatriculaModule_imports</title>
<polygon fill="none" stroke="#000000" points="280,-78 280,-130 746,-130 746,-78 280,-78"/>
</g>
<g id="clust8" class="cluster">
<title>cluster_DescuentoMatriculaModule_exports</title>
<polygon fill="none" stroke="#000000" points="371,-208 371,-260 1097,-260 1097,-208 371,-208"/>
</g>
<g id="clust10" class="cluster">
<title>cluster_DescuentoMatriculaModule_providers</title>
<polygon fill="none" stroke="#000000" points="16,-78 16,-130 272,-130 272,-78 16,-78"/>
</g>
<!-- ArticuloComponent -->
<g id="node1" class="node">
<title>ArticuloComponent</title>
<polygon fill="#ffffb3" stroke="#000000" points="1407.986,-122 1280.014,-122 1280.014,-86 1407.986,-86 1407.986,-122"/>
<text text-anchor="middle" x="1344" y="-99.8" font-family="Times,serif" font-size="14.00" fill="#000000">ArticuloComponent</text>
</g>
<!-- DescuentoMatriculaModule -->
<g id="node5" class="node">
<title>DescuentoMatriculaModule</title>
<polygon fill="#8dd3c7" stroke="#000000" points="821.5562,-187 818.5562,-191 797.5562,-191 794.5562,-187 648.4438,-187 648.4438,-151 821.5562,-151 821.5562,-187"/>
<text text-anchor="middle" x="735" y="-164.8" font-family="Times,serif" font-size="14.00" fill="#000000">DescuentoMatriculaModule</text>
</g>
<!-- ArticuloComponent&#45;&gt;DescuentoMatriculaModule -->
<g id="edge1" class="edge">
<title>ArticuloComponent&#45;&gt;DescuentoMatriculaModule</title>
<path fill="none" stroke="#000000" d="M1344,-122.1289C1344,-142.5724 1344,-173 1344,-173 1344,-173 831.6081,-173 831.6081,-173"/>
<polygon fill="#000000" stroke="#000000" points="831.6081,-169.5001 821.6081,-173 831.6081,-176.5001 831.6081,-169.5001"/>
</g>
<!-- CrudArticuloComponent -->
<g id="node2" class="node">
<title>CrudArticuloComponent</title>
<polygon fill="#ffffb3" stroke="#000000" points="1261.9832,-122 1106.0168,-122 1106.0168,-86 1261.9832,-86 1261.9832,-122"/>
<text text-anchor="middle" x="1184" y="-99.8" font-family="Times,serif" font-size="14.00" fill="#000000">CrudArticuloComponent</text>
</g>
<!-- CrudArticuloComponent&#45;&gt;DescuentoMatriculaModule -->
<g id="edge2" class="edge">
<title>CrudArticuloComponent&#45;&gt;DescuentoMatriculaModule</title>
<path fill="none" stroke="#000000" d="M1184,-122.2667C1184,-140.5552 1184,-166 1184,-166 1184,-166 831.5717,-166 831.5717,-166"/>
<polygon fill="#000000" stroke="#000000" points="831.5718,-162.5001 821.5717,-166 831.5717,-169.5001 831.5718,-162.5001"/>
</g>
<!-- ListArticuloComponent -->
<g id="node3" class="node">
<title>ListArticuloComponent</title>
<polygon fill="#ffffb3" stroke="#000000" points="1087.7646,-122 938.2354,-122 938.2354,-86 1087.7646,-86 1087.7646,-122"/>
<text text-anchor="middle" x="1013" y="-99.8" font-family="Times,serif" font-size="14.00" fill="#000000">ListArticuloComponent</text>
</g>
<!-- ListArticuloComponent&#45;&gt;DescuentoMatriculaModule -->
<g id="edge3" class="edge">
<title>ListArticuloComponent&#45;&gt;DescuentoMatriculaModule</title>
<path fill="none" stroke="#000000" d="M1013,-122.0091C1013,-138.0494 1013,-159 1013,-159 1013,-159 831.8174,-159 831.8174,-159"/>
<polygon fill="#000000" stroke="#000000" points="831.8175,-155.5001 821.8174,-159 831.8174,-162.5001 831.8175,-155.5001"/>
</g>
<!-- ViewArticuloComponent -->
<g id="node4" class="node">
<title>ViewArticuloComponent</title>
<polygon fill="#ffffb3" stroke="#000000" points="920.3047,-122 761.6953,-122 761.6953,-86 920.3047,-86 920.3047,-122"/>
<text text-anchor="middle" x="841" y="-99.8" font-family="Times,serif" font-size="14.00" fill="#000000">ViewArticuloComponent</text>
</g>
<!-- ViewArticuloComponent&#45;&gt;DescuentoMatriculaModule -->
<g id="edge4" class="edge">
<title>ViewArticuloComponent&#45;&gt;DescuentoMatriculaModule</title>
<path fill="none" stroke="#000000" d="M791.688,-122.1061C791.688,-122.1061 791.688,-140.991 791.688,-140.991"/>
<polygon fill="#000000" stroke="#000000" points="788.188,-140.9909 791.688,-150.991 795.188,-140.991 788.188,-140.9909"/>
</g>
<!-- CrudDescuentoMatriculaComponent  -->
<g id="node9" class="node">
<title>CrudDescuentoMatriculaComponent </title>
<polygon fill="#fb8072" stroke="#000000" points="1089.3362,-252 862.6638,-252 862.6638,-216 1089.3362,-216 1089.3362,-252"/>
<text text-anchor="middle" x="976" y="-229.8" font-family="Times,serif" font-size="14.00" fill="#000000">CrudDescuentoMatriculaComponent </text>
</g>
<!-- DescuentoMatriculaModule&#45;&gt;CrudDescuentoMatriculaComponent  -->
<g id="edge8" class="edge">
<title>DescuentoMatriculaModule&#45;&gt;CrudDescuentoMatriculaComponent </title>
<path fill="none" stroke="#000000" stroke-dasharray="5,2" d="M821.941,-180C857.9609,-180 891.4921,-180 891.4921,-180 891.4921,-180 891.4921,-205.7181 891.4921,-205.7181"/>
<polygon fill="#000000" stroke="#000000" points="887.9922,-205.718 891.4921,-215.7181 894.9922,-205.7181 887.9922,-205.718"/>
</g>
<!-- ListDescuentoMatriculaComponent  -->
<g id="node10" class="node">
<title>ListDescuentoMatriculaComponent </title>
<polygon fill="#fb8072" stroke="#000000" points="845.1172,-252 624.8828,-252 624.8828,-216 845.1172,-216 845.1172,-252"/>
<text text-anchor="middle" x="735" y="-229.8" font-family="Times,serif" font-size="14.00" fill="#000000">ListDescuentoMatriculaComponent </text>
</g>
<!-- DescuentoMatriculaModule&#45;&gt;ListDescuentoMatriculaComponent  -->
<g id="edge9" class="edge">
<title>DescuentoMatriculaModule&#45;&gt;ListDescuentoMatriculaComponent </title>
<path fill="none" stroke="#000000" stroke-dasharray="5,2" d="M735,-187.1061C735,-187.1061 735,-205.991 735,-205.991"/>
<polygon fill="#000000" stroke="#000000" points="731.5001,-205.9909 735,-215.991 738.5001,-205.991 731.5001,-205.9909"/>
</g>
<!-- ViewDescuentoMatriculaComponent  -->
<g id="node11" class="node">
<title>ViewDescuentoMatriculaComponent </title>
<polygon fill="#fb8072" stroke="#000000" points="607.1575,-252 378.8425,-252 378.8425,-216 607.1575,-216 607.1575,-252"/>
<text text-anchor="middle" x="493" y="-229.8" font-family="Times,serif" font-size="14.00" fill="#000000">ViewDescuentoMatriculaComponent </text>
</g>
<!-- DescuentoMatriculaModule&#45;&gt;ViewDescuentoMatriculaComponent  -->
<g id="edge10" class="edge">
<title>DescuentoMatriculaModule&#45;&gt;ViewDescuentoMatriculaComponent </title>
<path fill="none" stroke="#000000" stroke-dasharray="5,2" d="M648.3062,-180C605.7988,-180 563.6208,-180 563.6208,-180 563.6208,-180 563.6208,-205.7181 563.6208,-205.7181"/>
<polygon fill="#000000" stroke="#000000" points="560.1209,-205.718 563.6208,-215.7181 567.1209,-205.7181 560.1209,-205.718"/>
</g>
<!-- DescuentoMatriculaRoutingModule -->
<g id="node6" class="node">
<title>DescuentoMatriculaRoutingModule</title>
<polygon fill="#8dd3c7" stroke="#000000" points="738.1741,-122 735.1741,-126 714.1741,-126 711.1741,-122 519.8259,-122 519.8259,-86 738.1741,-86 738.1741,-122"/>
<text text-anchor="middle" x="629" y="-99.8" font-family="Times,serif" font-size="14.00" fill="#000000">DescuentoMatriculaRoutingModule</text>
</g>
<!-- DescuentoMatriculaRoutingModule&#45;&gt;DescuentoMatriculaModule -->
<g id="edge5" class="edge">
<title>DescuentoMatriculaRoutingModule&#45;&gt;DescuentoMatriculaModule</title>
<path fill="none" stroke="#000000" d="M693.2795,-122.1061C693.2795,-122.1061 693.2795,-140.991 693.2795,-140.991"/>
<polygon fill="#000000" stroke="#000000" points="689.7795,-140.9909 693.2795,-150.991 696.7795,-140.991 689.7795,-140.9909"/>
</g>
<!-- SharedModule -->
<g id="node7" class="node">
<title>SharedModule</title>
<polygon fill="#8dd3c7" stroke="#000000" points="502.4231,-122 499.4231,-126 478.4231,-126 475.4231,-122 403.5769,-122 403.5769,-86 502.4231,-86 502.4231,-122"/>
<text text-anchor="middle" x="453" y="-99.8" font-family="Times,serif" font-size="14.00" fill="#000000">SharedModule</text>
</g>
<!-- SharedModule&#45;&gt;DescuentoMatriculaModule -->
<g id="edge6" class="edge">
<title>SharedModule&#45;&gt;DescuentoMatriculaModule</title>
<path fill="none" stroke="#000000" d="M453,-122.0091C453,-138.0494 453,-159 453,-159 453,-159 638.0897,-159 638.0897,-159"/>
<polygon fill="#000000" stroke="#000000" points="638.0897,-162.5001 648.0897,-159 638.0896,-155.5001 638.0897,-162.5001"/>
</g>
<!-- ThemeModule -->
<g id="node8" class="node">
<title>ThemeModule</title>
<polygon fill="#8dd3c7" stroke="#000000" points="386.4231,-122 383.4231,-126 362.4231,-126 359.4231,-122 287.5769,-122 287.5769,-86 386.4231,-86 386.4231,-122"/>
<text text-anchor="middle" x="337" y="-99.8" font-family="Times,serif" font-size="14.00" fill="#000000">ThemeModule</text>
</g>
<!-- ThemeModule&#45;&gt;DescuentoMatriculaModule -->
<g id="edge7" class="edge">
<title>ThemeModule&#45;&gt;DescuentoMatriculaModule</title>
<path fill="none" stroke="#000000" d="M382.4412,-122.2667C382.4412,-140.5552 382.4412,-166 382.4412,-166 382.4412,-166 638.3029,-166 638.3029,-166"/>
<polygon fill="#000000" stroke="#000000" points="638.3029,-169.5001 648.3029,-166 638.3028,-162.5001 638.3029,-169.5001"/>
</g>
<!-- DescuentosPosgradoService -->
<g id="node12" class="node">
<title>DescuentosPosgradoService</title>
<ellipse fill="#fdb462" stroke="#000000" cx="144" cy="-104" rx="120.3859" ry="18"/>
<text text-anchor="middle" x="144" y="-99.8" font-family="Times,serif" font-size="14.00" fill="#000000">DescuentosPosgradoService</text>
</g>
<!-- DescuentosPosgradoService&#45;&gt;DescuentoMatriculaModule -->
<g id="edge11" class="edge">
<title>DescuentosPosgradoService&#45;&gt;DescuentoMatriculaModule</title>
<path fill="none" stroke="#000000" d="M144,-122.1289C144,-142.5724 144,-173 144,-173 144,-173 638.4306,-173 638.4306,-173"/>
<polygon fill="#000000" stroke="#000000" points="638.4306,-176.5001 648.4306,-173 638.4306,-169.5001 638.4306,-176.5001"/>
</g>
</g>
</svg>
