<?xml version="1.0" encoding="UTF-8" standalone="no"?>
<!DOCTYPE svg PUBLIC "-//W3C//DTD SVG 1.1//EN"
 "http://www.w3.org/Graphics/SVG/1.1/DTD/svg11.dtd">
<!-- Generated by graphviz version 2.40.1 (20161225.0304)
 -->
<!-- Title: dependencies Pages: 1 -->
<svg width="1478pt" height="284pt"
 viewBox="0.00 0.00 1478.00 284.00" xmlns="http://www.w3.org/2000/svg" xmlns:xlink="http://www.w3.org/1999/xlink">
<g id="graph0" class="graph" transform="scale(1 1) rotate(0) translate(4 280)">
<title>dependencies</title>
<polygon fill="#ffffff" stroke="transparent" points="-4,4 -4,-280 1474,-280 1474,4 -4,4"/>
<text text-anchor="start" x="714.0091" y="-42.4" font-family="sans-serif" font-weight="bold" font-size="14.00" fill="#000000">Legend</text>
<polygon fill="#ffffb3" stroke="transparent" points="501,-10 501,-30 521,-30 521,-10 501,-10"/>
<text text-anchor="start" x="524.629" y="-15.4" font-family="sans-serif" font-size="14.00" fill="#000000"> &#160;Declarations</text>
<polygon fill="#8dd3c7" stroke="transparent" points="614,-10 614,-30 634,-30 634,-10 614,-10"/>
<text text-anchor="start" x="637.7251" y="-15.4" font-family="sans-serif" font-size="14.00" fill="#000000"> &#160;Module</text>
<polygon fill="#80b1d3" stroke="transparent" points="700,-10 700,-30 720,-30 720,-10 700,-10"/>
<text text-anchor="start" x="723.7812" y="-15.4" font-family="sans-serif" font-size="14.00" fill="#000000"> &#160;Bootstrap</text>
<polygon fill="#fdb462" stroke="transparent" points="797,-10 797,-30 817,-30 817,-10 797,-10"/>
<text text-anchor="start" x="820.6732" y="-15.4" font-family="sans-serif" font-size="14.00" fill="#000000"> &#160;Providers</text>
<polygon fill="#fb8072" stroke="transparent" points="893,-10 893,-30 913,-30 913,-10 893,-10"/>
<text text-anchor="start" x="916.7258" y="-15.4" font-family="sans-serif" font-size="14.00" fill="#000000"> &#160;Exports</text>
<g id="clust1" class="cluster">
<title>cluster_PropuestaGradoModule</title>
<polygon fill="none" stroke="#000000" stroke-dasharray="1,5" points="8,-70 8,-268 1462,-268 1462,-70 8,-70"/>
</g>
<g id="clust2" class="cluster">
<title>cluster_PropuestaGradoModule_declarations</title>
<polygon fill="none" stroke="#000000" points="792,-78 792,-130 1454,-130 1454,-78 792,-78"/>
</g>
<g id="clust7" class="cluster">
<title>cluster_PropuestaGradoModule_imports</title>
<polygon fill="none" stroke="#000000" points="341,-78 341,-130 784,-130 784,-78 341,-78"/>
</g>
<g id="clust8" class="cluster">
<title>cluster_PropuestaGradoModule_exports</title>
<polygon fill="none" stroke="#000000" points="457,-208 457,-260 900,-260 900,-208 457,-208"/>
</g>
<g id="clust10" class="cluster">
<title>cluster_PropuestaGradoModule_providers</title>
<polygon fill="none" stroke="#000000" points="16,-78 16,-130 333,-130 333,-78 16,-78"/>
</g>
<!-- ArticuloComponent -->
<g id="node1" class="node">
<title>ArticuloComponent</title>
<polygon fill="#ffffb3" stroke="#000000" points="1445.986,-122 1318.014,-122 1318.014,-86 1445.986,-86 1445.986,-122"/>
<text text-anchor="middle" x="1382" y="-99.8" font-family="Times,serif" font-size="14.00" fill="#000000">ArticuloComponent</text>
</g>
<!-- PropuestaGradoModule -->
<g id="node5" class="node">
<title>PropuestaGradoModule</title>
<polygon fill="#8dd3c7" stroke="#000000" points="753.7394,-187 750.7394,-191 729.7394,-191 726.7394,-187 604.2606,-187 604.2606,-151 753.7394,-151 753.7394,-187"/>
<text text-anchor="middle" x="679" y="-164.8" font-family="Times,serif" font-size="14.00" fill="#000000">PropuestaGradoModule</text>
</g>
<!-- ArticuloComponent&#45;&gt;PropuestaGradoModule -->
<g id="edge1" class="edge">
<title>ArticuloComponent&#45;&gt;PropuestaGradoModule</title>
<path fill="none" stroke="#000000" d="M1382,-122.0109C1382,-144.4852 1382,-180 1382,-180 1382,-180 763.9002,-180 763.9002,-180"/>
<polygon fill="#000000" stroke="#000000" points="763.9003,-176.5001 753.9002,-180 763.9002,-183.5001 763.9003,-176.5001"/>
</g>
<!-- CrudArticuloComponent -->
<g id="node2" class="node">
<title>CrudArticuloComponent</title>
<polygon fill="#ffffb3" stroke="#000000" points="1299.9832,-122 1144.0168,-122 1144.0168,-86 1299.9832,-86 1299.9832,-122"/>
<text text-anchor="middle" x="1222" y="-99.8" font-family="Times,serif" font-size="14.00" fill="#000000">CrudArticuloComponent</text>
</g>
<!-- CrudArticuloComponent&#45;&gt;PropuestaGradoModule -->
<g id="edge2" class="edge">
<title>CrudArticuloComponent&#45;&gt;PropuestaGradoModule</title>
<path fill="none" stroke="#000000" d="M1222,-122.1289C1222,-142.5724 1222,-173 1222,-173 1222,-173 763.9317,-173 763.9317,-173"/>
<polygon fill="#000000" stroke="#000000" points="763.9318,-169.5001 753.9317,-173 763.9317,-176.5001 763.9318,-169.5001"/>
</g>
<!-- ListArticuloComponent -->
<g id="node3" class="node">
<title>ListArticuloComponent</title>
<polygon fill="#ffffb3" stroke="#000000" points="1125.7646,-122 976.2354,-122 976.2354,-86 1125.7646,-86 1125.7646,-122"/>
<text text-anchor="middle" x="1051" y="-99.8" font-family="Times,serif" font-size="14.00" fill="#000000">ListArticuloComponent</text>
</g>
<!-- ListArticuloComponent&#45;&gt;PropuestaGradoModule -->
<g id="edge3" class="edge">
<title>ListArticuloComponent&#45;&gt;PropuestaGradoModule</title>
<path fill="none" stroke="#000000" d="M1051,-122.2667C1051,-140.5552 1051,-166 1051,-166 1051,-166 763.8323,-166 763.8323,-166"/>
<polygon fill="#000000" stroke="#000000" points="763.8323,-162.5001 753.8323,-166 763.8322,-169.5001 763.8323,-162.5001"/>
</g>
<!-- ViewArticuloComponent -->
<g id="node4" class="node">
<title>ViewArticuloComponent</title>
<polygon fill="#ffffb3" stroke="#000000" points="958.3047,-122 799.6953,-122 799.6953,-86 958.3047,-86 958.3047,-122"/>
<text text-anchor="middle" x="879" y="-99.8" font-family="Times,serif" font-size="14.00" fill="#000000">ViewArticuloComponent</text>
</g>
<!-- ViewArticuloComponent&#45;&gt;PropuestaGradoModule -->
<g id="edge4" class="edge">
<title>ViewArticuloComponent&#45;&gt;PropuestaGradoModule</title>
<path fill="none" stroke="#000000" d="M845.6787,-122.0091C845.6787,-138.0494 845.6787,-159 845.6787,-159 845.6787,-159 764.0501,-159 764.0501,-159"/>
<polygon fill="#000000" stroke="#000000" points="764.0502,-155.5001 754.0501,-159 764.0501,-162.5001 764.0502,-155.5001"/>
</g>
<!-- CrudPropuestaGradoComponent  -->
<g id="node9" class="node">
<title>CrudPropuestaGradoComponent </title>
<polygon fill="#fb8072" stroke="#000000" points="891.519,-252 688.481,-252 688.481,-216 891.519,-216 891.519,-252"/>
<text text-anchor="middle" x="790" y="-229.8" font-family="Times,serif" font-size="14.00" fill="#000000">CrudPropuestaGradoComponent </text>
</g>
<!-- PropuestaGradoModule&#45;&gt;CrudPropuestaGradoComponent  -->
<g id="edge8" class="edge">
<title>PropuestaGradoModule&#45;&gt;CrudPropuestaGradoComponent </title>
<path fill="none" stroke="#000000" stroke-dasharray="5,2" d="M721.18,-187.1061C721.18,-187.1061 721.18,-205.991 721.18,-205.991"/>
<polygon fill="#000000" stroke="#000000" points="717.6801,-205.9909 721.18,-215.991 724.6801,-205.991 717.6801,-205.9909"/>
</g>
<!-- ViewPropuestaGradoComponent  -->
<g id="node10" class="node">
<title>ViewPropuestaGradoComponent </title>
<polygon fill="#fb8072" stroke="#000000" points="670.8405,-252 465.1595,-252 465.1595,-216 670.8405,-216 670.8405,-252"/>
<text text-anchor="middle" x="568" y="-229.8" font-family="Times,serif" font-size="14.00" fill="#000000">ViewPropuestaGradoComponent </text>
</g>
<!-- PropuestaGradoModule&#45;&gt;ViewPropuestaGradoComponent  -->
<g id="edge9" class="edge">
<title>PropuestaGradoModule&#45;&gt;ViewPropuestaGradoComponent </title>
<path fill="none" stroke="#000000" stroke-dasharray="5,2" d="M637.4003,-187.1061C637.4003,-187.1061 637.4003,-205.991 637.4003,-205.991"/>
<polygon fill="#000000" stroke="#000000" points="633.9003,-205.9909 637.4003,-215.991 640.9003,-205.991 633.9003,-205.9909"/>
</g>
<!-- PropuestaGradoRoutingModule -->
<g id="node6" class="node">
<title>PropuestaGradoRoutingModule</title>
<polygon fill="#8dd3c7" stroke="#000000" points="776.3571,-122 773.3571,-126 752.3571,-126 749.3571,-122 581.6429,-122 581.6429,-86 776.3571,-86 776.3571,-122"/>
<text text-anchor="middle" x="679" y="-99.8" font-family="Times,serif" font-size="14.00" fill="#000000">PropuestaGradoRoutingModule</text>
</g>
<!-- PropuestaGradoRoutingModule&#45;&gt;PropuestaGradoModule -->
<g id="edge5" class="edge">
<title>PropuestaGradoRoutingModule&#45;&gt;PropuestaGradoModule</title>
<path fill="none" stroke="#000000" d="M679,-122.1061C679,-122.1061 679,-140.991 679,-140.991"/>
<polygon fill="#000000" stroke="#000000" points="675.5001,-140.9909 679,-150.991 682.5001,-140.991 675.5001,-140.9909"/>
</g>
<!-- SharedModule -->
<g id="node7" class="node">
<title>SharedModule</title>
<polygon fill="#8dd3c7" stroke="#000000" points="563.4231,-122 560.4231,-126 539.4231,-126 536.4231,-122 464.5769,-122 464.5769,-86 563.4231,-86 563.4231,-122"/>
<text text-anchor="middle" x="514" y="-99.8" font-family="Times,serif" font-size="14.00" fill="#000000">SharedModule</text>
</g>
<!-- SharedModule&#45;&gt;PropuestaGradoModule -->
<g id="edge6" class="edge">
<title>SharedModule&#45;&gt;PropuestaGradoModule</title>
<path fill="none" stroke="#000000" d="M514.2705,-122.0091C514.2705,-138.0494 514.2705,-159 514.2705,-159 514.2705,-159 593.8661,-159 593.8661,-159"/>
<polygon fill="#000000" stroke="#000000" points="593.8661,-162.5001 603.8661,-159 593.866,-155.5001 593.8661,-162.5001"/>
</g>
<!-- ThemeModule -->
<g id="node8" class="node">
<title>ThemeModule</title>
<polygon fill="#8dd3c7" stroke="#000000" points="447.4231,-122 444.4231,-126 423.4231,-126 420.4231,-122 348.5769,-122 348.5769,-86 447.4231,-86 447.4231,-122"/>
<text text-anchor="middle" x="398" y="-99.8" font-family="Times,serif" font-size="14.00" fill="#000000">ThemeModule</text>
</g>
<!-- ThemeModule&#45;&gt;PropuestaGradoModule -->
<g id="edge7" class="edge">
<title>ThemeModule&#45;&gt;PropuestaGradoModule</title>
<path fill="none" stroke="#000000" d="M398,-122.2667C398,-140.5552 398,-166 398,-166 398,-166 594.0663,-166 594.0663,-166"/>
<polygon fill="#000000" stroke="#000000" points="594.0663,-169.5001 604.0663,-166 594.0663,-162.5001 594.0663,-169.5001"/>
</g>
<!-- InscripcionService -->
<g id="node11" class="node">
<title>InscripcionService</title>
<ellipse fill="#fdb462" stroke="#000000" cx="242" cy="-104" rx="83.3635" ry="18"/>
<text text-anchor="middle" x="242" y="-99.8" font-family="Times,serif" font-size="14.00" fill="#000000">InscripcionService</text>
</g>
<!-- InscripcionService&#45;&gt;PropuestaGradoModule -->
<g id="edge10" class="edge">
<title>InscripcionService&#45;&gt;PropuestaGradoModule</title>
<path fill="none" stroke="#000000" d="M242,-122.1289C242,-142.5724 242,-173 242,-173 242,-173 593.877,-173 593.877,-173"/>
<polygon fill="#000000" stroke="#000000" points="593.8771,-176.5001 603.877,-173 593.877,-169.5001 593.8771,-176.5001"/>
</g>
<!-- UserService -->
<g id="node12" class="node">
<title>UserService</title>
<ellipse fill="#fdb462" stroke="#000000" cx="82" cy="-104" rx="58.4415" ry="18"/>
<text text-anchor="middle" x="82" y="-99.8" font-family="Times,serif" font-size="14.00" fill="#000000">UserService</text>
</g>
<!-- UserService&#45;&gt;PropuestaGradoModule -->
<g id="edge11" class="edge">
<title>UserService&#45;&gt;PropuestaGradoModule</title>
<path fill="none" stroke="#000000" d="M82,-122.0109C82,-144.4852 82,-180 82,-180 82,-180 593.994,-180 593.994,-180"/>
<polygon fill="#000000" stroke="#000000" points="593.9941,-183.5001 603.994,-180 593.994,-176.5001 593.9941,-183.5001"/>
</g>
</g>
</svg>
