<?xml version="1.0" encoding="UTF-8" standalone="no"?>
<!DOCTYPE svg PUBLIC "-//W3C//DTD SVG 1.1//EN"
 "http://www.w3.org/Graphics/SVG/1.1/DTD/svg11.dtd">
<!-- Generated by graphviz version 2.40.1 (20161225.0304)
 -->
<!-- Title: dependencies Pages: 1 -->
<svg width="1614pt" height="284pt"
 viewBox="0.00 0.00 1614.00 284.00" xmlns="http://www.w3.org/2000/svg" xmlns:xlink="http://www.w3.org/1999/xlink">
<g id="graph0" class="graph" transform="scale(1 1) rotate(0) translate(4 280)">
<title>dependencies</title>
<polygon fill="#ffffff" stroke="transparent" points="-4,4 -4,-280 1610,-280 1610,4 -4,4"/>
<text text-anchor="start" x="782.0091" y="-42.4" font-family="sans-serif" font-weight="bold" font-size="14.00" fill="#000000">Legend</text>
<polygon fill="#ffffb3" stroke="transparent" points="569,-10 569,-30 589,-30 589,-10 569,-10"/>
<text text-anchor="start" x="592.629" y="-15.4" font-family="sans-serif" font-size="14.00" fill="#000000"> &#160;Declarations</text>
<polygon fill="#8dd3c7" stroke="transparent" points="682,-10 682,-30 702,-30 702,-10 682,-10"/>
<text text-anchor="start" x="705.7251" y="-15.4" font-family="sans-serif" font-size="14.00" fill="#000000"> &#160;Module</text>
<polygon fill="#80b1d3" stroke="transparent" points="768,-10 768,-30 788,-30 788,-10 768,-10"/>
<text text-anchor="start" x="791.7812" y="-15.4" font-family="sans-serif" font-size="14.00" fill="#000000"> &#160;Bootstrap</text>
<polygon fill="#fdb462" stroke="transparent" points="865,-10 865,-30 885,-30 885,-10 865,-10"/>
<text text-anchor="start" x="888.6732" y="-15.4" font-family="sans-serif" font-size="14.00" fill="#000000"> &#160;Providers</text>
<polygon fill="#fb8072" stroke="transparent" points="961,-10 961,-30 981,-30 981,-10 961,-10"/>
<text text-anchor="start" x="984.7258" y="-15.4" font-family="sans-serif" font-size="14.00" fill="#000000"> &#160;Exports</text>
<g id="clust1" class="cluster">
<title>cluster_PropuestaGradoModule</title>
<polygon fill="none" stroke="#000000" stroke-dasharray="1,5" points="8,-70 8,-268 1598,-268 1598,-70 8,-70"/>
</g>
<g id="clust2" class="cluster">
<title>cluster_PropuestaGradoModule_declarations</title>
<polygon fill="none" stroke="#000000" points="928,-78 928,-130 1590,-130 1590,-78 928,-78"/>
</g>
<g id="clust7" class="cluster">
<title>cluster_PropuestaGradoModule_imports</title>
<polygon fill="none" stroke="#000000" points="477,-78 477,-130 920,-130 920,-78 477,-78"/>
</g>
<g id="clust8" class="cluster">
<title>cluster_PropuestaGradoModule_exports</title>
<polygon fill="none" stroke="#000000" points="510,-208 510,-260 953,-260 953,-208 510,-208"/>
</g>
<g id="clust10" class="cluster">
<title>cluster_PropuestaGradoModule_providers</title>
<polygon fill="none" stroke="#000000" points="16,-78 16,-130 469,-130 469,-78 16,-78"/>
</g>
<!-- ArticuloComponent -->
<g id="node1" class="node">
<title>ArticuloComponent</title>
<polygon fill="#ffffb3" stroke="#000000" points="1581.986,-122 1454.014,-122 1454.014,-86 1581.986,-86 1581.986,-122"/>
<text text-anchor="middle" x="1518" y="-99.8" font-family="Times,serif" font-size="14.00" fill="#000000">ArticuloComponent</text>
</g>
<!-- PropuestaGradoModule -->
<g id="node5" class="node">
<title>PropuestaGradoModule</title>
<polygon fill="#8dd3c7" stroke="#000000" points="806.7394,-187 803.7394,-191 782.7394,-191 779.7394,-187 657.2606,-187 657.2606,-151 806.7394,-151 806.7394,-187"/>
<text text-anchor="middle" x="732" y="-164.8" font-family="Times,serif" font-size="14.00" fill="#000000">PropuestaGradoModule</text>
</g>
<!-- ArticuloComponent&#45;&gt;PropuestaGradoModule -->
<g id="edge1" class="edge">
<title>ArticuloComponent&#45;&gt;PropuestaGradoModule</title>
<path fill="none" stroke="#000000" d="M1518,-122.0109C1518,-144.4852 1518,-180 1518,-180 1518,-180 817.0089,-180 817.0089,-180"/>
<polygon fill="#000000" stroke="#000000" points="817.009,-176.5001 807.0089,-180 817.0089,-183.5001 817.009,-176.5001"/>
</g>
<!-- CrudArticuloComponent -->
<g id="node2" class="node">
<title>CrudArticuloComponent</title>
<polygon fill="#ffffb3" stroke="#000000" points="1435.9832,-122 1280.0168,-122 1280.0168,-86 1435.9832,-86 1435.9832,-122"/>
<text text-anchor="middle" x="1358" y="-99.8" font-family="Times,serif" font-size="14.00" fill="#000000">CrudArticuloComponent</text>
</g>
<!-- CrudArticuloComponent&#45;&gt;PropuestaGradoModule -->
<g id="edge2" class="edge">
<title>CrudArticuloComponent&#45;&gt;PropuestaGradoModule</title>
<path fill="none" stroke="#000000" d="M1358,-122.1289C1358,-142.5724 1358,-173 1358,-173 1358,-173 816.8884,-173 816.8884,-173"/>
<polygon fill="#000000" stroke="#000000" points="816.8885,-169.5001 806.8884,-173 816.8884,-176.5001 816.8885,-169.5001"/>
</g>
<!-- ListArticuloComponent -->
<g id="node3" class="node">
<title>ListArticuloComponent</title>
<polygon fill="#ffffb3" stroke="#000000" points="1261.7646,-122 1112.2354,-122 1112.2354,-86 1261.7646,-86 1261.7646,-122"/>
<text text-anchor="middle" x="1187" y="-99.8" font-family="Times,serif" font-size="14.00" fill="#000000">ListArticuloComponent</text>
</g>
<!-- ListArticuloComponent&#45;&gt;PropuestaGradoModule -->
<g id="edge3" class="edge">
<title>ListArticuloComponent&#45;&gt;PropuestaGradoModule</title>
<path fill="none" stroke="#000000" d="M1187,-122.2667C1187,-140.5552 1187,-166 1187,-166 1187,-166 816.8791,-166 816.8791,-166"/>
<polygon fill="#000000" stroke="#000000" points="816.8791,-162.5001 806.8791,-166 816.8791,-169.5001 816.8791,-162.5001"/>
</g>
<!-- ViewArticuloComponent -->
<g id="node4" class="node">
<title>ViewArticuloComponent</title>
<polygon fill="#ffffb3" stroke="#000000" points="1094.3047,-122 935.6953,-122 935.6953,-86 1094.3047,-86 1094.3047,-122"/>
<text text-anchor="middle" x="1015" y="-99.8" font-family="Times,serif" font-size="14.00" fill="#000000">ViewArticuloComponent</text>
</g>
<!-- ViewArticuloComponent&#45;&gt;PropuestaGradoModule -->
<g id="edge4" class="edge">
<title>ViewArticuloComponent&#45;&gt;PropuestaGradoModule</title>
<path fill="none" stroke="#000000" d="M940.1787,-122.0091C940.1787,-138.0494 940.1787,-159 940.1787,-159 940.1787,-159 816.8632,-159 816.8632,-159"/>
<polygon fill="#000000" stroke="#000000" points="816.8632,-155.5001 806.8632,-159 816.8631,-162.5001 816.8632,-155.5001"/>
</g>
<!-- CrudPropuestaGradoComponent  -->
<g id="node9" class="node">
<title>CrudPropuestaGradoComponent </title>
<polygon fill="#fb8072" stroke="#000000" points="944.519,-252 741.481,-252 741.481,-216 944.519,-216 944.519,-252"/>
<text text-anchor="middle" x="843" y="-229.8" font-family="Times,serif" font-size="14.00" fill="#000000">CrudPropuestaGradoComponent </text>
</g>
<!-- PropuestaGradoModule&#45;&gt;CrudPropuestaGradoComponent  -->
<g id="edge8" class="edge">
<title>PropuestaGradoModule&#45;&gt;CrudPropuestaGradoComponent </title>
<path fill="none" stroke="#000000" stroke-dasharray="5,2" d="M774.18,-187.1061C774.18,-187.1061 774.18,-205.991 774.18,-205.991"/>
<polygon fill="#000000" stroke="#000000" points="770.6801,-205.9909 774.18,-215.991 777.6801,-205.991 770.6801,-205.9909"/>
</g>
<!-- ViewPropuestaGradoComponent  -->
<g id="node10" class="node">
<title>ViewPropuestaGradoComponent </title>
<polygon fill="#fb8072" stroke="#000000" points="723.8405,-252 518.1595,-252 518.1595,-216 723.8405,-216 723.8405,-252"/>
<text text-anchor="middle" x="621" y="-229.8" font-family="Times,serif" font-size="14.00" fill="#000000">ViewPropuestaGradoComponent </text>
</g>
<!-- PropuestaGradoModule&#45;&gt;ViewPropuestaGradoComponent  -->
<g id="edge9" class="edge">
<title>PropuestaGradoModule&#45;&gt;ViewPropuestaGradoComponent </title>
<path fill="none" stroke="#000000" stroke-dasharray="5,2" d="M690.4003,-187.1061C690.4003,-187.1061 690.4003,-205.991 690.4003,-205.991"/>
<polygon fill="#000000" stroke="#000000" points="686.9003,-205.9909 690.4003,-215.991 693.9003,-205.991 686.9003,-205.9909"/>
</g>
<!-- PropuestaGradoRoutingModule -->
<g id="node6" class="node">
<title>PropuestaGradoRoutingModule</title>
<polygon fill="#8dd3c7" stroke="#000000" points="912.3571,-122 909.3571,-126 888.3571,-126 885.3571,-122 717.6429,-122 717.6429,-86 912.3571,-86 912.3571,-122"/>
<text text-anchor="middle" x="815" y="-99.8" font-family="Times,serif" font-size="14.00" fill="#000000">PropuestaGradoRoutingModule</text>
</g>
<!-- PropuestaGradoRoutingModule&#45;&gt;PropuestaGradoModule -->
<g id="edge5" class="edge">
<title>PropuestaGradoRoutingModule&#45;&gt;PropuestaGradoModule</title>
<path fill="none" stroke="#000000" d="M762.2206,-122.1061C762.2206,-122.1061 762.2206,-140.991 762.2206,-140.991"/>
<polygon fill="#000000" stroke="#000000" points="758.7206,-140.9909 762.2206,-150.991 765.7206,-140.991 758.7206,-140.9909"/>
</g>
<!-- SharedModule -->
<g id="node7" class="node">
<title>SharedModule</title>
<polygon fill="#8dd3c7" stroke="#000000" points="699.4231,-122 696.4231,-126 675.4231,-126 672.4231,-122 600.5769,-122 600.5769,-86 699.4231,-86 699.4231,-122"/>
<text text-anchor="middle" x="650" y="-99.8" font-family="Times,serif" font-size="14.00" fill="#000000">SharedModule</text>
</g>
<!-- SharedModule&#45;&gt;PropuestaGradoModule -->
<g id="edge6" class="edge">
<title>SharedModule&#45;&gt;PropuestaGradoModule</title>
<path fill="none" stroke="#000000" d="M678.1708,-122.1061C678.1708,-122.1061 678.1708,-140.991 678.1708,-140.991"/>
<polygon fill="#000000" stroke="#000000" points="674.6708,-140.9909 678.1708,-150.991 681.6708,-140.991 674.6708,-140.9909"/>
</g>
<!-- ThemeModule -->
<g id="node8" class="node">
<title>ThemeModule</title>
<polygon fill="#8dd3c7" stroke="#000000" points="583.4231,-122 580.4231,-126 559.4231,-126 556.4231,-122 484.5769,-122 484.5769,-86 583.4231,-86 583.4231,-122"/>
<text text-anchor="middle" x="534" y="-99.8" font-family="Times,serif" font-size="14.00" fill="#000000">ThemeModule</text>
</g>
<!-- ThemeModule&#45;&gt;PropuestaGradoModule -->
<g id="edge7" class="edge">
<title>ThemeModule&#45;&gt;PropuestaGradoModule</title>
<path fill="none" stroke="#000000" d="M550.7705,-122.0091C550.7705,-138.0494 550.7705,-159 550.7705,-159 550.7705,-159 647.2407,-159 647.2407,-159"/>
<polygon fill="#000000" stroke="#000000" points="647.2407,-162.5001 657.2407,-159 647.2407,-155.5001 647.2407,-162.5001"/>
</g>
<!-- CoreService -->
<g id="node11" class="node">
<title>CoreService</title>
<ellipse fill="#fdb462" stroke="#000000" cx="402" cy="-104" rx="58.5251" ry="18"/>
<text text-anchor="middle" x="402" y="-99.8" font-family="Times,serif" font-size="14.00" fill="#000000">CoreService</text>
</g>
<!-- CoreService&#45;&gt;PropuestaGradoModule -->
<g id="edge10" class="edge">
<title>CoreService&#45;&gt;PropuestaGradoModule</title>
<path fill="none" stroke="#000000" d="M402,-122.2667C402,-140.5552 402,-166 402,-166 402,-166 647.1179,-166 647.1179,-166"/>
<polygon fill="#000000" stroke="#000000" points="647.1179,-169.5001 657.1179,-166 647.1179,-162.5001 647.1179,-169.5001"/>
</g>
<!-- InscripcionService -->
<g id="node12" class="node">
<title>InscripcionService</title>
<ellipse fill="#fdb462" stroke="#000000" cx="242" cy="-104" rx="83.3635" ry="18"/>
<text text-anchor="middle" x="242" y="-99.8" font-family="Times,serif" font-size="14.00" fill="#000000">InscripcionService</text>
</g>
<!-- InscripcionService&#45;&gt;PropuestaGradoModule -->
<g id="edge11" class="edge">
<title>InscripcionService&#45;&gt;PropuestaGradoModule</title>
<path fill="none" stroke="#000000" d="M242,-122.1289C242,-142.5724 242,-173 242,-173 242,-173 647.0462,-173 647.0462,-173"/>
<polygon fill="#000000" stroke="#000000" points="647.0462,-176.5001 657.0462,-173 647.0461,-169.5001 647.0462,-176.5001"/>
</g>
<!-- UserService -->
<g id="node13" class="node">
<title>UserService</title>
<ellipse fill="#fdb462" stroke="#000000" cx="82" cy="-104" rx="58.4415" ry="18"/>
<text text-anchor="middle" x="82" y="-99.8" font-family="Times,serif" font-size="14.00" fill="#000000">UserService</text>
</g>
<!-- UserService&#45;&gt;PropuestaGradoModule -->
<g id="edge12" class="edge">
<title>UserService&#45;&gt;PropuestaGradoModule</title>
<path fill="none" stroke="#000000" d="M82,-122.0109C82,-144.4852 82,-180 82,-180 82,-180 647.1195,-180 647.1195,-180"/>
<polygon fill="#000000" stroke="#000000" points="647.1195,-183.5001 657.1195,-180 647.1195,-176.5001 647.1195,-183.5001"/>
</g>
</g>
</svg>
