<?xml version="1.0" encoding="UTF-8" standalone="no"?>
<!DOCTYPE svg PUBLIC "-//W3C//DTD SVG 1.1//EN"
 "http://www.w3.org/Graphics/SVG/1.1/DTD/svg11.dtd">
<!-- Generated by graphviz version 2.40.1 (20161225.0304)
 -->
<!-- Title: dependencies Pages: 1 -->
<svg width="6576pt" height="284pt"
 viewBox="0.00 0.00 6576.00 284.00" xmlns="http://www.w3.org/2000/svg" xmlns:xlink="http://www.w3.org/1999/xlink">
<g id="graph0" class="graph" transform="scale(1 1) rotate(0) translate(4 280)">
<title>dependencies</title>
<polygon fill="#ffffff" stroke="transparent" points="-4,4 -4,-280 6572,-280 6572,4 -4,4"/>
<text text-anchor="start" x="3263.0091" y="-42.4" font-family="sans-serif" font-weight="bold" font-size="14.00" fill="#000000">Legend</text>
<polygon fill="#ffffb3" stroke="transparent" points="3050,-10 3050,-30 3070,-30 3070,-10 3050,-10"/>
<text text-anchor="start" x="3073.629" y="-15.4" font-family="sans-serif" font-size="14.00" fill="#000000"> &#160;Declarations</text>
<polygon fill="#8dd3c7" stroke="transparent" points="3163,-10 3163,-30 3183,-30 3183,-10 3163,-10"/>
<text text-anchor="start" x="3186.7251" y="-15.4" font-family="sans-serif" font-size="14.00" fill="#000000"> &#160;Module</text>
<polygon fill="#80b1d3" stroke="transparent" points="3249,-10 3249,-30 3269,-30 3269,-10 3249,-10"/>
<text text-anchor="start" x="3272.7812" y="-15.4" font-family="sans-serif" font-size="14.00" fill="#000000"> &#160;Bootstrap</text>
<polygon fill="#fdb462" stroke="transparent" points="3346,-10 3346,-30 3366,-30 3366,-10 3346,-10"/>
<text text-anchor="start" x="3369.6732" y="-15.4" font-family="sans-serif" font-size="14.00" fill="#000000"> &#160;Providers</text>
<polygon fill="#fb8072" stroke="transparent" points="3442,-10 3442,-30 3462,-30 3462,-10 3442,-10"/>
<text text-anchor="start" x="3465.7258" y="-15.4" font-family="sans-serif" font-size="14.00" fill="#000000"> &#160;Exports</text>
<g id="clust1" class="cluster">
<title>cluster_InscripcionModule</title>
<polygon fill="none" stroke="#000000" stroke-dasharray="1,5" points="8,-70 8,-268 6560,-268 6560,-70 8,-70"/>
</g>
<g id="clust2" class="cluster">
<title>cluster_InscripcionModule_declarations</title>
<polygon fill="none" stroke="#000000" points="5586,-78 5586,-130 6552,-130 6552,-78 5586,-78"/>
</g>
<g id="clust7" class="cluster">
<title>cluster_InscripcionModule_imports</title>
<polygon fill="none" stroke="#000000" points="2426,-78 2426,-130 5578,-130 5578,-78 2426,-78"/>
</g>
<g id="clust8" class="cluster">
<title>cluster_InscripcionModule_exports</title>
<polygon fill="none" stroke="#000000" points="3299,-208 3299,-260 3451,-260 3451,-208 3299,-208"/>
</g>
<g id="clust10" class="cluster">
<title>cluster_InscripcionModule_providers</title>
<polygon fill="none" stroke="#000000" points="16,-78 16,-130 2418,-130 2418,-78 16,-78"/>
</g>
<!-- CrudDescuentoAcademicoComponent -->
<g id="node1" class="node">
<title>CrudDescuentoAcademicoComponent</title>
<polygon fill="#ffffb3" stroke="#000000" points="6544.1615,-122 6311.8385,-122 6311.8385,-86 6544.1615,-86 6544.1615,-122"/>
<text text-anchor="middle" x="6428" y="-99.8" font-family="Times,serif" font-size="14.00" fill="#000000">CrudDescuentoAcademicoComponent</text>
</g>
<!-- InscripcionModule -->
<g id="node5" class="node">
<title>InscripcionModule</title>
<polygon fill="#8dd3c7" stroke="#000000" points="3436.0269,-187 3433.0269,-191 3412.0269,-191 3409.0269,-187 3313.9731,-187 3313.9731,-151 3436.0269,-151 3436.0269,-187"/>
<text text-anchor="middle" x="3375" y="-164.8" font-family="Times,serif" font-size="14.00" fill="#000000">InscripcionModule</text>
</g>
<!-- CrudDescuentoAcademicoComponent&#45;&gt;InscripcionModule -->
<g id="edge1" class="edge">
<title>CrudDescuentoAcademicoComponent&#45;&gt;InscripcionModule</title>
<path fill="none" stroke="#000000" d="M6428,-122.3802C6428,-146.2785 6428,-185 6428,-185 6428,-185 3446.3293,-185 3446.3293,-185"/>
<polygon fill="#000000" stroke="#000000" points="3446.3294,-181.5001 3436.3293,-185 3446.3293,-188.5001 3446.3294,-181.5001"/>
</g>
<!-- DescuentoAcademicoComponent -->
<g id="node2" class="node">
<title>DescuentoAcademicoComponent</title>
<polygon fill="#ffffb3" stroke="#000000" points="6294.1643,-122 6089.8357,-122 6089.8357,-86 6294.1643,-86 6294.1643,-122"/>
<text text-anchor="middle" x="6192" y="-99.8" font-family="Times,serif" font-size="14.00" fill="#000000">DescuentoAcademicoComponent</text>
</g>
<!-- DescuentoAcademicoComponent&#45;&gt;InscripcionModule -->
<g id="edge2" class="edge">
<title>DescuentoAcademicoComponent&#45;&gt;InscripcionModule</title>
<path fill="none" stroke="#000000" d="M6192,-122.3228C6192,-145.6602 6192,-183 6192,-183 6192,-183 3446.1265,-183 3446.1265,-183"/>
<polygon fill="#000000" stroke="#000000" points="3446.1265,-179.5001 3436.1265,-183 3446.1264,-186.5001 3446.1265,-179.5001"/>
</g>
<!-- ListDescuentoAcademicoComponent -->
<g id="node3" class="node">
<title>ListDescuentoAcademicoComponent</title>
<polygon fill="#ffffb3" stroke="#000000" points="6071.9426,-122 5846.0574,-122 5846.0574,-86 6071.9426,-86 6071.9426,-122"/>
<text text-anchor="middle" x="5959" y="-99.8" font-family="Times,serif" font-size="14.00" fill="#000000">ListDescuentoAcademicoComponent</text>
</g>
<!-- ListDescuentoAcademicoComponent&#45;&gt;InscripcionModule -->
<g id="edge3" class="edge">
<title>ListDescuentoAcademicoComponent&#45;&gt;InscripcionModule</title>
<path fill="none" stroke="#000000" d="M5959,-122.2479C5959,-145.0179 5959,-181 5959,-181 5959,-181 3446.3259,-181 3446.3259,-181"/>
<polygon fill="#000000" stroke="#000000" points="3446.3259,-177.5001 3436.3259,-181 3446.3258,-184.5001 3446.3259,-177.5001"/>
</g>
<!-- ViewDescuentoAcademicoComponent -->
<g id="node4" class="node">
<title>ViewDescuentoAcademicoComponent</title>
<polygon fill="#ffffb3" stroke="#000000" points="5828.4831,-122 5593.5169,-122 5593.5169,-86 5828.4831,-86 5828.4831,-122"/>
<text text-anchor="middle" x="5711" y="-99.8" font-family="Times,serif" font-size="14.00" fill="#000000">ViewDescuentoAcademicoComponent</text>
</g>
<!-- ViewDescuentoAcademicoComponent&#45;&gt;InscripcionModule -->
<g id="edge4" class="edge">
<title>ViewDescuentoAcademicoComponent&#45;&gt;InscripcionModule</title>
<path fill="none" stroke="#000000" d="M5711,-122.1554C5711,-144.3519 5711,-179 5711,-179 5711,-179 3446.2816,-179 3446.2816,-179"/>
<polygon fill="#000000" stroke="#000000" points="3446.2816,-175.5001 3436.2816,-179 3446.2816,-182.5001 3446.2816,-175.5001"/>
</g>
<!-- PosgradoComponent  -->
<g id="node25" class="node">
<title>PosgradoComponent </title>
<polygon fill="#fb8072" stroke="#000000" points="3443.4348,-252 3306.5652,-252 3306.5652,-216 3443.4348,-216 3443.4348,-252"/>
<text text-anchor="middle" x="3375" y="-229.8" font-family="Times,serif" font-size="14.00" fill="#000000">PosgradoComponent </text>
</g>
<!-- InscripcionModule&#45;&gt;PosgradoComponent  -->
<g id="edge24" class="edge">
<title>InscripcionModule&#45;&gt;PosgradoComponent </title>
<path fill="none" stroke="#000000" stroke-dasharray="5,2" d="M3375,-187.1061C3375,-187.1061 3375,-205.991 3375,-205.991"/>
<polygon fill="#000000" stroke="#000000" points="3371.5001,-205.9909 3375,-215.991 3378.5001,-205.991 3371.5001,-205.9909"/>
</g>
<!-- ArticuloModule -->
<g id="node6" class="node">
<title>ArticuloModule</title>
<polygon fill="#8dd3c7" stroke="#000000" points="5570.2036,-122 5567.2036,-126 5546.2036,-126 5543.2036,-122 5463.7964,-122 5463.7964,-86 5570.2036,-86 5570.2036,-122"/>
<text text-anchor="middle" x="5517" y="-99.8" font-family="Times,serif" font-size="14.00" fill="#000000">ArticuloModule</text>
</g>
<!-- ArticuloModule&#45;&gt;InscripcionModule -->
<g id="edge5" class="edge">
<title>ArticuloModule&#45;&gt;InscripcionModule</title>
<path fill="none" stroke="#000000" d="M5517,-122.0449C5517,-143.6623 5517,-177 5517,-177 5517,-177 3446.2245,-177 3446.2245,-177"/>
<polygon fill="#000000" stroke="#000000" points="3446.2245,-173.5001 3436.2245,-177 3446.2244,-180.5001 3446.2245,-173.5001"/>
</g>
<!-- DescuentoAcademicoModule -->
<g id="node7" class="node">
<title>DescuentoAcademicoModule</title>
<polygon fill="#8dd3c7" stroke="#000000" points="5446.382,-122 5443.382,-126 5422.382,-126 5419.382,-122 5263.618,-122 5263.618,-86 5446.382,-86 5446.382,-122"/>
<text text-anchor="middle" x="5355" y="-99.8" font-family="Times,serif" font-size="14.00" fill="#000000">DescuentoAcademicoModule</text>
</g>
<!-- DescuentoAcademicoModule&#45;&gt;InscripcionModule -->
<g id="edge6" class="edge">
<title>DescuentoAcademicoModule&#45;&gt;InscripcionModule</title>
<path fill="none" stroke="#000000" d="M5355,-122.2843C5355,-143.3211 5355,-175 5355,-175 5355,-175 3446.1553,-175 3446.1553,-175"/>
<polygon fill="#000000" stroke="#000000" points="3446.1553,-171.5001 3436.1553,-175 3446.1553,-178.5001 3446.1553,-171.5001"/>
</g>
<!-- DocumentoProgramaModule -->
<g id="node8" class="node">
<title>DocumentoProgramaModule</title>
<polygon fill="#8dd3c7" stroke="#000000" points="5245.7906,-122 5242.7906,-126 5221.7906,-126 5218.7906,-122 5066.2094,-122 5066.2094,-86 5245.7906,-86 5245.7906,-122"/>
<text text-anchor="middle" x="5156" y="-99.8" font-family="Times,serif" font-size="14.00" fill="#000000">DocumentoProgramaModule</text>
</g>
<!-- DocumentoProgramaModule&#45;&gt;InscripcionModule -->
<g id="edge7" class="edge">
<title>DocumentoProgramaModule&#45;&gt;InscripcionModule</title>
<path fill="none" stroke="#000000" d="M5156,-122.1289C5156,-142.5724 5156,-173 5156,-173 5156,-173 3446.0482,-173 3446.0482,-173"/>
<polygon fill="#000000" stroke="#000000" points="3446.0482,-169.5001 3436.0482,-173 3446.0482,-176.5001 3446.0482,-169.5001"/>
</g>
<!-- ExperienciaLaboralModule -->
<g id="node9" class="node">
<title>ExperienciaLaboralModule</title>
<polygon fill="#8dd3c7" stroke="#000000" points="5047.9356,-122 5044.9356,-126 5023.9356,-126 5020.9356,-122 4878.0644,-122 4878.0644,-86 5047.9356,-86 5047.9356,-122"/>
<text text-anchor="middle" x="4963" y="-99.8" font-family="Times,serif" font-size="14.00" fill="#000000">ExperienciaLaboralModule</text>
</g>
<!-- ExperienciaLaboralModule&#45;&gt;InscripcionModule -->
<g id="edge8" class="edge">
<title>ExperienciaLaboralModule&#45;&gt;InscripcionModule</title>
<path fill="none" stroke="#000000" d="M4963,-122.308C4963,-142.1455 4963,-171 4963,-171 4963,-171 3446.2785,-171 3446.2785,-171"/>
<polygon fill="#000000" stroke="#000000" points="3446.2785,-167.5001 3436.2785,-171 3446.2784,-174.5001 3446.2785,-167.5001"/>
</g>
<!-- FormacionAcademicaModule -->
<g id="node10" class="node">
<title>FormacionAcademicaModule</title>
<polygon fill="#8dd3c7" stroke="#000000" points="4859.6643,-122 4856.6643,-126 4835.6643,-126 4832.6643,-122 4676.3357,-122 4676.3357,-86 4859.6643,-86 4859.6643,-122"/>
<text text-anchor="middle" x="4768" y="-99.8" font-family="Times,serif" font-size="14.00" fill="#000000">FormacionAcademicaModule</text>
</g>
<!-- FormacionAcademicaModule&#45;&gt;InscripcionModule -->
<g id="edge9" class="edge">
<title>FormacionAcademicaModule&#45;&gt;InscripcionModule</title>
<path fill="none" stroke="#000000" d="M4768,-122.1686C4768,-141.0898 4768,-168 4768,-168 4768,-168 3446.2013,-168 3446.2013,-168"/>
<polygon fill="#000000" stroke="#000000" points="3446.2013,-164.5001 3436.2013,-168 3446.2012,-171.5001 3446.2013,-164.5001"/>
</g>
<!-- IdiomasModule -->
<g id="node11" class="node">
<title>IdiomasModule</title>
<polygon fill="#8dd3c7" stroke="#000000" points="4658.1514,-122 4655.1514,-126 4634.1514,-126 4631.1514,-122 4553.8486,-122 4553.8486,-86 4658.1514,-86 4658.1514,-122"/>
<text text-anchor="middle" x="4606" y="-99.8" font-family="Times,serif" font-size="14.00" fill="#000000">IdiomasModule</text>
</g>
<!-- IdiomasModule&#45;&gt;InscripcionModule -->
<g id="edge10" class="edge">
<title>IdiomasModule&#45;&gt;InscripcionModule</title>
<path fill="none" stroke="#000000" d="M4606,-122.2667C4606,-140.5552 4606,-166 4606,-166 4606,-166 3446.0455,-166 3446.0455,-166"/>
<polygon fill="#000000" stroke="#000000" points="3446.0455,-162.5001 3436.0455,-166 3446.0454,-169.5001 3446.0455,-162.5001"/>
</g>
<!-- InfoCaracteristicaModule -->
<g id="node12" class="node">
<title>InfoCaracteristicaModule</title>
<polygon fill="#8dd3c7" stroke="#000000" points="4535.8235,-122 4532.8235,-126 4511.8235,-126 4508.8235,-122 4376.1765,-122 4376.1765,-86 4535.8235,-86 4535.8235,-122"/>
<text text-anchor="middle" x="4456" y="-99.8" font-family="Times,serif" font-size="14.00" fill="#000000">InfoCaracteristicaModule</text>
</g>
<!-- InfoCaracteristicaModule&#45;&gt;InscripcionModule -->
<g id="edge11" class="edge">
<title>InfoCaracteristicaModule&#45;&gt;InscripcionModule</title>
<path fill="none" stroke="#000000" d="M4456,-122.002C4456,-139.6754 4456,-164 4456,-164 4456,-164 3446.2165,-164 3446.2165,-164"/>
<polygon fill="#000000" stroke="#000000" points="3446.2166,-160.5001 3436.2165,-164 3446.2165,-167.5001 3446.2166,-160.5001"/>
</g>
<!-- InfoPersonaModule -->
<g id="node13" class="node">
<title>InfoPersonaModule</title>
<polygon fill="#8dd3c7" stroke="#000000" points="4357.6881,-122 4354.6881,-126 4333.6881,-126 4330.6881,-122 4230.3119,-122 4230.3119,-86 4357.6881,-86 4357.6881,-122"/>
<text text-anchor="middle" x="4294" y="-99.8" font-family="Times,serif" font-size="14.00" fill="#000000">InfoPersonaModule</text>
</g>
<!-- InfoPersonaModule&#45;&gt;InscripcionModule -->
<g id="edge12" class="edge">
<title>InfoPersonaModule&#45;&gt;InscripcionModule</title>
<path fill="none" stroke="#000000" d="M4294,-122.0336C4294,-139.0597 4294,-162 4294,-162 4294,-162 3446.3671,-162 3446.3671,-162"/>
<polygon fill="#000000" stroke="#000000" points="3446.3671,-158.5001 3436.3671,-162 3446.367,-165.5001 3446.3671,-158.5001"/>
</g>
<!-- InformacionContactoModule -->
<g id="node14" class="node">
<title>InformacionContactoModule</title>
<polygon fill="#8dd3c7" stroke="#000000" points="4212.7892,-122 4209.7892,-126 4188.7892,-126 4185.7892,-122 4033.2108,-122 4033.2108,-86 4212.7892,-86 4212.7892,-122"/>
<text text-anchor="middle" x="4123" y="-99.8" font-family="Times,serif" font-size="14.00" fill="#000000">InformacionContactoModule</text>
</g>
<!-- InformacionContactoModule&#45;&gt;InscripcionModule -->
<g id="edge13" class="edge">
<title>InformacionContactoModule&#45;&gt;InscripcionModule</title>
<path fill="none" stroke="#000000" d="M4123,-122.027C4123,-138.3976 4123,-160 4123,-160 4123,-160 3446.212,-160 3446.212,-160"/>
<polygon fill="#000000" stroke="#000000" points="3446.212,-156.5001 3436.212,-160 3446.2119,-163.5001 3446.212,-156.5001"/>
</g>
<!-- InscripcionRoutingModule -->
<g id="node15" class="node">
<title>InscripcionRoutingModule</title>
<polygon fill="#8dd3c7" stroke="#000000" points="4015.6442,-122 4012.6442,-126 3991.6442,-126 3988.6442,-122 3848.3558,-122 3848.3558,-86 4015.6442,-86 4015.6442,-122"/>
<text text-anchor="middle" x="3932" y="-99.8" font-family="Times,serif" font-size="14.00" fill="#000000">InscripcionRoutingModule</text>
</g>
<!-- InscripcionRoutingModule&#45;&gt;InscripcionModule -->
<g id="edge14" class="edge">
<title>InscripcionRoutingModule&#45;&gt;InscripcionModule</title>
<path fill="none" stroke="#000000" d="M3932,-122.2819C3932,-137.9478 3932,-158 3932,-158 3932,-158 3446.2021,-158 3446.2021,-158"/>
<polygon fill="#000000" stroke="#000000" points="3446.2021,-154.5001 3436.2021,-158 3446.202,-161.5001 3446.2021,-154.5001"/>
</g>
<!-- LibroModule -->
<g id="node16" class="node">
<title>LibroModule</title>
<polygon fill="#8dd3c7" stroke="#000000" points="3830.1543,-122 3827.1543,-126 3806.1543,-126 3803.1543,-122 3739.8457,-122 3739.8457,-86 3830.1543,-86 3830.1543,-122"/>
<text text-anchor="middle" x="3785" y="-99.8" font-family="Times,serif" font-size="14.00" fill="#000000">LibroModule</text>
</g>
<!-- LibroModule&#45;&gt;InscripcionModule -->
<g id="edge15" class="edge">
<title>LibroModule&#45;&gt;InscripcionModule</title>
<path fill="none" stroke="#000000" d="M3785,-122.1871C3785,-137.1824 3785,-156 3785,-156 3785,-156 3446.3811,-156 3446.3811,-156"/>
<polygon fill="#000000" stroke="#000000" points="3446.3812,-152.5001 3436.3811,-156 3446.3811,-159.5001 3446.3812,-152.5001"/>
</g>
<!-- OtraPublicacionModule -->
<g id="node17" class="node">
<title>OtraPublicacionModule</title>
<polygon fill="#8dd3c7" stroke="#000000" points="3721.0212,-122 3718.0212,-126 3697.0212,-126 3694.0212,-122 3570.9788,-122 3570.9788,-86 3721.0212,-86 3721.0212,-122"/>
<text text-anchor="middle" x="3646" y="-99.8" font-family="Times,serif" font-size="14.00" fill="#000000">OtraPublicacionModule</text>
</g>
<!-- OtraPublicacionModule&#45;&gt;InscripcionModule -->
<g id="edge16" class="edge">
<title>OtraPublicacionModule&#45;&gt;InscripcionModule</title>
<path fill="none" stroke="#000000" d="M3646,-122.0511C3646,-136.373 3646,-154 3646,-154 3646,-154 3446.1556,-154 3446.1556,-154"/>
<polygon fill="#000000" stroke="#000000" points="3446.1556,-150.5001 3436.1556,-154 3446.1556,-157.5001 3446.1556,-150.5001"/>
</g>
<!-- OtroDocumentoModule -->
<g id="node18" class="node">
<title>OtroDocumentoModule</title>
<polygon fill="#8dd3c7" stroke="#000000" points="3552.0253,-122 3549.0253,-126 3528.0253,-126 3525.0253,-122 3401.9747,-122 3401.9747,-86 3552.0253,-86 3552.0253,-122"/>
<text text-anchor="middle" x="3477" y="-99.8" font-family="Times,serif" font-size="14.00" fill="#000000">OtroDocumentoModule</text>
</g>
<!-- OtroDocumentoModule&#45;&gt;InscripcionModule -->
<g id="edge17" class="edge">
<title>OtroDocumentoModule&#45;&gt;InscripcionModule</title>
<path fill="none" stroke="#000000" d="M3419.0004,-122.1061C3419.0004,-122.1061 3419.0004,-140.991 3419.0004,-140.991"/>
<polygon fill="#000000" stroke="#000000" points="3415.5004,-140.9909 3419.0004,-150.991 3422.5004,-140.991 3415.5004,-140.9909"/>
</g>
<!-- ProduccionArtesArquDisenoModule -->
<g id="node19" class="node">
<title>ProduccionArtesArquDisenoModule</title>
<polygon fill="#8dd3c7" stroke="#000000" points="3384.0534,-122 3381.0534,-126 3360.0534,-126 3357.0534,-122 3161.9466,-122 3161.9466,-86 3384.0534,-86 3384.0534,-122"/>
<text text-anchor="middle" x="3273" y="-99.8" font-family="Times,serif" font-size="14.00" fill="#000000">ProduccionArtesArquDisenoModule</text>
</g>
<!-- ProduccionArtesArquDisenoModule&#45;&gt;InscripcionModule -->
<g id="edge18" class="edge">
<title>ProduccionArtesArquDisenoModule&#45;&gt;InscripcionModule</title>
<path fill="none" stroke="#000000" d="M3348.8818,-122.1061C3348.8818,-122.1061 3348.8818,-140.991 3348.8818,-140.991"/>
<polygon fill="#000000" stroke="#000000" points="3345.3819,-140.9909 3348.8818,-150.991 3352.3819,-140.991 3345.3819,-140.9909"/>
</g>
<!-- ProduccionTecnicaModule -->
<g id="node20" class="node">
<title>ProduccionTecnicaModule</title>
<polygon fill="#8dd3c7" stroke="#000000" points="3143.6148,-122 3140.6148,-126 3119.6148,-126 3116.6148,-122 2976.3852,-122 2976.3852,-86 3143.6148,-86 3143.6148,-122"/>
<text text-anchor="middle" x="3060" y="-99.8" font-family="Times,serif" font-size="14.00" fill="#000000">ProduccionTecnicaModule</text>
</g>
<!-- ProduccionTecnicaModule&#45;&gt;InscripcionModule -->
<g id="edge19" class="edge">
<title>ProduccionTecnicaModule&#45;&gt;InscripcionModule</title>
<path fill="none" stroke="#000000" d="M3060,-122.0511C3060,-136.373 3060,-154 3060,-154 3060,-154 3303.8913,-154 3303.8913,-154"/>
<polygon fill="#000000" stroke="#000000" points="3303.8914,-157.5001 3313.8913,-154 3303.8913,-150.5001 3303.8914,-157.5001"/>
</g>
<!-- PropuestaGradoModule -->
<g id="node21" class="node">
<title>PropuestaGradoModule</title>
<polygon fill="#8dd3c7" stroke="#000000" points="2957.7394,-122 2954.7394,-126 2933.7394,-126 2930.7394,-122 2808.2606,-122 2808.2606,-86 2957.7394,-86 2957.7394,-122"/>
<text text-anchor="middle" x="2883" y="-99.8" font-family="Times,serif" font-size="14.00" fill="#000000">PropuestaGradoModule</text>
</g>
<!-- PropuestaGradoModule&#45;&gt;InscripcionModule -->
<g id="edge20" class="edge">
<title>PropuestaGradoModule&#45;&gt;InscripcionModule</title>
<path fill="none" stroke="#000000" d="M2883,-122.1871C2883,-137.1824 2883,-156 2883,-156 2883,-156 3303.6826,-156 3303.6826,-156"/>
<polygon fill="#000000" stroke="#000000" points="3303.6827,-159.5001 3313.6826,-156 3303.6826,-152.5001 3303.6827,-159.5001"/>
</g>
<!-- SharedModule -->
<g id="node22" class="node">
<title>SharedModule</title>
<polygon fill="#8dd3c7" stroke="#000000" points="2790.4231,-122 2787.4231,-126 2766.4231,-126 2763.4231,-122 2691.5769,-122 2691.5769,-86 2790.4231,-86 2790.4231,-122"/>
<text text-anchor="middle" x="2741" y="-99.8" font-family="Times,serif" font-size="14.00" fill="#000000">SharedModule</text>
</g>
<!-- SharedModule&#45;&gt;InscripcionModule -->
<g id="edge21" class="edge">
<title>SharedModule&#45;&gt;InscripcionModule</title>
<path fill="none" stroke="#000000" d="M2741,-122.2819C2741,-137.9478 2741,-158 2741,-158 2741,-158 3303.9217,-158 3303.9217,-158"/>
<polygon fill="#000000" stroke="#000000" points="3303.9217,-161.5001 3313.9217,-158 3303.9216,-154.5001 3303.9217,-161.5001"/>
</g>
<!-- ThemeModule -->
<g id="node23" class="node">
<title>ThemeModule</title>
<polygon fill="#8dd3c7" stroke="#000000" points="2674.4231,-122 2671.4231,-126 2650.4231,-126 2647.4231,-122 2575.5769,-122 2575.5769,-86 2674.4231,-86 2674.4231,-122"/>
<text text-anchor="middle" x="2625" y="-99.8" font-family="Times,serif" font-size="14.00" fill="#000000">ThemeModule</text>
</g>
<!-- ThemeModule&#45;&gt;InscripcionModule -->
<g id="edge22" class="edge">
<title>ThemeModule&#45;&gt;InscripcionModule</title>
<path fill="none" stroke="#000000" d="M2625,-122.027C2625,-138.3976 2625,-160 2625,-160 2625,-160 3303.9423,-160 3303.9423,-160"/>
<polygon fill="#000000" stroke="#000000" points="3303.9424,-163.5001 3313.9423,-160 3303.9423,-156.5001 3303.9424,-163.5001"/>
</g>
<!-- TraduccionModule -->
<g id="node24" class="node">
<title>TraduccionModule</title>
<polygon fill="#8dd3c7" stroke="#000000" points="2557.7978,-122 2554.7978,-126 2533.7978,-126 2530.7978,-122 2434.2022,-122 2434.2022,-86 2557.7978,-86 2557.7978,-122"/>
<text text-anchor="middle" x="2496" y="-99.8" font-family="Times,serif" font-size="14.00" fill="#000000">TraduccionModule</text>
</g>
<!-- TraduccionModule&#45;&gt;InscripcionModule -->
<g id="edge23" class="edge">
<title>TraduccionModule&#45;&gt;InscripcionModule</title>
<path fill="none" stroke="#000000" d="M2496,-122.0336C2496,-139.0597 2496,-162 2496,-162 2496,-162 3303.8883,-162 3303.8883,-162"/>
<polygon fill="#000000" stroke="#000000" points="3303.8883,-165.5001 3313.8883,-162 3303.8883,-158.5001 3303.8883,-165.5001"/>
</g>
<!-- CampusMidService -->
<g id="node26" class="node">
<title>CampusMidService</title>
<ellipse fill="#fdb462" stroke="#000000" cx="2322" cy="-104" rx="87.98" ry="18"/>
<text text-anchor="middle" x="2322" y="-99.8" font-family="Times,serif" font-size="14.00" fill="#000000">CampusMidService</text>
</g>
<!-- CampusMidService&#45;&gt;InscripcionModule -->
<g id="edge25" class="edge">
<title>CampusMidService&#45;&gt;InscripcionModule</title>
<path fill="none" stroke="#000000" d="M2322,-122.002C2322,-139.6754 2322,-164 2322,-164 2322,-164 3303.8348,-164 3303.8348,-164"/>
<polygon fill="#000000" stroke="#000000" points="3303.8349,-167.5001 3313.8348,-164 3303.8348,-160.5001 3303.8349,-167.5001"/>
</g>
<!-- DescuentoAcademicoService -->
<g id="node27" class="node">
<title>DescuentoAcademicoService</title>
<ellipse fill="#fdb462" stroke="#000000" cx="2092" cy="-104" rx="124.9384" ry="18"/>
<text text-anchor="middle" x="2092" y="-99.8" font-family="Times,serif" font-size="14.00" fill="#000000">DescuentoAcademicoService</text>
</g>
<!-- DescuentoAcademicoService&#45;&gt;InscripcionModule -->
<g id="edge26" class="edge">
<title>DescuentoAcademicoService&#45;&gt;InscripcionModule</title>
<path fill="none" stroke="#000000" d="M2092,-122.2667C2092,-140.5552 2092,-166 2092,-166 2092,-166 3303.5505,-166 3303.5505,-166"/>
<polygon fill="#000000" stroke="#000000" points="3303.5505,-169.5001 3313.5505,-166 3303.5504,-162.5001 3303.5505,-169.5001"/>
</g>
<!-- DocumentoProgramaService -->
<g id="node28" class="node">
<title>DocumentoProgramaService</title>
<ellipse fill="#fdb462" stroke="#000000" cx="1827" cy="-104" rx="122.6736" ry="18"/>
<text text-anchor="middle" x="1827" y="-99.8" font-family="Times,serif" font-size="14.00" fill="#000000">DocumentoProgramaService</text>
</g>
<!-- DocumentoProgramaService&#45;&gt;InscripcionModule -->
<g id="edge27" class="edge">
<title>DocumentoProgramaService&#45;&gt;InscripcionModule</title>
<path fill="none" stroke="#000000" d="M1827,-122.1686C1827,-141.0898 1827,-168 1827,-168 1827,-168 3303.8398,-168 3303.8398,-168"/>
<polygon fill="#000000" stroke="#000000" points="3303.8398,-171.5001 3313.8398,-168 3303.8397,-164.5001 3303.8398,-171.5001"/>
</g>
<!-- ImplicitAutenticationService -->
<g id="node29" class="node">
<title>ImplicitAutenticationService</title>
<ellipse fill="#fdb462" stroke="#000000" cx="1563" cy="-104" rx="123.2649" ry="18"/>
<text text-anchor="middle" x="1563" y="-99.8" font-family="Times,serif" font-size="14.00" fill="#000000">ImplicitAutenticationService</text>
</g>
<!-- ImplicitAutenticationService&#45;&gt;InscripcionModule -->
<g id="edge28" class="edge">
<title>ImplicitAutenticationService&#45;&gt;InscripcionModule</title>
<path fill="none" stroke="#000000" d="M1563,-122.308C1563,-142.1455 1563,-171 1563,-171 1563,-171 3303.9336,-171 3303.9336,-171"/>
<polygon fill="#000000" stroke="#000000" points="3303.9336,-174.5001 3313.9336,-171 3303.9335,-167.5001 3303.9336,-174.5001"/>
</g>
<!-- NuxeoService -->
<g id="node30" class="node">
<title>NuxeoService</title>
<ellipse fill="#fdb462" stroke="#000000" cx="1356" cy="-104" rx="65.9716" ry="18"/>
<text text-anchor="middle" x="1356" y="-99.8" font-family="Times,serif" font-size="14.00" fill="#000000">NuxeoService</text>
</g>
<!-- NuxeoService&#45;&gt;InscripcionModule -->
<g id="edge29" class="edge">
<title>NuxeoService&#45;&gt;InscripcionModule</title>
<path fill="none" stroke="#000000" d="M1356,-122.1289C1356,-142.5724 1356,-173 1356,-173 1356,-173 3303.7494,-173 3303.7494,-173"/>
<polygon fill="#000000" stroke="#000000" points="3303.7494,-176.5001 3313.7494,-173 3303.7494,-169.5001 3303.7494,-176.5001"/>
</g>
<!-- PersonaService -->
<g id="node31" class="node">
<title>PersonaService</title>
<ellipse fill="#fdb462" stroke="#000000" cx="1202" cy="-104" rx="70.622" ry="18"/>
<text text-anchor="middle" x="1202" y="-99.8" font-family="Times,serif" font-size="14.00" fill="#000000">PersonaService</text>
</g>
<!-- PersonaService&#45;&gt;InscripcionModule -->
<g id="edge30" class="edge">
<title>PersonaService&#45;&gt;InscripcionModule</title>
<path fill="none" stroke="#000000" d="M1202,-122.2843C1202,-143.3211 1202,-175 1202,-175 1202,-175 3303.7543,-175 3303.7543,-175"/>
<polygon fill="#000000" stroke="#000000" points="3303.7544,-178.5001 3313.7543,-175 3303.7543,-171.5001 3303.7544,-178.5001"/>
</g>
<!-- ProduccionAcademicaService -->
<g id="node32" class="node">
<title>ProduccionAcademicaService</title>
<ellipse fill="#fdb462" stroke="#000000" cx="986" cy="-104" rx="127.3074" ry="18"/>
<text text-anchor="middle" x="986" y="-99.8" font-family="Times,serif" font-size="14.00" fill="#000000">ProduccionAcademicaService</text>
</g>
<!-- ProduccionAcademicaService&#45;&gt;InscripcionModule -->
<g id="edge31" class="edge">
<title>ProduccionAcademicaService&#45;&gt;InscripcionModule</title>
<path fill="none" stroke="#000000" d="M986,-122.0449C986,-143.6623 986,-177 986,-177 986,-177 3303.8475,-177 3303.8475,-177"/>
<polygon fill="#000000" stroke="#000000" points="3303.8475,-180.5001 3313.8475,-177 3303.8475,-173.5001 3303.8475,-180.5001"/>
</g>
<!-- ProgramaAcademicoService -->
<g id="node33" class="node">
<title>ProgramaAcademicoService</title>
<ellipse fill="#fdb462" stroke="#000000" cx="719" cy="-104" rx="121.5065" ry="18"/>
<text text-anchor="middle" x="719" y="-99.8" font-family="Times,serif" font-size="14.00" fill="#000000">ProgramaAcademicoService</text>
</g>
<!-- ProgramaAcademicoService&#45;&gt;InscripcionModule -->
<g id="edge32" class="edge">
<title>ProgramaAcademicoService&#45;&gt;InscripcionModule</title>
<path fill="none" stroke="#000000" d="M719,-122.1554C719,-144.3519 719,-179 719,-179 719,-179 3303.8976,-179 3303.8976,-179"/>
<polygon fill="#000000" stroke="#000000" points="3303.8976,-182.5001 3313.8976,-179 3303.8975,-175.5001 3303.8976,-182.5001"/>
</g>
<!-- ProgramaOikosService -->
<g id="node34" class="node">
<title>ProgramaOikosService</title>
<ellipse fill="#fdb462" stroke="#000000" cx="479" cy="-104" rx="100.6998" ry="18"/>
<text text-anchor="middle" x="479" y="-99.8" font-family="Times,serif" font-size="14.00" fill="#000000">ProgramaOikosService</text>
</g>
<!-- ProgramaOikosService&#45;&gt;InscripcionModule -->
<g id="edge33" class="edge">
<title>ProgramaOikosService&#45;&gt;InscripcionModule</title>
<path fill="none" stroke="#000000" d="M479,-122.2479C479,-145.0179 479,-181 479,-181 479,-181 3303.8447,-181 3303.8447,-181"/>
<polygon fill="#000000" stroke="#000000" points="3303.8448,-184.5001 3313.8447,-181 3303.8447,-177.5001 3303.8448,-184.5001"/>
</g>
<!-- UbicacionService -->
<g id="node35" class="node">
<title>UbicacionService</title>
<ellipse fill="#fdb462" stroke="#000000" cx="281" cy="-104" rx="79.8527" ry="18"/>
<text text-anchor="middle" x="281" y="-99.8" font-family="Times,serif" font-size="14.00" fill="#000000">UbicacionService</text>
</g>
<!-- UbicacionService&#45;&gt;InscripcionModule -->
<g id="edge34" class="edge">
<title>UbicacionService&#45;&gt;InscripcionModule</title>
<path fill="none" stroke="#000000" d="M281,-122.3228C281,-145.6602 281,-183 281,-183 281,-183 3303.8917,-183 3303.8917,-183"/>
<polygon fill="#000000" stroke="#000000" points="3303.8917,-186.5001 3313.8917,-183 3303.8916,-179.5001 3303.8917,-186.5001"/>
</g>
<!-- UtilidadesService -->
<g id="node36" class="node">
<title>UtilidadesService</title>
<ellipse fill="#fdb462" stroke="#000000" cx="104" cy="-104" rx="79.8682" ry="18"/>
<text text-anchor="middle" x="104" y="-99.8" font-family="Times,serif" font-size="14.00" fill="#000000">UtilidadesService</text>
</g>
<!-- UtilidadesService&#45;&gt;InscripcionModule -->
<g id="edge35" class="edge">
<title>UtilidadesService&#45;&gt;InscripcionModule</title>
<path fill="none" stroke="#000000" d="M104,-122.3802C104,-146.2785 104,-185 104,-185 104,-185 3303.6563,-185 3303.6563,-185"/>
<polygon fill="#000000" stroke="#000000" points="3303.6563,-188.5001 3313.6563,-185 3303.6563,-181.5001 3303.6563,-188.5001"/>
</g>
</g>
</svg>
