<?xml version="1.0" encoding="UTF-8" standalone="no"?>
<!DOCTYPE svg PUBLIC "-//W3C//DTD SVG 1.1//EN"
 "http://www.w3.org/Graphics/SVG/1.1/DTD/svg11.dtd">
<!-- Generated by graphviz version 2.40.1 (20161225.0304)
 -->
<!-- Title: dependencies Pages: 1 -->
<svg width="5594pt" height="284pt"
 viewBox="0.00 0.00 5594.00 284.00" xmlns="http://www.w3.org/2000/svg" xmlns:xlink="http://www.w3.org/1999/xlink">
<g id="graph0" class="graph" transform="scale(1 1) rotate(0) translate(4 280)">
<title>dependencies</title>
<polygon fill="#ffffff" stroke="transparent" points="-4,4 -4,-280 5590,-280 5590,4 -4,4"/>
<text text-anchor="start" x="2772.0091" y="-42.4" font-family="sans-serif" font-weight="bold" font-size="14.00" fill="#000000">Legend</text>
<polygon fill="#ffffb3" stroke="transparent" points="2559,-10 2559,-30 2579,-30 2579,-10 2559,-10"/>
<text text-anchor="start" x="2582.629" y="-15.4" font-family="sans-serif" font-size="14.00" fill="#000000"> &#160;Declarations</text>
<polygon fill="#8dd3c7" stroke="transparent" points="2672,-10 2672,-30 2692,-30 2692,-10 2672,-10"/>
<text text-anchor="start" x="2695.7251" y="-15.4" font-family="sans-serif" font-size="14.00" fill="#000000"> &#160;Module</text>
<polygon fill="#80b1d3" stroke="transparent" points="2758,-10 2758,-30 2778,-30 2778,-10 2758,-10"/>
<text text-anchor="start" x="2781.7812" y="-15.4" font-family="sans-serif" font-size="14.00" fill="#000000"> &#160;Bootstrap</text>
<polygon fill="#fdb462" stroke="transparent" points="2855,-10 2855,-30 2875,-30 2875,-10 2855,-10"/>
<text text-anchor="start" x="2878.6732" y="-15.4" font-family="sans-serif" font-size="14.00" fill="#000000"> &#160;Providers</text>
<polygon fill="#fb8072" stroke="transparent" points="2951,-10 2951,-30 2971,-30 2971,-10 2951,-10"/>
<text text-anchor="start" x="2974.7258" y="-15.4" font-family="sans-serif" font-size="14.00" fill="#000000"> &#160;Exports</text>
<g id="clust1" class="cluster">
<title>cluster_InscripcionModule</title>
<polygon fill="none" stroke="#000000" stroke-dasharray="1,5" points="8,-70 8,-268 5578,-268 5578,-70 8,-70"/>
</g>
<g id="clust2" class="cluster">
<title>cluster_InscripcionModule_declarations</title>
<polygon fill="none" stroke="#000000" points="4652,-78 4652,-130 5570,-130 5570,-78 4652,-78"/>
</g>
<g id="clust7" class="cluster">
<title>cluster_InscripcionModule_imports</title>
<polygon fill="none" stroke="#000000" points="2426,-78 2426,-130 4644,-130 4644,-78 2426,-78"/>
</g>
<g id="clust8" class="cluster">
<title>cluster_InscripcionModule_exports</title>
<polygon fill="none" stroke="#000000" points="2758,-208 2758,-260 2910,-260 2910,-208 2758,-208"/>
</g>
<g id="clust10" class="cluster">
<title>cluster_InscripcionModule_providers</title>
<polygon fill="none" stroke="#000000" points="16,-78 16,-130 2418,-130 2418,-78 16,-78"/>
</g>
<!-- CrudExperienciaLaboralComponent -->
<g id="node1" class="node">
<title>CrudExperienciaLaboralComponent</title>
<polygon fill="#ffffb3" stroke="#000000" points="5561.7156,-122 5342.2844,-122 5342.2844,-86 5561.7156,-86 5561.7156,-122"/>
<text text-anchor="middle" x="5452" y="-99.8" font-family="Times,serif" font-size="14.00" fill="#000000">CrudExperienciaLaboralComponent</text>
</g>
<!-- InscripcionModule -->
<g id="node5" class="node">
<title>InscripcionModule</title>
<polygon fill="#8dd3c7" stroke="#000000" points="2895.0269,-187 2892.0269,-191 2871.0269,-191 2868.0269,-187 2772.9731,-187 2772.9731,-151 2895.0269,-151 2895.0269,-187"/>
<text text-anchor="middle" x="2834" y="-164.8" font-family="Times,serif" font-size="14.00" fill="#000000">InscripcionModule</text>
</g>
<!-- CrudExperienciaLaboralComponent&#45;&gt;InscripcionModule -->
<g id="edge1" class="edge">
<title>CrudExperienciaLaboralComponent&#45;&gt;InscripcionModule</title>
<path fill="none" stroke="#000000" d="M5452,-122.3802C5452,-146.2785 5452,-185 5452,-185 5452,-185 2905.1771,-185 2905.1771,-185"/>
<polygon fill="#000000" stroke="#000000" points="2905.1771,-181.5001 2895.1771,-185 2905.177,-188.5001 2905.1771,-181.5001"/>
</g>
<!-- ExperienciaLaboralComponent -->
<g id="node2" class="node">
<title>ExperienciaLaboralComponent</title>
<polygon fill="#ffffb3" stroke="#000000" points="5323.7184,-122 5132.2816,-122 5132.2816,-86 5323.7184,-86 5323.7184,-122"/>
<text text-anchor="middle" x="5228" y="-99.8" font-family="Times,serif" font-size="14.00" fill="#000000">ExperienciaLaboralComponent</text>
</g>
<!-- ExperienciaLaboralComponent&#45;&gt;InscripcionModule -->
<g id="edge2" class="edge">
<title>ExperienciaLaboralComponent&#45;&gt;InscripcionModule</title>
<path fill="none" stroke="#000000" d="M5228,-122.0908C5228,-145.1328 5228,-182 5228,-182 5228,-182 2905.2805,-182 2905.2805,-182"/>
<polygon fill="#000000" stroke="#000000" points="2905.2805,-178.5001 2895.2805,-182 2905.2804,-185.5001 2905.2805,-178.5001"/>
</g>
<!-- ListExperienciaLaboralComponent -->
<g id="node3" class="node">
<title>ListExperienciaLaboralComponent</title>
<polygon fill="#ffffb3" stroke="#000000" points="5113.9972,-122 4900.0028,-122 4900.0028,-86 5113.9972,-86 5113.9972,-122"/>
<text text-anchor="middle" x="5007" y="-99.8" font-family="Times,serif" font-size="14.00" fill="#000000">ListExperienciaLaboralComponent</text>
</g>
<!-- ListExperienciaLaboralComponent&#45;&gt;InscripcionModule -->
<g id="edge3" class="edge">
<title>ListExperienciaLaboralComponent&#45;&gt;InscripcionModule</title>
<path fill="none" stroke="#000000" d="M5007,-122.0109C5007,-144.4852 5007,-180 5007,-180 5007,-180 2905.2457,-180 2905.2457,-180"/>
<polygon fill="#000000" stroke="#000000" points="2905.2457,-176.5001 2895.2457,-180 2905.2456,-183.5001 2905.2457,-176.5001"/>
</g>
<!-- ViewExperienciaLaboralComponent -->
<g id="node4" class="node">
<title>ViewExperienciaLaboralComponent</title>
<polygon fill="#ffffb3" stroke="#000000" points="4882.0366,-122 4659.9634,-122 4659.9634,-86 4882.0366,-86 4882.0366,-122"/>
<text text-anchor="middle" x="4771" y="-99.8" font-family="Times,serif" font-size="14.00" fill="#000000">ViewExperienciaLaboralComponent</text>
</g>
<!-- ViewExperienciaLaboralComponent&#45;&gt;InscripcionModule -->
<g id="edge4" class="edge">
<title>ViewExperienciaLaboralComponent&#45;&gt;InscripcionModule</title>
<path fill="none" stroke="#000000" d="M4771,-122.0449C4771,-143.6623 4771,-177 4771,-177 4771,-177 2905.1698,-177 2905.1698,-177"/>
<polygon fill="#000000" stroke="#000000" points="2905.1698,-173.5001 2895.1698,-177 2905.1697,-180.5001 2905.1698,-173.5001"/>
</g>
<!-- PosgradoComponent  -->
<g id="node19" class="node">
<title>PosgradoComponent </title>
<polygon fill="#fb8072" stroke="#000000" points="2902.4348,-252 2765.5652,-252 2765.5652,-216 2902.4348,-216 2902.4348,-252"/>
<text text-anchor="middle" x="2834" y="-229.8" font-family="Times,serif" font-size="14.00" fill="#000000">PosgradoComponent </text>
</g>
<!-- InscripcionModule&#45;&gt;PosgradoComponent  -->
<g id="edge18" class="edge">
<title>InscripcionModule&#45;&gt;PosgradoComponent </title>
<path fill="none" stroke="#000000" stroke-dasharray="5,2" d="M2834,-187.1061C2834,-187.1061 2834,-205.991 2834,-205.991"/>
<polygon fill="#000000" stroke="#000000" points="2830.5001,-205.9909 2834,-215.991 2837.5001,-205.991 2830.5001,-205.9909"/>
</g>
<!-- DescuentoAcademicoModule -->
<g id="node6" class="node">
<title>DescuentoAcademicoModule</title>
<polygon fill="#8dd3c7" stroke="#000000" points="4636.382,-122 4633.382,-126 4612.382,-126 4609.382,-122 4453.618,-122 4453.618,-86 4636.382,-86 4636.382,-122"/>
<text text-anchor="middle" x="4545" y="-99.8" font-family="Times,serif" font-size="14.00" fill="#000000">DescuentoAcademicoModule</text>
</g>
<!-- DescuentoAcademicoModule&#45;&gt;InscripcionModule -->
<g id="edge5" class="edge">
<title>DescuentoAcademicoModule&#45;&gt;InscripcionModule</title>
<path fill="none" stroke="#000000" d="M4545,-122.2843C4545,-143.3211 4545,-175 4545,-175 4545,-175 2905.1474,-175 2905.1474,-175"/>
<polygon fill="#000000" stroke="#000000" points="2905.1474,-171.5001 2895.1474,-175 2905.1474,-178.5001 2905.1474,-171.5001"/>
</g>
<!-- DocumentoProgramaModule -->
<g id="node7" class="node">
<title>DocumentoProgramaModule</title>
<polygon fill="#8dd3c7" stroke="#000000" points="4435.7906,-122 4432.7906,-126 4411.7906,-126 4408.7906,-122 4256.2094,-122 4256.2094,-86 4435.7906,-86 4435.7906,-122"/>
<text text-anchor="middle" x="4346" y="-99.8" font-family="Times,serif" font-size="14.00" fill="#000000">DocumentoProgramaModule</text>
</g>
<!-- DocumentoProgramaModule&#45;&gt;InscripcionModule -->
<g id="edge6" class="edge">
<title>DocumentoProgramaModule&#45;&gt;InscripcionModule</title>
<path fill="none" stroke="#000000" d="M4346,-122.2228C4346,-142.3652 4346,-172 4346,-172 4346,-172 2905.1449,-172 2905.1449,-172"/>
<polygon fill="#000000" stroke="#000000" points="2905.1449,-168.5001 2895.1449,-172 2905.1448,-175.5001 2905.1449,-168.5001"/>
</g>
<!-- ExperienciaLaboralModule -->
<g id="node8" class="node">
<title>ExperienciaLaboralModule</title>
<polygon fill="#8dd3c7" stroke="#000000" points="4237.9356,-122 4234.9356,-126 4213.9356,-126 4210.9356,-122 4068.0644,-122 4068.0644,-86 4237.9356,-86 4237.9356,-122"/>
<text text-anchor="middle" x="4153" y="-99.8" font-family="Times,serif" font-size="14.00" fill="#000000">ExperienciaLaboralModule</text>
</g>
<!-- ExperienciaLaboralModule&#45;&gt;InscripcionModule -->
<g id="edge7" class="edge">
<title>ExperienciaLaboralModule&#45;&gt;InscripcionModule</title>
<path fill="none" stroke="#000000" d="M4153,-122.1061C4153,-141.3391 4153,-169 4153,-169 4153,-169 2905.4102,-169 2905.4102,-169"/>
<polygon fill="#000000" stroke="#000000" points="2905.4102,-165.5001 2895.4102,-169 2905.4101,-172.5001 2905.4102,-165.5001"/>
</g>
<!-- FormacionAcademicaModule -->
<g id="node9" class="node">
<title>FormacionAcademicaModule</title>
<polygon fill="#8dd3c7" stroke="#000000" points="4049.6643,-122 4046.6643,-126 4025.6643,-126 4022.6643,-122 3866.3357,-122 3866.3357,-86 4049.6643,-86 4049.6643,-122"/>
<text text-anchor="middle" x="3958" y="-99.8" font-family="Times,serif" font-size="14.00" fill="#000000">FormacionAcademicaModule</text>
</g>
<!-- FormacionAcademicaModule&#45;&gt;InscripcionModule -->
<g id="edge8" class="edge">
<title>FormacionAcademicaModule&#45;&gt;InscripcionModule</title>
<path fill="none" stroke="#000000" d="M3958,-122.2222C3958,-140.8285 3958,-167 3958,-167 3958,-167 2905.2293,-167 2905.2293,-167"/>
<polygon fill="#000000" stroke="#000000" points="2905.2294,-163.5001 2895.2293,-167 2905.2293,-170.5001 2905.2294,-163.5001"/>
</g>
<!-- IdiomasModule -->
<g id="node10" class="node">
<title>IdiomasModule</title>
<polygon fill="#8dd3c7" stroke="#000000" points="3848.1514,-122 3845.1514,-126 3824.1514,-126 3821.1514,-122 3743.8486,-122 3743.8486,-86 3848.1514,-86 3848.1514,-122"/>
<text text-anchor="middle" x="3796" y="-99.8" font-family="Times,serif" font-size="14.00" fill="#000000">IdiomasModule</text>
</g>
<!-- IdiomasModule&#45;&gt;InscripcionModule -->
<g id="edge9" class="edge">
<title>IdiomasModule&#45;&gt;InscripcionModule</title>
<path fill="none" stroke="#000000" d="M3796,-122.002C3796,-139.6754 3796,-164 3796,-164 3796,-164 2905.2736,-164 2905.2736,-164"/>
<polygon fill="#000000" stroke="#000000" points="2905.2736,-160.5001 2895.2736,-164 2905.2735,-167.5001 2905.2736,-160.5001"/>
</g>
<!-- InfoCaracteristicaModule -->
<g id="node11" class="node">
<title>InfoCaracteristicaModule</title>
<polygon fill="#8dd3c7" stroke="#000000" points="3725.8235,-122 3722.8235,-126 3701.8235,-126 3698.8235,-122 3566.1765,-122 3566.1765,-86 3725.8235,-86 3725.8235,-122"/>
<text text-anchor="middle" x="3646" y="-99.8" font-family="Times,serif" font-size="14.00" fill="#000000">InfoCaracteristicaModule</text>
</g>
<!-- InfoCaracteristicaModule&#45;&gt;InscripcionModule -->
<g id="edge10" class="edge">
<title>InfoCaracteristicaModule&#45;&gt;InscripcionModule</title>
<path fill="none" stroke="#000000" d="M3646,-122.0336C3646,-139.0597 3646,-162 3646,-162 3646,-162 2905.032,-162 2905.032,-162"/>
<polygon fill="#000000" stroke="#000000" points="2905.032,-158.5001 2895.032,-162 2905.0319,-165.5001 2905.032,-158.5001"/>
</g>
<!-- InfoPersonaModule -->
<g id="node12" class="node">
<title>InfoPersonaModule</title>
<polygon fill="#8dd3c7" stroke="#000000" points="3547.6881,-122 3544.6881,-126 3523.6881,-126 3520.6881,-122 3420.3119,-122 3420.3119,-86 3547.6881,-86 3547.6881,-122"/>
<text text-anchor="middle" x="3484" y="-99.8" font-family="Times,serif" font-size="14.00" fill="#000000">InfoPersonaModule</text>
</g>
<!-- InfoPersonaModule&#45;&gt;InscripcionModule -->
<g id="edge11" class="edge">
<title>InfoPersonaModule&#45;&gt;InscripcionModule</title>
<path fill="none" stroke="#000000" d="M3484,-122.0091C3484,-138.0494 3484,-159 3484,-159 3484,-159 2905.1504,-159 2905.1504,-159"/>
<polygon fill="#000000" stroke="#000000" points="2905.1505,-155.5001 2895.1504,-159 2905.1504,-162.5001 2905.1505,-155.5001"/>
</g>
<!-- InformacionContactoModule -->
<g id="node13" class="node">
<title>InformacionContactoModule</title>
<polygon fill="#8dd3c7" stroke="#000000" points="3402.7892,-122 3399.7892,-126 3378.7892,-126 3375.7892,-122 3223.2108,-122 3223.2108,-86 3402.7892,-86 3402.7892,-122"/>
<text text-anchor="middle" x="3313" y="-99.8" font-family="Times,serif" font-size="14.00" fill="#000000">InformacionContactoModule</text>
</g>
<!-- InformacionContactoModule&#45;&gt;InscripcionModule -->
<g id="edge12" class="edge">
<title>InformacionContactoModule&#45;&gt;InscripcionModule</title>
<path fill="none" stroke="#000000" d="M3313,-122.2396C3313,-137.5706 3313,-157 3313,-157 3313,-157 2905.1522,-157 2905.1522,-157"/>
<polygon fill="#000000" stroke="#000000" points="2905.1522,-153.5001 2895.1522,-157 2905.1522,-160.5001 2905.1522,-153.5001"/>
</g>
<!-- InscripcionRoutingModule -->
<g id="node14" class="node">
<title>InscripcionRoutingModule</title>
<polygon fill="#8dd3c7" stroke="#000000" points="3205.6442,-122 3202.6442,-126 3181.6442,-126 3178.6442,-122 3038.3558,-122 3038.3558,-86 3205.6442,-86 3205.6442,-122"/>
<text text-anchor="middle" x="3122" y="-99.8" font-family="Times,serif" font-size="14.00" fill="#000000">InscripcionRoutingModule</text>
</g>
<!-- InscripcionRoutingModule&#45;&gt;InscripcionModule -->
<g id="edge13" class="edge">
<title>InscripcionRoutingModule&#45;&gt;InscripcionModule</title>
<path fill="none" stroke="#000000" d="M3122,-122.0511C3122,-136.373 3122,-154 3122,-154 3122,-154 2905.0774,-154 2905.0774,-154"/>
<polygon fill="#000000" stroke="#000000" points="2905.0774,-150.5001 2895.0774,-154 2905.0774,-157.5001 2905.0774,-150.5001"/>
</g>
<!-- ProduccionAcademicaModule -->
<g id="node15" class="node">
<title>ProduccionAcademicaModule</title>
<polygon fill="#8dd3c7" stroke="#000000" points="3020.2738,-122 3017.2738,-126 2996.2738,-126 2993.2738,-122 2833.7262,-122 2833.7262,-86 3020.2738,-86 3020.2738,-122"/>
<text text-anchor="middle" x="2927" y="-99.8" font-family="Times,serif" font-size="14.00" fill="#000000">ProduccionAcademicaModule</text>
</g>
<!-- ProduccionAcademicaModule&#45;&gt;InscripcionModule -->
<g id="edge14" class="edge">
<title>ProduccionAcademicaModule&#45;&gt;InscripcionModule</title>
<path fill="none" stroke="#000000" d="M2864.5631,-122.1061C2864.5631,-122.1061 2864.5631,-140.991 2864.5631,-140.991"/>
<polygon fill="#000000" stroke="#000000" points="2861.0632,-140.9909 2864.5631,-150.991 2868.0632,-140.991 2861.0632,-140.9909"/>
</g>
<!-- PropuestaGradoModule -->
<g id="node16" class="node">
<title>PropuestaGradoModule</title>
<polygon fill="#8dd3c7" stroke="#000000" points="2815.7394,-122 2812.7394,-126 2791.7394,-126 2788.7394,-122 2666.2606,-122 2666.2606,-86 2815.7394,-86 2815.7394,-122"/>
<text text-anchor="middle" x="2741" y="-99.8" font-family="Times,serif" font-size="14.00" fill="#000000">PropuestaGradoModule</text>
</g>
<!-- PropuestaGradoModule&#45;&gt;InscripcionModule -->
<g id="edge15" class="edge">
<title>PropuestaGradoModule&#45;&gt;InscripcionModule</title>
<path fill="none" stroke="#000000" d="M2794.3033,-122.1061C2794.3033,-122.1061 2794.3033,-140.991 2794.3033,-140.991"/>
<polygon fill="#000000" stroke="#000000" points="2790.8034,-140.9909 2794.3033,-150.991 2797.8034,-140.991 2790.8034,-140.9909"/>
</g>
<!-- SharedModule -->
<g id="node17" class="node">
<title>SharedModule</title>
<polygon fill="#8dd3c7" stroke="#000000" points="2648.4231,-122 2645.4231,-126 2624.4231,-126 2621.4231,-122 2549.5769,-122 2549.5769,-86 2648.4231,-86 2648.4231,-122"/>
<text text-anchor="middle" x="2599" y="-99.8" font-family="Times,serif" font-size="14.00" fill="#000000">SharedModule</text>
</g>
<!-- SharedModule&#45;&gt;InscripcionModule -->
<g id="edge16" class="edge">
<title>SharedModule&#45;&gt;InscripcionModule</title>
<path fill="none" stroke="#000000" d="M2599,-122.0511C2599,-136.373 2599,-154 2599,-154 2599,-154 2762.87,-154 2762.87,-154"/>
<polygon fill="#000000" stroke="#000000" points="2762.87,-157.5001 2772.87,-154 2762.8699,-150.5001 2762.87,-157.5001"/>
</g>
<!-- ThemeModule -->
<g id="node18" class="node">
<title>ThemeModule</title>
<polygon fill="#8dd3c7" stroke="#000000" points="2532.4231,-122 2529.4231,-126 2508.4231,-126 2505.4231,-122 2433.5769,-122 2433.5769,-86 2532.4231,-86 2532.4231,-122"/>
<text text-anchor="middle" x="2483" y="-99.8" font-family="Times,serif" font-size="14.00" fill="#000000">ThemeModule</text>
</g>
<!-- ThemeModule&#45;&gt;InscripcionModule -->
<g id="edge17" class="edge">
<title>ThemeModule&#45;&gt;InscripcionModule</title>
<path fill="none" stroke="#000000" d="M2483,-122.2396C2483,-137.5706 2483,-157 2483,-157 2483,-157 2762.8605,-157 2762.8605,-157"/>
<polygon fill="#000000" stroke="#000000" points="2762.8605,-160.5001 2772.8605,-157 2762.8604,-153.5001 2762.8605,-160.5001"/>
</g>
<!-- CampusMidService -->
<g id="node20" class="node">
<title>CampusMidService</title>
<ellipse fill="#fdb462" stroke="#000000" cx="2322" cy="-104" rx="87.98" ry="18"/>
<text text-anchor="middle" x="2322" y="-99.8" font-family="Times,serif" font-size="14.00" fill="#000000">CampusMidService</text>
</g>
<!-- CampusMidService&#45;&gt;InscripcionModule -->
<g id="edge19" class="edge">
<title>CampusMidService&#45;&gt;InscripcionModule</title>
<path fill="none" stroke="#000000" d="M2322,-122.0091C2322,-138.0494 2322,-159 2322,-159 2322,-159 2762.7494,-159 2762.7494,-159"/>
<polygon fill="#000000" stroke="#000000" points="2762.7494,-162.5001 2772.7494,-159 2762.7494,-155.5001 2762.7494,-162.5001"/>
</g>
<!-- DescuentoAcademicoService -->
<g id="node21" class="node">
<title>DescuentoAcademicoService</title>
<ellipse fill="#fdb462" stroke="#000000" cx="2092" cy="-104" rx="124.9384" ry="18"/>
<text text-anchor="middle" x="2092" y="-99.8" font-family="Times,serif" font-size="14.00" fill="#000000">DescuentoAcademicoService</text>
</g>
<!-- DescuentoAcademicoService&#45;&gt;InscripcionModule -->
<g id="edge20" class="edge">
<title>DescuentoAcademicoService&#45;&gt;InscripcionModule</title>
<path fill="none" stroke="#000000" d="M2092,-122.0336C2092,-139.0597 2092,-162 2092,-162 2092,-162 2762.9637,-162 2762.9637,-162"/>
<polygon fill="#000000" stroke="#000000" points="2762.9638,-165.5001 2772.9637,-162 2762.9637,-158.5001 2762.9638,-165.5001"/>
</g>
<!-- DocumentoProgramaService -->
<g id="node22" class="node">
<title>DocumentoProgramaService</title>
<ellipse fill="#fdb462" stroke="#000000" cx="1827" cy="-104" rx="122.6736" ry="18"/>
<text text-anchor="middle" x="1827" y="-99.8" font-family="Times,serif" font-size="14.00" fill="#000000">DocumentoProgramaService</text>
</g>
<!-- DocumentoProgramaService&#45;&gt;InscripcionModule -->
<g id="edge21" class="edge">
<title>DocumentoProgramaService&#45;&gt;InscripcionModule</title>
<path fill="none" stroke="#000000" d="M1827,-122.002C1827,-139.6754 1827,-164 1827,-164 1827,-164 2762.9,-164 2762.9,-164"/>
<polygon fill="#000000" stroke="#000000" points="2762.9,-167.5001 2772.9,-164 2762.8999,-160.5001 2762.9,-167.5001"/>
</g>
<!-- ImplicitAutenticationService -->
<g id="node23" class="node">
<title>ImplicitAutenticationService</title>
<ellipse fill="#fdb462" stroke="#000000" cx="1563" cy="-104" rx="123.2649" ry="18"/>
<text text-anchor="middle" x="1563" y="-99.8" font-family="Times,serif" font-size="14.00" fill="#000000">ImplicitAutenticationService</text>
</g>
<!-- ImplicitAutenticationService&#45;&gt;InscripcionModule -->
<g id="edge22" class="edge">
<title>ImplicitAutenticationService&#45;&gt;InscripcionModule</title>
<path fill="none" stroke="#000000" d="M1563,-122.2222C1563,-140.8285 1563,-167 1563,-167 1563,-167 2762.697,-167 2762.697,-167"/>
<polygon fill="#000000" stroke="#000000" points="2762.6971,-170.5001 2772.697,-167 2762.697,-163.5001 2762.6971,-170.5001"/>
</g>
<!-- NuxeoService -->
<g id="node24" class="node">
<title>NuxeoService</title>
<ellipse fill="#fdb462" stroke="#000000" cx="1356" cy="-104" rx="65.9716" ry="18"/>
<text text-anchor="middle" x="1356" y="-99.8" font-family="Times,serif" font-size="14.00" fill="#000000">NuxeoService</text>
</g>
<!-- NuxeoService&#45;&gt;InscripcionModule -->
<g id="edge23" class="edge">
<title>NuxeoService&#45;&gt;InscripcionModule</title>
<path fill="none" stroke="#000000" d="M1356,-122.1061C1356,-141.3391 1356,-169 1356,-169 1356,-169 2762.8403,-169 2762.8403,-169"/>
<polygon fill="#000000" stroke="#000000" points="2762.8404,-172.5001 2772.8403,-169 2762.8403,-165.5001 2762.8404,-172.5001"/>
</g>
<!-- PersonaService -->
<g id="node25" class="node">
<title>PersonaService</title>
<ellipse fill="#fdb462" stroke="#000000" cx="1202" cy="-104" rx="70.622" ry="18"/>
<text text-anchor="middle" x="1202" y="-99.8" font-family="Times,serif" font-size="14.00" fill="#000000">PersonaService</text>
</g>
<!-- PersonaService&#45;&gt;InscripcionModule -->
<g id="edge24" class="edge">
<title>PersonaService&#45;&gt;InscripcionModule</title>
<path fill="none" stroke="#000000" d="M1202,-122.2228C1202,-142.3652 1202,-172 1202,-172 1202,-172 2762.5103,-172 2762.5103,-172"/>
<polygon fill="#000000" stroke="#000000" points="2762.5103,-175.5001 2772.5103,-172 2762.5102,-168.5001 2762.5103,-175.5001"/>
</g>
<!-- ProduccionAcademicaService -->
<g id="node26" class="node">
<title>ProduccionAcademicaService</title>
<ellipse fill="#fdb462" stroke="#000000" cx="986" cy="-104" rx="127.3074" ry="18"/>
<text text-anchor="middle" x="986" y="-99.8" font-family="Times,serif" font-size="14.00" fill="#000000">ProduccionAcademicaService</text>
</g>
<!-- ProduccionAcademicaService&#45;&gt;InscripcionModule -->
<g id="edge25" class="edge">
<title>ProduccionAcademicaService&#45;&gt;InscripcionModule</title>
<path fill="none" stroke="#000000" d="M986,-122.2843C986,-143.3211 986,-175 986,-175 986,-175 2762.7772,-175 2762.7772,-175"/>
<polygon fill="#000000" stroke="#000000" points="2762.7772,-178.5001 2772.7772,-175 2762.7771,-171.5001 2762.7772,-178.5001"/>
</g>
<!-- ProgramaAcademicoService -->
<g id="node27" class="node">
<title>ProgramaAcademicoService</title>
<ellipse fill="#fdb462" stroke="#000000" cx="719" cy="-104" rx="121.5065" ry="18"/>
<text text-anchor="middle" x="719" y="-99.8" font-family="Times,serif" font-size="14.00" fill="#000000">ProgramaAcademicoService</text>
</g>
<!-- ProgramaAcademicoService&#45;&gt;InscripcionModule -->
<g id="edge26" class="edge">
<title>ProgramaAcademicoService&#45;&gt;InscripcionModule</title>
<path fill="none" stroke="#000000" d="M719,-122.0449C719,-143.6623 719,-177 719,-177 719,-177 2762.7001,-177 2762.7001,-177"/>
<polygon fill="#000000" stroke="#000000" points="2762.7001,-180.5001 2772.7001,-177 2762.7001,-173.5001 2762.7001,-180.5001"/>
</g>
<!-- ProgramaOikosService -->
<g id="node28" class="node">
<title>ProgramaOikosService</title>
<ellipse fill="#fdb462" stroke="#000000" cx="479" cy="-104" rx="100.6998" ry="18"/>
<text text-anchor="middle" x="479" y="-99.8" font-family="Times,serif" font-size="14.00" fill="#000000">ProgramaOikosService</text>
</g>
<!-- ProgramaOikosService&#45;&gt;InscripcionModule -->
<g id="edge27" class="edge">
<title>ProgramaOikosService&#45;&gt;InscripcionModule</title>
<path fill="none" stroke="#000000" d="M479,-122.0109C479,-144.4852 479,-180 479,-180 479,-180 2762.8211,-180 2762.8211,-180"/>
<polygon fill="#000000" stroke="#000000" points="2762.8212,-183.5001 2772.8211,-180 2762.8211,-176.5001 2762.8212,-183.5001"/>
</g>
<!-- UbicacionService -->
<g id="node29" class="node">
<title>UbicacionService</title>
<ellipse fill="#fdb462" stroke="#000000" cx="281" cy="-104" rx="79.8527" ry="18"/>
<text text-anchor="middle" x="281" y="-99.8" font-family="Times,serif" font-size="14.00" fill="#000000">UbicacionService</text>
</g>
<!-- UbicacionService&#45;&gt;InscripcionModule -->
<g id="edge28" class="edge">
<title>UbicacionService&#45;&gt;InscripcionModule</title>
<path fill="none" stroke="#000000" d="M281,-122.0908C281,-145.1328 281,-182 281,-182 281,-182 2762.7848,-182 2762.7848,-182"/>
<polygon fill="#000000" stroke="#000000" points="2762.7848,-185.5001 2772.7848,-182 2762.7848,-178.5001 2762.7848,-185.5001"/>
</g>
<!-- UtilidadesService -->
<g id="node30" class="node">
<title>UtilidadesService</title>
<ellipse fill="#fdb462" stroke="#000000" cx="104" cy="-104" rx="79.8682" ry="18"/>
<text text-anchor="middle" x="104" y="-99.8" font-family="Times,serif" font-size="14.00" fill="#000000">UtilidadesService</text>
</g>
<!-- UtilidadesService&#45;&gt;InscripcionModule -->
<g id="edge29" class="edge">
<title>UtilidadesService&#45;&gt;InscripcionModule</title>
<path fill="none" stroke="#000000" d="M104,-122.3802C104,-146.2785 104,-185 104,-185 104,-185 2762.8282,-185 2762.8282,-185"/>
<polygon fill="#000000" stroke="#000000" points="2762.8282,-188.5001 2772.8282,-185 2762.8282,-181.5001 2762.8282,-188.5001"/>
</g>
</g>
</svg>
