<?xml version="1.0" encoding="UTF-8" standalone="no"?>
<!DOCTYPE svg PUBLIC "-//W3C//DTD SVG 1.1//EN"
 "http://www.w3.org/Graphics/SVG/1.1/DTD/svg11.dtd">
<!-- Generated by graphviz version 2.40.1 (20161225.0304)
 -->
<!-- Title: dependencies Pages: 1 -->
<svg width="2092pt" height="284pt"
 viewBox="0.00 0.00 2092.00 284.00" xmlns="http://www.w3.org/2000/svg" xmlns:xlink="http://www.w3.org/1999/xlink">
<g id="graph0" class="graph" transform="scale(1 1) rotate(0) translate(4 280)">
<title>dependencies</title>
<polygon fill="#ffffff" stroke="transparent" points="-4,4 -4,-280 2088,-280 2088,4 -4,4"/>
<text text-anchor="start" x="1021.0091" y="-42.4" font-family="sans-serif" font-weight="bold" font-size="14.00" fill="#000000">Legend</text>
<polygon fill="#ffffb3" stroke="transparent" points="808,-10 808,-30 828,-30 828,-10 808,-10"/>
<text text-anchor="start" x="831.629" y="-15.4" font-family="sans-serif" font-size="14.00" fill="#000000"> &#160;Declarations</text>
<polygon fill="#8dd3c7" stroke="transparent" points="921,-10 921,-30 941,-30 941,-10 921,-10"/>
<text text-anchor="start" x="944.7251" y="-15.4" font-family="sans-serif" font-size="14.00" fill="#000000"> &#160;Module</text>
<polygon fill="#80b1d3" stroke="transparent" points="1007,-10 1007,-30 1027,-30 1027,-10 1007,-10"/>
<text text-anchor="start" x="1030.7812" y="-15.4" font-family="sans-serif" font-size="14.00" fill="#000000"> &#160;Bootstrap</text>
<polygon fill="#fdb462" stroke="transparent" points="1104,-10 1104,-30 1124,-30 1124,-10 1104,-10"/>
<text text-anchor="start" x="1127.6732" y="-15.4" font-family="sans-serif" font-size="14.00" fill="#000000"> &#160;Providers</text>
<polygon fill="#fb8072" stroke="transparent" points="1200,-10 1200,-30 1220,-30 1220,-10 1200,-10"/>
<text text-anchor="start" x="1223.7258" y="-15.4" font-family="sans-serif" font-size="14.00" fill="#000000"> &#160;Exports</text>
<g id="clust1" class="cluster">
<title>cluster_FormacionAcademicaModule</title>
<polygon fill="none" stroke="#000000" stroke-dasharray="1,5" points="8,-70 8,-268 2076,-268 2076,-70 8,-70"/>
</g>
<g id="clust2" class="cluster">
<title>cluster_FormacionAcademicaModule_declarations</title>
<polygon fill="none" stroke="#000000" points="1102,-78 1102,-130 2068,-130 2068,-78 1102,-78"/>
</g>
<g id="clust7" class="cluster">
<title>cluster_FormacionAcademicaModule_imports</title>
<polygon fill="none" stroke="#000000" points="618,-78 618,-130 1094,-130 1094,-78 618,-78"/>
</g>
<g id="clust8" class="cluster">
<title>cluster_FormacionAcademicaModule_exports</title>
<polygon fill="none" stroke="#000000" points="502,-208 502,-260 1258,-260 1258,-208 502,-208"/>
</g>
<g id="clust10" class="cluster">
<title>cluster_FormacionAcademicaModule_providers</title>
<polygon fill="none" stroke="#000000" points="16,-78 16,-130 610,-130 610,-78 16,-78"/>
</g>
<!-- CrudDescuentoAcademicoComponent -->
<g id="node1" class="node">
<title>CrudDescuentoAcademicoComponent</title>
<polygon fill="#ffffb3" stroke="#000000" points="2060.1615,-122 1827.8385,-122 1827.8385,-86 2060.1615,-86 2060.1615,-122"/>
<text text-anchor="middle" x="1944" y="-99.8" font-family="Times,serif" font-size="14.00" fill="#000000">CrudDescuentoAcademicoComponent</text>
</g>
<!-- FormacionAcademicaModule -->
<g id="node5" class="node">
<title>FormacionAcademicaModule</title>
<polygon fill="#8dd3c7" stroke="#000000" points="972.6643,-187 969.6643,-191 948.6643,-191 945.6643,-187 789.3357,-187 789.3357,-151 972.6643,-151 972.6643,-187"/>
<text text-anchor="middle" x="881" y="-164.8" font-family="Times,serif" font-size="14.00" fill="#000000">FormacionAcademicaModule</text>
</g>
<!-- CrudDescuentoAcademicoComponent&#45;&gt;FormacionAcademicaModule -->
<g id="edge1" class="edge">
<title>CrudDescuentoAcademicoComponent&#45;&gt;FormacionAcademicaModule</title>
<path fill="none" stroke="#000000" d="M1944,-122.2843C1944,-143.3211 1944,-175 1944,-175 1944,-175 983.0123,-175 983.0123,-175"/>
<polygon fill="#000000" stroke="#000000" points="983.0123,-171.5001 973.0123,-175 983.0122,-178.5001 983.0123,-171.5001"/>
</g>
<!-- DescuentoAcademicoComponent -->
<g id="node2" class="node">
<title>DescuentoAcademicoComponent</title>
<polygon fill="#ffffb3" stroke="#000000" points="1810.1643,-122 1605.8357,-122 1605.8357,-86 1810.1643,-86 1810.1643,-122"/>
<text text-anchor="middle" x="1708" y="-99.8" font-family="Times,serif" font-size="14.00" fill="#000000">DescuentoAcademicoComponent</text>
</g>
<!-- DescuentoAcademicoComponent&#45;&gt;FormacionAcademicaModule -->
<g id="edge2" class="edge">
<title>DescuentoAcademicoComponent&#45;&gt;FormacionAcademicaModule</title>
<path fill="none" stroke="#000000" d="M1708,-122.1061C1708,-141.3391 1708,-169 1708,-169 1708,-169 982.6633,-169 982.6633,-169"/>
<polygon fill="#000000" stroke="#000000" points="982.6633,-165.5001 972.6633,-169 982.6632,-172.5001 982.6633,-165.5001"/>
</g>
<!-- ListDescuentoAcademicoComponent -->
<g id="node3" class="node">
<title>ListDescuentoAcademicoComponent</title>
<polygon fill="#ffffb3" stroke="#000000" points="1587.9426,-122 1362.0574,-122 1362.0574,-86 1587.9426,-86 1587.9426,-122"/>
<text text-anchor="middle" x="1475" y="-99.8" font-family="Times,serif" font-size="14.00" fill="#000000">ListDescuentoAcademicoComponent</text>
</g>
<!-- ListDescuentoAcademicoComponent&#45;&gt;FormacionAcademicaModule -->
<g id="edge3" class="edge">
<title>ListDescuentoAcademicoComponent&#45;&gt;FormacionAcademicaModule</title>
<path fill="none" stroke="#000000" d="M1475,-122.0225C1475,-139.3734 1475,-163 1475,-163 1475,-163 982.8355,-163 982.8355,-163"/>
<polygon fill="#000000" stroke="#000000" points="982.8356,-159.5001 972.8355,-163 982.8355,-166.5001 982.8356,-159.5001"/>
</g>
<!-- ViewDescuentoAcademicoComponent -->
<g id="node4" class="node">
<title>ViewDescuentoAcademicoComponent</title>
<polygon fill="#ffffb3" stroke="#000000" points="1344.4831,-122 1109.5169,-122 1109.5169,-86 1344.4831,-86 1344.4831,-122"/>
<text text-anchor="middle" x="1227" y="-99.8" font-family="Times,serif" font-size="14.00" fill="#000000">ViewDescuentoAcademicoComponent</text>
</g>
<!-- ViewDescuentoAcademicoComponent&#45;&gt;FormacionAcademicaModule -->
<g id="edge4" class="edge">
<title>ViewDescuentoAcademicoComponent&#45;&gt;FormacionAcademicaModule</title>
<path fill="none" stroke="#000000" d="M1179.9904,-122.2396C1179.9904,-137.5706 1179.9904,-157 1179.9904,-157 1179.9904,-157 982.7389,-157 982.7389,-157"/>
<polygon fill="#000000" stroke="#000000" points="982.7389,-153.5001 972.7389,-157 982.7388,-160.5001 982.7389,-153.5001"/>
</g>
<!-- CrudFormacionAcademicaComponent  -->
<g id="node9" class="node">
<title>CrudFormacionAcademicaComponent </title>
<polygon fill="#fb8072" stroke="#000000" points="1250.4444,-252 1013.5556,-252 1013.5556,-216 1250.4444,-216 1250.4444,-252"/>
<text text-anchor="middle" x="1132" y="-229.8" font-family="Times,serif" font-size="14.00" fill="#000000">CrudFormacionAcademicaComponent </text>
</g>
<!-- FormacionAcademicaModule&#45;&gt;CrudFormacionAcademicaComponent  -->
<g id="edge8" class="edge">
<title>FormacionAcademicaModule&#45;&gt;CrudFormacionAcademicaComponent </title>
<path fill="none" stroke="#000000" stroke-dasharray="5,2" d="M972.8962,-181C1012.5246,-181 1049.9595,-181 1049.9595,-181 1049.9595,-181 1049.9595,-205.7604 1049.9595,-205.7604"/>
<polygon fill="#000000" stroke="#000000" points="1046.4596,-205.7604 1049.9595,-215.7604 1053.4596,-205.7604 1046.4596,-205.7604"/>
</g>
<!-- ListFormacionAcademicaComponent  -->
<g id="node10" class="node">
<title>ListFormacionAcademicaComponent </title>
<polygon fill="#fb8072" stroke="#000000" points="996.2253,-252 765.7747,-252 765.7747,-216 996.2253,-216 996.2253,-252"/>
<text text-anchor="middle" x="881" y="-229.8" font-family="Times,serif" font-size="14.00" fill="#000000">ListFormacionAcademicaComponent </text>
</g>
<!-- FormacionAcademicaModule&#45;&gt;ListFormacionAcademicaComponent  -->
<g id="edge9" class="edge">
<title>FormacionAcademicaModule&#45;&gt;ListFormacionAcademicaComponent </title>
<path fill="none" stroke="#000000" stroke-dasharray="5,2" d="M881,-187.1061C881,-187.1061 881,-205.991 881,-205.991"/>
<polygon fill="#000000" stroke="#000000" points="877.5001,-205.9909 881,-215.991 884.5001,-205.991 877.5001,-205.9909"/>
</g>
<!-- ViewFormacionAcademicaComponent  -->
<g id="node11" class="node">
<title>ViewFormacionAcademicaComponent </title>
<polygon fill="#fb8072" stroke="#000000" points="748.2653,-252 509.7347,-252 509.7347,-216 748.2653,-216 748.2653,-252"/>
<text text-anchor="middle" x="629" y="-229.8" font-family="Times,serif" font-size="14.00" fill="#000000">ViewFormacionAcademicaComponent </text>
</g>
<!-- FormacionAcademicaModule&#45;&gt;ViewFormacionAcademicaComponent  -->
<g id="edge10" class="edge">
<title>FormacionAcademicaModule&#45;&gt;ViewFormacionAcademicaComponent </title>
<path fill="none" stroke="#000000" stroke-dasharray="5,2" d="M789.3747,-181C759.0975,-181 733,-181 733,-181 733,-181 733,-205.7604 733,-205.7604"/>
<polygon fill="#000000" stroke="#000000" points="729.5001,-205.7604 733,-215.7604 736.5001,-205.7604 729.5001,-205.7604"/>
</g>
<!-- FormacionAcademicaRoutingModule -->
<g id="node6" class="node">
<title>FormacionAcademicaRoutingModule</title>
<polygon fill="#8dd3c7" stroke="#000000" points="1086.2822,-122 1083.2822,-126 1062.2822,-126 1059.2822,-122 857.7178,-122 857.7178,-86 1086.2822,-86 1086.2822,-122"/>
<text text-anchor="middle" x="972" y="-99.8" font-family="Times,serif" font-size="14.00" fill="#000000">FormacionAcademicaRoutingModule</text>
</g>
<!-- FormacionAcademicaRoutingModule&#45;&gt;FormacionAcademicaModule -->
<g id="edge5" class="edge">
<title>FormacionAcademicaRoutingModule&#45;&gt;FormacionAcademicaModule</title>
<path fill="none" stroke="#000000" d="M915.2206,-122.1061C915.2206,-122.1061 915.2206,-140.991 915.2206,-140.991"/>
<polygon fill="#000000" stroke="#000000" points="911.7206,-140.9909 915.2206,-150.991 918.7206,-140.991 911.7206,-140.9909"/>
</g>
<!-- SharedModule -->
<g id="node7" class="node">
<title>SharedModule</title>
<polygon fill="#8dd3c7" stroke="#000000" points="840.4231,-122 837.4231,-126 816.4231,-126 813.4231,-122 741.5769,-122 741.5769,-86 840.4231,-86 840.4231,-122"/>
<text text-anchor="middle" x="791" y="-99.8" font-family="Times,serif" font-size="14.00" fill="#000000">SharedModule</text>
</g>
<!-- SharedModule&#45;&gt;FormacionAcademicaModule -->
<g id="edge6" class="edge">
<title>SharedModule&#45;&gt;FormacionAcademicaModule</title>
<path fill="none" stroke="#000000" d="M814.8145,-122.1061C814.8145,-122.1061 814.8145,-140.991 814.8145,-140.991"/>
<polygon fill="#000000" stroke="#000000" points="811.3146,-140.9909 814.8145,-150.991 818.3146,-140.991 811.3146,-140.9909"/>
</g>
<!-- ThemeModule -->
<g id="node8" class="node">
<title>ThemeModule</title>
<polygon fill="#8dd3c7" stroke="#000000" points="724.4231,-122 721.4231,-126 700.4231,-126 697.4231,-122 625.5769,-122 625.5769,-86 724.4231,-86 724.4231,-122"/>
<text text-anchor="middle" x="675" y="-99.8" font-family="Times,serif" font-size="14.00" fill="#000000">ThemeModule</text>
</g>
<!-- ThemeModule&#45;&gt;FormacionAcademicaModule -->
<g id="edge7" class="edge">
<title>ThemeModule&#45;&gt;FormacionAcademicaModule</title>
<path fill="none" stroke="#000000" d="M675,-122.2396C675,-137.5706 675,-157 675,-157 675,-157 779.1456,-157 779.1456,-157"/>
<polygon fill="#000000" stroke="#000000" points="779.1456,-160.5001 789.1456,-157 779.1456,-153.5001 779.1456,-160.5001"/>
</g>
<!-- CampusMidService -->
<g id="node12" class="node">
<title>CampusMidService</title>
<ellipse fill="#fdb462" stroke="#000000" cx="514" cy="-104" rx="87.98" ry="18"/>
<text text-anchor="middle" x="514" y="-99.8" font-family="Times,serif" font-size="14.00" fill="#000000">CampusMidService</text>
</g>
<!-- CampusMidService&#45;&gt;FormacionAcademicaModule -->
<g id="edge11" class="edge">
<title>CampusMidService&#45;&gt;FormacionAcademicaModule</title>
<path fill="none" stroke="#000000" d="M555.6785,-120.122C555.6785,-137.5908 555.6785,-163 555.6785,-163 555.6785,-163 779.0804,-163 779.0804,-163"/>
<polygon fill="#000000" stroke="#000000" points="779.0804,-166.5001 789.0804,-163 779.0804,-159.5001 779.0804,-166.5001"/>
</g>
<!-- FormacionAcademicaService -->
<g id="node13" class="node">
<title>FormacionAcademicaService</title>
<ellipse fill="#fdb462" stroke="#000000" cx="283" cy="-104" rx="125.0182" ry="18"/>
<text text-anchor="middle" x="283" y="-99.8" font-family="Times,serif" font-size="14.00" fill="#000000">FormacionAcademicaService</text>
</g>
<!-- FormacionAcademicaService&#45;&gt;FormacionAcademicaModule -->
<g id="edge12" class="edge">
<title>FormacionAcademicaService&#45;&gt;FormacionAcademicaModule</title>
<path fill="none" stroke="#000000" d="M283,-122.1061C283,-141.3391 283,-169 283,-169 283,-169 779.1996,-169 779.1996,-169"/>
<polygon fill="#000000" stroke="#000000" points="779.1996,-172.5001 789.1996,-169 779.1996,-165.5001 779.1996,-172.5001"/>
</g>
<!-- UserService -->
<g id="node14" class="node">
<title>UserService</title>
<ellipse fill="#fdb462" stroke="#000000" cx="82" cy="-104" rx="58.4415" ry="18"/>
<text text-anchor="middle" x="82" y="-99.8" font-family="Times,serif" font-size="14.00" fill="#000000">UserService</text>
</g>
<!-- UserService&#45;&gt;FormacionAcademicaModule -->
<g id="edge13" class="edge">
<title>UserService&#45;&gt;FormacionAcademicaModule</title>
<path fill="none" stroke="#000000" d="M82,-122.2843C82,-143.3211 82,-175 82,-175 82,-175 779.3445,-175 779.3445,-175"/>
<polygon fill="#000000" stroke="#000000" points="779.3446,-178.5001 789.3445,-175 779.3445,-171.5001 779.3446,-178.5001"/>
</g>
</g>
</svg>
